<svg width="155" height="52" viewBox="0 0 155 52" fill="none" xmlns="http://www.w3.org/2000/svg">
<rect x="1" y="1" width="153" height="50" rx="5" fill="black" stroke="black"/>
<path d="M47.6475 26.8567C47.6475 24.3845 48.9873 22.2278 50.975 21.0856C49.9371 19.8012 48.3758 18.6501 46.6547 18.3123C44.3078 17.8512 42.969 18.6189 42.103 18.9267C41.2369 19.2345 40.0866 19.5112 40.0866 19.5112C40.0866 19.5112 38.9374 19.2345 38.0702 18.9267C37.2053 18.6189 35.8665 17.8501 33.5196 18.3112C31.1727 18.7723 29.1232 20.7467 28.2902 22.5067C26.6837 25.9034 27.3449 30.1767 28.4798 33.2501C29.6136 36.3245 32.6117 40.6201 34.9366 40.9656C36.5904 41.2112 37.6141 40.0589 40.0866 39.7667C42.5591 40.0589 43.5828 41.2112 45.2366 40.9656C47.5615 40.6201 50.5596 36.3245 51.6934 33.2501C51.721 33.1745 51.7496 33.0967 51.7772 33.0189C49.3564 32.0389 47.6475 29.6489 47.6475 26.8567ZM39.4993 17.7501C39.4993 17.7501 41.7989 18.0578 43.8869 15.6667C45.9749 13.2756 45.381 11.0134 45.381 11.0134C45.381 11.0134 43.0814 10.7056 40.9934 13.0967C38.9054 15.4878 39.4993 17.7501 39.4993 17.7501Z" fill="white"/>
<path d="M66.215 26.26H68.525L72.56 37H70.325L69.44 34.435H65.3L64.415 37H62.18L66.215 26.26ZM68.78 32.575L67.82 29.89L67.43 28.585H67.31L66.92 29.89L65.96 32.575H68.78ZM73.5905 29.65H75.4355V30.535H75.5555C75.7355 30.225 76.0155 29.96 76.3955 29.74C76.7755 29.52 77.2455 29.41 77.8055 29.41C78.2755 29.41 78.7205 29.51 79.1405 29.71C79.5705 29.9 79.9455 30.17 80.2655 30.52C80.5955 30.86 80.8555 31.27 81.0455 31.75C81.2355 32.23 81.3305 32.755 81.3305 33.325C81.3305 33.895 81.2355 34.42 81.0455 34.9C80.8555 35.38 80.5955 35.795 80.2655 36.145C79.9455 36.485 79.5705 36.755 79.1405 36.955C78.7205 37.145 78.2755 37.24 77.8055 37.24C77.2455 37.24 76.7755 37.13 76.3955 36.91C76.0155 36.69 75.7355 36.425 75.5555 36.115H75.4355L75.5555 37.165V40.24H73.5905V29.65ZM77.4005 35.425C77.6605 35.425 77.9055 35.375 78.1355 35.275C78.3755 35.175 78.5855 35.035 78.7655 34.855C78.9455 34.675 79.0905 34.455 79.2005 34.195C79.3105 33.935 79.3655 33.645 79.3655 33.325C79.3655 33.005 79.3105 32.715 79.2005 32.455C79.0905 32.195 78.9455 31.975 78.7655 31.795C78.5855 31.615 78.3755 31.475 78.1355 31.375C77.9055 31.275 77.6605 31.225 77.4005 31.225C77.1405 31.225 76.8905 31.275 76.6505 31.375C76.4205 31.465 76.2155 31.6 76.0355 31.78C75.8555 31.96 75.7105 32.18 75.6005 32.44C75.4905 32.7 75.4355 32.995 75.4355 33.325C75.4355 33.655 75.4905 33.95 75.6005 34.21C75.7105 34.47 75.8555 34.69 76.0355 34.87C76.2155 35.05 76.4205 35.19 76.6505 35.29C76.8905 35.38 77.1405 35.425 77.4005 35.425ZM82.3796 29.65H84.2246V30.535H84.3446C84.5246 30.225 84.8046 29.96 85.1846 29.74C85.5646 29.52 86.0346 29.41 86.5946 29.41C87.0646 29.41 87.5096 29.51 87.9296 29.71C88.3596 29.9 88.7346 30.17 89.0546 30.52C89.3846 30.86 89.6446 31.27 89.8346 31.75C90.0246 32.23 90.1196 32.755 90.1196 33.325C90.1196 33.895 90.0246 34.42 89.8346 34.9C89.6446 35.38 89.3846 35.795 89.0546 36.145C88.7346 36.485 88.3596 36.755 87.9296 36.955C87.5096 37.145 87.0646 37.24 86.5946 37.24C86.0346 37.24 85.5646 37.13 85.1846 36.91C84.8046 36.69 84.5246 36.425 84.3446 36.115H84.2246L84.3446 37.165V40.24H82.3796V29.65ZM86.1896 35.425C86.4496 35.425 86.6946 35.375 86.9246 35.275C87.1646 35.175 87.3746 35.035 87.5546 34.855C87.7346 34.675 87.8796 34.455 87.9896 34.195C88.0996 33.935 88.1546 33.645 88.1546 33.325C88.1546 33.005 88.0996 32.715 87.9896 32.455C87.8796 32.195 87.7346 31.975 87.5546 31.795C87.3746 31.615 87.1646 31.475 86.9246 31.375C86.6946 31.275 86.4496 31.225 86.1896 31.225C85.9296 31.225 85.6796 31.275 85.4396 31.375C85.2096 31.465 85.0046 31.6 84.8246 31.78C84.6446 31.96 84.4996 32.18 84.3896 32.44C84.2796 32.7 84.2246 32.995 84.2246 33.325C84.2246 33.655 84.2796 33.95 84.3896 34.21C84.4996 34.47 84.6446 34.69 84.8246 34.87C85.0046 35.05 85.2096 35.19 85.4396 35.29C85.6796 35.38 85.9296 35.425 86.1896 35.425ZM97.742 37.24C97.282 37.24 96.842 37.175 96.422 37.045C96.002 36.915 95.617 36.72 95.267 36.46C94.917 36.2 94.612 35.885 94.352 35.515C94.092 35.135 93.887 34.695 93.737 34.195L95.642 33.445C95.782 33.985 96.027 34.435 96.377 34.795C96.727 35.145 97.187 35.32 97.757 35.32C97.967 35.32 98.167 35.295 98.357 35.245C98.557 35.185 98.732 35.105 98.882 35.005C99.042 34.895 99.167 34.76 99.257 34.6C99.347 34.44 99.392 34.255 99.392 34.045C99.392 33.845 99.357 33.665 99.287 33.505C99.217 33.345 99.097 33.195 98.927 33.055C98.767 32.915 98.552 32.78 98.282 32.65C98.022 32.52 97.697 32.385 97.307 32.245L96.647 32.005C96.357 31.905 96.062 31.77 95.762 31.6C95.472 31.43 95.207 31.225 94.967 30.985C94.727 30.745 94.527 30.465 94.367 30.145C94.217 29.815 94.142 29.445 94.142 29.035C94.142 28.615 94.222 28.225 94.382 27.865C94.552 27.495 94.787 27.175 95.087 26.905C95.397 26.625 95.762 26.41 96.182 26.26C96.612 26.1 97.087 26.02 97.607 26.02C98.147 26.02 98.612 26.095 99.002 26.245C99.402 26.385 99.737 26.57 100.007 26.8C100.287 27.02 100.512 27.265 100.682 27.535C100.852 27.805 100.977 28.06 101.057 28.3L99.272 29.05C99.172 28.75 98.987 28.48 98.717 28.24C98.457 28 98.097 27.88 97.637 27.88C97.197 27.88 96.832 27.985 96.542 28.195C96.252 28.395 96.107 28.66 96.107 28.99C96.107 29.31 96.247 29.585 96.527 29.815C96.807 30.035 97.252 30.25 97.862 30.46L98.537 30.685C98.967 30.835 99.357 31.01 99.707 31.21C100.067 31.4 100.372 31.63 100.622 31.9C100.882 32.17 101.077 32.48 101.207 32.83C101.347 33.17 101.417 33.565 101.417 34.015C101.417 34.575 101.302 35.06 101.072 35.47C100.852 35.87 100.567 36.2 100.217 36.46C99.867 36.72 99.472 36.915 99.032 37.045C98.592 37.175 98.162 37.24 97.742 37.24ZM103.274 31.33H101.984V29.65H103.274V27.4H105.239V29.65H107.039V31.33H105.239V34.18C105.239 34.35 105.254 34.51 105.284 34.66C105.324 34.8 105.394 34.92 105.494 35.02C105.634 35.18 105.834 35.26 106.094 35.26C106.264 35.26 106.399 35.245 106.499 35.215C106.599 35.175 106.694 35.125 106.784 35.065L107.339 36.79C107.109 36.9 106.859 36.98 106.589 37.03C106.329 37.09 106.039 37.12 105.719 37.12C105.349 37.12 105.014 37.065 104.714 36.955C104.424 36.835 104.179 36.675 103.979 36.475C103.509 36.025 103.274 35.385 103.274 34.555V31.33ZM111.891 29.41C112.461 29.41 112.981 29.51 113.451 29.71C113.931 29.9 114.341 30.17 114.681 30.52C115.031 30.86 115.301 31.27 115.491 31.75C115.691 32.23 115.791 32.755 115.791 33.325C115.791 33.895 115.691 34.42 115.491 34.9C115.301 35.38 115.031 35.795 114.681 36.145C114.341 36.485 113.931 36.755 113.451 36.955C112.981 37.145 112.461 37.24 111.891 37.24C111.321 37.24 110.796 37.145 110.316 36.955C109.846 36.755 109.436 36.485 109.086 36.145C108.746 35.795 108.476 35.38 108.276 34.9C108.086 34.42 107.991 33.895 107.991 33.325C107.991 32.755 108.086 32.23 108.276 31.75C108.476 31.27 108.746 30.86 109.086 30.52C109.436 30.17 109.846 29.9 110.316 29.71C110.796 29.51 111.321 29.41 111.891 29.41ZM111.891 35.425C112.141 35.425 112.381 35.38 112.611 35.29C112.851 35.19 113.061 35.05 113.241 34.87C113.421 34.69 113.561 34.47 113.661 34.21C113.771 33.95 113.826 33.655 113.826 33.325C113.826 32.995 113.771 32.7 113.661 32.44C113.561 32.18 113.421 31.96 113.241 31.78C113.061 31.6 112.851 31.465 112.611 31.375C112.381 31.275 112.141 31.225 111.891 31.225C111.631 31.225 111.386 31.275 111.156 31.375C110.926 31.465 110.721 31.6 110.541 31.78C110.361 31.96 110.216 32.18 110.106 32.44C110.006 32.7 109.956 32.995 109.956 33.325C109.956 33.655 110.006 33.95 110.106 34.21C110.216 34.47 110.361 34.69 110.541 34.87C110.721 35.05 110.926 35.19 111.156 35.29C111.386 35.38 111.631 35.425 111.891 35.425ZM116.907 29.65H118.752V30.67H118.872C118.962 30.49 119.082 30.325 119.232 30.175C119.382 30.025 119.547 29.895 119.727 29.785C119.917 29.675 120.117 29.59 120.327 29.53C120.547 29.47 120.762 29.44 120.972 29.44C121.232 29.44 121.452 29.465 121.632 29.515C121.822 29.565 121.982 29.63 122.112 29.71L121.587 31.495C121.467 31.435 121.332 31.39 121.182 31.36C121.042 31.32 120.867 31.3 120.657 31.3C120.387 31.3 120.142 31.355 119.922 31.465C119.702 31.565 119.512 31.71 119.352 31.9C119.202 32.09 119.082 32.315 118.992 32.575C118.912 32.825 118.872 33.1 118.872 33.4V37H116.907V29.65ZM129.522 35.23C129.182 35.83 128.722 36.315 128.142 36.685C127.572 37.055 126.872 37.24 126.042 37.24C125.482 37.24 124.962 37.145 124.482 36.955C124.012 36.755 123.602 36.48 123.252 36.13C122.902 35.78 122.627 35.37 122.427 34.9C122.237 34.42 122.142 33.895 122.142 33.325C122.142 32.795 122.237 32.295 122.427 31.825C122.617 31.345 122.882 30.93 123.222 30.58C123.562 30.22 123.962 29.935 124.422 29.725C124.892 29.515 125.407 29.41 125.967 29.41C126.557 29.41 127.082 29.51 127.542 29.71C128.002 29.9 128.387 30.17 128.697 30.52C129.007 30.86 129.242 31.265 129.402 31.735C129.562 32.205 129.642 32.715 129.642 33.265C129.642 33.335 129.642 33.395 129.642 33.445C129.632 33.505 129.627 33.56 129.627 33.61C129.617 33.66 129.612 33.715 129.612 33.775H124.077C124.117 34.075 124.197 34.335 124.317 34.555C124.447 34.765 124.602 34.945 124.782 35.095C124.972 35.235 125.177 35.34 125.397 35.41C125.617 35.47 125.842 35.5 126.072 35.5C126.522 35.5 126.892 35.4 127.182 35.2C127.482 34.99 127.717 34.73 127.887 34.42L129.522 35.23ZM127.737 32.38C127.727 32.25 127.682 32.105 127.602 31.945C127.532 31.785 127.422 31.635 127.272 31.495C127.132 31.355 126.952 31.24 126.732 31.15C126.522 31.06 126.267 31.015 125.967 31.015C125.547 31.015 125.177 31.135 124.857 31.375C124.537 31.615 124.312 31.95 124.182 32.38H127.737Z" fill="white"/>
<path d="M62.576 13.272H64.512C64.9653 13.272 65.3733 13.3413 65.736 13.48C66.0987 13.6187 66.408 13.816 66.664 14.072C66.92 14.3227 67.1147 14.624 67.248 14.976C67.3867 15.328 67.456 15.7147 67.456 16.136C67.456 16.5627 67.3867 16.952 67.248 17.304C67.1147 17.656 66.92 17.9573 66.664 18.208C66.408 18.4587 66.0987 18.6533 65.736 18.792C65.3733 18.9307 64.9653 19 64.512 19H62.576V13.272ZM64.464 17.976C64.7787 17.976 65.056 17.9333 65.296 17.848C65.536 17.7573 65.736 17.632 65.896 17.472C66.056 17.312 66.176 17.12 66.256 16.896C66.336 16.6667 66.376 16.4133 66.376 16.136C66.376 15.8587 66.336 15.608 66.256 15.384C66.176 15.1547 66.056 14.96 65.896 14.8C65.736 14.64 65.536 14.5173 65.296 14.432C65.056 14.3413 64.7787 14.296 64.464 14.296H63.656V17.976H64.464ZM69.9368 14.952C70.2408 14.952 70.5181 15.0053 70.7688 15.112C71.0248 15.2133 71.2435 15.3573 71.4248 15.544C71.6115 15.7253 71.7555 15.944 71.8568 16.2C71.9635 16.456 72.0168 16.736 72.0168 17.04C72.0168 17.344 71.9635 17.624 71.8568 17.88C71.7555 18.136 71.6115 18.3573 71.4248 18.544C71.2435 18.7253 71.0248 18.8693 70.7688 18.976C70.5181 19.0773 70.2408 19.128 69.9368 19.128C69.6328 19.128 69.3528 19.0773 69.0968 18.976C68.8461 18.8693 68.6275 18.7253 68.4408 18.544C68.2595 18.3573 68.1155 18.136 68.0088 17.88C67.9075 17.624 67.8568 17.344 67.8568 17.04C67.8568 16.736 67.9075 16.456 68.0088 16.2C68.1155 15.944 68.2595 15.7253 68.4408 15.544C68.6275 15.3573 68.8461 15.2133 69.0968 15.112C69.3528 15.0053 69.6328 14.952 69.9368 14.952ZM69.9368 18.16C70.0701 18.16 70.1981 18.136 70.3208 18.088C70.4488 18.0347 70.5608 17.96 70.6568 17.864C70.7528 17.768 70.8275 17.6507 70.8808 17.512C70.9395 17.3733 70.9688 17.216 70.9688 17.04C70.9688 16.864 70.9395 16.7067 70.8808 16.568C70.8275 16.4293 70.7528 16.312 70.6568 16.216C70.5608 16.12 70.4488 16.048 70.3208 16C70.1981 15.9467 70.0701 15.92 69.9368 15.92C69.7981 15.92 69.6675 15.9467 69.5448 16C69.4221 16.048 69.3128 16.12 69.2168 16.216C69.1208 16.312 69.0435 16.4293 68.9848 16.568C68.9315 16.7067 68.9048 16.864 68.9048 17.04C68.9048 17.216 68.9315 17.3733 68.9848 17.512C69.0435 17.6507 69.1208 17.768 69.2168 17.864C69.3128 17.96 69.4221 18.0347 69.5448 18.088C69.6675 18.136 69.7981 18.16 69.9368 18.16ZM72.1961 15.08H73.3721L74.0201 17.536H74.0761L74.8521 15.08H75.9321L76.7161 17.536H76.7721L77.4121 15.08H78.5721L77.3161 19H76.1881L75.4041 16.528H75.3481L74.5641 19H73.4521L72.1961 15.08ZM80.0336 15.592H80.0976C80.2202 15.3947 80.3856 15.24 80.5936 15.128C80.8016 15.0107 81.0389 14.952 81.3056 14.952C81.5509 14.952 81.7669 14.992 81.9536 15.072C82.1402 15.152 82.2922 15.2667 82.4096 15.416C82.5322 15.56 82.6229 15.736 82.6816 15.944C82.7456 16.1467 82.7776 16.3733 82.7776 16.624V19H81.7296V16.752C81.7296 16.4693 81.6656 16.2613 81.5376 16.128C81.4149 15.9893 81.2336 15.92 80.9936 15.92C80.8496 15.92 80.7216 15.952 80.6096 16.016C80.5029 16.0747 80.4096 16.1573 80.3296 16.264C80.2549 16.3653 80.1962 16.488 80.1536 16.632C80.1162 16.7707 80.0976 16.92 80.0976 17.08V19H79.0496V15.08H80.0336V15.592ZM83.6433 19V13.272H84.6913V19H83.6433ZM87.4056 14.952C87.7096 14.952 87.9869 15.0053 88.2376 15.112C88.4936 15.2133 88.7122 15.3573 88.8936 15.544C89.0802 15.7253 89.2242 15.944 89.3256 16.2C89.4322 16.456 89.4856 16.736 89.4856 17.04C89.4856 17.344 89.4322 17.624 89.3256 17.88C89.2242 18.136 89.0802 18.3573 88.8936 18.544C88.7122 18.7253 88.4936 18.8693 88.2376 18.976C87.9869 19.0773 87.7096 19.128 87.4056 19.128C87.1016 19.128 86.8216 19.0773 86.5656 18.976C86.3149 18.8693 86.0962 18.7253 85.9096 18.544C85.7282 18.3573 85.5842 18.136 85.4776 17.88C85.3762 17.624 85.3256 17.344 85.3256 17.04C85.3256 16.736 85.3762 16.456 85.4776 16.2C85.5842 15.944 85.7282 15.7253 85.9096 15.544C86.0962 15.3573 86.3149 15.2133 86.5656 15.112C86.8216 15.0053 87.1016 14.952 87.4056 14.952ZM87.4056 18.16C87.5389 18.16 87.6669 18.136 87.7896 18.088C87.9176 18.0347 88.0296 17.96 88.1256 17.864C88.2216 17.768 88.2962 17.6507 88.3496 17.512C88.4082 17.3733 88.4376 17.216 88.4376 17.04C88.4376 16.864 88.4082 16.7067 88.3496 16.568C88.2962 16.4293 88.2216 16.312 88.1256 16.216C88.0296 16.12 87.9176 16.048 87.7896 16C87.6669 15.9467 87.5389 15.92 87.4056 15.92C87.2669 15.92 87.1362 15.9467 87.0136 16C86.8909 16.048 86.7816 16.12 86.6856 16.216C86.5896 16.312 86.5122 16.4293 86.4536 16.568C86.4002 16.7067 86.3736 16.864 86.3736 17.04C86.3736 17.216 86.4002 17.3733 86.4536 17.512C86.5122 17.6507 86.5896 17.768 86.6856 17.864C86.7816 17.96 86.8909 18.0347 87.0136 18.088C87.1362 18.136 87.2669 18.16 87.4056 18.16ZM92.5749 18.584H92.5109C92.3883 18.7333 92.2389 18.8613 92.0629 18.968C91.8923 19.0747 91.6709 19.128 91.3989 19.128C91.1963 19.128 91.0043 19.0933 90.8229 19.024C90.6469 18.96 90.4923 18.8693 90.3589 18.752C90.2256 18.6347 90.1216 18.4933 90.0469 18.328C89.9723 18.1627 89.9349 17.9813 89.9349 17.784C89.9349 17.5813 89.9749 17.4 90.0549 17.24C90.1349 17.0747 90.2469 16.9333 90.3909 16.816C90.5349 16.6987 90.7029 16.6107 90.8949 16.552C91.0923 16.488 91.3056 16.456 91.5349 16.456C91.7909 16.456 92.0016 16.4773 92.1669 16.52C92.3323 16.5573 92.4683 16.5973 92.5749 16.64V16.52C92.5749 16.312 92.4923 16.1413 92.3269 16.008C92.1616 15.8693 91.9563 15.8 91.7109 15.8C91.3483 15.8 91.0416 15.952 90.7909 16.256L90.0309 15.736C90.4469 15.2133 91.0149 14.952 91.7349 14.952C92.3429 14.952 92.8069 15.096 93.1269 15.384C93.4469 15.6667 93.6069 16.088 93.6069 16.648V19H92.5749V18.584ZM92.5749 17.408C92.4523 17.3493 92.3243 17.304 92.1909 17.272C92.0629 17.2347 91.9216 17.216 91.7669 17.216C91.5163 17.216 91.3216 17.272 91.1829 17.384C91.0496 17.4907 90.9829 17.624 90.9829 17.784C90.9829 17.944 91.0469 18.072 91.1749 18.168C91.3083 18.264 91.4603 18.312 91.6309 18.312C91.7696 18.312 91.8976 18.288 92.0149 18.24C92.1323 18.1867 92.2309 18.12 92.3109 18.04C92.3963 17.9547 92.4603 17.8587 92.5029 17.752C92.5509 17.64 92.5749 17.5253 92.5749 17.408ZM97.3211 18.528H97.2571C97.1611 18.6933 97.0118 18.8347 96.8091 18.952C96.6065 19.0693 96.3558 19.128 96.0571 19.128C95.8065 19.128 95.5665 19.0773 95.3371 18.976C95.1131 18.8693 94.9131 18.7253 94.7371 18.544C94.5665 18.3573 94.4305 18.136 94.3291 17.88C94.2278 17.624 94.1771 17.344 94.1771 17.04C94.1771 16.736 94.2278 16.456 94.3291 16.2C94.4305 15.944 94.5665 15.7253 94.7371 15.544C94.9131 15.3573 95.1131 15.2133 95.3371 15.112C95.5665 15.0053 95.8065 14.952 96.0571 14.952C96.3558 14.952 96.6065 15.0107 96.8091 15.128C97.0118 15.2453 97.1611 15.3867 97.2571 15.552H97.3211L97.2571 14.992V13.272H98.3051V19H97.3211V18.528ZM96.2731 18.16C96.4118 18.16 96.5425 18.136 96.6651 18.088C96.7931 18.0347 96.9051 17.96 97.0011 17.864C97.0971 17.768 97.1745 17.6507 97.2331 17.512C97.2918 17.3733 97.3211 17.216 97.3211 17.04C97.3211 16.864 97.2918 16.7067 97.2331 16.568C97.1745 16.4293 97.0971 16.312 97.0011 16.216C96.9051 16.12 96.7931 16.048 96.6651 16C96.5425 15.9467 96.4118 15.92 96.2731 15.92C96.1345 15.92 96.0011 15.9467 95.8731 16C95.7505 16.0533 95.6411 16.128 95.5451 16.224C95.4491 16.32 95.3718 16.4373 95.3131 16.576C95.2545 16.7147 95.2251 16.8693 95.2251 17.04C95.2251 17.2107 95.2545 17.3653 95.3131 17.504C95.3718 17.6427 95.4491 17.76 95.5451 17.856C95.6411 17.952 95.7505 18.0267 95.8731 18.08C96.0011 18.1333 96.1345 18.16 96.2731 18.16ZM102.812 14.952C103.116 14.952 103.393 15.0053 103.644 15.112C103.9 15.2133 104.118 15.3573 104.3 15.544C104.486 15.7253 104.63 15.944 104.732 16.2C104.838 16.456 104.892 16.736 104.892 17.04C104.892 17.344 104.838 17.624 104.732 17.88C104.63 18.136 104.486 18.3573 104.3 18.544C104.118 18.7253 103.9 18.8693 103.644 18.976C103.393 19.0773 103.116 19.128 102.812 19.128C102.508 19.128 102.228 19.0773 101.972 18.976C101.721 18.8693 101.502 18.7253 101.316 18.544C101.134 18.3573 100.99 18.136 100.884 17.88C100.782 17.624 100.732 17.344 100.732 17.04C100.732 16.736 100.782 16.456 100.884 16.2C100.99 15.944 101.134 15.7253 101.316 15.544C101.502 15.3573 101.721 15.2133 101.972 15.112C102.228 15.0053 102.508 14.952 102.812 14.952ZM102.812 18.16C102.945 18.16 103.073 18.136 103.196 18.088C103.324 18.0347 103.436 17.96 103.532 17.864C103.628 17.768 103.702 17.6507 103.756 17.512C103.814 17.3733 103.844 17.216 103.844 17.04C103.844 16.864 103.814 16.7067 103.756 16.568C103.702 16.4293 103.628 16.312 103.532 16.216C103.436 16.12 103.324 16.048 103.196 16C103.073 15.9467 102.945 15.92 102.812 15.92C102.673 15.92 102.542 15.9467 102.42 16C102.297 16.048 102.188 16.12 102.092 16.216C101.996 16.312 101.918 16.4293 101.86 16.568C101.806 16.7067 101.78 16.864 101.78 17.04C101.78 17.216 101.806 17.3733 101.86 17.512C101.918 17.6507 101.996 17.768 102.092 17.864C102.188 17.96 102.297 18.0347 102.42 18.088C102.542 18.136 102.673 18.16 102.812 18.16ZM106.471 15.592H106.535C106.658 15.3947 106.823 15.24 107.031 15.128C107.239 15.0107 107.476 14.952 107.743 14.952C107.988 14.952 108.204 14.992 108.391 15.072C108.578 15.152 108.73 15.2667 108.847 15.416C108.97 15.56 109.06 15.736 109.119 15.944C109.183 16.1467 109.215 16.3733 109.215 16.624V19H108.167V16.752C108.167 16.4693 108.103 16.2613 107.975 16.128C107.852 15.9893 107.671 15.92 107.431 15.92C107.287 15.92 107.159 15.952 107.047 16.016C106.94 16.0747 106.847 16.1573 106.767 16.264C106.692 16.3653 106.634 16.488 106.591 16.632C106.554 16.7707 106.535 16.92 106.535 17.08V19H105.487V15.08H106.471V15.592ZM112.271 15.976H111.583V15.08H112.271V13.88H113.319V15.08H114.279V15.976H113.319V17.496C113.319 17.5867 113.327 17.672 113.343 17.752C113.364 17.8267 113.401 17.8907 113.455 17.944C113.529 18.0293 113.636 18.072 113.775 18.072C113.865 18.072 113.937 18.064 113.991 18.048C114.044 18.0267 114.095 18 114.143 17.968L114.439 18.888C114.316 18.9467 114.183 18.9893 114.039 19.016C113.9 19.048 113.745 19.064 113.575 19.064C113.377 19.064 113.199 19.0347 113.039 18.976C112.884 18.912 112.753 18.8267 112.647 18.72C112.396 18.48 112.271 18.1387 112.271 17.696V15.976ZM115.089 13.272H116.137V14.88L116.073 15.592H116.137C116.249 15.4053 116.409 15.2533 116.617 15.136C116.83 15.0133 117.067 14.952 117.329 14.952C117.835 14.952 118.209 15.1013 118.449 15.4C118.694 15.6987 118.817 16.1067 118.817 16.624V19H117.769V16.752C117.769 16.48 117.705 16.2747 117.577 16.136C117.449 15.992 117.27 15.92 117.041 15.92C116.897 15.92 116.769 15.952 116.657 16.016C116.545 16.0747 116.449 16.1573 116.369 16.264C116.294 16.3707 116.235 16.496 116.193 16.64C116.155 16.7787 116.137 16.928 116.137 17.088V19H115.089V13.272ZM123.394 18.056C123.213 18.376 122.968 18.6347 122.658 18.832C122.354 19.0293 121.981 19.128 121.538 19.128C121.24 19.128 120.962 19.0773 120.706 18.976C120.456 18.8693 120.237 18.7227 120.05 18.536C119.864 18.3493 119.717 18.1307 119.61 17.88C119.509 17.624 119.458 17.344 119.458 17.04C119.458 16.7573 119.509 16.4907 119.61 16.24C119.712 15.984 119.853 15.7627 120.034 15.576C120.216 15.384 120.429 15.232 120.674 15.12C120.925 15.008 121.2 14.952 121.498 14.952C121.813 14.952 122.093 15.0053 122.338 15.112C122.584 15.2133 122.789 15.3573 122.954 15.544C123.12 15.7253 123.245 15.9413 123.33 16.192C123.416 16.4427 123.458 16.7147 123.458 17.008C123.458 17.0453 123.458 17.0773 123.458 17.104C123.453 17.136 123.45 17.1653 123.45 17.192C123.445 17.2187 123.442 17.248 123.442 17.28H120.49C120.512 17.44 120.554 17.5787 120.618 17.696C120.688 17.808 120.77 17.904 120.866 17.984C120.968 18.0587 121.077 18.1147 121.194 18.152C121.312 18.184 121.432 18.2 121.554 18.2C121.794 18.2 121.992 18.1467 122.146 18.04C122.306 17.928 122.432 17.7893 122.522 17.624L123.394 18.056ZM122.442 16.536C122.437 16.4667 122.413 16.3893 122.37 16.304C122.333 16.2187 122.274 16.1387 122.194 16.064C122.12 15.9893 122.024 15.928 121.906 15.88C121.794 15.832 121.658 15.808 121.498 15.808C121.274 15.808 121.077 15.872 120.906 16C120.736 16.128 120.616 16.3067 120.546 16.536H122.442Z" fill="white"/>
</svg>
