<svg width="165" height="90" viewBox="0 0 165 90" fill="none" xmlns="http://www.w3.org/2000/svg">
<g filter="url(#filter0_d_149_1290)">
<rect x="15" y="15" width="150" height="60" rx="8" fill="white"/>
<g clip-path="url(#clip0_149_1290)">
<path d="M65.2744 32.7696H62.7381L75.6293 17.5598L82.1704 25.2758V22.6013H85.0315V28.6517L88.5215 32.7696H85.9852V41.0019H87.3225V42.7183H85.9852V59.0919H65.2744V42.7183H63.5541V41.0019H65.2744V32.7696Z" fill="#FEEDCF"/>
<path d="M76.54 29.167H78.9512V26.7559H76.54V29.167Z" fill="#F1D19E"/>
<path d="M73.6641 29.167H76.0752V26.7559H73.6641V29.167Z" fill="#F1D19E"/>
<path d="M76.54 32.0185H78.9512V29.6074H76.54V32.0185Z" fill="#F1D19E"/>
<path d="M73.6641 32.0185H76.0752V29.6074H73.6641V32.0185Z" fill="#F1D19E"/>
<path d="M70.9014 48.2037H73.3125V45.7925H70.9014V48.2037Z" fill="#F1D19E"/>
<path d="M68.0273 48.2036H70.4385V45.7925H68.0273V48.2036Z" fill="#F1D19E"/>
<path d="M70.9014 51.0547H73.3125V48.6436H70.9014V51.0547Z" fill="#F1D19E"/>
<path d="M68.0273 51.0547H70.4385V48.6436H68.0273V51.0547Z" fill="#F1D19E"/>
<path d="M75.7539 59.0045H83.2949V49.3127C83.2949 47.2299 81.6067 45.5422 79.5244 45.5422C77.4421 45.5422 75.7539 47.2299 75.7539 49.3127V59.0045Z" fill="#F1D19E"/>
<path d="M75.6971 59.0044H82.5957V48.9909C82.5957 47.086 81.0513 45.5421 79.1464 45.5421C77.2416 45.5421 75.6971 47.086 75.6971 48.9909V59.0044Z" fill="#DFBC8A"/>
<mask id="mask0_149_1290" style="mask-type:luminance" maskUnits="userSpaceOnUse" x="25" y="15" width="60" height="60">
<path d="M25 15H85V75H25V15Z" fill="white"/>
</mask>
<g mask="url(#mask0_149_1290)">
<path d="M38.744 62.405C38.744 64.8948 40.7631 66.9132 43.2535 66.9132C45.744 66.9132 47.7617 64.8948 47.7617 62.405C47.7617 59.9145 45.744 57.8955 43.2535 57.8955C40.7631 57.8955 38.744 59.9145 38.744 62.405Z" fill="#394D6A"/>
<path d="M40.3279 62.4044C40.3279 64.0193 41.6372 65.3293 43.2522 65.3293C44.8671 65.3293 46.1777 64.0193 46.1777 62.4044C46.1777 60.7894 44.8671 59.4795 43.2522 59.4795C41.6372 59.4795 40.3279 60.7894 40.3279 62.4044Z" fill="#57C3B5"/>
<path d="M40.7341 62.4044C40.7341 63.7948 41.8618 64.9219 43.2517 64.9219C44.6421 64.9219 45.7705 63.7948 45.7705 62.4044C45.7705 61.0139 44.6421 59.8868 43.2517 59.8868C41.8618 59.8868 40.7341 61.0139 40.7341 62.4044Z" fill="#FFFEFF"/>
<path d="M40.8795 62.4044C40.8795 63.7143 41.9412 64.7766 43.2517 64.7766C44.5617 64.7766 45.624 63.7143 45.624 62.4044C45.624 61.0944 44.5617 60.0321 43.2517 60.0321C41.9412 60.0321 40.8795 61.0944 40.8795 62.4044Z" fill="#57C3B5"/>
<path d="M42.0371 62.4044C42.0371 63.0759 42.5805 63.6199 43.2513 63.6199C43.9228 63.6199 44.4668 63.0759 44.4668 62.4044C44.4668 61.7329 43.9228 61.1889 43.2513 61.1889C42.5805 61.1889 42.0371 61.7329 42.0371 62.4044Z" fill="#FFFEFF"/>
<path d="M59.3837 62.405C59.3837 64.8948 61.4027 66.9132 63.8932 66.9132C66.3836 66.9132 68.4014 64.8948 68.4014 62.405C68.4014 59.9145 66.3836 57.8955 63.8932 57.8955C61.4027 57.8955 59.3837 59.9145 59.3837 62.405Z" fill="#394D6A"/>
<path d="M60.9676 62.4044C60.9676 64.0193 62.2768 65.3293 63.8918 65.3293C65.5068 65.3293 66.8174 64.0193 66.8174 62.4044C66.8174 60.7894 65.5068 59.4795 63.8918 59.4795C62.2768 59.4795 60.9676 60.7894 60.9676 62.4044Z" fill="#57C3B5"/>
<path d="M61.3738 62.4044C61.3738 63.7949 62.5015 64.9219 63.8913 64.9219C65.2818 64.9219 66.4102 63.7949 66.4102 62.4044C66.4102 61.0139 65.2818 59.8868 63.8913 59.8868C62.5015 59.8868 61.3738 61.0139 61.3738 62.4044Z" fill="#FFFEFF"/>
<path d="M61.5201 62.4044C61.5201 63.7143 62.5818 64.7766 63.8924 64.7766C65.2023 64.7766 66.2646 63.7143 66.2646 62.4044C66.2646 61.0944 65.2023 60.0321 63.8924 60.0321C62.5818 60.0321 61.5201 61.0944 61.5201 62.4044Z" fill="#57C3B5"/>
<path d="M62.6777 62.4044C62.6777 63.0758 63.2211 63.6199 63.8919 63.6199C64.5634 63.6199 65.1074 63.0758 65.1074 62.4044C65.1074 61.7329 64.5634 61.1888 63.8919 61.1888C63.2211 61.1888 62.6777 61.7329 62.6777 62.4044Z" fill="#FFFEFF"/>
<path d="M27.0352 33.7696H24.4989L37.39 18.5598L43.9311 26.2758V23.6012H46.7922V29.6517L50.2822 33.7696H47.7459V42.0019H49.0832V43.7182H47.7459V60.0919H27.0352V43.7182H25.3148V42.0019H27.0352V33.7696Z" fill="#FEEDCF"/>
<path d="M38.2998 30.1669H40.7109V27.7558H38.2998V30.1669Z" fill="#F1D19E"/>
<path d="M35.4248 30.167H37.8359V27.7558H35.4248V30.167Z" fill="#F1D19E"/>
<path d="M38.2998 33.0185H40.7109V30.6074H38.2998V33.0185Z" fill="#F1D19E"/>
<path d="M35.4248 33.0185H37.8359V30.6074H35.4248V33.0185Z" fill="#F1D19E"/>
<path d="M32.6621 49.2036H35.0732V46.7925H32.6621V49.2036Z" fill="#F1D19E"/>
<path d="M29.7871 49.2036H32.1982V46.7924H29.7871V49.2036Z" fill="#F1D19E"/>
<path d="M32.6621 52.0546H35.0732V49.6435H32.6621V52.0546Z" fill="#F1D19E"/>
<path d="M29.7871 52.0546H32.1982V49.6434H29.7871V52.0546Z" fill="#F1D19E"/>
<path d="M37.5136 60.0044H45.0547V50.3126C45.0547 48.2298 43.3665 46.5421 41.2842 46.5421C39.2018 46.5421 37.5136 48.2298 37.5136 50.3126V60.0044Z" fill="#F1D19E"/>
<path d="M37.4579 60.0044H44.3564V49.9909C44.3564 48.086 42.812 46.5421 40.9072 46.5421C39.0023 46.5421 37.4579 48.086 37.4579 49.9909V60.0044Z" fill="#DFBC8A"/>
<path d="M87.2744 33.7696H84.7381L97.6293 18.5598L104.17 26.2758V23.6012H107.031V29.6517L110.521 33.7696H107.985V42.0019H109.322V43.7182H107.985V60.0919H87.2744V43.7182H85.5541V42.0019H87.2744V33.7696Z" fill="#FEEDCF"/>
<path d="M57.8158 48.8456C57.8158 48.8456 60.0135 50.7616 58.4914 52.678C56.9698 54.5939 51.7289 51.3815 51.2778 53.0161C50.8267 54.6507 52.9124 60.8501 52.9124 60.8501L52.0107 60.9621C52.0107 60.9621 46.2624 53.2416 48.1221 51.0996C49.9822 48.9582 57.8158 48.8456 57.8158 48.8456Z" fill="#394D6A"/>
<path d="M49.037 62.0111C48.5577 61.4915 48.3971 60.7284 48.1455 60.043C47.6514 58.6994 46.7298 57.5502 45.5779 56.8403C45.2706 56.651 44.9458 56.4904 44.6665 56.2541C44.3873 56.0183 44.151 55.689 44.109 55.3054C44.0758 55.0051 44.1638 54.7064 44.2497 54.4195C44.8108 52.544 45.3723 50.6669 46.0454 48.8364C46.2198 48.3628 46.4612 47.8345 46.9139 47.7143C47.2151 47.634 47.5276 47.7634 47.8146 47.8928C48.6994 48.2917 49.6343 48.7663 50.1177 49.6711C50.4624 50.3166 50.5268 51.0955 50.5043 51.8433C50.4557 53.4764 50.0374 55.067 49.8527 56.6878C49.6681 58.3092 49.7474 60.063 50.5882 61.4122C50.7739 61.7104 50.9928 61.9809 51.1953 62.2658C50.5355 62.7241 49.5924 62.6126 49.037 62.0111Z" fill="#394D6A"/>
<path d="M57.4224 53.5587C56.7048 53.6421 55.9054 53.8666 55.6502 54.396C55.4379 54.8368 55.6829 55.3207 55.8558 55.7723C56.2072 56.6868 56.2604 57.6708 56.0082 58.6053C55.8277 59.2748 55.4482 59.9617 54.7019 60.3212C54.0411 60.6389 53.2182 60.6445 52.4423 60.6409C51.3268 60.6348 50.1131 60.602 49.2554 60.0466C48.8866 60.9012 49.5904 61.8592 50.578 62.3287C51.5652 62.7977 52.7635 62.8918 53.9169 62.9573C58.1257 63.1962 62.3534 63.2105 66.5694 63.0668C67.2598 63.0427 68.0107 62.9962 68.5191 62.631C69.1425 62.1835 69.1686 61.4357 69.1507 60.7749C69.1083 59.2594 69.0331 57.654 67.9749 56.382C67.3217 55.5969 66.3361 55.0041 65.2585 54.5939C64.1803 54.1842 63.0096 53.9454 61.8338 53.7612C60.3822 53.5352 58.8867 53.3884 57.4224 53.5587Z" fill="#F05962"/>
<path d="M53.6816 62.5072C52.8239 62.4591 51.9478 62.4075 51.1519 62.0837C50.3561 61.7605 49.6411 61.1104 49.4749 60.2675C49.4437 60.1095 49.4621 59.8988 49.616 59.8502C49.9035 60.557 50.6497 60.9836 51.3974 61.138C52.1452 61.2925 52.9175 61.2275 53.6806 61.2475C54.4437 61.2674 55.2431 61.3887 55.8497 61.852C55.9566 61.9328 56.0584 62.028 56.1111 62.1518C56.1632 62.275 56.154 62.4325 56.0579 62.5261C55.954 62.6264 55.7919 62.6249 55.6482 62.6172C54.993 62.5804 54.3373 62.5435 53.6816 62.5072Z" fill="#394D6A"/>
<path d="M64.2312 55.0926C62.2441 54.3684 60.0899 54.1556 57.9811 54.3244C57.5239 54.3612 56.9884 54.4691 56.7991 54.8875C56.6723 55.1673 56.75 55.491 56.8109 55.7923C57.1055 57.2428 56.9556 58.7802 56.3869 60.1468C56.2447 60.4885 56.0749 60.8255 56.0176 61.1918C55.9598 61.558 56.0365 61.9702 56.3163 62.2126C56.6048 62.4622 57.0226 62.473 57.4037 62.4704C59.8203 62.4545 62.2508 62.4372 64.6316 62.0229C65.3549 61.8971 66.1338 61.6966 66.5757 61.1115C67.0084 60.5381 66.9997 59.7556 66.948 59.04C66.8759 58.0493 66.7327 56.9988 66.0929 56.2393C65.6172 55.6762 64.9237 55.3452 64.2312 55.0926Z" fill="#D94856"/>
<path d="M45.5642 44.6501C45.3151 45.225 45.3151 45.873 45.3269 46.499C45.445 46.5103 45.5622 46.521 45.6803 46.5323C45.8435 45.7216 46.0844 44.9268 46.3994 44.1622C46.2414 44.0701 46.0322 44.1069 45.8828 44.2128C45.734 44.3187 45.6368 44.4823 45.5642 44.6501Z" fill="#F3D844"/>
<path d="M45.4221 46.9057C45.4149 46.1242 45.5817 45.3416 45.9054 44.6307C46.0742 44.2604 46.3494 43.8666 46.7555 43.8405C46.9698 43.8262 47.1749 43.9208 47.3661 44.018C47.7431 44.2098 48.1165 44.4261 48.4034 44.7366C48.8877 45.2583 49.0765 45.9804 49.2478 46.6714C49.2811 46.8034 49.3123 46.9486 49.2519 47.0704C49.1731 47.2294 48.9875 47.2709 48.8008 47.2709C48.7282 47.5046 48.656 47.7388 48.5834 47.9731C48.5722 48.0094 48.5584 48.0498 48.5246 48.0687C48.4908 48.0887 48.4484 48.0784 48.4105 48.0687C48.1257 47.9956 47.8408 47.9225 47.5559 47.8493C47.4204 47.814 47.2782 47.7762 47.1795 47.6775C47.0961 47.5941 47.0552 47.479 47.0086 47.3711C46.9616 47.2642 46.9053 47.1609 46.8419 47.0627C46.3688 47.01 45.8952 46.9583 45.4221 46.9057Z" fill="#F05962"/>
<path d="M47.7143 45.3436C48.0094 45.2966 48.3332 45.3544 48.5562 45.5523C48.7797 45.7513 48.8692 46.1078 48.7147 46.3635C48.5644 46.6121 48.2237 46.7021 47.9475 46.6131C47.6713 46.5246 47.4606 46.2883 47.3415 46.0239C47.2791 45.8868 47.2386 45.7257 47.3031 45.5896C47.3747 45.4398 47.5501 45.3702 47.7143 45.3436Z" fill="#394D6A"/>
<path d="M44.7866 63.4069C44.2818 63.8559 43.489 63.7337 42.8717 63.458C42.5065 63.2944 42.1352 63.057 42.0027 62.6801C41.8851 62.3461 41.9812 61.9784 42.0825 61.6388C42.5229 60.1652 43.0645 58.7229 43.7023 57.3231C43.8368 57.0285 44.0122 56.7037 44.3268 56.6224C44.4306 56.5963 44.5426 56.5993 44.6424 56.5569C44.7411 56.5149 44.8234 56.3999 44.7769 56.3027C45.3236 56.4664 45.8474 56.7042 46.3302 57.008C46.503 57.1169 46.6821 57.2479 46.748 57.4417C46.814 57.6366 46.7521 57.8483 46.6908 58.0442C46.233 59.4952 45.7758 60.9462 45.318 62.3973C45.2019 62.7645 45.074 63.1506 44.7866 63.4069Z" fill="#394D6A"/>
<path d="M43.6129 63.2043C44.0804 63.2043 44.4609 62.8243 44.4609 62.3563C44.4609 61.8888 44.0804 61.5083 43.6129 61.5083C43.1449 61.5083 42.7644 61.8888 42.7644 62.3563C42.7644 62.8243 43.1449 63.2043 43.6129 63.2043ZM43.6129 61.6352C44.0103 61.6352 44.3341 61.9589 44.3341 62.3563C44.3341 62.7542 44.0103 63.078 43.6129 63.078C43.215 63.078 42.8908 62.7542 42.8908 62.3563C42.8908 61.9589 43.215 61.6352 43.6129 61.6352Z" fill="#FFFEFF"/>
<path d="M62.5719 55.1381C63.7232 54.9145 64.9425 55.2511 65.9117 55.9114C66.8815 56.5722 67.6175 57.5348 68.1519 58.5792C68.6864 59.6236 69.0316 60.7534 69.3375 61.8852C69.3892 62.076 69.4367 62.2872 69.3477 62.4627C69.2731 62.6084 69.1201 62.6954 68.9728 62.767C67.9325 63.2687 66.7638 63.435 65.612 63.5188C63.2255 63.6932 60.815 63.5388 58.47 63.0621C58.2137 63.0104 57.9524 62.9516 57.734 62.8074C57.5565 62.6903 57.4184 62.5225 57.3018 62.3445C56.7822 61.5513 56.6717 60.5329 56.8819 59.6077C57.0921 58.6835 57.5985 57.8462 58.2209 57.1307C58.8388 56.4203 59.586 55.8091 60.4514 55.4388C61.3163 55.0685 62.3065 54.9524 63.2112 55.2117" fill="#394D6A"/>
<path d="M62.1864 54.9729C62.1864 55.0691 62.2646 55.1483 62.3608 55.1483H70.9359C71.0321 55.1483 71.1104 55.0691 71.1104 54.9729C71.1104 54.8773 71.0321 54.7985 70.9359 54.7985H62.3608C62.2646 54.7985 62.1864 54.8773 62.1864 54.9729Z" fill="#394D6A"/>
<path d="M37.9076 62.1436C38.0605 60.8655 38.4354 59.8988 39.2522 58.926C39.535 58.5895 39.8624 58.1992 40.4695 57.7982C42.0059 56.782 44.0297 56.5953 45.602 57.5389C47.1502 58.4682 48.1337 60.2844 48.2217 62.1436H37.9076Z" fill="#F05962"/>
<path d="M47.6992 61.8935C47.5847 60.6563 46.8134 59.4988 45.7153 58.9173C44.6177 58.3358 43.227 58.3475 42.1396 58.948C41.0518 59.5484 40.3004 60.7186 40.2073 61.9574L47.6992 61.8935Z" fill="#D94856"/>
<path d="M39.6573 60.5115C39.6798 60.5115 39.7023 60.5003 39.7136 60.4788C40.4675 59.0978 41.7742 58.1301 43.2079 57.8892C44.7376 57.632 46.3257 58.2636 47.1599 59.4605C47.1799 59.4891 47.2187 59.4963 47.2479 59.4763C47.2765 59.4564 47.2842 59.416 47.2643 59.3873C46.4024 58.1516 44.7647 57.499 43.1869 57.7634C41.7144 58.0105 40.3744 59.0032 39.6026 60.4179C39.5852 60.4486 39.5969 60.487 39.6276 60.5038C39.6374 60.5095 39.6471 60.5115 39.6573 60.5115Z" fill="#FFFEFF"/>
<path d="M55.5334 54.2446C55.3794 54.0861 55.4797 53.8216 55.607 53.6411C56.0745 52.9782 56.8023 52.5328 57.571 52.2745C58.3398 52.0167 59.1545 51.9297 59.9631 51.8633C60.3442 51.8321 60.7544 51.8121 61.0812 52.0111C61.5456 52.2939 61.6694 52.9 61.7492 53.4375C61.8049 53.814 61.8126 54.2922 61.4745 54.4671C61.3354 54.5392 61.1702 54.5351 61.0137 54.53C59.3105 54.4712 57.6074 54.4129 55.9042 54.3546C55.7717 54.35 55.626 54.3398 55.5334 54.2446Z" fill="#394D6A"/>
<path d="M57.1217 53.9955C57.1421 53.9955 57.1615 53.9853 57.1738 53.9669C58.0034 52.7332 59.6518 52.1026 61.0937 52.4673C61.1274 52.4755 61.1622 52.455 61.1709 52.4212C61.1796 52.3875 61.1586 52.3527 61.1243 52.344C59.6334 51.966 57.9277 52.6202 57.069 53.8973C57.0495 53.926 57.0577 53.9648 57.0864 53.9843C57.0971 53.9914 57.1099 53.9955 57.1217 53.9955Z" fill="#FFFEFF"/>
<path d="M49.374 52.7404C49.5009 52.5951 49.7316 52.6304 49.9182 52.679C50.2087 52.7537 50.5422 52.8667 50.6399 53.1506C50.6824 53.2754 50.6696 53.4119 50.6558 53.5423C50.579 54.2927 50.5018 55.0425 50.4246 55.7928C50.3975 56.0541 50.1602 56.2408 49.9003 56.2045L49.3515 56.1293C49.2303 56.1129 49.0994 56.0915 49.0135 56.0035C48.8963 55.8833 48.9117 55.6905 48.9347 55.5232C49.0488 54.6901 49.1633 53.8564 49.2779 53.0222C49.2917 52.9225 49.3081 52.8161 49.374 52.7404Z" fill="#FFFEFF"/>
<path d="M50.3633 52.3864L50.2907 52.9245L49.7536 52.8002L49.928 52.2841L50.3633 52.3864Z" fill="#FFFEFF"/>
<path d="M50.6546 52.5379C50.3549 52.4714 50.049 52.4294 49.7427 52.4131C49.7595 52.2238 49.7769 52.0356 49.7938 51.8464L50.7451 51.9712C50.7374 52.163 50.7068 52.3532 50.6546 52.5379Z" fill="#F05962"/>
<path d="M51.1293 52.4534C51.1447 52.5082 51.1406 52.5721 51.1032 52.6146C51.0654 52.6565 50.9892 52.6647 50.9544 52.6197C50.9708 52.5373 50.9217 52.4519 50.8521 52.4038C50.7831 52.3568 50.6966 52.3404 50.6127 52.3343C50.5284 52.3276 50.4435 52.3302 50.3611 52.3143C50.4041 52.2519 50.425 52.1747 50.4194 52.1C50.5498 52.1476 50.6915 52.1558 50.8245 52.1957C50.958 52.2356 51.0915 52.32 51.1293 52.4534Z" fill="#F05962"/>
<path d="M48.724 54.6016C48.7496 54.0963 48.8135 53.5915 48.9148 53.0959C49.2063 53.8165 49.9234 54.3469 50.6982 54.4149C50.6834 54.5689 50.6681 54.7218 50.6532 54.8757C50.0165 54.7453 49.372 54.6538 48.724 54.6016Z" fill="#394D6A"/>
<path d="M70.7499 46.541C71.1719 46.8228 71.5974 47.1404 71.8225 47.5946C72.0792 48.1122 72.0352 48.7218 71.9759 49.2967C71.8424 50.6045 71.6619 51.9088 71.4368 53.2043C71.3458 53.728 71.2169 54.3003 70.7898 54.6164C70.4252 54.886 69.9372 54.8962 69.4836 54.8952C67.3774 54.8921 65.2707 54.8885 63.164 54.8855C62.7937 54.8849 62.3712 54.8619 62.1359 54.5755C61.9569 54.3581 61.9431 54.0533 61.9375 53.772C61.8848 51.0418 61.8326 48.3106 61.7799 45.5799C61.7738 45.2516 61.7723 44.9023 61.9472 44.624C62.1078 44.3673 62.3937 44.2154 62.6801 44.1172C63.7307 43.7556 64.8901 43.9699 65.955 44.288C67.653 44.7948 69.2754 45.5574 70.7499 46.541Z" fill="#F05962"/>
<path d="M62.5872 49.5136C65.4718 49.5126 68.3575 49.8245 71.1751 50.4429C71.1945 49.6133 71.214 48.7842 71.2334 47.9552C68.5508 46.5282 65.5772 45.6521 62.5488 45.3968C62.5621 46.7691 62.5744 48.1413 62.5872 49.5136Z" fill="#F2D843"/>
<path d="M65.0931 52.0156C65.0931 52.8948 65.805 53.6068 66.6837 53.6068C67.5629 53.6068 68.2754 52.8948 68.2754 52.0156C68.2754 51.1364 67.5629 50.4245 66.6837 50.4245C65.805 50.4245 65.0931 51.1364 65.0931 52.0156Z" fill="#F2D843"/>
<path d="M64.8499 44.5115C66.3996 44.7877 67.8823 45.3549 69.3298 45.9743C70.1302 46.317 70.97 46.7169 71.4268 47.4575C70.9608 46.9599 70.231 46.5655 69.5988 46.3113C68.4925 45.8653 67.6215 45.5211 66.4886 45.1483C65.366 44.779 64.0034 44.4941 62.8485 44.7437C63.4106 44.3427 64.1702 44.3903 64.8499 44.5115Z" fill="#FFFEFF"/>
<path d="M63.1392 55.8363C64.2905 55.6123 65.5098 55.9488 66.4791 56.6096C67.4488 57.2699 68.1848 58.2325 68.7192 59.2769C69.2537 60.3208 69.599 61.4511 69.9048 62.583C69.956 62.7732 70.0045 62.9855 69.915 63.1609C69.8409 63.3067 69.6874 63.3931 69.5401 63.4642C68.4998 63.9665 67.3311 64.1327 66.1793 64.2166C63.7929 64.391 61.3824 64.2365 59.0373 63.7598C58.7811 63.7082 58.5192 63.6489 58.3013 63.5051C58.1238 63.388 57.9857 63.2208 57.8691 63.0428C57.3495 62.2495 57.239 61.2307 57.4492 60.3054C57.6594 59.3807 58.1658 58.5435 58.7882 57.8284C59.4056 57.118 60.1533 56.5063 61.0187 56.136C61.8836 55.7657 62.8738 55.6501 63.7785 55.9094" fill="#F05962"/>
<path d="M59.4456 57.4535C59.5106 57.4535 59.5755 57.4545 59.6405 57.455C59.6175 57.7425 59.9494 57.9118 60.2246 57.9997C63.1154 58.9224 66.0481 59.708 68.9793 60.4931C69.1966 61.2766 69.4135 62.0602 69.6309 62.8432C65.9422 62.7118 62.3477 61.7047 58.7951 60.7038C58.4754 60.6143 58.1082 60.4783 58.0171 60.1591C57.943 59.8978 58.0918 59.6297 58.235 59.3991C58.6386 58.7505 59.0421 58.102 59.4456 57.4535Z" fill="#F2D843"/>
<path d="M68.5757 59.5612C68.5839 59.5612 68.592 59.5597 68.5997 59.5566C68.6319 59.5438 68.6483 59.507 68.635 59.4743C68.0642 58.0642 66.872 56.9057 65.4471 56.3743C64.0221 55.8424 62.3625 55.938 61.0081 56.63C60.9769 56.6459 60.9646 56.6832 60.9805 56.7149C60.9963 56.7456 61.0342 56.7589 61.0654 56.7421C62.3891 56.0664 64.0109 55.9733 65.4031 56.493C66.7958 57.0121 67.9594 58.1445 68.5169 59.5224C68.5271 59.5469 68.5506 59.5612 68.5757 59.5612Z" fill="#FFFEFF"/>
<path d="M59.2032 63.1736C59.2114 63.2345 59.2682 63.2954 59.3316 63.3092C60.0824 63.4698 60.4532 63.5081 61.1611 63.4994C61.2209 63.4984 61.2506 63.4462 61.2276 63.3838C61.2045 63.322 61.1386 63.2723 61.0808 63.2734C60.3913 63.2821 60.0313 63.2447 59.3004 63.0882C59.2385 63.0754 59.195 63.1128 59.2032 63.1736Z" fill="#394D6A"/>
<path d="M59.1215 62.6791C59.1297 62.7394 59.187 62.8008 59.2499 62.8146C60.0012 62.9747 60.3721 63.0136 61.0804 63.0044C61.1398 63.0039 61.1684 62.9512 61.1454 62.8888C61.1229 62.8264 61.0574 62.7778 60.9991 62.7783C60.3097 62.7875 59.9496 62.7502 59.2187 62.5931C59.1573 62.5804 59.1133 62.6182 59.1215 62.6791Z" fill="#394D6A"/>
<path d="M59.0391 62.184C59.0473 62.2448 59.1046 62.3057 59.1675 62.3195C59.9183 62.4801 60.2891 62.5185 60.997 62.5098C61.0568 62.5088 61.0865 62.4566 61.0635 62.3942C61.041 62.3323 60.9745 62.2827 60.9167 62.2837C60.2273 62.2924 59.8672 62.2551 59.1363 62.0986C59.0744 62.0858 59.031 62.1231 59.0391 62.184Z" fill="#394D6A"/>
<path d="M47.9856 59.8236C47.4378 58.7725 46.6374 57.8596 45.6937 57.143C45.0298 56.6387 44.2591 56.1876 43.9159 55.4281C43.5016 54.5105 43.8422 53.4462 44.1854 52.5005C44.5557 51.4801 44.9255 50.4593 45.2953 49.4394C45.4446 49.0272 45.6431 48.6369 45.8891 48.2743C46.0973 47.9679 46.5167 47.6063 46.9401 47.7209C46.9453 48.3664 47.6664 48.9351 48.0265 49.4706C48.6321 50.3718 48.5502 51.5492 48.4786 52.6325C48.3789 54.1244 48.3415 55.6327 48.5937 57.1067C48.8464 58.5802 49.4044 60.0292 50.3828 61.16C50.5623 61.3682 50.7705 61.6239 50.6871 61.8853C50.5935 62.1784 50.1997 62.2454 49.9025 62.1671C49.3982 62.0341 48.9957 61.6459 48.7083 61.2107C48.4208 60.7749 48.2275 60.286 47.9856 59.8236Z" fill="#F05962"/>
<path d="M47.4987 52.1297C47.2731 52.1583 47.1028 51.9277 47.0256 51.7134C46.8619 51.2572 46.8701 50.7457 46.6583 50.3094C46.5888 50.1662 46.4962 50.0327 46.4492 49.8813C46.4021 49.7289 46.4113 49.5453 46.5243 49.4338C46.6328 49.3264 46.8102 49.3151 46.9524 49.3709C47.0936 49.4277 47.2061 49.5397 47.3043 49.6558C47.7764 50.2122 48.0337 50.9805 47.8613 51.6898C47.8137 51.8862 47.6997 52.1041 47.4987 52.1297Z" fill="#FFFEFF"/>
<path d="M50.1817 61.3012C50.196 61.3012 50.2109 61.2961 50.2226 61.2864C50.2492 61.2639 50.2528 61.2235 50.2303 61.1969C48.4601 59.0983 48.2177 56.451 48.3266 54.5985C48.3532 54.1428 48.3538 53.6784 48.3543 53.2283C48.3548 52.857 48.3553 52.4734 48.3701 52.0985L48.3778 51.9287C48.4115 51.1533 48.4463 50.3508 48.0014 49.6911C47.8643 49.487 47.719 49.3131 47.5784 49.1443C47.2659 48.7684 46.9702 48.4139 46.8112 47.7951C46.8025 47.7613 46.7682 47.7409 46.734 47.7501C46.6997 47.7588 46.6792 47.7935 46.6884 47.8273C46.8541 48.4733 47.159 48.839 47.4812 49.2261C47.6193 49.3924 47.7625 49.5637 47.896 49.7616C48.3179 50.3866 48.2837 51.1682 48.2509 51.9231L48.2433 52.0929C48.2284 52.4703 48.2279 52.8555 48.2274 53.2283C48.2269 53.6764 48.2264 54.1397 48.1998 54.5919C48.0898 56.4669 48.3369 59.148 50.1336 61.2782C50.1464 61.2925 50.1638 61.3012 50.1817 61.3012Z" fill="#FFFEFF"/>
<path d="M55.0239 37.35C55.8765 37.1925 56.0816 37.0022 56.7163 36.412L57.7295 38.5607C56.9004 39.1601 56.166 39.5406 55.163 39.8593C55.41 39 55.4254 38.0047 55.0239 37.35Z" fill="#F59089"/>
<path d="M55.3355 38.6696C55.3371 38.1796 55.2465 37.7121 55.024 37.35C55.7887 37.2089 56.0337 37.0396 56.5339 36.5808C56.5901 37.5403 56.0776 38.2354 55.3355 38.6696Z" fill="#394D6A"/>
<path d="M53.8723 34.8495C53.9419 34.5436 54.1987 34.3063 54.4881 34.1861C54.7776 34.0659 55.0983 34.0465 55.4118 34.046C55.8169 34.046 56.2573 34.0894 56.5529 34.3666C56.7467 34.5487 56.8501 34.808 56.9048 35.0689C57.0608 35.8156 56.846 36.6237 56.3698 37.2206C55.8941 37.817 55.3034 38.2752 54.5659 38.3044C54.3792 37.7975 54.2043 37.4804 54.0907 36.8979C54.0657 36.771 54.1501 36.6478 54.1378 36.5782C54.123 36.4938 53.9884 36.3925 53.9746 36.3081C53.9127 35.9291 53.9035 35.701 53.8662 35.319C53.8509 35.1625 53.8376 35.0029 53.8723 34.8495Z" fill="#F59089"/>
<path d="M55.5748 36.0489C55.5522 35.9333 55.4484 35.8248 55.3323 35.8402C55.2162 35.856 55.1165 35.9706 55.1088 36.0872C55.0986 36.2494 55.0976 36.3614 55.0413 36.4279C54.9446 36.1031 54.8076 35.7901 54.6301 35.5011L56.5716 34.9068C56.6212 34.8914 56.6729 34.8756 56.724 34.8838C56.769 34.8909 56.8094 34.9165 56.8447 34.9451C57.0058 35.0776 57.0728 35.2965 57.0769 35.5052C57.081 35.7139 57.0314 35.92 56.9997 36.1261C56.9685 36.3327 56.9557 36.5496 57.0304 36.7444C56.6688 36.7265 56.3128 36.6099 56.0105 36.4115C55.8832 36.3281 55.741 36.2284 55.5952 36.254C55.5942 36.1803 55.586 36.1067 55.5748 36.0489Z" fill="#394D6A"/>
<path d="M56.2757 34.0368C55.9688 33.8971 55.6174 33.9007 55.2819 33.9324C54.9009 33.9682 54.5163 34.0388 54.1802 34.2209C54.0687 34.2818 53.9588 34.3595 53.9025 34.4736C53.8616 34.558 53.8534 34.6541 53.8463 34.7472C53.8345 34.8986 53.8227 35.0495 53.811 35.2009C53.8038 35.2919 53.8002 35.3932 53.8585 35.4638C53.9199 35.5379 54.0268 35.5497 54.1224 35.5563C54.6344 35.5911 55.1576 35.6249 55.6522 35.4873C55.9755 35.3973 56.2823 35.2351 56.6168 35.2096C56.6936 35.2039 56.7764 35.2039 56.8388 35.1584C56.9355 35.0889 56.9385 34.9462 56.9135 34.8295C56.8398 34.4858 56.5959 34.1825 56.2757 34.0368Z" fill="#394D6A"/>
<path d="M55.1846 33.8378C54.8225 33.9089 54.466 34.0128 54.1223 34.1473C53.9945 34.1974 53.8605 34.2593 53.794 34.379C53.7387 34.4772 53.7403 34.5968 53.7464 34.7094C53.7664 35.0592 53.8134 35.4075 53.8876 35.7497C54.7811 35.8504 55.6987 35.7343 56.539 35.4142C56.7395 35.3379 56.9625 35.2162 56.9927 35.004C57.0075 34.9012 56.9717 34.7984 56.9359 34.7007C56.8607 34.4925 56.7819 34.2792 56.6336 34.115C56.4612 33.9243 56.2081 33.8194 55.9523 33.7872C55.6966 33.7545 55.4373 33.7882 55.1846 33.8378Z" fill="#F05962"/>
<path d="M53.8367 34.985C53.8163 34.8193 53.7968 34.6433 53.8664 34.4914C53.9365 34.3375 54.0874 34.2347 54.2454 34.1748C54.4039 34.1155 54.5727 34.093 54.7369 34.0526C54.6474 34.1426 54.6003 34.2674 54.5845 34.3932C54.5697 34.5191 54.5835 34.6459 54.6029 34.7712C54.6561 35.1149 54.7476 35.454 54.875 35.7778C54.7328 35.789 54.5896 35.8003 54.4479 35.7813C54.3068 35.7624 54.1661 35.7108 54.0638 35.6115C53.9012 35.4535 53.8649 35.2095 53.8367 34.985Z" fill="#F2D843"/>
<path d="M53.8748 35.5001C53.682 35.4796 53.6488 35.6044 52.9542 35.7353C53.2897 36.0146 53.6165 36.1568 54.0446 36.0709C54.4727 35.9849 54.8645 35.8796 55.2793 35.7369C54.8042 35.7778 54.349 35.5497 53.8748 35.5001Z" fill="#F05962"/>
<path d="M56.6285 34.6122C56.6357 34.5835 56.6638 34.5667 56.6894 34.5523C56.7165 34.537 56.7482 34.5216 56.7779 34.5319C56.807 34.5421 56.8219 34.5738 56.8336 34.6019C56.8623 34.671 56.8914 34.7436 56.8848 34.8178C56.8781 34.8925 56.8229 34.9682 56.7482 34.9707C56.7119 34.872 56.6751 34.7733 56.6388 34.6751C56.6311 34.6546 56.6234 34.6331 56.6285 34.6122Z" fill="#394D6A"/>
<path d="M53.9627 37.0303C53.9944 36.9556 54.0149 36.8513 54.0906 36.8216C54.1525 36.7976 54.2215 36.8032 54.287 36.8135C54.6169 36.8646 54.6517 36.9019 54.981 36.9572C55.0537 37.2809 55.337 37.5131 55.4639 37.82C55.3334 37.9295 55.2618 38.201 55.0972 38.2445C54.9325 38.288 54.7621 38.3074 54.5929 38.3264C54.5381 38.3325 54.4783 38.3371 54.4323 38.3069C54.4062 38.2895 54.3883 38.2624 54.3704 38.2363C54.309 38.1433 54.2768 38.0701 54.2154 37.977C54.1197 37.8328 53.9929 37.6671 53.9351 37.5039C53.8773 37.3408 53.8952 37.1899 53.9627 37.0303Z" fill="#F3D844"/>
<path d="M55.2652 37.952C55.2703 37.9525 55.2754 37.9525 55.2805 37.952C55.3946 37.9392 55.4846 37.8451 55.547 37.6722C55.724 37.1818 55.7644 36.6524 55.6636 36.1409C55.657 36.1087 55.6258 36.0872 55.5936 36.0934C55.5613 36.0995 55.5404 36.1307 55.5465 36.1629C55.6432 36.6534 55.6053 37.1623 55.4355 37.6323C55.3895 37.7592 55.3327 37.8267 55.2672 37.8344C55.2345 37.838 55.211 37.8676 55.2146 37.9004C55.2181 37.928 55.2391 37.9479 55.2652 37.952Z" fill="#FFFEFF"/>
<path d="M54.8187 37.171C54.8391 37.1741 54.8596 37.1669 54.8729 37.15C55.077 36.8953 55.1588 36.5537 55.0908 36.2345C55.0841 36.2023 55.0519 36.1819 55.0197 36.189C54.9875 36.1957 54.9675 36.2274 54.9742 36.2596C55.035 36.5435 54.9624 36.8483 54.7803 37.0754C54.7599 37.1004 54.7645 37.1388 54.79 37.1593C54.7987 37.1659 54.8084 37.1695 54.8187 37.171Z" fill="#FFFEFF"/>
<path d="M46.9487 46.2929C47.1656 46.1344 47.363 45.9497 47.5353 45.7446C47.5722 45.7017 47.608 45.6567 47.6279 45.6035C47.6479 45.5508 47.6499 45.4884 47.6197 45.4403C47.5793 45.3754 47.4965 45.3549 47.4264 45.3232C47.3517 45.2894 47.2832 45.2352 47.2515 45.16C47.2193 45.0854 47.2315 44.9882 47.2939 44.9355C47.5471 45.112 47.901 45.0347 48.1864 45.1534C48.3204 45.2096 48.4325 45.3058 48.5516 45.3897C48.7879 45.3467 49.0206 45.2812 49.2426 45.1897C49.2436 45.1938 49.2446 45.1969 49.2457 45.2004C51.8531 44.0389 54.9198 40.872 56.2031 39.4475C57.5359 39.0097 58.232 39.5263 57.9221 40.6935C56.5493 44.8884 52.3579 46.3354 49.6288 46.518C49.6344 46.5379 49.6405 46.5589 49.6461 46.5788C49.4139 46.6013 49.1833 46.6376 48.9541 46.6811C48.7265 46.8468 48.4734 46.9788 48.2059 47.0668C48.1041 47.1 47.99 47.1266 47.8923 47.0826C47.8023 47.0417 47.743 46.9461 47.6484 46.9164C47.5747 46.8929 47.4919 46.9133 47.4192 46.8877C47.3016 46.8463 47.251 46.7026 47.141 46.6443C47.0848 46.6146 47.0188 46.6105 46.9579 46.5921C46.8965 46.5737 46.8341 46.5302 46.828 46.4673C46.8203 46.3932 46.8889 46.3369 46.9487 46.2929Z" fill="#394D6A"/>
<path d="M50.2814 60.8583C50.2876 60.8046 50.2942 60.7493 50.3009 60.6956C51.0573 60.7468 51.8163 60.7637 52.5743 60.7406C52.626 60.7391 52.6781 60.7376 52.7283 60.7493C52.7789 60.7621 52.8121 60.736 52.8372 60.7811C52.8623 60.8261 52.8725 60.9442 52.8331 60.9775C52.4311 61.0363 52.0219 61.0117 51.6158 61.0327C51.3872 61.0445 51.1581 61.0705 50.9295 61.0583C50.7008 61.0455 50.4676 60.9923 50.2814 60.8583Z" fill="#FFFEFF"/>
<path d="M51.481 60.9166C51.0733 60.9335 50.6432 60.9411 50.2836 60.7478C50.2836 60.5882 50.4013 60.4486 50.5414 60.3734C50.6816 60.2972 50.8422 60.2727 50.9987 60.244C51.1552 60.2154 51.3158 60.1796 51.4452 60.0865C51.5741 59.9929 51.6641 59.8282 51.6237 59.6743C51.9853 59.7131 52.3505 59.7234 52.7136 59.706C52.8159 60.0747 52.8604 60.4593 52.8445 60.8419C52.3903 60.8731 51.9357 60.8977 51.481 60.9166Z" fill="#394D6A"/>
<path d="M51.6456 59.9561C51.6277 59.9515 51.6103 59.9632 51.595 59.9734C51.3515 60.1417 51.0681 60.2532 50.7746 60.2952C50.8278 60.3519 50.9106 60.3739 50.9884 60.3714C51.0666 60.3678 51.1418 60.3417 51.216 60.3166C51.3796 60.2604 51.5535 60.1954 51.6522 60.0527C51.663 60.0374 51.6737 60.02 51.6747 60.0011C51.6758 59.9816 51.6645 59.9607 51.6456 59.9561Z" fill="#D94856"/>
<path d="M51.5543 60.2522C51.5645 60.2522 51.5753 60.2486 51.5834 60.2414C51.6019 60.2251 51.6039 60.1975 51.5875 60.1785C51.5328 60.1161 51.4725 60.0578 51.407 60.0067C51.3881 59.9913 51.3599 59.9954 51.3451 60.0144C51.3298 60.0338 51.3328 60.0614 51.3523 60.0762C51.4131 60.1243 51.4694 60.1785 51.521 60.2374C51.5297 60.2471 51.542 60.2522 51.5543 60.2522Z" fill="#FFFEFF"/>
<path d="M51.3749 60.3402C51.3841 60.3402 51.3928 60.3371 51.4005 60.331C51.4204 60.3166 51.425 60.2885 51.4102 60.2691C51.3657 60.2092 51.3125 60.1555 51.2537 60.109C51.2348 60.0936 51.2067 60.0967 51.1918 60.1161C51.1765 60.1356 51.1795 60.1632 51.199 60.1785C51.2517 60.2205 51.2987 60.2686 51.3386 60.3223C51.3473 60.334 51.3611 60.3402 51.3749 60.3402Z" fill="#FFFEFF"/>
<path d="M51.151 60.3857C51.1591 60.3857 51.1668 60.3831 51.174 60.3785C51.1949 60.3657 51.2016 60.3386 51.1888 60.3177C51.1561 60.2655 51.1167 60.2179 51.0712 60.177C51.0528 60.1606 51.0251 60.1622 51.0088 60.1806C50.9919 60.1985 50.9934 60.2261 51.0118 60.243C51.0512 60.2783 51.085 60.3192 51.1131 60.3642C51.1213 60.378 51.1361 60.3857 51.151 60.3857Z" fill="#FFFEFF"/>
<path d="M57.8397 38.4051C59.2713 40.2413 59.8282 41.7608 60.1387 44.0685C60.4113 46.0939 60.4036 47.7638 60.3305 49.7156C60.3146 50.1406 59.906 50.4398 59.4953 50.3288C57.897 49.8982 56.5789 49.6235 54.9218 49.7084C54.5822 49.7258 54.3173 49.4266 54.3674 49.0901C54.7101 46.788 53.8089 44.0563 54.0145 42.9597C54.2001 41.9695 54.4482 41.5644 54.7699 40.61C54.8461 40.3829 54.931 40.1277 55.0077 39.8597C56.0102 39.5416 56.9794 38.9483 57.8085 38.3489L57.8397 38.4051Z" fill="#F05962"/>
<path d="M54.7699 40.6101C54.8461 40.383 54.9305 40.1283 55.0072 39.8603C55.8337 39.5979 56.6357 39.1483 57.3569 38.6624C58.6299 40.4919 56.6536 42.4329 56.8464 44.3831C56.9554 45.8878 57.7594 47.1645 57.2208 48.574C57.1968 48.7367 56.9635 49.198 56.9395 49.3602C57.0715 49.5381 57.2188 49.6993 57.3758 49.8491C56.5917 49.7207 55.8046 49.6635 54.9213 49.7085C54.5817 49.7258 54.3172 49.4266 54.3674 49.0901C54.71 46.788 53.8089 44.0568 54.014 42.9602C54.2001 41.9701 54.4482 41.5645 54.7699 40.6101Z" fill="#D94856"/>
<path d="M58.1493 41.6948C57.6158 43.5294 56.2794 45.115 54.5619 45.9517C54.4852 45.4689 54.409 44.9866 54.3322 44.5033C56.0738 43.5663 57.3913 41.8728 57.8705 39.9543C58.1186 40.1441 58.2505 40.4586 58.2771 40.7701C58.3042 41.0821 58.2367 41.3941 58.1493 41.6948Z" fill="#394D6A"/>
<path d="M57.607 38.0783C57.7538 38.2522 57.9011 38.4256 58.0479 38.5995C57.0848 39.1585 56.1565 39.7779 55.2701 40.4525C55.2665 40.2024 55.2594 39.9866 55.0783 39.8142C55.0108 39.8986 54.9571 40.2065 54.8901 40.2909C54.8011 40.0433 54.8001 39.5053 54.9863 39.3196C55.1724 39.1335 55.42 39.025 55.6614 38.9202L57.607 38.0783Z" fill="#FFFEFF"/>
<path d="M58.8415 40.5835C58.8757 40.5088 58.9417 40.4996 58.9949 40.5359C59.0481 40.5722 59.0916 40.6454 59.1315 40.718C59.5514 41.4744 59.8347 42.4616 59.9278 43.486C59.935 43.5684 59.9411 43.6548 59.9273 43.732C59.9135 43.8093 59.8736 43.8758 59.827 43.8696C59.782 43.864 59.7467 43.7975 59.7161 43.7351C59.3187 42.9076 59.0164 41.9389 58.8374 40.9144C58.8179 40.8029 58.8016 40.6699 58.8415 40.5835Z" fill="#F2D843"/>
<path d="M56.4114 39.6582C57.7442 39.2204 58.4403 39.7365 58.1299 40.9047C56.6242 45.5078 51.7218 46.8033 49.0842 46.7481C48.629 46.6581 48.5405 46.0351 48.4924 45.7502C51.2579 45.0807 54.966 41.2627 56.4114 39.6582Z" fill="#F05962"/>
<path d="M47.158 46.5042C47.3749 46.3456 47.5733 46.161 47.7457 45.9559C47.782 45.9129 47.8173 45.8679 47.8372 45.8147C47.8572 45.7625 47.8592 45.6996 47.8291 45.6515C47.7887 45.5866 47.7058 45.5661 47.6362 45.5344C47.5616 45.5012 47.493 45.4465 47.4613 45.3713C47.4286 45.2966 47.4414 45.1994 47.5033 45.1467C47.7564 45.3232 48.1104 45.246 48.3958 45.3646C48.5303 45.4209 48.6418 45.517 48.7609 45.6009C48.9972 45.558 49.23 45.4925 49.4519 45.4009C49.587 45.8638 49.7215 46.3267 49.8555 46.7906C49.6233 46.8126 49.3936 46.8489 49.164 46.8924C48.9364 47.0581 48.6832 47.19 48.4157 47.278C48.3139 47.3112 48.1999 47.3378 48.1027 47.2938C48.0122 47.2529 47.9523 47.1573 47.8577 47.1276C47.7846 47.1041 47.7022 47.1246 47.6296 47.099C47.5114 47.0576 47.4613 46.9138 47.3508 46.8555C47.2946 46.8264 47.2286 46.8223 47.1677 46.8034C47.1064 46.7849 47.044 46.742 47.0378 46.6786C47.0302 46.6044 47.0982 46.5481 47.158 46.5042Z" fill="#FFFEFF"/>
<path d="M57.4863 41.2673C57.496 41.4064 57.47 41.5476 57.4014 41.678C57.2393 41.9885 56.8685 42.1639 56.5284 42.0739C56.223 41.9931 55.9801 41.7164 55.934 41.4039C55.888 41.0914 56.0374 40.7594 56.2992 40.5819C56.4787 40.4602 56.7166 40.4106 56.9186 40.4894C57.2383 40.6131 57.4633 40.9333 57.4863 41.2673Z" fill="#F2D843"/>
<path d="M59.1115 49.4087C59.1115 49.4087 61.3092 51.3252 59.7876 53.2416C58.266 55.1575 53.0246 51.9456 52.574 53.5797C52.1229 55.2143 54.2081 61.4137 54.2081 61.4137L53.3064 61.5263C53.3064 61.5263 47.5581 53.8047 49.4177 51.6627C51.2774 49.5218 59.1115 49.4087 59.1115 49.4087Z" fill="#F05962"/>
<path d="M51.1575 62.0121L51.1811 61.8111C52.1165 61.8751 53.0545 61.896 53.9915 61.8674C54.0555 61.8654 54.1199 61.8638 54.1823 61.8787C54.2442 61.894 54.2851 61.8613 54.3163 61.917C54.347 61.9733 54.3603 62.119 54.3112 62.16C53.8141 62.2321 53.3087 62.2019 52.807 62.228C52.5242 62.2428 52.2408 62.2755 51.958 62.2602C51.6751 62.2449 51.3877 62.1773 51.1575 62.0121Z" fill="#FFFEFF"/>
<path d="M52.6403 62.0852C52.1366 62.1057 51.6052 62.1149 51.1607 61.8761C51.1607 61.6791 51.3059 61.5063 51.4788 61.4132C51.6517 61.3191 51.8507 61.2884 52.044 61.2531C52.2378 61.2178 52.4363 61.1728 52.5959 61.0577C52.7554 60.9432 52.8669 60.7391 52.8168 60.5488C53.2638 60.5969 53.7149 60.6102 54.164 60.5882C54.2903 61.0444 54.345 61.5201 54.3251 61.9917C53.764 62.031 53.2024 62.0617 52.6403 62.0852Z" fill="#394D6A"/>
<path d="M52.8426 60.8976C52.8206 60.892 52.7991 60.9063 52.7802 60.9191C52.4794 61.1273 52.1286 61.2648 51.7665 61.3165C51.8319 61.3871 51.9342 61.4147 52.0304 61.4106C52.1271 61.406 52.2201 61.3748 52.3112 61.3431C52.5132 61.273 52.729 61.1932 52.8513 61.0173C52.8646 60.9979 52.8769 60.9764 52.8779 60.9529C52.8789 60.9293 52.8656 60.9032 52.8426 60.8976Z" fill="#D94856"/>
<path d="M52.7312 61.2634C52.744 61.2634 52.7568 61.2588 52.7675 61.2501C52.79 61.2301 52.7926 61.1959 52.7726 61.1728C52.7051 61.0956 52.6299 61.024 52.5496 60.9606C52.5261 60.9417 52.4913 60.9458 52.4729 60.9698C52.454 60.9938 52.4581 61.0281 52.4816 61.047C52.5568 61.1064 52.6269 61.1723 52.6898 61.2444C52.701 61.2567 52.7159 61.2634 52.7312 61.2634Z" fill="#FFFEFF"/>
<path d="M52.5078 61.3723C52.5191 61.3723 52.5303 61.3687 52.5406 61.3616C52.5646 61.3437 52.5697 61.3094 52.5518 61.2849C52.4966 61.2112 52.4316 61.1442 52.359 61.0864C52.3355 61.0675 52.3007 61.0716 52.2823 61.0956C52.2628 61.1191 52.2669 61.1539 52.291 61.1723C52.3564 61.2245 52.4142 61.2838 52.4638 61.3503C52.4746 61.3646 52.4909 61.3723 52.5078 61.3723Z" fill="#FFFEFF"/>
<path d="M52.2313 61.4281C52.2411 61.4281 52.2518 61.4255 52.2605 61.4199C52.2861 61.404 52.2937 61.3713 52.2779 61.3452C52.238 61.2803 52.1889 61.2219 52.1331 61.1708C52.1101 61.1509 52.0759 61.1524 52.0554 61.1754C52.0355 61.1979 52.037 61.2317 52.0595 61.2521C52.1081 61.2956 52.1505 61.3467 52.1853 61.4025C52.1955 61.4194 52.2129 61.4281 52.2313 61.4281Z" fill="#FFFEFF"/>
<path d="M54.4447 36.2401C54.3867 36.2401 54.3396 36.3309 54.3396 36.4427C54.3396 36.5544 54.3867 36.6452 54.4447 36.6452C54.5027 36.6452 54.5498 36.5544 54.5498 36.4427C54.5498 36.3309 54.5027 36.2401 54.4447 36.2401Z" fill="black"/>
<path d="M40.0178 34.5235L41.6444 40.196L44.085 39.2066C44.1189 39.1927 44.1591 39.2084 44.1748 39.2418L45.9185 42.7999L43.433 34.1318L40.0178 34.5235Z" fill="black" fill-opacity="0.05"/>
<path d="M44.0155 39.3879L41.6839 40.3334L42.6151 43.5809L45.9575 43.1998L44.1065 39.4205C44.0887 39.3877 44.0511 39.3732 44.0155 39.3879Z" fill="black" fill-opacity="0.05"/>
<path d="M42.616 43.5824L39.9636 44.9309L37.3662 35.8728L40.0186 34.524L42.616 43.5824Z" fill="black" fill-opacity="0.05"/>
<path d="M37.9995 43.2797L39.1926 42.2476L37.3645 35.8721L33.9232 36.2904L36.6043 38.0046C36.6267 38.0173 36.6383 38.0429 36.6373 38.0688L36.4687 40.7785C36.466 40.7919 36.4699 40.8054 36.4777 40.8177L37.8918 43.2626C37.9151 43.2997 37.9664 43.31 37.9995 43.2797Z" fill="black" fill-opacity="0.05"/>
<path d="M33.8424 36.4037L36.4108 45.3609L39.9618 44.9318L39.2356 42.399L37.9638 43.4994C37.9302 43.5282 37.877 43.5204 37.8558 43.4824L36.3323 40.8532L36.3223 40.833L36.4905 38.1423C36.4917 38.1169 36.4806 38.0929 36.4576 38.0784L33.8424 36.4037Z" fill="black" fill-opacity="0.05"/>
<path d="M41.7503 42.4175L41.4217 38.9135L41.353 34.6625L44.3733 37.8911L44.4766 37.7946L41.2057 34.2981L41.281 38.9214L41.548 41.7718L38.7562 36.8329L36.2504 42.5502L33.8785 36.2778L33.7463 36.3281L36.2408 42.924L38.7721 37.1484L41.7503 42.4175Z" fill="black" fill-opacity="0.05"/>
<path d="M36.4813 45.3549L35.8305 38.7666L37.854 38.2847L37.5521 36.542L41.3136 34.5434L41.2472 34.4181L37.3952 36.4654L37.692 38.1777L35.6777 38.6577L35.6837 38.7192L36.3406 45.3686L36.4813 45.3549Z" fill="black" fill-opacity="0.05"/>
<path d="M42.194 43.7903L43.2961 42.28L40.347 42.707L39.9071 41.4793L42.1063 38.4937L38.5172 37.3765L38.4681 37.5342L41.8357 38.5824L39.7219 41.4522L40.2369 42.8897L42.9318 42.4999L42.0607 43.693L42.194 43.7903Z" fill="black" fill-opacity="0.05"/>
<path d="M43.7694 39.4892C43.8214 39.6705 44.0107 39.7754 44.192 39.7234C44.3732 39.6714 44.4782 39.4821 44.4262 39.3008C44.3743 39.1199 44.1849 39.0146 44.0036 39.0666C43.8223 39.1186 43.7175 39.3082 43.7694 39.4892Z" fill="black" fill-opacity="0.05"/>
<path d="M41.6445 40.196L41.6839 40.3335L44.0155 39.388C44.0512 39.3736 44.0888 39.3881 44.1065 39.4206L45.958 43.1997L46.0308 43.1912L45.9187 42.8001L44.1749 39.2418C44.1592 39.2087 44.1191 39.193 44.085 39.2066L41.6445 40.196Z" fill="black" fill-opacity="0.05"/>
<path d="M46.0315 43.191L45.9582 43.2001L45.9686 43.2217L46.0315 43.191Z" fill="black" fill-opacity="0.05"/>
<path d="M36.4568 38.0779C36.4798 38.0924 36.4909 38.1165 36.4898 38.1421L36.3219 40.8328L36.3319 40.8529L37.8553 43.4821C37.8766 43.5201 37.9295 43.528 37.9631 43.4995L39.2351 42.3987L39.1917 42.2474L37.9986 43.2796C37.9656 43.3101 37.9143 43.2998 37.8909 43.2624L36.4768 40.8175C36.469 40.8052 36.4651 40.7917 36.4678 40.7783L36.6364 38.0686C36.6375 38.043 36.6262 38.017 36.6037 38.0043L33.9223 36.2902L33.8128 36.3028L33.8416 36.4035L36.4568 38.0779Z" fill="black" fill-opacity="0.05"/>
<path d="M41.4801 40.2665L39.1918 42.248L39.2351 42.399L41.5551 40.389C41.5624 40.3849 41.5672 40.38 41.575 40.3778L41.684 40.3339L41.6445 40.1963L41.4905 40.2586L41.4801 40.2665Z" fill="black" fill-opacity="0.05"/>
<path d="M33.8138 36.3027L33.9232 36.2908L33.9106 36.2818C33.8771 36.26 33.8338 36.2698 33.8138 36.3027Z" fill="black" fill-opacity="0.05"/>
<path d="M33.8045 36.3598C33.809 36.3754 33.8195 36.3893 33.835 36.3994L33.8425 36.404L33.8135 36.3028C33.8018 36.321 33.7996 36.3424 33.8045 36.3598Z" fill="black" fill-opacity="0.05"/>
<path d="M36.1648 38.1948C36.2168 38.3761 36.4062 38.4813 36.5875 38.4294C36.7688 38.3774 36.8736 38.1878 36.8216 38.0065C36.7697 37.8255 36.5804 37.7206 36.3991 37.7725C36.2178 37.8245 36.1129 38.0138 36.1648 38.1948Z" fill="black" fill-opacity="0.05"/>
<path d="M39.6595 33.8772L41.286 39.5497L43.7266 38.5603C43.7605 38.5463 43.8007 38.562 43.8164 38.5955L45.5601 42.1535L43.0746 33.4855L39.6595 33.8772Z" fill="#F3F3F3"/>
<path d="M43.6581 38.7416L41.3265 39.6871L42.2577 42.9346L45.6 42.5534L43.7491 38.7742C43.7313 38.7414 43.6937 38.7269 43.6581 38.7416Z" fill="#F3F3F3"/>
<path d="M42.2566 42.9361L39.6042 44.2846L37.0068 35.2265L39.6592 33.8777L42.2566 42.9361Z" fill="#E2E2E2"/>
<path d="M37.6401 42.6334L38.8332 41.6012L37.0051 35.2258L33.5639 35.6441L36.2449 37.3583C36.2674 37.371 36.2789 37.3966 36.2779 37.4225L36.1093 40.1322C36.1067 40.1456 36.1105 40.159 36.1183 40.1714L37.5324 42.6163C37.5557 42.6534 37.607 42.6637 37.6401 42.6334Z" fill="#F3F3F3"/>
<path d="M33.483 35.7575L36.0514 44.7146L39.6025 44.2855L38.8762 41.7527L37.6044 42.8531C37.5708 42.8819 37.5177 42.8741 37.4964 42.8361L35.973 40.2069L35.963 40.1868L36.1312 37.496C36.1323 37.4707 36.1212 37.4466 36.0983 37.4322L33.483 35.7575Z" fill="#F3F3F3"/>
<path d="M41.392 41.7711L41.0633 38.2671L40.9946 34.0161L44.0149 37.2447L44.1182 37.1483L40.8473 33.6517L40.9226 38.2751L41.1896 41.1254L38.3979 36.1866L35.892 41.9038L33.5201 35.6315L33.388 35.6817L35.8824 42.2775L38.4137 36.5021L41.392 41.7711Z" fill="#CBCAC9"/>
<path d="M36.1219 44.7085L35.4712 38.1203L37.4946 37.6384L37.1927 35.8957L40.9543 33.8971L40.8878 33.7718L37.0359 35.8191L37.3326 37.5314L35.3184 38.0114L35.3243 38.0729L35.9812 44.7223L36.1219 44.7085Z" fill="#CBCAC9"/>
<path d="M41.8347 43.144L42.9367 41.6337L39.9876 42.0607L39.5477 40.8329L41.7469 37.8474L38.1579 36.7302L38.1087 36.8879L41.4763 37.9361L39.3626 40.8059L39.8775 42.2433L42.5724 41.8536L41.7014 43.0466L41.8347 43.144Z" fill="#CBCAC9"/>
<path d="M43.411 38.8428C43.463 39.0241 43.6523 39.129 43.8336 39.0771C44.0148 39.0251 44.1198 38.8358 44.0678 38.6545C44.0159 38.4735 43.8265 38.3683 43.6452 38.4203C43.4639 38.4722 43.3591 38.6618 43.411 38.8428Z" fill="#57C3B5"/>
<path d="M41.2861 39.5497L41.3255 39.6872L43.6571 38.7418C43.6928 38.7273 43.7304 38.7418 43.7481 38.7743L45.5996 42.5534L45.6724 42.5448L45.5603 42.1538L43.8165 38.5955C43.8008 38.5624 43.7607 38.5467 43.7266 38.5603L41.2861 39.5497Z" fill="#57C3B5"/>
<path d="M45.6721 42.5448L45.5988 42.5538L45.6093 42.5754L45.6721 42.5448Z" fill="#57C3B5"/>
<path d="M36.0984 37.4316C36.1214 37.4461 36.1325 37.4702 36.1314 37.4958L35.9635 40.1864L35.9735 40.2066L37.4969 42.8358C37.5182 42.8738 37.5711 42.8817 37.6047 42.8532L38.8767 41.7524L38.8333 41.601L37.6402 42.6332C37.6072 42.6638 37.5559 42.6535 37.5325 42.6161L36.1184 40.1712C36.1106 40.1588 36.1068 40.1454 36.1094 40.132L36.278 37.4223C36.2791 37.3967 36.2678 37.3707 36.2453 37.358L33.564 35.6439L33.4544 35.6565L33.4833 35.7572L36.0984 37.4316Z" fill="#57C3B5"/>
<path d="M41.1227 39.6201L38.8343 41.6016L38.8777 41.7526L41.1977 39.7426C41.205 39.7386 41.2097 39.7336 41.2175 39.7314L41.3265 39.6875L41.2871 39.55L41.1331 39.6123L41.1227 39.6201Z" fill="#57C3B5"/>
<path d="M33.4554 35.6564L33.5648 35.6445L33.5522 35.6354C33.5187 35.6136 33.4754 35.6234 33.4554 35.6564Z" fill="#57C3B5"/>
<path d="M33.4452 35.7135C33.4496 35.729 33.4601 35.7429 33.4756 35.753L33.4831 35.7577L33.4541 35.6564C33.4425 35.6747 33.4402 35.6961 33.4452 35.7135Z" fill="#57C3B5"/>
<path d="M35.8054 37.5485C35.8574 37.7298 36.0468 37.835 36.2281 37.7831C36.4094 37.7311 36.5142 37.5415 36.4622 37.3602C36.4104 37.1792 36.221 37.0743 36.0398 37.1263C35.8585 37.1782 35.7535 37.3675 35.8054 37.5485Z" fill="#57C3B5"/>
<path d="M43.7257 38.6871C43.7257 38.6871 43.723 38.6932 43.7178 38.6912C43.7125 38.6892 43.7159 38.6755 43.712 38.6756C43.7081 38.6758 43.6959 38.6847 43.6959 38.6847L43.6951 38.6828C43.6951 38.6828 43.708 38.6648 43.714 38.6674C43.72 38.6699 43.7257 38.6871 43.7257 38.6871Z" fill="#394D6A"/>
<path d="M43.6967 38.7005C43.6916 38.7022 43.6888 38.7076 43.6904 38.7128C43.692 38.7179 43.6975 38.7207 43.7026 38.7191C43.7078 38.7175 43.7106 38.712 43.709 38.7069C43.7073 38.7017 43.7019 38.6989 43.6967 38.7005Z" fill="#394D6A"/>
<path d="M43.6991 38.7038C43.6958 38.7049 43.694 38.7084 43.695 38.7118C43.6961 38.7151 43.6996 38.7169 43.703 38.7159C43.7063 38.7148 43.7081 38.7113 43.7071 38.7079C43.706 38.7046 43.7025 38.7028 43.6991 38.7038Z" fill="#57C3B5"/>
<path d="M43.6907 38.677C43.6915 38.6756 43.693 38.6747 43.6944 38.6736C43.697 38.6716 43.6989 38.6688 43.6996 38.6658C43.6998 38.665 43.6999 38.6641 43.7003 38.6634C43.7006 38.6626 43.7011 38.6618 43.702 38.6615C43.7026 38.6612 43.7033 38.6612 43.704 38.6612C43.7085 38.6611 43.713 38.661 43.7175 38.6612C43.7187 38.6613 43.72 38.6614 43.7206 38.6623C43.721 38.6629 43.7209 38.6637 43.7208 38.6644C43.7206 38.6667 43.7202 38.669 43.7185 38.6707C43.7174 38.6719 43.7157 38.6726 43.714 38.6731C43.7104 38.6741 43.7066 38.6743 43.7029 38.6751C43.6992 38.6758 43.6954 38.6772 43.6931 38.68C43.6925 38.6806 43.6921 38.6813 43.6916 38.6819C43.6902 38.6808 43.6897 38.6786 43.6907 38.677Z" fill="#394D6A"/>
<path d="M43.7153 38.6895C43.7146 38.688 43.7135 38.6864 43.7122 38.6862C43.7111 38.6861 43.7102 38.6869 43.7093 38.6876C43.7076 38.689 43.7054 38.6898 43.7032 38.6899C43.7016 38.69 43.6998 38.6897 43.6985 38.6883C43.6974 38.687 43.6968 38.6852 43.6962 38.6835C43.6955 38.6811 43.6947 38.6784 43.6953 38.6761C43.6932 38.6759 43.6916 38.6781 43.6912 38.6806C43.6909 38.6831 43.6915 38.6858 43.6922 38.6884C43.6946 38.6978 43.6975 38.7071 43.7008 38.7163C43.7013 38.7178 43.7019 38.7194 43.7031 38.7202C43.7045 38.7213 43.7062 38.7208 43.7076 38.7203C43.7109 38.7192 43.7144 38.7179 43.7164 38.7147C43.7177 38.7127 43.7183 38.7101 43.7185 38.7075C43.7186 38.7048 43.7183 38.7021 43.7179 38.6994C43.7174 38.696 43.7167 38.6926 43.7153 38.6895Z" fill="#F05962"/>
<path d="M43.6926 38.6875C43.6921 38.6856 43.6916 38.6836 43.6918 38.6817C43.692 38.6797 43.6929 38.6777 43.6946 38.6767C43.6949 38.6765 43.6954 38.6764 43.6956 38.6767C43.6943 38.6779 43.6939 38.6798 43.6941 38.6815C43.6942 38.6833 43.6949 38.6849 43.6954 38.6866C43.6959 38.6883 43.6962 38.6902 43.6956 38.6918C43.6955 38.6921 43.6954 38.6924 43.6951 38.6926C43.6949 38.6928 43.6945 38.6929 43.6943 38.6928C43.694 38.6926 43.6939 38.6922 43.6938 38.6919C43.6934 38.6905 43.693 38.689 43.6926 38.6875Z" fill="#394D6A"/>
<path d="M43.716 38.7055C43.7162 38.7007 43.7152 38.6958 43.7133 38.6913C43.7129 38.6903 43.7123 38.6892 43.7113 38.6891C43.7106 38.689 43.7099 38.6894 43.7093 38.6897C43.7063 38.6914 43.7028 38.6921 43.6994 38.6918C43.6986 38.6917 43.6977 38.6916 43.6969 38.6917C43.696 38.6919 43.6952 38.6923 43.6948 38.6931C43.6945 38.6939 43.6948 38.6948 43.695 38.6957C43.6968 38.701 43.6985 38.7063 43.7011 38.7112C43.7018 38.7127 43.7028 38.7143 43.7044 38.7149C43.706 38.7154 43.7077 38.7149 43.7092 38.7142C43.7114 38.7134 43.7136 38.7123 43.7148 38.7104C43.7157 38.709 43.7159 38.7072 43.716 38.7055Z" fill="#D94856"/>
<path d="M43.7256 38.6571C43.724 38.6569 43.7225 38.6574 43.721 38.6579C43.7211 38.6582 43.7211 38.6585 43.7212 38.6588C43.7233 38.6586 43.7253 38.6586 43.7274 38.6587C43.7275 38.6583 43.7273 38.6578 43.7269 38.6575C43.7265 38.6573 43.7261 38.6572 43.7256 38.6571Z" fill="#FFFEFF"/>
<path d="M43.7201 38.6585C43.7218 38.6579 43.7236 38.6577 43.7254 38.658C43.7263 38.6581 43.7274 38.6584 43.7277 38.6593C43.7279 38.6597 43.7278 38.6602 43.7278 38.6607C43.7276 38.6617 43.7274 38.6627 43.7269 38.6635C43.7261 38.6649 43.7246 38.6659 43.7232 38.6667C43.723 38.6669 43.7227 38.6671 43.7224 38.667C43.722 38.6669 43.7217 38.6666 43.7216 38.6662C43.7211 38.6662 43.7205 38.6662 43.7199 38.6662C43.7198 38.6662 43.7197 38.6662 43.7197 38.6661C43.7196 38.666 43.7196 38.6659 43.7196 38.6659C43.7196 38.6652 43.7195 38.6645 43.7195 38.6638C43.7195 38.6635 43.7194 38.6632 43.7196 38.6629C43.7197 38.6626 43.7199 38.6625 43.7201 38.6623C43.7203 38.6621 43.7205 38.6619 43.7207 38.6617C43.7205 38.6606 43.7203 38.6596 43.7201 38.6585Z" fill="#F05962"/>
<path d="M43.7255 38.6617C43.7259 38.6625 43.7261 38.6635 43.7257 38.6643C43.7253 38.6652 43.7244 38.6657 43.7235 38.6655C43.7226 38.6653 43.722 38.6644 43.722 38.6635C43.722 38.6626 43.7225 38.6618 43.7232 38.6612C43.7235 38.6609 43.724 38.6606 43.7244 38.6607C43.7249 38.6608 43.7253 38.6612 43.7255 38.6617Z" fill="#394D6A"/>
<path d="M43.6831 38.6549C43.6779 38.6566 43.6751 38.6621 43.6767 38.6672C43.6784 38.6723 43.6838 38.6751 43.689 38.6735C43.6941 38.6719 43.6969 38.6664 43.6953 38.6613C43.6937 38.6562 43.6882 38.6533 43.6831 38.6549Z" fill="#394D6A"/>
<path d="M43.6845 38.6582C43.6812 38.6593 43.6793 38.6628 43.6804 38.6661C43.6814 38.6695 43.685 38.6713 43.6883 38.6703C43.6916 38.6692 43.6935 38.6656 43.6924 38.6623C43.6914 38.659 43.6878 38.6572 43.6845 38.6582Z" fill="#57C3B5"/>
<path d="M43.6842 38.6686C43.6828 38.6678 43.6826 38.666 43.6827 38.6645C43.6828 38.6635 43.6831 38.6626 43.6838 38.662C43.6845 38.6615 43.6854 38.6615 43.6862 38.6615C43.6897 38.6614 43.6933 38.6616 43.6968 38.662C43.6975 38.6621 43.6984 38.6623 43.6988 38.6629C43.6989 38.6631 43.699 38.6633 43.6991 38.6635C43.6993 38.6637 43.6996 38.6638 43.6998 38.6637C43.6998 38.665 43.6996 38.6663 43.6993 38.6676C43.6992 38.668 43.699 38.6685 43.6987 38.6688C43.6983 38.6691 43.6978 38.6691 43.6973 38.6691C43.6938 38.6691 43.6903 38.6691 43.6868 38.6691C43.6859 38.6691 43.6849 38.6691 43.6842 38.6686Z" fill="#394D6A"/>
<path d="M43.6828 38.6657C43.6832 38.667 43.6846 38.6678 43.686 38.6673C43.6874 38.6669 43.6881 38.6655 43.6877 38.6641C43.6873 38.6627 43.6858 38.662 43.6844 38.6624C43.6831 38.6628 43.6823 38.6643 43.6828 38.6657ZM43.6873 38.6642C43.6877 38.6654 43.687 38.6666 43.6859 38.667C43.6847 38.6673 43.6835 38.6667 43.6831 38.6655C43.6828 38.6644 43.6834 38.6631 43.6846 38.6628C43.6857 38.6624 43.687 38.6631 43.6873 38.6642Z" fill="#FFFEFF"/>
<path d="M43.7148 38.7019C43.7161 38.7043 43.7162 38.7072 43.7154 38.7098C43.7147 38.7124 43.7131 38.7147 43.7111 38.7166C43.7092 38.7185 43.707 38.72 43.7047 38.7215C43.7043 38.7217 43.7039 38.722 43.7035 38.7219C43.7031 38.7219 43.7028 38.7216 43.7025 38.7213C43.7007 38.7194 43.6995 38.7169 43.6985 38.7145C43.6965 38.7093 43.6951 38.7039 43.6945 38.6984C43.6945 38.6978 43.6944 38.6972 43.6946 38.6967C43.6947 38.6962 43.695 38.6958 43.6953 38.6954C43.6967 38.6937 43.6988 38.6927 43.701 38.6925C43.7032 38.6924 43.7054 38.6929 43.7074 38.6938C43.7094 38.6946 43.7113 38.6958 43.7127 38.6975C43.7141 38.6991 43.715 38.7012 43.7151 38.7034" fill="#394D6A"/>
<path d="M43.7151 38.701C43.7149 38.701 43.7147 38.7012 43.7148 38.7015L43.7208 38.7203C43.7209 38.7205 43.7211 38.7206 43.7213 38.7206C43.7215 38.7205 43.7216 38.7203 43.7216 38.72L43.7156 38.7012C43.7155 38.701 43.7153 38.7009 43.7151 38.701Z" fill="#394D6A"/>
<path d="M43.6815 38.6527C43.6844 38.6521 43.6868 38.6522 43.6895 38.6534C43.6905 38.6537 43.6916 38.6542 43.6929 38.6552C43.6962 38.6579 43.698 38.6622 43.697 38.6663C43.6961 38.6704 43.6928 38.6738 43.6887 38.6753L43.6815 38.6527Z" fill="#F05962"/>
<path d="M43.6898 38.6739C43.6924 38.6728 43.6944 38.6703 43.6949 38.6675C43.6955 38.6647 43.6945 38.6616 43.6924 38.6596C43.6903 38.6577 43.6872 38.6568 43.6844 38.6575L43.6898 38.6739Z" fill="#D94856"/>
<path d="M43.6868 38.6553C43.6868 38.6554 43.6868 38.6554 43.6869 38.6554C43.6904 38.6561 43.6935 38.6583 43.695 38.6613C43.6966 38.6644 43.6964 38.6684 43.6943 38.671C43.6943 38.6711 43.6943 38.6712 43.6943 38.6713C43.6944 38.6713 43.6945 38.6713 43.6945 38.6712C43.6967 38.6685 43.6969 38.6644 43.6953 38.6611C43.6937 38.6581 43.6906 38.6558 43.6869 38.6551C43.6868 38.6551 43.6868 38.6552 43.6868 38.6552C43.6868 38.6553 43.6868 38.6553 43.6868 38.6553Z" fill="#FFFEFF"/>
<path d="M43.712 38.6859C43.7123 38.6854 43.7129 38.6855 43.7134 38.6856C43.7152 38.6862 43.7167 38.6875 43.7178 38.689C43.7189 38.6905 43.7197 38.6922 43.7204 38.6939C43.7207 38.6947 43.721 38.6956 43.7208 38.6965C43.7205 38.6977 43.7193 38.6984 43.7182 38.699C43.7174 38.6993 43.7163 38.6997 43.7157 38.6991C43.7154 38.6988 43.7153 38.6985 43.7152 38.6981C43.7142 38.6943 43.7131 38.6905 43.7121 38.6868C43.712 38.6865 43.7119 38.6861 43.712 38.6859Z" fill="#394D6A"/>
<path d="M43.714 38.6891C43.714 38.6892 43.7141 38.6892 43.7141 38.6892C43.7174 38.6902 43.7199 38.6934 43.7201 38.6968C43.7201 38.6969 43.7202 38.6969 43.7203 38.6969C43.7204 38.6969 43.7204 38.6969 43.7204 38.6968C43.7202 38.6932 43.7176 38.6899 43.7142 38.689C43.7141 38.6889 43.714 38.689 43.714 38.6891C43.714 38.6891 43.714 38.6891 43.714 38.6891Z" fill="#FFFEFF"/>
<path d="M43.7108 38.6713C43.7112 38.6714 43.7113 38.672 43.7113 38.6724C43.7113 38.6731 43.7113 38.6739 43.7108 38.6743C43.7105 38.6745 43.7102 38.6746 43.7099 38.6746C43.7082 38.675 43.7065 38.6754 43.7048 38.6757C43.7042 38.6758 43.7036 38.6754 43.7035 38.6748L43.7033 38.6736C43.7033 38.6733 43.7032 38.673 43.7034 38.6728C43.7035 38.6724 43.704 38.6723 43.7044 38.6722C43.7063 38.6719 43.7082 38.6716 43.7101 38.6713C43.7103 38.6712 43.7106 38.6712 43.7108 38.6713Z" fill="#FFFEFF"/>
<path d="M43.7126 38.6732L43.711 38.6735L43.7108 38.6718L43.7125 38.6719L43.7126 38.6732Z" fill="#FFFEFF"/>
<path d="M43.7108 38.6741C43.7107 38.6731 43.7106 38.6722 43.7103 38.6713C43.7109 38.6712 43.7114 38.671 43.712 38.6709L43.7125 38.6738C43.712 38.6739 43.7114 38.674 43.7108 38.6741Z" fill="#F05962"/>
<path d="M43.7128 38.675C43.7127 38.675 43.7125 38.6751 43.7123 38.675C43.7122 38.675 43.7121 38.6747 43.7122 38.6746C43.7124 38.6746 43.7126 38.6743 43.7127 38.6741C43.7128 38.6739 43.7128 38.6736 43.7127 38.6733C43.7126 38.6731 43.7126 38.6728 43.7125 38.6726C43.7127 38.6727 43.713 38.6726 43.7132 38.6726C43.7132 38.673 43.7133 38.6734 43.7133 38.6738C43.7133 38.6743 43.7132 38.6747 43.7128 38.675Z" fill="#F05962"/>
<path d="M43.7047 38.6701C43.7062 38.6697 43.7078 38.6694 43.7093 38.6692C43.7075 38.6707 43.7066 38.6733 43.7071 38.6756C43.7066 38.6757 43.7062 38.6758 43.7057 38.6759C43.7055 38.674 43.7052 38.672 43.7047 38.6701Z" fill="#394D6A"/>
<path d="M43.7395 38.7139C43.7391 38.715 43.7387 38.7162 43.7379 38.717C43.7369 38.7179 43.7356 38.7182 43.7343 38.7185C43.7313 38.7191 43.7283 38.7196 43.7253 38.72C43.7241 38.7202 43.7228 38.7203 43.7218 38.7196C43.7209 38.719 43.7205 38.7179 43.7202 38.7169C43.7188 38.7123 43.7173 38.7077 43.7158 38.703C43.7156 38.7022 43.7153 38.7013 43.7158 38.7006C43.7162 38.7 43.7168 38.6998 43.7174 38.6996C43.7234 38.6976 43.7294 38.6955 43.7353 38.6935C43.736 38.6933 43.7368 38.693 43.7375 38.6932C43.7382 38.6934 43.7387 38.6939 43.7392 38.6945C43.7407 38.6965 43.741 38.6992 43.7411 38.7018C43.7411 38.7059 43.7406 38.71 43.7395 38.7139Z" fill="#F05962"/>
<path d="M43.7271 38.698C43.7291 38.7043 43.7305 38.7109 43.7311 38.7175C43.7329 38.717 43.7347 38.7164 43.7366 38.7159C43.7378 38.709 43.7377 38.7019 43.7361 38.695C43.7331 38.696 43.7301 38.697 43.7271 38.698Z" fill="#F2D843"/>
<path d="M43.7238 38.7053C43.7218 38.7059 43.7208 38.7079 43.7214 38.7099C43.722 38.7118 43.7241 38.7129 43.726 38.7123C43.7279 38.7116 43.729 38.7096 43.7284 38.7077C43.7278 38.7057 43.7257 38.7047 43.7238 38.7053Z" fill="#F2D843"/>
<path d="M43.7403 38.6995C43.7408 38.7031 43.7406 38.7068 43.7403 38.7104C43.7401 38.7124 43.7398 38.7145 43.7385 38.716C43.7392 38.7146 43.7396 38.7128 43.7397 38.7112C43.7399 38.7085 43.7401 38.7063 43.7401 38.7036C43.7401 38.7008 43.7398 38.6976 43.7384 38.6953C43.7397 38.6962 43.7401 38.6979 43.7403 38.6995Z" fill="#FFFEFF"/>
<path d="M43.7129 38.7036C43.7142 38.706 43.7143 38.7089 43.7135 38.7115C43.7127 38.7141 43.7111 38.7163 43.7092 38.7183C43.7073 38.7202 43.705 38.7217 43.7028 38.7232C43.7024 38.7234 43.7019 38.7237 43.7015 38.7236C43.7011 38.7235 43.7008 38.7233 43.7006 38.723C43.6987 38.721 43.6976 38.7186 43.6966 38.7161C43.6945 38.711 43.6932 38.7056 43.6926 38.7001C43.6925 38.6995 43.6925 38.6989 43.6926 38.6983C43.6928 38.6979 43.693 38.6974 43.6933 38.6971C43.6947 38.6954 43.6969 38.6944 43.6991 38.6942C43.7012 38.694 43.7034 38.6946 43.7054 38.6954C43.7074 38.6963 43.7093 38.6975 43.7107 38.6991C43.7121 38.7008 43.7131 38.7029 43.7131 38.705" fill="#F05962"/>
<path d="M43.7077 38.6967C43.7078 38.6968 43.7078 38.6969 43.7079 38.6971C43.7072 38.6972 43.7071 38.6981 43.7071 38.6987C43.7071 38.7057 43.7074 38.7127 43.7077 38.7197C43.7061 38.7207 43.7046 38.7218 43.703 38.7228C43.7007 38.7146 43.7004 38.706 43.7001 38.6975C43.7001 38.6967 43.7002 38.6958 43.7008 38.6954C43.7013 38.6951 43.702 38.6952 43.7026 38.6954C43.7043 38.6958 43.706 38.6962 43.7077 38.6967Z" fill="#F2D843"/>
<path d="M43.71 38.7182C43.71 38.7182 43.71 38.7182 43.71 38.7182C43.7101 38.7183 43.7102 38.7183 43.7102 38.7182C43.7129 38.716 43.7146 38.7126 43.7148 38.7091C43.715 38.7056 43.7136 38.702 43.7111 38.6995C43.7111 38.6994 43.711 38.6994 43.7109 38.6995C43.7109 38.6996 43.7109 38.6997 43.7109 38.6997C43.7133 38.7021 43.7147 38.7056 43.7145 38.7091C43.7143 38.7125 43.7127 38.7158 43.71 38.718C43.71 38.7181 43.71 38.7181 43.71 38.7182Z" fill="#FFFEFF"/>
<path d="M43.6942 38.6988C43.694 38.6989 43.6939 38.6991 43.6939 38.6993C43.6942 38.7016 43.6944 38.7027 43.6951 38.7047C43.6951 38.7048 43.6953 38.7049 43.6954 38.7047C43.6956 38.7046 43.6957 38.7044 43.6956 38.7042C43.695 38.7023 43.6948 38.7012 43.6945 38.699C43.6945 38.6988 43.6944 38.6987 43.6942 38.6988Z" fill="#394D6A"/>
<path d="M43.6952 38.6983C43.695 38.6984 43.6949 38.6986 43.6949 38.6988C43.6951 38.7011 43.6954 38.7022 43.696 38.7042C43.6961 38.7043 43.6963 38.7044 43.6964 38.7042C43.6966 38.7041 43.6966 38.7039 43.6966 38.7037C43.6959 38.7018 43.6957 38.7007 43.6955 38.6985C43.6955 38.6983 43.6954 38.6982 43.6952 38.6983Z" fill="#394D6A"/>
<path d="M43.6962 38.6978C43.696 38.6979 43.6959 38.6981 43.6959 38.6983C43.6961 38.7005 43.6963 38.7016 43.697 38.7036C43.6971 38.7038 43.6972 38.7038 43.6974 38.7037C43.6975 38.7036 43.6976 38.7034 43.6976 38.7032C43.6969 38.7012 43.6967 38.7002 43.6965 38.698C43.6965 38.6978 43.6963 38.6977 43.6962 38.6978Z" fill="#394D6A"/>
<path d="M43.6941 38.6732C43.6961 38.6712 43.6975 38.6688 43.6984 38.6663C43.6991 38.6645 43.6995 38.6625 43.7009 38.6612C43.7027 38.6596 43.7052 38.6596 43.7076 38.6597C43.7101 38.6598 43.7126 38.6599 43.7151 38.66C43.7161 38.6601 43.7171 38.6602 43.718 38.6605C43.7188 38.6608 43.7199 38.6614 43.72 38.6624C43.7186 38.6629 43.7178 38.6649 43.7169 38.666C43.7153 38.668 43.7127 38.6686 43.7103 38.6692C43.7069 38.6701 43.7036 38.671 43.7005 38.6726C43.6975 38.6742 43.6947 38.6764 43.6929 38.6794C43.6925 38.6799 43.6921 38.6805 43.6915 38.6805C43.6908 38.6805 43.6904 38.6797 43.6903 38.679C43.6903 38.6778 43.6908 38.6767 43.6916 38.6757C43.6923 38.6748 43.6933 38.674 43.6941 38.6732Z" fill="#F05962"/>
<path d="M43.7114 38.6667C43.7111 38.6662 43.7115 38.6657 43.7119 38.6654C43.7128 38.6647 43.714 38.6644 43.7148 38.6636C43.715 38.6633 43.7153 38.663 43.7156 38.6628C43.7159 38.6626 43.7163 38.6625 43.7166 38.6627C43.7169 38.6629 43.7171 38.6632 43.717 38.6636C43.717 38.6639 43.7168 38.6643 43.7166 38.6646C43.7158 38.666 43.7142 38.6671 43.7126 38.6672C43.7121 38.6672 43.7115 38.6671 43.7114 38.6667Z" fill="#FFFEFF"/>
<path d="M43.6928 38.679C43.6929 38.6791 43.6929 38.6791 43.6929 38.6791C43.693 38.6792 43.6931 38.6791 43.6931 38.6791C43.6965 38.6737 43.7021 38.6713 43.7063 38.6703C43.7073 38.67 43.7083 38.6697 43.7093 38.6694C43.7101 38.6691 43.711 38.6689 43.7118 38.6686L43.7122 38.6685C43.7139 38.6681 43.7157 38.6676 43.7168 38.6661C43.7172 38.6657 43.7175 38.6653 43.7177 38.6648C43.7183 38.6639 43.7189 38.663 43.7202 38.6622C43.7202 38.6622 43.7202 38.6621 43.7202 38.662C43.7202 38.6619 43.7201 38.6619 43.72 38.662C43.7187 38.6628 43.7181 38.6637 43.7175 38.6647C43.7172 38.6651 43.7169 38.6655 43.7166 38.666C43.7155 38.6673 43.7138 38.6678 43.7121 38.6682L43.7117 38.6683C43.7109 38.6686 43.71 38.6688 43.7092 38.6691C43.7082 38.6694 43.7072 38.6697 43.7062 38.67C43.702 38.6711 43.6963 38.6735 43.6929 38.6789C43.6928 38.6789 43.6928 38.679 43.6928 38.679Z" fill="#FFFEFF"/>
<path d="M43.749 38.6729C43.7499 38.6747 43.7505 38.675 43.7522 38.676L43.7482 38.6797C43.7463 38.6783 43.745 38.6769 43.7436 38.675C43.7456 38.6749 43.7478 38.6742 43.749 38.6729Z" fill="#F59089"/>
<path d="M43.7451 38.6742C43.7465 38.6738 43.7477 38.6731 43.7485 38.6722C43.7496 38.6742 43.7502 38.6747 43.7519 38.6757C43.7494 38.6767 43.747 38.6759 43.7451 38.6742Z" fill="#394D6A"/>
<path d="M43.7539 38.6686C43.7546 38.6686 43.7553 38.669 43.7558 38.6695C43.7562 38.6701 43.7565 38.6708 43.7567 38.6715C43.757 38.6723 43.7572 38.6733 43.7568 38.6742C43.7566 38.6747 43.7561 38.6751 43.7555 38.6754C43.754 38.6763 43.7521 38.6764 43.7504 38.6758C43.7488 38.6751 43.7474 38.6742 43.7468 38.6726C43.7478 38.6718 43.7483 38.6712 43.7495 38.6705C43.7498 38.6704 43.7501 38.6705 43.7503 38.6704C43.7505 38.6703 43.7506 38.67 43.7508 38.6699C43.7516 38.6695 43.752 38.6693 43.7529 38.6689C43.7532 38.6688 43.7535 38.6687 43.7539 38.6686Z" fill="#F59089"/>
<path d="M43.752 38.6731C43.7523 38.6729 43.7524 38.6726 43.7523 38.6723C43.7522 38.6721 43.7519 38.6719 43.7516 38.672C43.7512 38.6721 43.7509 38.6722 43.7507 38.6721C43.7514 38.6716 43.752 38.6711 43.7526 38.6704L43.7554 38.6745C43.7555 38.6746 43.7556 38.6747 43.7556 38.6749C43.7556 38.675 43.7556 38.6751 43.7555 38.6752C43.7553 38.6757 43.7549 38.676 43.7544 38.6762C43.7539 38.6763 43.7534 38.6764 43.7529 38.6764C43.7524 38.6765 43.7519 38.6767 43.7515 38.677C43.7512 38.6761 43.7512 38.6752 43.7515 38.6743C43.7516 38.674 43.7517 38.6736 43.7515 38.6733C43.7517 38.6732 43.7519 38.6731 43.752 38.6731Z" fill="#394D6A"/>
<path d="M43.7571 38.6734C43.7572 38.6726 43.7569 38.6718 43.7566 38.6711C43.7563 38.6703 43.7559 38.6695 43.7552 38.6689C43.755 38.6687 43.7548 38.6685 43.7545 38.6685C43.7543 38.6684 43.754 38.6685 43.7538 38.6685C43.7535 38.6686 43.7532 38.6687 43.7528 38.6688C43.7526 38.6688 43.7524 38.6689 43.7523 38.6691C43.7521 38.6692 43.7522 38.6695 43.7522 38.6697C43.7525 38.6708 43.7528 38.672 43.7535 38.673C43.7539 38.6737 43.7545 38.6742 43.7548 38.6749C43.7548 38.6751 43.7549 38.6753 43.755 38.6754C43.7552 38.6756 43.7556 38.6755 43.7558 38.6753C43.7565 38.6749 43.757 38.6742 43.7571 38.6734Z" fill="#394D6A"/>
<path d="M43.7564 38.6708C43.756 38.6701 43.7555 38.6694 43.755 38.6687C43.7548 38.6685 43.7546 38.6682 43.7542 38.6681C43.754 38.6681 43.7537 38.6682 43.7535 38.6683C43.7527 38.6686 43.752 38.6689 43.7513 38.6693C43.7517 38.6713 43.7526 38.6733 43.7539 38.6749C43.7542 38.6753 43.7546 38.6757 43.7551 38.6756C43.7553 38.6756 43.7555 38.6754 43.7557 38.6753C43.7561 38.675 43.7566 38.6746 43.7568 38.6742C43.7571 38.6737 43.7572 38.6731 43.7571 38.6725C43.7569 38.6719 43.7567 38.6713 43.7564 38.6708Z" fill="#F05962"/>
<path d="M43.7522 38.6682C43.7527 38.6679 43.7531 38.6677 43.7537 38.6678C43.7542 38.6679 43.7546 38.6682 43.7549 38.6686C43.7552 38.669 43.7555 38.6695 43.7557 38.6699C43.7554 38.6697 43.755 38.6697 43.7546 38.6698C43.7542 38.6699 43.7539 38.67 43.7535 38.6702C43.7526 38.6707 43.7517 38.6712 43.7508 38.6719C43.7507 38.6715 43.7505 38.6711 43.7504 38.6707C43.7504 38.6702 43.7504 38.6698 43.7506 38.6694C43.7509 38.6688 43.7516 38.6685 43.7522 38.6682Z" fill="#F2D843"/>
<path d="M43.7518 38.6687C43.7517 38.6682 43.7514 38.6682 43.7505 38.6666C43.7501 38.6676 43.75 38.6686 43.7505 38.6696C43.7511 38.6706 43.7516 38.6715 43.7523 38.6724C43.7519 38.6712 43.7521 38.6699 43.7518 38.6687Z" fill="#F05962"/>
<path d="M43.7554 38.6743C43.7555 38.6743 43.7555 38.6744 43.7556 38.6745C43.7557 38.6745 43.7558 38.6746 43.7558 38.6747C43.7557 38.6748 43.7557 38.6749 43.7556 38.6749C43.7554 38.6751 43.7552 38.6752 43.755 38.6753C43.7548 38.6753 43.7545 38.6752 43.7544 38.675C43.7547 38.6748 43.755 38.6746 43.7552 38.6744C43.7553 38.6744 43.7553 38.6744 43.7554 38.6743Z" fill="#394D6A"/>
<path d="M43.748 38.6693C43.7482 38.6694 43.7485 38.6693 43.7487 38.6695C43.7488 38.6697 43.7489 38.6699 43.7489 38.6701C43.749 38.6711 43.749 38.6712 43.7491 38.6722C43.7482 38.6727 43.7478 38.6738 43.747 38.6744C43.7466 38.6742 43.7458 38.6742 43.7455 38.6738C43.7452 38.6733 43.745 38.6728 43.7448 38.6724C43.7447 38.6722 43.7446 38.672 43.7447 38.6719C43.7447 38.6718 43.7448 38.6717 43.7448 38.6716C43.745 38.6714 43.7452 38.6712 43.7454 38.6709C43.7458 38.6705 43.7461 38.67 43.7466 38.6697C43.747 38.6694 43.7474 38.6693 43.748 38.6693Z" fill="#FFFEFF"/>
<path d="M43.7461 38.674C43.7461 38.674 43.7461 38.674 43.7461 38.674C43.7463 38.6743 43.7466 38.6745 43.7472 38.6745C43.7488 38.6746 43.7504 38.6742 43.7518 38.6734C43.7518 38.6734 43.7519 38.6733 43.7518 38.6732C43.7518 38.6731 43.7517 38.6731 43.7516 38.6731C43.7503 38.6739 43.7487 38.6742 43.7472 38.6742C43.7468 38.6741 43.7466 38.674 43.7465 38.6739C43.7464 38.6738 43.7463 38.6737 43.7462 38.6738C43.7462 38.6738 43.7461 38.6739 43.7461 38.674Z" fill="#FFFEFF"/>
<path d="M43.7478 38.6723C43.7479 38.6724 43.7479 38.6724 43.748 38.6725C43.7489 38.6728 43.75 38.6727 43.7508 38.6722C43.7509 38.6722 43.7509 38.6721 43.7509 38.672C43.7508 38.6719 43.7507 38.6719 43.7506 38.6719C43.7499 38.6724 43.7489 38.6724 43.7481 38.6721C43.748 38.6721 43.7479 38.6721 43.7479 38.6722C43.7478 38.6723 43.7478 38.6723 43.7478 38.6723Z" fill="#FFFEFF"/>
<path d="M43.724 38.6614C43.7245 38.6618 43.725 38.6621 43.7256 38.6623C43.7257 38.6624 43.7258 38.6624 43.726 38.6625C43.7261 38.6625 43.7262 38.6624 43.7263 38.6623C43.7264 38.6622 43.7264 38.662 43.7264 38.6618C43.7265 38.6616 43.7265 38.6614 43.7267 38.6613C43.7268 38.6612 43.727 38.6612 43.7272 38.6613C43.727 38.6619 43.7274 38.6627 43.7274 38.6634C43.7273 38.6637 43.7272 38.664 43.7271 38.6643C43.7273 38.6648 43.7277 38.6653 43.728 38.6657C43.728 38.6657 43.728 38.6657 43.728 38.6657C43.7324 38.6706 43.7415 38.6752 43.7455 38.677C43.7474 38.6796 43.7467 38.6815 43.7439 38.6816C43.7338 38.6815 43.7277 38.6734 43.7254 38.6675C43.7253 38.6675 43.7253 38.6675 43.7252 38.6676C43.725 38.6671 43.7248 38.6666 43.7245 38.6661C43.724 38.6657 43.7235 38.6653 43.7232 38.6647C43.723 38.6645 43.7229 38.6643 43.7229 38.6641C43.7229 38.6638 43.7231 38.6636 43.7231 38.6634C43.7231 38.6632 43.723 38.6631 43.723 38.6629C43.723 38.6626 43.7233 38.6624 43.7233 38.6621C43.7234 38.662 43.7233 38.6618 43.7233 38.6617C43.7233 38.6615 43.7234 38.6614 43.7235 38.6613C43.7237 38.6612 43.7238 38.6613 43.724 38.6614Z" fill="#394D6A"/>
<path d="M43.6941 38.6788C43.6942 38.6788 43.6943 38.6788 43.6945 38.6788C43.6949 38.6805 43.6954 38.6822 43.696 38.6839C43.696 38.684 43.6961 38.6841 43.6961 38.6842C43.6961 38.6844 43.6962 38.6844 43.6961 38.6845C43.696 38.6846 43.6957 38.6847 43.6956 38.6846C43.6952 38.6838 43.695 38.6828 43.6946 38.6819C43.6945 38.6814 43.6942 38.6809 43.6941 38.6804C43.694 38.6799 43.6939 38.6793 43.6941 38.6788Z" fill="#FFFEFF"/>
<path d="M43.6945 38.6816C43.6942 38.6807 43.6938 38.6797 43.694 38.6788C43.6944 38.6786 43.6948 38.6788 43.695 38.6791C43.6953 38.6793 43.6955 38.6797 43.6956 38.68C43.6958 38.6803 43.696 38.6807 43.6963 38.6809C43.6966 38.6811 43.6971 38.6812 43.6974 38.681C43.6975 38.6818 43.6978 38.6827 43.6981 38.6835C43.6973 38.684 43.6965 38.6843 43.6956 38.6846C43.6952 38.6836 43.6948 38.6826 43.6945 38.6816Z" fill="#394D6A"/>
<path d="M43.6972 38.6813C43.6972 38.6812 43.6972 38.6812 43.6971 38.6812C43.6964 38.6806 43.6958 38.6799 43.6954 38.6791C43.6953 38.6793 43.6953 38.6795 43.6954 38.6798C43.6955 38.68 43.6956 38.6802 43.6958 38.6804C43.6961 38.6808 43.6965 38.6812 43.697 38.6814C43.697 38.6814 43.6971 38.6814 43.6971 38.6814C43.6972 38.6814 43.6972 38.6813 43.6972 38.6813Z" fill="#D94856"/>
<path d="M43.6955 38.6813C43.6955 38.6813 43.6955 38.6813 43.6956 38.6814C43.6956 38.6814 43.6957 38.6814 43.6958 38.6813C43.6959 38.6811 43.696 38.6809 43.6961 38.6806C43.6961 38.6806 43.6961 38.6805 43.696 38.6805C43.6959 38.6804 43.6959 38.6805 43.6958 38.6805C43.6957 38.6808 43.6956 38.681 43.6955 38.6812C43.6955 38.6812 43.6955 38.6813 43.6955 38.6813Z" fill="#FFFEFF"/>
<path d="M43.6946 38.681C43.6946 38.681 43.6946 38.681 43.6946 38.681C43.6947 38.6811 43.6948 38.6811 43.6948 38.681C43.6949 38.6808 43.6951 38.6806 43.6951 38.6804C43.6952 38.6803 43.6951 38.6803 43.6951 38.6802C43.695 38.6802 43.6949 38.6802 43.6949 38.6803C43.6948 38.6805 43.6947 38.6807 43.6946 38.6809C43.6946 38.6809 43.6946 38.6809 43.6946 38.681Z" fill="#FFFEFF"/>
<path d="M43.6956 38.6805C43.6956 38.6806 43.6956 38.6806 43.6957 38.6806C43.6957 38.6806 43.6958 38.6806 43.6958 38.6806C43.696 38.6804 43.6961 38.6803 43.6961 38.6801C43.6962 38.68 43.6961 38.68 43.6961 38.6799C43.696 38.6799 43.6959 38.6799 43.6959 38.68C43.6958 38.6801 43.6957 38.6803 43.6956 38.6804C43.6956 38.6804 43.6956 38.6805 43.6956 38.6805Z" fill="#FFFEFF"/>
<path d="M43.7481 38.6798C43.7451 38.6843 43.7421 38.6865 43.7373 38.6888C43.733 38.6908 43.7293 38.692 43.725 38.6932C43.7241 38.6935 43.7231 38.6928 43.7231 38.6918C43.7229 38.688 43.7226 38.6849 43.7212 38.6813C43.721 38.6806 43.7214 38.6798 43.7222 38.6797C43.7275 38.6788 43.7329 38.6749 43.7354 38.6746C43.7377 38.6743 43.7388 38.6746 43.7411 38.6746C43.7417 38.6746 43.7423 38.6746 43.7429 38.6746C43.7443 38.6766 43.7463 38.6783 43.7482 38.6797L43.7481 38.6798Z" fill="#F05962"/>
<path d="M43.7417 38.6746C43.7422 38.6746 43.7428 38.6746 43.7435 38.6746C43.7446 38.6763 43.7462 38.6777 43.7477 38.6789C43.7446 38.683 43.739 38.68 43.7348 38.6818C43.7316 38.6831 43.7294 38.6858 43.7259 38.6856C43.7255 38.6856 43.7243 38.6854 43.724 38.6855C43.7237 38.6859 43.7234 38.6864 43.7232 38.6868C43.7229 38.685 43.7225 38.6832 43.7218 38.6813C43.7215 38.6806 43.722 38.6798 43.7228 38.6797C43.7281 38.6788 43.7334 38.6749 43.736 38.6746C43.7383 38.6743 43.7393 38.6746 43.7417 38.6746Z" fill="#D94856"/>
<path d="M43.7412 38.6828C43.7368 38.6829 43.7324 38.6811 43.7293 38.6779C43.7304 38.6774 43.7314 38.6769 43.7324 38.6764C43.7356 38.6796 43.7403 38.6813 43.7448 38.681C43.7446 38.6817 43.744 38.6822 43.7433 38.6824C43.7427 38.6827 43.7419 38.6828 43.7412 38.6828Z" fill="#394D6A"/>
<path d="M43.7487 38.6791C43.7484 38.6795 43.7482 38.68 43.7479 38.6804C43.746 38.6787 43.744 38.6771 43.7419 38.6756C43.7424 38.6754 43.7429 38.6753 43.7431 38.6748C43.7429 38.6747 43.7422 38.6748 43.742 38.6747C43.7424 38.6743 43.7436 38.6739 43.7442 38.6742C43.7447 38.6745 43.7451 38.675 43.7455 38.6754L43.7487 38.6791Z" fill="#FFFEFF"/>
<path d="M43.7442 38.6836C43.7444 38.6836 43.7445 38.6837 43.7444 38.6839C43.7444 38.684 43.7442 38.6842 43.7441 38.6843C43.7427 38.6858 43.7408 38.6871 43.7386 38.688C43.7384 38.6881 43.7382 38.6881 43.738 38.6882C43.7379 38.6882 43.7377 38.6882 43.7377 38.688C43.7377 38.6879 43.7378 38.6878 43.7379 38.6877C43.7394 38.6863 43.7413 38.6849 43.7435 38.6838C43.7437 38.6837 43.744 38.6836 43.7442 38.6836Z" fill="#F2D843"/>
<path d="M43.7445 38.6776C43.7464 38.6802 43.7457 38.6821 43.743 38.6822C43.7318 38.6821 43.7255 38.6723 43.7238 38.6664C43.7237 38.6654 43.725 38.6648 43.7256 38.6645C43.729 38.6701 43.74 38.6755 43.7445 38.6776Z" fill="#F05962"/>
<path d="M43.7227 38.662C43.7232 38.6624 43.7237 38.6627 43.7243 38.663C43.7244 38.663 43.7245 38.663 43.7247 38.6631C43.7248 38.6631 43.7249 38.663 43.725 38.6629C43.7251 38.6628 43.7251 38.6626 43.7251 38.6624C43.7252 38.6622 43.7252 38.662 43.7254 38.6619C43.7255 38.6618 43.7257 38.6618 43.7259 38.6619C43.7257 38.6625 43.7261 38.6633 43.726 38.664C43.726 38.6643 43.7259 38.6646 43.7258 38.6649C43.726 38.6654 43.7263 38.6659 43.7267 38.6663C43.7258 38.6669 43.7249 38.6676 43.7239 38.6682C43.7237 38.6677 43.7235 38.6672 43.7232 38.6667C43.7227 38.6663 43.7222 38.6659 43.7219 38.6653C43.7217 38.6651 43.7216 38.6649 43.7216 38.6647C43.7216 38.6644 43.7218 38.6642 43.7218 38.664C43.7218 38.6638 43.7217 38.6637 43.7217 38.6635C43.7217 38.6632 43.722 38.663 43.722 38.6627C43.7221 38.6626 43.722 38.6624 43.722 38.6623C43.722 38.6621 43.7221 38.662 43.7222 38.6619C43.7224 38.6618 43.7225 38.6619 43.7227 38.662Z" fill="#FFFEFF"/>
<path d="M43.7418 38.6813C43.7414 38.6814 43.7409 38.6815 43.7405 38.6814C43.7394 38.6812 43.7386 38.6803 43.7385 38.6792C43.7385 38.6783 43.7391 38.6773 43.7399 38.6769C43.7408 38.6764 43.7419 38.6766 43.7427 38.6772C43.7432 38.6776 43.7435 38.6782 43.7435 38.6789C43.7434 38.6799 43.7427 38.6809 43.7418 38.6813Z" fill="#F2D843"/>
<path d="M43.7257 38.6903C43.7257 38.6903 43.723 38.6965 43.7178 38.6945C43.7125 38.6925 43.7159 38.6787 43.712 38.6789C43.7081 38.679 43.6959 38.6879 43.6959 38.6879L43.695 38.686C43.695 38.686 43.708 38.668 43.714 38.6706C43.72 38.6732 43.7257 38.6903 43.7257 38.6903Z" fill="#F05962"/>
<path d="M43.6917 38.6816L43.6921 38.6816C43.6926 38.6837 43.6932 38.6857 43.694 38.6878C43.694 38.6879 43.6941 38.6881 43.6941 38.6882C43.6941 38.6883 43.6942 38.6884 43.6941 38.6885C43.694 38.6886 43.6937 38.6888 43.6935 38.6887C43.693 38.6876 43.6928 38.6865 43.6923 38.6854C43.6921 38.6848 43.6918 38.6842 43.6917 38.6836C43.6915 38.6829 43.6915 38.6823 43.6917 38.6816Z" fill="#FFFEFF"/>
<path d="M43.6927 38.685C43.6923 38.6839 43.6919 38.6827 43.6921 38.6816C43.6926 38.6814 43.6931 38.6816 43.6934 38.6819C43.6937 38.6822 43.6939 38.6827 43.6941 38.6831C43.6943 38.6835 43.6946 38.6839 43.6949 38.6841C43.6953 38.6844 43.6958 38.6845 43.6962 38.6843C43.6964 38.6853 43.6967 38.6863 43.6971 38.6873C43.6962 38.6879 43.6951 38.6883 43.6941 38.6886C43.6936 38.6874 43.6932 38.6862 43.6927 38.685Z" fill="#394D6A"/>
<path d="M43.6953 38.6846C43.6953 38.6845 43.6952 38.6844 43.6952 38.6844C43.6943 38.6837 43.6935 38.6828 43.6931 38.6818C43.6929 38.6821 43.6929 38.6824 43.693 38.6827C43.6931 38.683 43.6933 38.6832 43.6935 38.6834C43.6939 38.684 43.6943 38.6845 43.6949 38.6847C43.695 38.6847 43.6951 38.6847 43.6951 38.6847C43.6952 38.6847 43.6953 38.6846 43.6953 38.6846Z" fill="#D94856"/>
<path d="M43.6943 38.6846C43.6944 38.6846 43.6944 38.6847 43.6944 38.6847C43.6945 38.6847 43.6946 38.6847 43.6946 38.6846C43.6948 38.6844 43.6949 38.6841 43.6951 38.6838C43.6951 38.6837 43.695 38.6836 43.695 38.6836C43.6949 38.6835 43.6948 38.6836 43.6947 38.6837C43.6946 38.6839 43.6945 38.6842 43.6944 38.6845C43.6943 38.6845 43.6943 38.6846 43.6943 38.6846Z" fill="#FFFEFF"/>
<path d="M43.6944 38.6842C43.6944 38.6842 43.6944 38.6842 43.6945 38.6843C43.6945 38.6843 43.6946 38.6843 43.6947 38.6842C43.6949 38.684 43.695 38.6837 43.6951 38.6835C43.6951 38.6834 43.6951 38.6833 43.695 38.6833C43.6949 38.6832 43.6948 38.6833 43.6948 38.6834C43.6947 38.6836 43.6946 38.6838 43.6944 38.684C43.6944 38.6841 43.6944 38.6841 43.6944 38.6842Z" fill="#FFFEFF"/>
<path d="M43.6935 38.6836C43.6935 38.6836 43.6935 38.6837 43.6935 38.6837C43.6936 38.6837 43.6937 38.6837 43.6938 38.6837C43.6939 38.6835 43.6941 38.6833 43.6942 38.6831C43.6942 38.683 43.6942 38.6829 43.6941 38.6828C43.694 38.6828 43.6939 38.6828 43.6938 38.6829C43.6938 38.6831 43.6937 38.6833 43.6935 38.6834C43.6935 38.6835 43.6935 38.6835 43.6935 38.6836Z" fill="#FFFEFF"/>
</g>
</g>
<path d="M102.78 41H99.0128V29.3636H102.899C104.039 29.3636 105.018 29.5966 105.837 30.0625C106.655 30.5246 107.282 31.1894 107.717 32.0568C108.157 32.9205 108.376 33.9564 108.376 35.1648C108.376 36.3769 108.155 37.4186 107.712 38.2898C107.272 39.161 106.636 39.8314 105.803 40.3011C104.969 40.767 103.962 41 102.78 41ZM100.768 39.4659H102.683C103.57 39.4659 104.306 39.2992 104.893 38.9659C105.481 38.6288 105.92 38.142 106.212 37.5057C106.503 36.8655 106.649 36.0852 106.649 35.1648C106.649 34.2519 106.503 33.4773 106.212 32.8409C105.924 32.2045 105.494 31.7216 104.922 31.392C104.35 31.0625 103.64 30.8977 102.791 30.8977H100.768V39.4659ZM114.185 41.1761C113.325 41.1761 112.584 40.9924 111.963 40.625C111.346 40.2538 110.868 39.733 110.531 39.0625C110.198 38.3883 110.031 37.5985 110.031 36.6932C110.031 35.7992 110.198 35.0114 110.531 34.3295C110.868 33.6477 111.338 33.1155 111.94 32.733C112.546 32.3504 113.255 32.1591 114.065 32.1591C114.558 32.1591 115.035 32.2405 115.497 32.4034C115.959 32.5663 116.374 32.822 116.741 33.1705C117.109 33.5189 117.399 33.9716 117.611 34.5284C117.823 35.0814 117.929 35.7538 117.929 36.5455V37.1477H110.991V35.875H116.264C116.264 35.428 116.173 35.0322 115.991 34.6875C115.81 34.339 115.554 34.0644 115.224 33.8636C114.899 33.6629 114.516 33.5625 114.077 33.5625C113.599 33.5625 113.183 33.6799 112.827 33.9148C112.474 34.1458 112.202 34.4489 112.009 34.8239C111.819 35.1951 111.724 35.5985 111.724 36.0341V37.0284C111.724 37.6117 111.827 38.108 112.031 38.517C112.24 38.9261 112.529 39.2386 112.901 39.4545C113.272 39.6667 113.705 39.7727 114.202 39.7727C114.524 39.7727 114.817 39.7273 115.082 39.6364C115.348 39.5417 115.577 39.4015 115.77 39.2159C115.963 39.0303 116.111 38.8011 116.213 38.5284L117.821 38.8182C117.692 39.2917 117.461 39.7064 117.128 40.0625C116.798 40.4148 116.384 40.6894 115.884 40.8864C115.387 41.0795 114.821 41.1761 114.185 41.1761ZM121.513 29.3636V41H119.814V29.3636H121.513ZM123.798 41V32.2727H125.497V41H123.798ZM124.656 30.9261C124.361 30.9261 124.107 30.8277 123.895 30.6307C123.687 30.4299 123.582 30.1913 123.582 29.9148C123.582 29.6345 123.687 29.3958 123.895 29.1989C124.107 28.9981 124.361 28.8977 124.656 28.8977C124.952 28.8977 125.204 28.9981 125.412 29.1989C125.624 29.3958 125.73 29.6345 125.73 29.9148C125.73 30.1913 125.624 30.4299 125.412 30.6307C125.204 30.8277 124.952 30.9261 124.656 30.9261ZM135.249 32.2727L132.084 41H130.266L127.095 32.2727H128.919L131.129 38.9886H131.22L133.425 32.2727H135.249ZM140.31 41.1761C139.45 41.1761 138.709 40.9924 138.088 40.625C137.471 40.2538 136.993 39.733 136.656 39.0625C136.323 38.3883 136.156 37.5985 136.156 36.6932C136.156 35.7992 136.323 35.0114 136.656 34.3295C136.993 33.6477 137.463 33.1155 138.065 32.733C138.671 32.3504 139.38 32.1591 140.19 32.1591C140.683 32.1591 141.16 32.2405 141.622 32.4034C142.084 32.5663 142.499 32.822 142.866 33.1705C143.234 33.5189 143.524 33.9716 143.736 34.5284C143.948 35.0814 144.054 35.7538 144.054 36.5455V37.1477H137.116V35.875H142.389C142.389 35.428 142.298 35.0322 142.116 34.6875C141.935 34.339 141.679 34.0644 141.349 33.8636C141.024 33.6629 140.641 33.5625 140.202 33.5625C139.724 33.5625 139.308 33.6799 138.952 33.9148C138.599 34.1458 138.327 34.4489 138.134 34.8239C137.944 35.1951 137.849 35.5985 137.849 36.0341V37.0284C137.849 37.6117 137.952 38.108 138.156 38.517C138.365 38.9261 138.654 39.2386 139.026 39.4545C139.397 39.6667 139.83 39.7727 140.327 39.7727C140.649 39.7727 140.942 39.7273 141.207 39.6364C141.473 39.5417 141.702 39.4015 141.895 39.2159C142.088 39.0303 142.236 38.8011 142.338 38.5284L143.946 38.8182C143.817 39.2917 143.586 39.7064 143.253 40.0625C142.923 40.4148 142.509 40.6894 142.009 40.8864C141.512 41.0795 140.946 41.1761 140.31 41.1761ZM145.939 41V32.2727H147.581V33.6591H147.672C147.831 33.1894 148.111 32.8201 148.513 32.5511C148.918 32.2784 149.376 32.142 149.888 32.142C149.994 32.142 150.119 32.1458 150.263 32.1534C150.411 32.161 150.526 32.1705 150.609 32.1818V33.8068C150.541 33.7879 150.42 33.767 150.246 33.7443C150.071 33.7178 149.897 33.7045 149.723 33.7045C149.321 33.7045 148.964 33.7898 148.649 33.9602C148.339 34.1269 148.092 34.3598 147.911 34.6591C147.729 34.9545 147.638 35.2917 147.638 35.6705V41H145.939ZM153.419 44.2727C153.165 44.2727 152.934 44.2519 152.726 44.2102C152.518 44.1723 152.362 44.1307 152.26 44.0852L152.669 42.6932C152.98 42.7765 153.256 42.8125 153.499 42.8011C153.741 42.7898 153.955 42.6989 154.141 42.5284C154.33 42.358 154.497 42.0795 154.641 41.6932L154.851 41.1136L151.658 32.2727H153.476L155.686 39.0455H155.777L157.987 32.2727H159.811L156.214 42.1648C156.048 42.6193 155.836 43.0038 155.578 43.3182C155.321 43.6364 155.014 43.875 154.658 44.0341C154.302 44.1932 153.889 44.2727 153.419 44.2727ZM110.571 60V58.8295L116.69 49.875H110.52V48.3636H118.838V49.5341L112.719 58.4886H118.889V60H110.571ZM124.631 60.1761C123.813 60.1761 123.098 59.9886 122.489 59.6136C121.879 59.2386 121.405 58.714 121.068 58.0398C120.731 57.3655 120.562 56.5777 120.562 55.6761C120.562 54.7708 120.731 53.9792 121.068 53.3011C121.405 52.6231 121.879 52.0966 122.489 51.7216C123.098 51.3466 123.813 51.1591 124.631 51.1591C125.449 51.1591 126.163 51.3466 126.773 51.7216C127.383 52.0966 127.856 52.6231 128.193 53.3011C128.53 53.9792 128.699 54.7708 128.699 55.6761C128.699 56.5777 128.53 57.3655 128.193 58.0398C127.856 58.714 127.383 59.2386 126.773 59.6136C126.163 59.9886 125.449 60.1761 124.631 60.1761ZM124.636 58.75C125.167 58.75 125.606 58.6098 125.955 58.3295C126.303 58.0492 126.561 57.6761 126.727 57.2102C126.898 56.7443 126.983 56.2311 126.983 55.6705C126.983 55.1136 126.898 54.6023 126.727 54.1364C126.561 53.6667 126.303 53.2898 125.955 53.0057C125.606 52.7216 125.167 52.5795 124.636 52.5795C124.102 52.5795 123.659 52.7216 123.307 53.0057C122.958 53.2898 122.699 53.6667 122.528 54.1364C122.362 54.6023 122.278 55.1136 122.278 55.6705C122.278 56.2311 122.362 56.7443 122.528 57.2102C122.699 57.6761 122.958 58.0492 123.307 58.3295C123.659 58.6098 124.102 58.75 124.636 58.75ZM132.294 54.8182V60H130.595V51.2727H132.226V52.6932H132.334C132.535 52.2311 132.849 51.8598 133.277 51.5795C133.709 51.2992 134.252 51.1591 134.908 51.1591C135.502 51.1591 136.023 51.2841 136.47 51.5341C136.917 51.7803 137.264 52.1477 137.51 52.6364C137.756 53.125 137.879 53.7292 137.879 54.4489V60H136.18V54.6534C136.18 54.0208 136.016 53.5265 135.686 53.1705C135.357 52.8106 134.904 52.6307 134.328 52.6307C133.934 52.6307 133.584 52.7159 133.277 52.8864C132.974 53.0568 132.733 53.3068 132.555 53.6364C132.381 53.9621 132.294 54.3561 132.294 54.8182ZM143.919 60.1761C143.059 60.1761 142.319 59.9924 141.697 59.625C141.08 59.2538 140.603 58.733 140.266 58.0625C139.932 57.3883 139.766 56.5985 139.766 55.6932C139.766 54.7992 139.932 54.0114 140.266 53.3295C140.603 52.6477 141.072 52.1155 141.675 51.733C142.281 51.3504 142.989 51.1591 143.8 51.1591C144.292 51.1591 144.769 51.2405 145.232 51.4034C145.694 51.5663 146.108 51.822 146.476 52.1705C146.843 52.5189 147.133 52.9716 147.345 53.5284C147.557 54.0814 147.663 54.7538 147.663 55.5455V56.1477H140.726V54.875H145.999C145.999 54.428 145.908 54.0322 145.726 53.6875C145.544 53.339 145.288 53.0644 144.959 52.8636C144.633 52.6629 144.25 52.5625 143.811 52.5625C143.334 52.5625 142.917 52.6799 142.561 52.9148C142.209 53.1458 141.936 53.4489 141.743 53.8239C141.554 54.1951 141.459 54.5985 141.459 55.0341V56.0284C141.459 56.6117 141.561 57.108 141.766 57.517C141.974 57.9261 142.264 58.2386 142.635 58.4545C143.006 58.6667 143.44 58.7727 143.936 58.7727C144.258 58.7727 144.552 58.7273 144.817 58.6364C145.082 58.5417 145.311 58.4015 145.504 58.2159C145.697 58.0303 145.845 57.8011 145.947 57.5284L147.555 57.8182C147.427 58.2917 147.196 58.7064 146.862 59.0625C146.533 59.4148 146.118 59.6894 145.618 59.8864C145.122 60.0795 144.555 60.1761 143.919 60.1761Z" fill="#F37916"/>
</g>
<defs>
<filter id="filter0_d_149_1290" x="0" y="0" width="180" height="90" filterUnits="userSpaceOnUse" color-interpolation-filters="sRGB">
<feFlood flood-opacity="0" result="BackgroundImageFix"/>
<feColorMatrix in="SourceAlpha" type="matrix" values="0 0 0 0 0 0 0 0 0 0 0 0 0 0 0 0 0 0 127 0" result="hardAlpha"/>
<feOffset/>
<feGaussianBlur stdDeviation="7.5"/>
<feComposite in2="hardAlpha" operator="out"/>
<feColorMatrix type="matrix" values="0 0 0 0 0 0 0 0 0 0 0 0 0 0 0 0 0 0 0.08 0"/>
<feBlend mode="normal" in2="BackgroundImageFix" result="effect1_dropShadow_149_1290"/>
<feBlend mode="normal" in="SourceGraphic" in2="effect1_dropShadow_149_1290" result="shape"/>
</filter>
<clipPath id="clip0_149_1290">
<rect width="60" height="60" fill="white" transform="matrix(-1 0 0 1 85 15)"/>
</clipPath>
</defs>
</svg>
