<svg width="165" height="180" viewBox="0 0 165 180" fill="none" xmlns="http://www.w3.org/2000/svg">
<g filter="url(#filter0_d_149_1816)">
<rect x="15" y="15" width="150" height="150" rx="8" fill="white"/>
<circle cx="90" cy="90" r="56.25" stroke="#0C9D5E" stroke-opacity="0.4" stroke-width="5.625"/>
<g clip-path="url(#clip0_149_1816)">
<path d="M50.2656 90.0969V113.672C50.2646 114.011 50.1293 114.337 49.8892 114.577C49.6492 114.817 49.3239 114.952 48.9844 114.953H22.0781C21.7386 114.952 21.4133 114.817 21.1733 114.577C20.9332 114.337 20.7979 114.011 20.7969 113.672V90.0969H50.2656Z" fill="#F29648"/>
<path d="M49.7564 90.6094H21.3094C21.2131 90.6089 21.1189 90.5812 21.0376 90.5296C20.9563 90.4779 20.8912 90.4044 20.8497 90.3175C20.8083 90.2306 20.7921 90.1337 20.8032 90.0381C20.8143 89.9424 20.852 89.8518 20.9122 89.7766L24.1609 85.6766C24.2082 85.6168 24.2685 85.5684 24.3371 85.5351C24.4058 85.5018 24.4811 85.4845 24.5574 85.4844H46.5052C46.5815 85.4845 46.6568 85.5018 46.7255 85.5351C46.7941 85.5684 46.8544 85.6168 46.9018 85.6766L50.1536 89.7766C50.2138 89.8518 50.2516 89.9424 50.2626 90.0381C50.2737 90.1337 50.2575 90.2306 50.2161 90.3175C50.1746 90.4044 50.1095 90.4779 50.0282 90.5296C49.9469 90.5812 49.8527 90.6089 49.7564 90.6094Z" fill="#FCB96A"/>
<path d="M31.0469 90.6094L32.9688 85.4844H38.0938L40.0156 90.6094H31.0469Z" fill="#C2694E"/>
<path d="M31.0469 90.6094V98.5237C31.0464 98.5678 31.0582 98.6112 31.081 98.6489C31.1038 98.6867 31.1368 98.7173 31.1761 98.7373C31.2155 98.7573 31.2596 98.7659 31.3036 98.7621C31.3475 98.7583 31.3895 98.7423 31.4249 98.7159L33.1494 97.4237C33.1903 97.3932 33.24 97.3766 33.291 97.3766C33.342 97.3766 33.3917 97.3932 33.4326 97.4237L35.3929 98.8927C35.4338 98.9235 35.4836 98.9402 35.5348 98.9402C35.586 98.9402 35.6358 98.9235 35.6767 98.8927L37.6338 97.4244C37.6747 97.3935 37.7245 97.3769 37.7757 97.3769C37.8269 97.3769 37.8767 97.3935 37.9176 97.4244L39.637 98.7152C39.6724 98.7418 39.7144 98.758 39.7585 98.7619C39.8026 98.7658 39.8468 98.7572 39.8863 98.7372C39.9257 98.7172 39.9587 98.6865 39.9816 98.6486C40.0045 98.6108 40.0163 98.5673 40.0156 98.523V90.6094H31.0469Z" fill="#854643"/>
<path d="M31.0469 107.266H24.6406C24.2868 107.266 24 107.552 24 107.906V111.109C24 111.463 24.2868 111.75 24.6406 111.75H31.0469C31.4007 111.75 31.6875 111.463 31.6875 111.109V107.906C31.6875 107.552 31.4007 107.266 31.0469 107.266Z" fill="white"/>
<path d="M48.9844 122.641C53.9377 122.641 57.9531 118.625 57.9531 113.672C57.9531 108.719 53.9377 104.703 48.9844 104.703C44.0311 104.703 40.0156 108.719 40.0156 113.672C40.0156 118.625 44.0311 122.641 48.9844 122.641Z" fill="#19CC61"/>
<path d="M47.7031 118.156C47.5332 118.156 47.3703 118.089 47.2501 117.969L44.6876 115.406C44.5709 115.285 44.5064 115.123 44.5078 114.955C44.5093 114.788 44.5767 114.627 44.6954 114.508C44.8142 114.389 44.9749 114.322 45.1429 114.32C45.3108 114.319 45.4727 114.384 45.5935 114.5L47.6038 116.511L52.2951 109.473C52.3418 109.403 52.4018 109.343 52.4717 109.296C52.5416 109.249 52.6201 109.216 52.7026 109.2C52.7851 109.183 52.87 109.183 52.9526 109.2C53.0351 109.216 53.1136 109.248 53.1836 109.295C53.2536 109.342 53.3137 109.402 53.3605 109.472C53.4073 109.542 53.4399 109.62 53.4564 109.703C53.4728 109.785 53.4729 109.87 53.4566 109.953C53.4402 110.035 53.4078 110.114 53.3611 110.184L48.2361 117.871C48.1839 117.951 48.1148 118.017 48.0337 118.067C47.9526 118.116 47.8615 118.146 47.7671 118.156H47.7031Z" fill="white"/>
</g>
<g clip-path="url(#clip1_149_1816)">
<path d="M70.8564 127.392V148.072C70.8564 149.911 72.3474 151.402 74.1867 151.402H105.911C107.75 151.402 109.241 149.911 109.241 148.072V127.392C109.241 125.572 107.766 124.097 105.946 124.097H74.1514C72.3315 124.097 70.8564 125.572 70.8564 127.392Z" fill="#C4E2F2"/>
<path d="M97.7906 155.846L90.0484 157.61L82.3057 155.846L83.3664 151.403L89.7197 149.066L96.73 151.403L97.0731 152.841L97.7906 155.846Z" fill="#2D303B"/>
<path d="M109.241 147.68V148.072C109.241 149.911 107.75 151.403 105.911 151.403H74.1863C72.347 151.403 70.8564 149.911 70.8564 148.072V147.68H109.241ZM97.7909 155.846H85.9488L86.6664 152.841H97.0734L97.7909 155.846Z" fill="#3C3F4D"/>
<path d="M102.355 158.32V159.375H77.7441V158.32C77.7441 156.954 78.8518 155.846 80.218 155.846H99.8805C101.247 155.846 102.355 156.954 102.355 158.32Z" fill="#2D303B"/>
<path d="M102.355 158.32V159.375H81.9736V158.32C81.9736 156.954 83.0813 155.846 84.4484 155.846H99.8806C101.247 155.846 102.355 156.954 102.355 158.32Z" fill="#3C3F4D"/>
<path d="M77.8255 128.455H93.5044L95.5021 147.68H75.8281L77.8255 128.455Z" fill="#FF491F"/>
<path d="M85.5347 134.671H96.4335L97.8218 147.68H84.1465L85.5347 134.671Z" fill="#ED3618"/>
<path d="M87.0223 134.671H97.9209L99.3094 147.68H85.6338L87.0223 134.671Z" fill="#FFE14D"/>
<path d="M89.8942 130.923C89.817 130.923 89.7406 130.908 89.6694 130.878C89.5981 130.849 89.5333 130.805 89.4788 130.751C89.4242 130.696 89.381 130.631 89.3515 130.56C89.322 130.489 89.3068 130.412 89.3068 130.335V126.458C89.3068 124.449 87.6728 122.815 85.6643 122.815C83.6558 122.815 82.0217 124.449 82.0217 126.458V130.335C82.0217 130.491 81.9598 130.64 81.8496 130.751C81.7395 130.861 81.59 130.923 81.4342 130.923C81.2784 130.923 81.1289 130.861 81.0188 130.751C80.9086 130.64 80.8467 130.491 80.8467 130.335V126.458C80.8467 123.801 83.008 121.64 85.6643 121.64C88.3205 121.64 90.4819 123.802 90.4819 126.458V130.335C90.4819 130.412 90.4667 130.489 90.4372 130.56C90.4076 130.631 90.3643 130.696 90.3098 130.751C90.2552 130.805 90.1904 130.849 90.1191 130.878C90.0478 130.908 89.9714 130.923 89.8942 130.923Z" fill="#3C3F4D"/>
<path d="M92.4722 142.683C90.7552 142.683 89.3584 141.286 89.3584 139.569V137.043C89.3576 136.966 89.3721 136.889 89.4012 136.816C89.4304 136.744 89.4735 136.679 89.5282 136.624C89.5828 136.568 89.6479 136.524 89.7196 136.494C89.7913 136.465 89.8683 136.449 89.946 136.449C90.0237 136.449 90.1007 136.465 90.1724 136.494C90.2441 136.524 90.3092 136.568 90.3638 136.624C90.4185 136.679 90.4616 136.744 90.4908 136.816C90.5199 136.889 90.5344 136.966 90.5336 137.043V139.569C90.5336 140.639 91.4033 141.508 92.4722 141.508C93.5412 141.508 94.4109 140.639 94.4109 139.569V137.043C94.4097 136.965 94.424 136.888 94.4529 136.816C94.4819 136.743 94.525 136.677 94.5797 136.622C94.6343 136.566 94.6995 136.522 94.7714 136.492C94.8433 136.462 94.9205 136.446 94.9985 136.446C95.0764 136.446 95.1536 136.462 95.2255 136.492C95.2974 136.522 95.3626 136.566 95.4173 136.622C95.4719 136.677 95.515 136.743 95.544 136.816C95.573 136.888 95.5872 136.965 95.586 137.043V139.569C95.586 141.286 94.1892 142.683 92.4722 142.683Z" fill="white"/>
<path d="M106.5 126.681C106.5 129.853 103.929 132.424 100.757 132.424C97.5849 132.424 95.0137 129.853 95.0137 126.681C95.0137 123.509 97.5849 120.938 100.757 120.938C103.929 120.938 106.5 123.509 106.5 126.681Z" fill="#32CC77"/>
<path d="M100.154 130.163C100.05 130.163 99.9468 130.135 99.8565 130.082C99.7662 130.029 99.6918 129.953 99.6409 129.861L98.074 127.041C97.9165 126.757 98.0186 126.399 98.3025 126.242C98.5863 126.085 98.9438 126.186 99.1012 126.47L100.12 128.303L102.368 123.679C102.401 123.608 102.447 123.545 102.505 123.492C102.563 123.44 102.63 123.399 102.704 123.373C102.777 123.347 102.855 123.336 102.933 123.34C103.011 123.344 103.087 123.364 103.157 123.398C103.227 123.432 103.29 123.48 103.342 123.539C103.393 123.597 103.432 123.666 103.457 123.739C103.482 123.813 103.492 123.891 103.486 123.969C103.481 124.047 103.46 124.123 103.424 124.192L100.683 129.832C100.636 129.929 100.563 130.011 100.473 130.069C100.382 130.128 100.278 130.16 100.171 130.163C100.165 130.163 100.16 130.163 100.154 130.163L100.154 130.163Z" fill="white"/>
<path d="M107.092 137.057H101.452C101.296 137.057 101.147 136.996 101.036 136.885C100.926 136.775 100.864 136.626 100.864 136.47C100.864 136.314 100.926 136.165 101.036 136.054C101.147 135.944 101.296 135.882 101.452 135.882H107.092C107.169 135.882 107.246 135.898 107.317 135.927C107.388 135.957 107.453 136 107.507 136.055C107.562 136.109 107.605 136.174 107.635 136.245C107.664 136.316 107.679 136.393 107.679 136.47C107.679 136.626 107.617 136.775 107.507 136.885C107.397 136.996 107.248 137.057 107.092 137.057ZM107.092 139.799H102.627C102.471 139.799 102.322 139.737 102.212 139.627C102.102 139.517 102.04 139.368 102.04 139.212C102.04 139.056 102.102 138.907 102.212 138.796C102.322 138.686 102.471 138.624 102.627 138.624H107.092C107.169 138.624 107.246 138.639 107.317 138.669C107.388 138.699 107.453 138.742 107.507 138.796C107.562 138.851 107.605 138.916 107.635 138.987C107.664 139.058 107.679 139.135 107.679 139.212C107.679 139.368 107.617 139.517 107.507 139.627C107.397 139.737 107.248 139.799 107.092 139.799Z" fill="#3C3F4D"/>
</g>
<path d="M138.436 112.236L132.491 118.181C131.318 119.354 131.318 121.255 132.491 122.428C133.663 123.601 135.565 123.601 136.737 122.428L142.683 116.483C143.856 115.31 143.856 113.409 142.683 112.236C141.51 111.063 139.609 111.063 138.436 112.236Z" fill="#AFEAEF"/>
<path d="M142.748 114.081L136.802 120.027C136.239 120.59 135.475 120.907 134.679 120.907C133.882 120.907 133.119 120.59 132.555 120.027C132.272 119.744 132.048 119.407 131.897 119.036C131.636 119.595 131.554 120.22 131.661 120.827C131.768 121.434 132.059 121.994 132.495 122.43C133.058 122.993 133.822 123.309 134.618 123.309C135.415 123.309 136.179 122.993 136.742 122.43L142.688 116.484C143.105 116.066 143.391 115.534 143.508 114.955C143.625 114.376 143.569 113.776 143.346 113.228C143.198 113.545 142.996 113.834 142.748 114.081Z" fill="#4ABDCC"/>
<path d="M134.619 121.567H126.211C124.552 121.567 123.208 122.912 123.208 124.57C123.208 126.229 124.552 127.573 126.211 127.573H134.619C136.278 127.573 137.622 126.229 137.622 124.57C137.622 122.912 136.278 121.567 134.619 121.567Z" fill="#E5E5E5"/>
<path d="M135.22 125.771H126.812C126.015 125.771 125.251 125.455 124.688 124.892C124.125 124.329 123.809 123.565 123.809 122.769C123.418 123.288 123.207 123.92 123.208 124.57C123.208 125.367 123.524 126.131 124.088 126.694C124.651 127.257 125.415 127.573 126.211 127.573H134.619C135.416 127.573 136.179 127.257 136.743 126.694C137.306 126.131 137.622 125.367 137.622 124.57C137.343 124.944 136.98 125.246 136.563 125.455C136.146 125.663 135.686 125.772 135.22 125.771Z" fill="#B7B7B7"/>
<path d="M126.211 121.567C125.415 121.567 124.651 121.884 124.088 122.447C123.524 123.01 123.208 123.774 123.208 124.57C123.208 125.367 123.524 126.131 124.088 126.694C124.651 127.257 125.415 127.573 126.211 127.573H130.415V121.567H126.211Z" fill="#F44A2A"/>
<path d="M126.211 121.567C125.415 121.567 124.651 121.884 124.088 122.447C123.524 123.01 123.208 123.774 123.208 124.57C123.208 125.367 123.524 126.131 124.088 126.694C124.651 127.257 125.415 127.573 126.211 127.573H130.415V121.567H126.211Z" fill="#F44A2A"/>
<path d="M126.812 125.771C126.015 125.771 125.251 125.455 124.688 124.892C124.125 124.329 123.809 123.565 123.809 122.769C123.474 123.215 123.27 123.745 123.22 124.301C123.17 124.856 123.276 125.414 123.525 125.913C123.774 126.412 124.158 126.832 124.632 127.125C125.107 127.418 125.653 127.573 126.211 127.573H130.415V125.771H126.812Z" fill="#CE3521"/>
<path d="M132.217 108.354C130.281 107.65 128.608 106.368 127.426 104.68C126.244 102.993 125.61 100.983 125.61 98.9224V95.1416L132.217 92.7393L138.823 95.1416V98.9224C138.823 100.983 138.189 102.993 137.007 104.68C135.825 106.368 134.153 107.65 132.217 108.354Z" fill="#77D5D8"/>
<path d="M132.217 92.7393V108.354C134.153 107.65 135.825 106.368 137.007 104.68C138.189 102.993 138.823 100.983 138.823 98.9225V95.1416L132.217 92.7393Z" fill="#3B9DAF"/>
<path d="M136.421 99.3457H134.019V96.9434H131.616V99.3457H129.214V101.748H131.616V104.15H134.019V101.748H136.421V99.3457Z" fill="#4ABDCC"/>
<path d="M135.82 98.7451H133.418V96.3428H131.016V98.7451H128.613V101.147H131.016V103.55H133.418V101.147H135.82V98.7451Z" fill="#F44A2A"/>
<path d="M147.231 102.949H154.438V108.354H147.231V102.949Z" fill="#F7B023"/>
<path d="M147.231 102.949V104.751H151.436V108.354H154.438V102.949H147.231Z" fill="#F99321"/>
<path d="M155.702 107.153H145.967C144.675 107.153 143.628 108.201 143.628 109.493V124.033C143.628 125.325 144.675 126.372 145.967 126.372H155.702C156.995 126.372 158.042 125.325 158.042 124.033V109.493C158.042 108.201 156.995 107.153 155.702 107.153Z" fill="#F7CE23"/>
<path d="M155.702 107.153H153.838V119.228C153.838 119.535 153.777 119.839 153.66 120.123C153.542 120.407 153.37 120.665 153.153 120.882C152.935 121.099 152.678 121.272 152.394 121.389C152.11 121.507 151.806 121.567 151.498 121.567H143.628V124.033C143.628 124.653 143.874 125.248 144.313 125.687C144.752 126.126 145.347 126.372 145.967 126.372H155.702C156.323 126.372 156.918 126.126 157.357 125.687C157.796 125.248 158.042 124.653 158.042 124.033V109.493C158.042 108.872 157.796 108.277 157.357 107.839C156.918 107.4 156.323 107.153 155.702 107.153Z" fill="#F7B023"/>
<path d="M143.628 111.357H158.042V119.766H143.628V111.357Z" fill="#066991"/>
<path d="M146.03 99.9463H155.64V103.55H146.03V99.9463Z" fill="#F9E48C"/>
<path d="M147.832 99.9463H149.033V103.55H147.832V99.9463ZM150.234 99.9463H151.436V103.55H150.234V99.9463ZM152.637 101.748H153.838V103.55H152.637V101.748Z" fill="#F7CE23"/>
<path d="M142.688 112.237C142.125 111.674 141.361 111.357 140.565 111.357C139.769 111.357 139.005 111.674 138.442 112.237L135.469 115.21L139.715 119.457L142.688 116.484C143.252 115.921 143.568 115.157 143.568 114.36C143.568 113.564 143.252 112.8 142.688 112.237Z" fill="#1DBF5E"/>
<path d="M142.688 112.237C142.508 112.057 142.306 111.901 142.087 111.772C142.382 112.338 142.489 112.984 142.392 113.616C142.295 114.247 141.999 114.831 141.547 115.283L138.544 118.286L139.715 119.457L142.688 116.484C142.967 116.205 143.188 115.874 143.339 115.51C143.49 115.145 143.568 114.755 143.568 114.36C143.568 113.966 143.49 113.576 143.339 113.211C143.188 112.847 142.967 112.516 142.688 112.237Z" fill="#16994A"/>
<path d="M143.628 124.033C143.628 124.653 143.874 125.248 144.313 125.687C144.752 126.126 145.347 126.372 145.967 126.372H155.702C156.323 126.372 156.918 126.126 157.357 125.687C157.796 125.248 158.042 124.653 158.042 124.033V123.97H143.628V124.033Z" fill="#F99321"/>
<path d="M143.628 111.357H153.838V119.766H143.628V111.357Z" fill="#77D5D8"/>
<path d="M153.838 115.562H152.036V113.76H150.835V115.562H149.033V116.763H150.835V118.564H152.036V116.763H153.838V115.562Z" fill="#4ABDCC"/>
<path d="M153.237 114.961H151.436V113.159H150.234V114.961H148.433V116.162H150.234V117.964H151.436V116.162H153.237V114.961Z" fill="white"/>
<path d="M134.619 124.57H132.217C131.885 124.57 131.616 124.839 131.616 125.171C131.616 125.503 131.885 125.771 132.217 125.771H134.619C134.951 125.771 135.22 125.503 135.22 125.171C135.22 124.839 134.951 124.57 134.619 124.57Z" fill="white"/>
<path d="M128.013 124.57H126.812C126.48 124.57 126.211 124.839 126.211 125.171C126.211 125.503 126.48 125.771 126.812 125.771H128.013C128.344 125.771 128.613 125.503 128.613 125.171C128.613 124.839 128.344 124.57 128.013 124.57Z" fill="white"/>
<path d="M140.451 113.956L139.601 114.806C139.367 115.04 139.367 115.421 139.601 115.655C139.836 115.89 140.216 115.89 140.451 115.655L141.3 114.806C141.535 114.571 141.535 114.191 141.3 113.956C141.066 113.722 140.685 113.722 140.451 113.956Z" fill="white"/>
<path d="M125.61 125.171C125.942 125.171 126.211 124.902 126.211 124.57C126.211 124.239 125.942 123.97 125.61 123.97C125.279 123.97 125.01 124.239 125.01 124.57C125.01 124.902 125.279 125.171 125.61 125.171Z" fill="white"/>
<path d="M141.657 113.598C141.989 113.598 142.258 113.329 142.258 112.997C142.258 112.665 141.989 112.396 141.657 112.396C141.326 112.396 141.057 112.665 141.057 112.997C141.057 113.329 141.326 113.598 141.657 113.598Z" fill="white"/>
<g clip-path="url(#clip2_149_1816)">
<path d="M117.533 26.1444H121.42V28.7381H117.533V26.1444Z" fill="#48C1E1"/>
<path d="M122.222 25.8589C122.222 26.0716 122.048 26.2456 121.835 26.2456H117.118C116.905 26.2456 116.731 26.0716 116.731 25.8589V23.0716C116.731 22.859 116.905 22.6849 117.118 22.6849H121.835C122.048 22.6849 122.222 22.859 122.222 23.0716L122.222 25.8589Z" fill="#046699"/>
<path opacity="0.1" d="M118.344 25.8589V23.0716C118.344 22.859 118.518 22.6849 118.731 22.6849H117.118C116.905 22.6849 116.731 22.859 116.731 23.0716V25.8589C116.731 26.0716 116.905 26.2456 117.118 26.2456H118.731C118.518 26.2456 118.344 26.0716 118.344 25.8589Z" fill="black"/>
<path d="M116.328 47.1695C116.338 47.1655 116.347 47.1594 116.354 47.1517C116.362 47.144 116.367 47.1348 116.371 47.1247C116.374 47.1146 116.375 47.104 116.374 47.0934C116.374 47.0828 116.37 47.0725 116.365 47.0632C116.333 47.0063 116.317 46.9504 116.317 46.8971C116.317 46.4833 117.235 46.0403 118.601 46.0403C119.041 46.0403 119.47 46.0892 119.841 46.1817C119.853 46.1849 119.866 46.1847 119.879 46.1813C119.891 46.1778 119.903 46.1712 119.912 46.162C119.921 46.1528 119.928 46.1415 119.931 46.129C119.935 46.1165 119.935 46.1033 119.932 46.0907C119.693 45.1387 119.557 44.1603 119.525 43.1604C119.524 43.1488 119.523 43.1371 119.523 43.1254C119.519 42.9823 119.516 42.8392 119.516 42.696C119.516 42.6129 119.549 42.5331 119.608 42.4742C119.667 42.4154 119.747 42.3822 119.83 42.382H120.508C120.519 42.3821 120.529 42.3798 120.539 42.3755C120.548 42.3712 120.557 42.3649 120.564 42.357C120.571 42.3492 120.576 42.3399 120.58 42.3298C120.583 42.3198 120.584 42.3091 120.583 42.2986C120.572 42.2118 120.567 42.1244 120.566 42.037C120.566 40.9792 121.243 40.0554 122.25 39.7382C122.26 39.735 122.269 39.7296 122.277 39.7224C122.285 39.7151 122.292 39.7063 122.296 39.6964C122.3 39.6866 122.302 39.6759 122.302 39.6652C122.302 39.6544 122.299 39.6438 122.295 39.6341C122.204 39.4463 122.14 39.2469 122.104 39.0416C121.928 38.0295 122.458 37.0219 123.391 36.5912C123.427 36.5749 123.444 36.5344 123.431 36.4977C123.387 36.3759 123.354 36.2506 123.332 36.1232C123.189 35.302 123.511 34.5057 124.106 34.0014V30.7774C124.106 29.5905 123.137 28.6194 121.952 28.6194H117.001C115.817 28.6194 114.848 29.5905 114.848 30.7774V48.065C115.279 47.7014 115.776 47.3969 116.328 47.1695Z" fill="#A2DFF9"/>
<path d="M122.25 39.738C122.26 39.7348 122.269 39.7294 122.277 39.7222C122.285 39.715 122.292 39.7062 122.296 39.6963C122.3 39.6864 122.302 39.6758 122.302 39.665C122.302 39.6543 122.299 39.6437 122.295 39.634C122.204 39.4462 122.14 39.2468 122.104 39.0414C121.929 38.0294 122.458 37.0217 123.391 36.591C123.427 36.5747 123.444 36.5342 123.431 36.4976C123.387 36.3758 123.354 36.2505 123.332 36.123C123.19 35.3019 123.511 34.5055 124.106 34.0012V32.5496H114.848V40.5376H121.088C121.386 40.1607 121.791 39.8821 122.25 39.738Z" fill="#046699"/>
<path opacity="0.1" d="M117.173 46.2335V30.7772C117.173 29.5903 118.141 28.6193 119.326 28.6193H117.001C115.817 28.6193 114.848 29.5903 114.848 30.7772V48.065C115.279 47.7013 115.776 47.3969 116.328 47.1695C116.338 47.1655 116.347 47.1594 116.354 47.1516C116.362 47.1439 116.367 47.1347 116.371 47.1246C116.374 47.1146 116.375 47.1039 116.374 47.0933C116.374 47.0827 116.37 47.0724 116.365 47.0632C116.333 47.0063 116.317 46.9503 116.317 46.897C116.317 46.6539 116.634 46.401 117.173 46.2335Z" fill="black"/>
<path d="M131.177 34.7574C131.199 34.8826 131.21 35.0125 131.21 35.1435C131.21 35.1622 131.217 35.1803 131.23 35.1941C131.243 35.2079 131.26 35.2165 131.279 35.2182C132.24 35.3026 133.043 35.9872 133.278 36.9218C133.281 36.9345 133.288 36.9461 133.297 36.9555C133.306 36.9649 133.317 36.9718 133.33 36.9755C133.342 36.9792 133.356 36.9796 133.368 36.9766C133.381 36.9735 133.393 36.9673 133.402 36.9584C133.794 36.5931 134.281 36.3736 134.812 36.3236C134.83 36.3219 134.847 36.3137 134.859 36.3003C134.872 36.287 134.879 36.2696 134.88 36.2513C134.914 35.1986 135.342 34.2086 136.085 33.4638C136.101 33.4483 136.117 33.4338 136.132 33.4184C135.968 32.3703 135.485 31.363 134.681 30.557C134.643 30.5194 134.599 30.4895 134.549 30.4691C134.5 30.4487 134.448 30.4382 134.394 30.4382C134.341 30.4382 134.288 30.4487 134.239 30.4691C134.19 30.4895 134.146 30.5194 134.108 30.557L130.812 33.86C130.997 34.1294 131.122 34.4355 131.177 34.7574Z" fill="#EF5050"/>
<path d="M133.278 36.9218C133.281 36.9345 133.288 36.9461 133.297 36.9555C133.306 36.9649 133.317 36.9718 133.33 36.9755C133.342 36.9792 133.355 36.9796 133.368 36.9766C133.381 36.9736 133.392 36.9673 133.402 36.9584C133.59 36.7827 133.805 36.6383 134.039 36.5308C134.012 36.4419 133.964 36.361 133.898 36.2953L133.352 35.7474C133.246 35.6417 133.103 35.5822 132.954 35.582C132.804 35.5818 132.661 35.641 132.555 35.7464C132.554 35.748 132.552 35.7497 132.551 35.7514C132.909 36.0564 133.163 36.4655 133.278 36.9218ZM134.449 35.2552H133.676C133.365 35.2552 133.113 35.0031 133.113 34.6922C133.113 34.3812 133.365 34.1291 133.676 34.1291H134.449C134.598 34.1291 134.741 34.1884 134.847 34.294C134.953 34.3996 135.012 34.5428 135.012 34.6922C135.012 35.0032 134.76 35.2552 134.449 35.2552ZM133.567 33.6997C133.456 33.6997 133.347 33.6666 133.254 33.6048C133.162 33.543 133.09 33.4551 133.047 33.3523C133.004 33.2495 132.993 33.1364 133.015 33.0272C133.036 32.918 133.09 32.8177 133.168 32.7389L133.715 32.191C133.821 32.0853 133.964 32.0259 134.113 32.0257C134.262 32.0256 134.406 32.0848 134.511 32.1903C134.617 32.2958 134.677 32.4389 134.677 32.5883C134.677 32.7376 134.618 32.8809 134.512 32.9866L133.965 33.5344C133.913 33.5869 133.851 33.6285 133.783 33.6569C133.714 33.6852 133.641 33.6998 133.567 33.6997Z" fill="#C0272D"/>
<path d="M140.626 32.5513C140.62 32.5343 140.609 32.5188 140.597 32.5059C140.584 32.493 140.568 32.4828 140.551 32.4761C139.789 32.1722 138.955 32.0987 138.151 32.2648C137.348 32.431 136.611 32.8294 136.032 33.4107C135.259 34.1852 134.818 35.2303 134.803 36.3244C134.881 36.3166 134.96 36.3127 135.04 36.3126C136.207 36.3126 137.183 37.1512 137.399 38.259C138.269 38.1174 139.072 37.7052 139.694 37.0811C140.88 35.8921 141.246 34.1142 140.626 32.5513Z" fill="#89C947"/>
<path d="M138.602 34.5039C138.55 34.4516 138.488 34.4102 138.42 34.382C138.351 34.3538 138.278 34.3393 138.204 34.3394C138.13 34.3395 138.057 34.3541 137.989 34.3825C137.92 34.4109 137.858 34.4524 137.806 34.5048L135.858 36.4569C136.223 36.5902 136.55 36.8095 136.811 37.0961L138.603 35.3001C138.656 35.2478 138.697 35.1856 138.725 35.1173C138.753 35.049 138.768 34.9757 138.768 34.9018C138.768 34.8278 138.753 34.7546 138.725 34.6864C138.696 34.6181 138.655 34.5561 138.602 34.5039Z" fill="#D5E962"/>
<path d="M141.434 38.9995C141.454 39.1143 141.464 39.2305 141.464 39.347C141.464 39.3859 141.494 39.4182 141.533 39.4217C141.837 39.4485 142.128 39.5429 142.396 39.7024C142.411 39.7114 142.429 39.7148 142.446 39.712C142.464 39.7092 142.479 39.7005 142.491 39.6872C142.547 39.623 142.604 39.5607 142.664 39.5004C143.117 39.0462 143.665 38.722 144.263 38.5453C144.32 38.3331 144.349 38.1143 144.349 37.8945C144.349 36.5219 143.239 35.4091 141.869 35.4091C140.701 35.4091 139.722 36.2188 139.46 37.3085C139.934 37.3159 140.391 37.4889 140.752 37.7977C141.113 38.1065 141.354 38.5316 141.434 38.9995ZM124.44 42.328C124.19 41.8847 124.03 41.3963 123.969 40.891C123.611 40.8325 123.272 40.6888 122.981 40.4719C122.69 40.255 122.456 39.9713 122.298 39.6448C121.256 39.939 120.491 40.8981 120.491 42.0368C120.491 42.1354 120.499 42.2323 120.51 42.3279H124.44V42.328Z" fill="#FFC502"/>
<path d="M143.366 41.1062C143.438 41.5208 143.38 41.9479 143.199 42.328H146.386C146.76 41.802 146.997 41.1906 147.075 40.5496C147.153 39.9085 147.069 39.2582 146.831 38.658C146.825 38.6424 146.815 38.6282 146.803 38.6163C146.792 38.6045 146.777 38.5952 146.762 38.589C146.062 38.3098 145.296 38.2423 144.558 38.3949C143.82 38.5474 143.143 38.9134 142.611 39.4473C142.532 39.5268 142.457 39.6097 142.386 39.6957C142.891 39.9927 143.261 40.5006 143.366 41.1062Z" fill="#89C947"/>
<path d="M143.199 42.328H143.896L145.006 41.215C145.058 41.1627 145.1 41.1006 145.128 41.0322C145.156 40.9639 145.171 40.8906 145.171 40.8167C145.17 40.7427 145.156 40.6695 145.127 40.6013C145.099 40.533 145.057 40.471 145.005 40.4188C144.953 40.3665 144.891 40.3251 144.822 40.2969C144.754 40.2687 144.681 40.2542 144.607 40.2543C144.533 40.2544 144.46 40.269 144.391 40.2974C144.323 40.3258 144.261 40.3673 144.209 40.4197L143.384 41.2461C143.424 41.6169 143.359 41.9913 143.199 42.328Z" fill="#D5E962"/>
<path d="M133.365 36.9653C133.139 35.9541 132.283 35.231 131.286 35.1434C131.286 35.0097 131.274 34.8762 131.252 34.7445C131.03 33.4686 129.815 32.6143 128.538 32.8367C127.874 32.9522 127.325 33.3354 126.981 33.8552C126.481 33.4823 125.835 33.3071 125.172 33.4225C123.894 33.6451 123.038 34.8599 123.259 36.1358C123.282 36.2698 123.317 36.399 123.361 36.5228C122.418 36.9579 121.845 37.9842 122.031 39.0542C122.206 40.0657 123.006 40.8114 123.967 40.9665C123.874 40.3215 123.949 39.6557 124.198 39.0268C124.2 39.0207 124.204 39.0152 124.209 39.0105C124.213 39.0059 124.219 39.0022 124.225 38.9998C124.669 38.8222 125.144 38.7311 125.622 38.7313C126.631 38.7313 127.58 39.1255 128.295 39.8414C128.346 39.8932 128.396 39.9465 128.444 40.0011C128.404 39.7399 128.383 39.476 128.383 39.2117C128.383 39.0293 128.531 38.8809 128.713 38.8809H132.644C132.641 38.8283 132.639 38.7756 132.639 38.7229C132.639 38.0366 132.916 37.4152 133.365 36.9653Z" fill="#368C0E"/>
<path d="M125.141 37.1852L125.132 37.1851C125.058 37.1838 124.985 37.168 124.917 37.1386C124.849 37.1091 124.788 37.0666 124.736 37.0135C124.685 36.9603 124.645 36.8975 124.617 36.8288C124.59 36.76 124.577 36.6865 124.578 36.6126C124.595 35.6378 125.394 34.8553 126.366 34.8553L126.395 34.8555C126.638 34.8597 126.878 34.9133 127.1 35.0133C127.322 35.1132 127.521 35.2572 127.686 35.4366C127.784 35.5472 127.836 35.6923 127.828 35.8403C127.821 35.9884 127.755 36.1275 127.645 36.2275C127.536 36.3275 127.392 36.3803 127.243 36.3744C127.095 36.3685 126.955 36.3045 126.854 36.1962C126.794 36.1295 126.72 36.076 126.638 36.039C126.556 36.0021 126.467 35.9825 126.377 35.9815C126.011 35.9756 125.71 36.2675 125.704 36.6317C125.702 36.7793 125.641 36.92 125.536 37.0235C125.431 37.127 125.289 37.1851 125.141 37.1852ZM128.25 38.154C128.159 38.154 128.069 38.132 127.989 38.0899C127.908 38.0479 127.839 37.987 127.787 37.9124C127.736 37.8379 127.703 37.7519 127.691 37.6618C127.68 37.5717 127.69 37.4801 127.722 37.395C128.036 36.5482 128.981 36.1137 129.829 36.4264C130.038 36.5041 130.229 36.6236 130.391 36.7776C130.552 36.9316 130.681 37.1169 130.769 37.3223C130.827 37.4597 130.828 37.6147 130.773 37.7532C130.717 37.8917 130.608 38.0023 130.471 38.0607C130.333 38.1191 130.178 38.1205 130.04 38.0646C129.901 38.0087 129.791 37.9001 129.732 37.7627C129.705 37.6984 129.665 37.6403 129.615 37.5921C129.564 37.544 129.504 37.5068 129.439 37.4828C129.172 37.3846 128.876 37.521 128.778 37.7866C128.738 37.8944 128.666 37.9874 128.571 38.0531C128.477 38.1187 128.365 38.154 128.25 38.154Z" fill="#89C947"/>
<path d="M137.439 38.8748H137.419C137.419 38.8801 137.419 38.8854 137.418 38.8906H138.173C138.226 38.8907 138.279 38.9012 138.328 38.9217C138.377 38.9421 138.422 38.972 138.459 39.0097C138.497 39.0474 138.527 39.0921 138.547 39.1413C138.567 39.1906 138.578 39.2433 138.578 39.2966C138.578 40.4279 138.212 41.474 137.597 42.328H143.28C143.45 41.9542 143.515 41.5281 143.44 41.0934C143.272 40.127 142.474 39.4289 141.54 39.3469C141.54 39.2261 141.529 39.1056 141.509 38.9867C141.309 37.8341 140.211 37.0626 139.057 37.2635C138.458 37.3679 137.962 37.7139 137.651 38.1835C137.55 38.1083 137.442 38.0422 137.329 37.9861C137.406 38.2242 137.445 38.4729 137.444 38.723C137.444 38.7726 137.443 38.8227 137.439 38.8748Z" fill="#368C0E"/>
<path d="M137.514 38.8809C137.518 38.8286 137.52 38.7761 137.52 38.7229C137.52 37.3502 136.41 36.2375 135.04 36.2375C133.671 36.2375 132.561 37.3503 132.561 38.7229C132.561 38.7761 132.563 38.8286 132.566 38.8809H137.514Z" fill="#F7931E"/>
<path d="M128.347 39.7884C127.816 39.2546 127.139 38.8887 126.401 38.7361C125.663 38.5835 124.897 38.651 124.197 38.9301C124.181 38.9363 124.167 38.9456 124.155 38.9575C124.143 38.9694 124.134 38.9836 124.128 38.9992C123.915 39.5359 123.825 40.1134 123.865 40.6894C123.904 41.2654 124.072 41.8253 124.356 42.328H129.467C128.949 41.6384 128.598 40.8165 128.475 39.9225C128.434 39.8768 128.391 39.8321 128.347 39.7884Z" fill="#89C947"/>
<path d="M126.723 42.328H128.313L126.75 40.7607C126.644 40.655 126.501 40.5956 126.352 40.5954C126.203 40.5952 126.059 40.6544 125.954 40.7598C125.901 40.812 125.86 40.8741 125.831 40.9423C125.803 41.0106 125.788 41.0838 125.788 41.1577C125.788 41.2317 125.802 41.3049 125.831 41.3733C125.859 41.4416 125.9 41.5037 125.953 41.5561L126.723 42.328Z" fill="#D5E962"/>
<path d="M137.635 42.328C138.287 41.4589 138.676 40.3805 138.676 39.2117C138.677 39.1584 138.666 39.1057 138.646 39.0565C138.625 39.0072 138.596 38.9625 138.558 38.9248C138.52 38.8871 138.476 38.8572 138.427 38.8368C138.377 38.8163 138.325 38.8058 138.271 38.8058H128.713C128.659 38.8058 128.607 38.8164 128.557 38.8368C128.508 38.8572 128.464 38.8872 128.426 38.9249C128.388 38.9625 128.359 39.0073 128.338 39.0565C128.318 39.1057 128.308 39.1584 128.308 39.2117C128.308 40.3805 128.697 41.4589 129.349 42.328H137.635Z" fill="#EF5050"/>
<path d="M134.075 42.3279V41.9385C134.075 41.6275 133.823 41.3754 133.512 41.3754C133.201 41.3754 132.949 41.6275 132.949 41.9385V42.3279H134.075ZM135.155 42.3279H136.031C136.119 42.22 136.164 42.0831 136.157 41.9437C136.15 41.8044 136.092 41.6726 135.994 41.5738L135.447 41.026C135.342 40.9202 135.198 40.8608 135.049 40.8606C134.9 40.8604 134.756 40.9195 134.651 41.025C134.545 41.1304 134.486 41.2736 134.485 41.4229C134.485 41.5722 134.544 41.7155 134.65 41.8212L135.155 42.3279ZM131.78 42.3279L132.285 41.8214C132.39 41.7155 132.449 41.5725 132.448 41.4235C132.448 41.2746 132.388 41.132 132.283 41.0268C132.177 40.9216 132.035 40.8624 131.886 40.8623C131.737 40.8621 131.594 40.921 131.488 41.026L130.942 41.5738C130.843 41.6726 130.785 41.8044 130.778 41.9437C130.771 42.083 130.816 42.2199 130.904 42.3279L131.78 42.3279ZM130.914 40.8095H130.141C129.83 40.8095 129.578 40.5574 129.578 40.2465C129.578 39.9355 129.83 39.6834 130.141 39.6834H130.914C131.064 39.6834 131.207 39.7427 131.312 39.8483C131.418 39.9539 131.477 40.0971 131.477 40.2465C131.477 40.3958 131.418 40.539 131.312 40.6446C131.207 40.7502 131.064 40.8095 130.914 40.8095ZM136.842 40.8095H136.069C135.919 40.8095 135.776 40.7502 135.671 40.6446C135.565 40.539 135.506 40.3958 135.506 40.2465C135.506 40.0971 135.565 39.9539 135.671 39.8483C135.776 39.7427 135.919 39.6834 136.069 39.6834H136.842C136.991 39.6834 137.134 39.7427 137.24 39.8483C137.346 39.9539 137.405 40.0971 137.405 40.2465C137.405 40.3958 137.346 40.539 137.24 40.6446C137.134 40.7502 136.991 40.8095 136.842 40.8095Z" fill="#C0272D"/>
<path d="M119.949 46.2103C119.96 46.2134 119.972 46.2139 119.983 46.2117C119.994 46.2096 120.005 46.2048 120.014 46.1978C120.024 46.1908 120.031 46.1818 120.036 46.1714C120.042 46.161 120.044 46.1496 120.044 46.138V45.1851C120.044 44.9161 120.263 44.6972 120.532 44.6972C120.801 44.6972 121.02 44.9161 121.02 45.1851V46.138C121.02 46.1496 121.023 46.1611 121.028 46.1715C121.033 46.1819 121.041 46.1909 121.05 46.1979C121.059 46.2049 121.07 46.2097 121.081 46.2118C121.093 46.214 121.104 46.2134 121.116 46.2103C121.511 46.099 121.977 46.0401 122.463 46.0401C123.83 46.0401 124.748 46.4831 124.748 46.8969C124.748 46.9504 124.732 47.0063 124.699 47.0632C124.694 47.0725 124.691 47.0828 124.69 47.0934C124.689 47.104 124.69 47.1146 124.694 47.1247C124.697 47.1348 124.703 47.144 124.71 47.1517C124.717 47.1595 124.726 47.1656 124.736 47.1696C126.486 47.8909 127.726 49.421 127.972 51.1626C127.975 51.1805 127.984 51.1969 127.997 51.2087C128.011 51.2206 128.028 51.2271 128.047 51.2272C128.056 51.2272 128.065 51.2255 128.073 51.2223L139.925 46.7197C140.154 46.6328 140.396 46.5883 140.641 46.5885C140.984 46.5885 141.325 46.6771 141.624 46.8448C142.145 47.1364 142.506 47.6393 142.615 48.2245L142.718 48.7819C142.72 48.7938 142.725 48.805 142.733 48.8145C142.74 48.824 142.75 48.8316 142.761 48.8366C142.772 48.8416 142.784 48.8439 142.796 48.8432C142.808 48.8426 142.819 48.839 142.83 48.8329L146.815 46.4805C147.157 45.2604 147.331 43.9952 147.331 42.6958C147.331 42.6447 147.321 42.5942 147.301 42.547C147.282 42.4998 147.253 42.457 147.217 42.4208C147.181 42.3847 147.138 42.3561 147.091 42.3365C147.044 42.3169 146.993 42.3068 146.942 42.3067H119.83C119.779 42.3068 119.728 42.3169 119.681 42.3365C119.634 42.3561 119.591 42.3847 119.555 42.4208C119.519 42.457 119.49 42.4998 119.471 42.547C119.451 42.5942 119.441 42.6447 119.441 42.6958C119.441 43.8933 119.589 45.0616 119.88 46.1925C119.903 46.1985 119.927 46.2039 119.949 46.2103Z" fill="#E6E9ED"/>
<path opacity="0.1" d="M119.949 46.2103C119.96 46.2134 119.972 46.2139 119.983 46.2117C119.994 46.2096 120.005 46.2048 120.014 46.1978C120.024 46.1908 120.031 46.1818 120.036 46.1714C120.042 46.161 120.044 46.1496 120.044 46.138V45.1851C120.044 44.9161 120.263 44.6972 120.532 44.6972C120.801 44.6972 121.02 44.9161 121.02 45.1851V46.138C121.02 46.1496 121.023 46.1611 121.028 46.1715C121.033 46.1819 121.041 46.1909 121.05 46.1979C121.059 46.2049 121.07 46.2097 121.081 46.2118C121.093 46.214 121.104 46.2134 121.116 46.2103C121.454 46.115 121.844 46.0585 122.254 46.0442C121.988 44.9595 121.854 43.8409 121.854 42.6958C121.854 42.6447 121.864 42.5942 121.883 42.547C121.903 42.4998 121.931 42.457 121.967 42.4208C122.003 42.3847 122.046 42.3561 122.093 42.3365C122.14 42.3169 122.191 42.3068 122.242 42.3067H119.83C119.779 42.3068 119.728 42.3169 119.681 42.3365C119.634 42.3561 119.591 42.3847 119.555 42.4208C119.519 42.457 119.49 42.4998 119.471 42.547C119.451 42.5942 119.441 42.6447 119.441 42.6958C119.441 43.8933 119.589 45.0616 119.88 46.1925C119.903 46.1985 119.927 46.2039 119.949 46.2103Z" fill="black"/>
<path d="M120.533 46.4782C120.687 46.3916 120.878 46.3162 121.096 46.2547V45.1851C121.096 44.8741 120.844 44.622 120.533 44.622C120.222 44.622 119.97 44.8741 119.97 45.1851V46.2547C120.188 46.3161 120.379 46.3916 120.533 46.4782Z" fill="#89C947"/>
<path d="M126.284 56.9267L124.251 56.9275H124.25C123.282 56.9274 122.452 56.2394 122.276 55.2915L122.256 55.1837C122.081 54.2356 122.61 53.2979 123.515 52.954L128.058 51.2282C127.824 49.3571 126.505 47.79 124.695 47.0711C124.519 47.3663 123.914 47.6234 123.126 47.7158C123.112 47.7175 123.098 47.7235 123.087 47.7331C123.075 47.7427 123.067 47.7554 123.063 47.7696C123.059 47.7839 123.059 47.799 123.064 47.8131C123.068 47.8272 123.077 47.8397 123.088 47.849C123.496 48.1755 123.753 48.5198 123.774 48.77C123.782 48.8607 123.76 48.9343 123.706 48.995C123.61 49.1031 123.422 49.1602 123.162 49.1602C122.655 49.1602 121.969 48.9483 121.328 48.5933C121.046 48.4368 120.794 48.2658 120.581 48.085C120.567 48.0735 120.55 48.0672 120.532 48.0672C120.515 48.0672 120.497 48.0735 120.484 48.085C120.27 48.266 120.019 48.437 119.737 48.5932C119.096 48.9483 118.41 49.1602 117.903 49.1602C117.643 49.1602 117.455 49.1031 117.359 48.995C117.305 48.9343 117.283 48.8608 117.291 48.7701C117.312 48.5199 117.568 48.1756 117.977 47.849C117.988 47.8397 117.997 47.8272 118.001 47.8131C118.006 47.799 118.006 47.7839 118.002 47.7697C117.998 47.7555 117.989 47.7428 117.978 47.7332C117.967 47.7236 117.953 47.7175 117.938 47.7158C117.15 47.6234 116.545 47.3662 116.37 47.0708C114.369 47.865 112.969 49.6946 112.969 51.8255C112.969 54.6848 115.49 57.0026 118.6 57.0026H126.407C126.491 57.0026 126.426 56.9726 126.284 56.9267Z" fill="#EF5050"/>
<path opacity="0.1" d="M115.405 51.8255C115.405 50.1272 116.294 48.6199 117.668 47.6758C117.014 47.5616 116.525 47.3314 116.37 47.0708C114.369 47.865 112.969 49.6945 112.969 51.8255C112.969 54.6847 115.49 57.0025 118.6 57.0025H121.036C117.926 57.0025 115.405 54.6847 115.405 51.8255Z" fill="black"/>
<path d="M124.824 46.897C124.824 46.3823 123.767 45.9651 122.464 45.9651C121.666 45.9651 120.96 46.1218 120.533 46.3615C120.106 46.1219 119.401 45.9651 118.602 45.9651C117.299 45.9651 116.242 46.3823 116.242 46.897C116.242 47.3194 116.954 47.6759 117.93 47.7904C117.333 48.2681 117.06 48.7701 117.303 49.0447C117.625 49.4086 118.732 49.2358 119.774 48.6589C120.066 48.4969 120.323 48.3205 120.533 48.1423C120.743 48.3206 121 48.4969 121.292 48.6589C122.334 49.2358 123.44 49.4084 123.763 49.0447C124.006 48.7701 123.733 48.2681 123.135 47.7904C124.112 47.6759 124.824 47.3194 124.824 46.897Z" fill="#368C0E"/>
<path d="M151.397 50.231L151.246 49.4154C151.194 49.1339 150.923 48.9479 150.64 48.9997L144.804 50.0716L148.53 47.5809C148.614 47.5247 148.68 47.4451 148.72 47.3519C148.759 47.2587 148.771 47.156 148.752 47.0565C148.742 47.0002 148.722 46.9461 148.694 46.8963L148.272 46.1495C148.238 46.0892 148.192 46.0363 148.138 45.9939C148.083 45.9516 148.02 45.9206 147.953 45.9029C147.886 45.885 147.816 45.8806 147.748 45.89C147.679 45.8994 147.613 45.9224 147.553 45.9577L142.706 48.819L143.623 53.7693L149.182 54.7684C149.251 54.7807 149.321 54.7792 149.389 54.7639C149.457 54.7487 149.521 54.7199 149.578 54.6795C149.635 54.6391 149.683 54.5877 149.719 54.5284C149.755 54.4691 149.779 54.4031 149.79 54.3344L149.915 53.4912C149.924 53.4332 149.923 53.3758 149.913 53.3212C149.894 53.2215 149.847 53.1295 149.776 53.0565C149.706 52.9834 149.616 52.9325 149.517 52.91L145.144 51.9069L150.98 50.8349C151.263 50.7829 151.449 50.5127 151.397 50.231Z" fill="#89C947"/>
<path d="M122.202 55.3052C122.384 56.2889 123.246 57.0029 124.25 57.0025L141.815 56.9957C142.12 56.9958 142.422 56.9288 142.698 56.7997C142.974 56.6706 143.219 56.4824 143.415 56.2484C143.61 56.0151 143.751 55.7415 143.829 55.4472C143.906 55.1529 143.917 54.8451 143.862 54.5459L142.688 48.2107C142.576 47.6053 142.2 47.0808 141.661 46.7792C141.122 46.4775 140.476 46.4301 139.899 46.6494L123.488 52.8837C122.549 53.2404 122 54.2134 122.182 55.1973L122.202 55.3052Z" fill="#F7931E"/>
<path opacity="0.1" d="M122.202 55.3051C122.23 55.4533 122.274 55.598 122.334 55.7366C122.583 55.2935 122.98 54.952 123.456 54.772L140.594 48.2612C140.892 48.1481 141.211 48.1016 141.529 48.125C141.847 48.1484 142.156 48.2411 142.434 48.3967C142.551 48.4625 142.662 48.539 142.765 48.6253L142.688 48.2108C142.576 47.6053 142.2 47.0809 141.661 46.7792C141.122 46.4776 140.476 46.4302 139.899 46.6495L123.488 52.8838C122.549 53.2405 122 54.2135 122.182 55.1973L122.202 55.3051Z" fill="black"/>
<path d="M140.809 54.3621C140.779 54.2168 140.694 54.0889 140.571 54.0063C140.448 53.9237 140.297 53.893 140.151 53.9209C140.006 53.9487 139.877 54.0329 139.793 54.1551C139.709 54.2773 139.677 54.4277 139.703 54.5736L140.166 56.9964L141.313 56.9959L140.809 54.3621ZM137.757 55.0297C137.728 54.884 137.643 54.7555 137.52 54.6722C137.397 54.589 137.246 54.5577 137.1 54.5852C136.954 54.6127 136.825 54.6968 136.741 54.8191C136.657 54.9414 136.624 55.0921 136.65 55.2382L136.982 56.9976L138.128 56.9971L137.757 55.0297ZM134.773 50.789C134.804 50.9105 134.874 51.0184 134.973 51.0955C135.072 51.1726 135.193 51.2145 135.319 51.2146C135.405 51.2147 135.489 51.1952 135.566 51.1576C135.643 51.1201 135.711 51.0654 135.763 50.9978C135.816 50.9302 135.853 50.8515 135.87 50.7676C135.888 50.6838 135.886 50.597 135.865 50.5139L135.329 48.3856L134.269 48.7883L134.773 50.789ZM131.843 54.539C131.817 54.3921 131.733 54.2616 131.61 54.1765C131.488 54.0913 131.336 54.0583 131.189 54.0848C131.042 54.1113 130.912 54.1951 130.827 54.3178C130.742 54.4404 130.709 54.5919 130.735 54.7389L131.143 56.9998L132.287 56.9994L131.843 54.539ZM126.163 53.4866C126.178 53.5593 126.207 53.6283 126.249 53.6897C126.291 53.751 126.344 53.8036 126.406 53.8443C126.468 53.885 126.537 53.913 126.61 53.9268C126.683 53.9406 126.758 53.9399 126.831 53.9246C126.903 53.9094 126.972 53.88 127.033 53.8381C127.094 53.7961 127.147 53.7425 127.187 53.6803C127.227 53.6182 127.255 53.5486 127.269 53.4757C127.282 53.4027 127.281 53.3278 127.265 53.2553L126.914 51.5825L125.849 51.9873L126.163 53.4866Z" fill="#FFC502"/>
</g>
<g clip-path="url(#clip3_149_1816)">
<path d="M67.8369 35.1855C67.8369 35.1855 66.6357 40.5908 61.831 40.5908H61.6328C61.768 40.2049 61.8351 39.7985 61.831 39.3896C62.0953 38.8851 62.5397 38.1164 62.9301 37.3356C63.1887 36.8332 63.3959 36.306 63.5487 35.7621L63.6328 35.7861C64.3732 35.4928 65.1559 35.3205 65.951 35.2756C66.5777 35.2135 67.2071 35.1835 67.8369 35.1855Z" fill="#598019"/>
<path d="M65.9512 35.2756C65.1561 35.3205 64.3733 35.4928 63.6329 35.7861L63.5488 35.7621L63.6329 35.1855V33.8642C63.6327 33.5457 63.6751 33.2286 63.759 32.9213L64.0894 31.7021C64.1546 31.4403 64.1948 31.1728 64.2095 30.9033H64.2395C64.2815 30.561 64.6059 29.1797 67.2364 29.1797C67.2364 29.1797 67.2364 33.5579 65.9392 35.1855L65.9512 35.2756Z" fill="#346C2F"/>
<path d="M56.2511 26.8494C56.0338 27.2542 55.6744 27.5644 55.2421 27.7202C54.891 27.8436 54.586 28.0713 54.3681 28.373C54.1502 28.6747 54.0297 29.0358 54.023 29.4079V32.7832C53.552 32.7652 53.1054 32.5692 52.7732 32.2348C52.441 31.9004 52.2481 31.4525 52.2332 30.9814C52.2232 30.932 52.2192 30.8816 52.2212 30.8313V27.7142C52.2214 27.4417 52.3074 27.1761 52.4669 26.9551C52.6264 26.7342 52.8514 26.569 53.1101 26.483L53.5125 26.3449C53.838 26.2354 54.1076 26.0025 54.2632 25.6963C54.3711 25.4796 54.5373 25.2973 54.7431 25.17C54.949 25.0427 55.1863 24.9753 55.4283 24.9755H57.5904C57.3006 24.9663 57.019 25.0724 56.8073 25.2706C56.5956 25.4687 56.4712 25.7428 56.4613 26.0326C56.4623 26.3183 56.3899 26.5996 56.2511 26.8494ZM61.8306 26.1767C62.1374 26.2109 62.4234 26.3485 62.6417 26.5668C62.86 26.7851 62.9975 27.0711 63.0317 27.3779C63.0167 27.6133 63.0643 27.8486 63.1698 28.0596C63.2754 28.2706 63.4349 28.4498 63.6323 28.5791C63.8302 28.7078 63.9901 28.887 64.0957 29.0981C64.2012 29.3093 64.2486 29.5447 64.2329 29.7802V30.3808C64.2329 30.519 64.2269 30.7051 64.2089 30.9033C64.1943 31.1728 64.154 31.4403 64.0888 31.7021L63.7584 32.9213C63.6745 33.2286 63.6321 33.5457 63.6323 33.8642V35.1855L63.5482 35.7621C63.3955 36.306 63.1882 36.8332 62.9296 37.3356C62.5393 38.1164 62.0948 38.8851 61.8306 39.3896V29.1796C61.822 28.539 61.5954 27.9204 61.1879 27.4259C61.0974 27.3075 60.997 27.197 60.8876 27.0956C60.7183 26.9372 60.5398 26.7888 60.3531 26.6512C60.2089 26.5278 60.1079 26.3616 60.0648 26.1767H61.8306Z" fill="#B9D671"/>
<path d="M61.8314 31.8403V38.1885C61.804 36.9299 61.556 35.6858 61.0987 34.5129C60.7975 33.7062 60.4403 32.9215 60.0296 32.1646C60.0116 31.8943 59.8795 28.7653 61.1888 27.426C61.5962 27.9204 61.8229 28.539 61.8314 29.1797V31.8403Z" fill="#89B029"/>
<path d="M61.8311 38.1885V38.7891C60.4137 36.9573 56.4258 35.7861 56.4258 35.7861V35.1495C56.3392 34.8391 56.1923 34.5489 55.9934 34.2954C55.7945 34.0418 55.5475 33.83 55.2667 33.6721C55.2667 33.6721 58.738 33.2276 61.0983 34.5129C61.5556 35.6858 61.8036 36.9299 61.8311 38.1885ZM54.0234 30.4649V29.4079C54.0302 29.0358 54.1507 28.6747 54.3686 28.3731C54.5865 28.0714 54.8915 27.8436 55.2426 27.7203C55.6749 27.5644 56.0343 27.2543 56.2516 26.8494C57.707 28.4732 58.9742 30.2563 60.0293 32.1646V32.1826C57.669 30.3508 54.3237 30.4649 54.3237 30.4649H54.0234Z" fill="#88AB00"/>
<path d="M60.0657 26.1767C60.1087 26.3616 60.2097 26.5278 60.354 26.6512C60.5406 26.7888 60.7191 26.9372 60.8885 27.0956C60.9978 27.197 61.0983 27.3075 61.1888 27.4259C59.8795 28.7652 60.0116 31.8943 60.0296 32.1646C58.9746 30.2562 57.7073 28.4732 56.252 26.8494C56.3907 26.5996 56.4631 26.3183 56.4622 26.0326C56.472 25.7428 56.5965 25.4687 56.8081 25.2706C57.0198 25.0724 57.3014 24.9663 57.5913 24.9755H59.0747C59.2002 24.9754 59.3244 25 59.4403 25.0479C59.5563 25.0958 59.6616 25.1662 59.7503 25.2549C59.839 25.3436 59.9093 25.4489 59.9573 25.5649C60.0052 25.6808 60.0298 25.805 60.0296 25.9305C60.0294 26.0139 60.0415 26.0969 60.0657 26.1767Z" fill="#93BD2C"/>
<path d="M54.3237 30.4649C54.3237 30.4649 57.669 30.3508 60.0293 32.1826V32.1646C60.44 32.9215 60.7972 33.7061 61.0983 34.5129C58.738 33.2276 55.2667 33.672 55.2667 33.672C54.9698 33.5175 54.6901 33.3323 54.4318 33.1195C54.1916 32.9333 54.0234 32.7832 54.0234 32.7832V30.4649H54.3237ZM56.4258 35.7861C56.4258 35.7861 60.4137 36.9573 61.8311 38.789V39.3896C61.8352 39.7985 61.7681 40.2049 61.6329 40.5908H58.5639C58.4336 39.5 58.0194 38.4625 57.3627 37.5819C56.8727 37.0942 56.5454 36.467 56.4258 35.7861Z" fill="#80A100"/>
<path d="M55.8247 37.5879C55.8247 35.7441 53.8127 34.2306 51.2122 34.0144L51.2182 33.9844C51.0782 33.8166 51.0074 33.6019 51.02 33.3838V32.1826C51.0209 31.8643 51.1478 31.5593 51.3729 31.3343C51.5979 31.1092 51.9029 30.9824 52.2212 30.9814H52.2332C52.248 31.4525 52.441 31.9004 52.7732 32.2348C53.1053 32.5692 53.5519 32.7652 54.0229 32.7832C54.0229 32.7832 54.1911 32.9333 54.4313 33.1195C54.6895 33.3323 54.9693 33.5175 55.2661 33.672C55.547 33.83 55.7939 34.0418 55.9928 34.2953C56.1917 34.5488 56.3387 34.8391 56.4253 35.1495V35.7861C56.5449 36.467 56.8722 37.0942 57.3622 37.5819C58.0189 38.4625 58.433 39.5 58.5634 40.5908H55.4043C55.6875 39.6151 55.8291 38.6038 55.8247 37.5879Z" fill="#628C1B"/>
<path d="M65.9836 32.0769C65.9277 32.2027 65.8304 32.3055 65.7077 32.3681C65.5851 32.4307 65.4447 32.4493 65.31 32.4207C65.1754 32.3922 65.0546 32.3182 64.968 32.2112C64.8813 32.1042 64.834 31.9707 64.8341 31.833V29.9352C64.5133 30.1984 64.3015 30.5711 64.2395 30.9814H64.2095C64.1948 31.2509 64.1546 31.5183 64.0894 31.7802L63.759 32.9994C63.6751 33.3066 63.6327 33.6238 63.6329 33.9423V35.2636L63.5488 35.8402L63.6329 35.8642C64.3733 35.5709 65.1561 35.3985 65.9512 35.3537L65.9392 35.2636C67.2364 33.636 67.2364 29.2577 67.2364 29.2577L65.9836 32.0769Z" fill="#335E33"/>
<path d="M63.5229 37.0726L63.9222 35.6738C63.8236 35.7055 63.727 35.743 63.6328 35.7861L63.5487 35.7621C63.3959 36.3061 63.1887 36.8332 62.9301 37.3356C62.5397 38.1164 62.0953 38.8851 61.831 39.3896C61.8351 39.7985 61.768 40.2049 61.6328 40.5908H61.831C66.6357 40.5908 67.8369 35.1855 67.8369 35.1855L64.4604 37.7176C64.3598 37.7929 64.2381 37.8347 64.1125 37.8372C63.9869 37.8397 63.8637 37.8027 63.7602 37.7315C63.6567 37.6603 63.5781 37.5584 63.5355 37.4402C63.4929 37.322 63.4885 37.1934 63.5229 37.0726Z" fill="#346C2F"/>
<path d="M63.1837 35.6948C63.082 35.6932 62.9822 35.6667 62.8931 35.6176C62.804 35.5685 62.7283 35.4983 62.6726 35.4131C62.5663 35.2441 62.5043 35.0509 62.4924 34.8516C62.4469 34.429 62.5089 34.0018 62.6726 33.6096C62.8726 33.1333 63.2269 32.6576 63.1062 32.1574C63.0214 31.9288 62.9176 31.7078 62.7957 31.4967C62.508 30.8295 62.7957 30.0751 62.8293 29.3526C62.8581 29.0704 62.7978 28.7863 62.657 28.54C62.5627 28.3965 62.4282 28.2806 62.3351 28.1364C62.1459 27.8433 62.1441 27.4554 61.9189 27.1881C61.7941 27.0667 61.6627 26.9522 61.5255 26.8452C61.4576 26.7919 61.4055 26.7212 61.3748 26.6406C61.3441 26.5599 61.336 26.4724 61.3513 26.3875C61.3844 26.3013 61.4436 26.2276 61.5207 26.1767H60.0648C60.1079 26.3616 60.2089 26.5278 60.3531 26.6512C60.5398 26.7888 60.7183 26.9372 60.8876 27.0956C60.997 27.197 61.0974 27.3075 61.1879 27.4259C61.5954 27.9204 61.822 28.539 61.8306 29.1796V39.3896C62.0948 38.8851 62.5393 38.1164 62.9296 37.3356C63.1882 36.8332 63.3955 36.306 63.5482 35.7621L63.5771 35.5633C63.5651 35.5693 63.5536 35.5771 63.5416 35.5831C63.432 35.6462 63.3098 35.6843 63.1837 35.6948ZM55.4704 26.0392C55.394 26.2684 55.2653 26.4767 55.0944 26.6476C54.9235 26.8184 54.7152 26.9472 54.486 27.0235C54.1763 27.1268 53.9069 27.3248 53.716 27.5897C53.5251 27.8545 53.4224 28.1727 53.4224 28.4992V29.7802C53.4224 29.9395 53.3591 30.0923 53.2465 30.2049C53.1338 30.3175 52.9811 30.3808 52.8218 30.3808C52.6625 30.3808 52.5097 30.3175 52.3971 30.2049C52.2845 30.0923 52.2212 29.9395 52.2212 29.7802V30.8313C52.2192 30.8816 52.2232 30.932 52.2332 30.9814C52.2481 31.4525 52.441 31.9004 52.7732 32.2348C53.1054 32.5692 53.552 32.7652 54.023 32.7832V29.4079C54.0297 29.0358 54.1502 28.6747 54.3681 28.373C54.586 28.0713 54.891 27.8436 55.2421 27.7202C55.6744 27.5644 56.0338 27.2542 56.2511 26.8494C56.3899 26.5996 56.4623 26.3183 56.4613 26.0326C56.4712 25.7428 56.5956 25.4687 56.8073 25.2706C57.019 25.0724 57.3006 24.9663 57.5904 24.9755H56.946C56.6195 24.9755 56.3013 25.0782 56.0364 25.2691C55.7716 25.46 55.5735 25.7294 55.4704 26.0392Z" fill="#9FC73D"/>
<path d="M57.3627 37.5819C56.8727 37.0942 56.5454 36.467 56.4258 35.7861V35.1495C56.3392 34.8391 56.1923 34.5488 55.9934 34.2953C55.7945 34.0418 55.5475 33.83 55.2667 33.672C54.9698 33.5175 54.6901 33.3323 54.4318 33.1195C54.1916 32.9333 54.0234 32.7832 54.0234 32.7832C53.5525 32.7652 53.1058 32.5692 52.7737 32.2348C52.4415 31.9004 52.2486 31.4525 52.2337 30.9814H52.2217C52.0101 30.9827 51.8028 31.0406 51.6211 31.149V31.4066C51.6212 31.787 51.7418 32.1576 51.9654 32.4653C52.1891 32.773 52.5043 33.002 52.8661 33.1195C53.767 33.4138 54.8835 33.9003 55.2246 34.5849C55.5417 35.5208 55.9613 36.4187 56.4756 37.2624C56.5353 37.3526 56.5692 37.4573 56.574 37.5653C56.5787 37.6734 56.554 37.7807 56.5025 37.8757C56.451 37.9708 56.3747 38.0502 56.2816 38.1052C56.1886 38.1603 56.0823 38.1891 55.9741 38.1885H55.8042C55.7653 39.0021 55.6313 39.8084 55.4048 40.5908H58.5639C58.4336 39.5 58.0194 38.4625 57.3627 37.5819Z" fill="#4D6E15"/>
<path d="M61.8314 39.3897V36.6372C61.6998 35.895 61.5018 35.1662 61.2398 34.4594C60.9397 33.6571 60.585 32.8763 60.178 32.1226C60.1648 31.8415 60.0579 28.871 61.2735 27.5479C61.244 27.5077 61.2206 27.4632 61.1888 27.4242C61.1569 27.3851 61.1197 27.3497 61.0861 27.3113L61.0813 27.3179C60.0338 28.3899 59.8801 30.5166 59.8687 31.5646C58.8668 29.8447 57.6933 28.2307 56.3661 26.7473C56.3607 26.7413 56.3396 26.7221 56.3336 26.7167C56.3276 26.7113 56.3192 26.7101 56.3132 26.7041C56.2957 26.7535 56.2757 26.802 56.2532 26.8494C56.2291 26.8951 56.1967 26.9353 56.1691 26.9791C57.4681 28.4346 58.6175 30.0169 59.6002 31.7022C57.9957 30.775 56.1717 30.2954 54.3187 30.3136C54.2989 30.3143 54.2796 30.3189 54.2616 30.3271C54.2437 30.3353 54.2275 30.347 54.2141 30.3614C54.2006 30.3758 54.1902 30.3928 54.1833 30.4113C54.1764 30.4298 54.1732 30.4494 54.1739 30.4692C54.1746 30.4889 54.1792 30.5083 54.1874 30.5262C54.1956 30.5441 54.2073 30.5603 54.2217 30.5737C54.2362 30.5872 54.2531 30.5976 54.2716 30.6045C54.2901 30.6114 54.3098 30.6146 54.3295 30.6139C54.3577 30.6097 57.6327 30.5226 59.9257 32.2919C60.257 32.9121 60.5523 33.5508 60.8104 34.2048C58.4651 33.1309 55.3853 33.5051 55.2484 33.5231C55.2262 33.5267 55.2053 33.5354 55.1871 33.5485C55.1689 33.5617 55.1541 33.5789 55.1439 33.5988C55.1853 33.6222 55.2268 33.6517 55.2676 33.6721C55.3365 33.711 55.4027 33.7546 55.4658 33.8024C56.1865 33.7363 58.987 33.5652 60.9774 34.6204C61.4161 35.7602 61.6543 36.9674 61.6812 38.1885V38.3885C60.0879 36.72 56.6237 35.6858 56.4682 35.6408C56.4537 35.6366 56.4405 35.6456 56.4261 35.6456V35.7861C56.4278 35.8399 56.433 35.8935 56.4417 35.9465C56.9222 36.0954 60.3768 37.2077 61.6812 38.8437V39.3897C61.6847 39.7814 61.6207 40.1709 61.4921 40.541C61.4855 40.5578 61.4921 40.5734 61.4921 40.5908H61.6308C61.7668 40.2051 61.8347 39.7987 61.8314 39.3897Z" fill="#B9D671"/>
<path d="M44.4141 30.9814C47.9155 30.9814 50.4199 33.9844 50.4199 33.9844H49.7172C45.2249 33.8943 44.4141 30.9814 44.4141 30.9814Z" fill="#80A100"/>
<path d="M50.4199 32.7831V33.9843C50.4199 33.9843 47.9155 30.9814 44.4141 30.9814C44.8752 30.7668 45.3586 30.6037 45.8555 30.4949C46.1761 30.4181 46.5047 30.3798 46.8344 30.3808H46.9185C48.9185 30.3808 50.1917 31.3598 50.4199 32.7831Z" fill="#A1C203"/>
<path d="M49.7173 33.9844H50.5642C50.7864 33.9844 50.9966 33.9964 51.2128 34.0144C53.8133 34.2306 55.8253 35.7441 55.8253 37.5879C55.8297 38.6038 55.6881 39.6151 55.4049 40.5908H44.234C43.9508 39.6151 43.8092 38.6038 43.8136 37.5879C43.8232 36.9461 44.0569 36.3279 44.4742 35.8402C45.3691 34.7291 47.0928 33.9844 49.0747 33.9844H49.7173Z" fill="#DB3744"/>
<path d="M53.1227 39.3896H48.9186C48.2135 39.3917 47.5356 39.1177 47.0301 38.6262C46.5246 38.1347 46.2317 37.4648 46.214 36.76C46.1964 36.0551 46.4554 35.3714 46.9356 34.8552C47.4159 34.339 48.0791 34.0313 48.7834 33.9981C47.9768 33.9901 47.1772 34.1497 46.4354 34.4667C45.6937 34.7838 45.0258 35.2515 44.4742 35.8401C44.0569 36.3278 43.8232 36.9461 43.8136 37.5878C43.8092 38.6038 43.9508 39.6151 44.234 40.5908H55.4049C55.6881 39.6151 55.8297 38.6038 55.8253 37.5878C55.8237 37.4368 55.8084 37.2863 55.7796 37.138C55.6743 37.7668 55.3497 38.3379 54.8633 38.7501C54.3769 39.1623 53.7602 39.3889 53.1227 39.3896Z" fill="#AD313B"/>
<path d="M51.7821 35.0198C51.5358 35.0672 51.262 35.2047 51.2289 35.4528C51.1929 35.7224 51.4548 35.9266 51.6818 36.0756C52.1768 36.3989 52.6545 36.7479 53.113 37.1212C53.3772 37.3362 53.7094 37.5741 54.0277 37.4527C54.1373 37.4077 54.231 37.3309 54.2967 37.2323C54.3714 37.1142 54.4183 36.9807 54.4339 36.8418C54.4495 36.7029 54.4334 36.5623 54.3868 36.4305C54.3114 36.1831 54.184 35.9546 54.0133 35.7603C53.7224 35.4749 53.3702 35.2598 52.9835 35.1315C52.5968 35.0031 52.1858 34.9649 51.7821 35.0198Z" fill="#FF6666"/>
<path d="M49.2188 27.9785L49.2127 28.0506C48.8162 28.0017 48.4171 27.9776 48.0176 27.9785C48.0176 27.9785 45.0146 27.3779 45.0146 25.5761H46.8164C48.6182 25.5761 49.2188 27.9785 49.2188 27.9785Z" fill="#A1C203"/>
<path d="M52.2218 29.54V30.8312C52.2198 30.8816 52.2238 30.932 52.2338 30.9814H52.2218C51.9035 30.9823 51.5985 31.1092 51.3735 31.3343C51.1484 31.5593 51.0216 31.8643 51.0206 32.1826V33.3837C51.008 33.6018 51.0789 33.8166 51.2188 33.9843L51.2128 34.0143C50.9966 33.9963 50.7864 33.9843 50.5642 33.9843H50.42V32.7831C50.1918 31.3598 48.9186 30.3808 46.9186 30.3808H46.8345C46.5048 30.3798 46.1762 30.4181 45.8556 30.4949C45.3587 30.6037 44.8753 30.7668 44.4142 30.9814V29.7802C44.4137 29.5389 44.3427 29.303 44.21 29.1016C45.0928 28.2968 46.4682 27.9785 48.0177 27.9785C48.4172 27.9776 48.8163 28.0017 49.2128 28.0505C49.7892 28.0816 50.3532 28.2296 50.8705 28.4857C51.3878 28.7418 51.8476 29.1005 52.2218 29.54Z" fill="#FF9B00"/>
<path d="M44.4142 35.7861V30.9814C44.4142 30.9814 45.225 33.8943 49.7173 33.9844H49.0747C47.0928 33.9844 45.3691 34.7291 44.4742 35.8402L44.4142 35.7861ZM52.2218 30.8313V30.3808C49.1726 30.3808 46.1559 29.4734 45.6862 28.2968C45.1415 28.4547 44.6377 28.7293 44.21 29.1016C44.3427 29.3031 44.4137 29.539 44.4142 29.7803V30.9814C44.8753 30.7669 45.3587 30.6037 45.8556 30.495C46.1762 30.4182 46.5048 30.3799 46.8345 30.3808H46.9186C48.9186 30.3808 50.1918 31.3598 50.42 32.7832V33.9844H50.5642C50.7864 33.9844 50.9966 33.9964 51.2128 34.0144L51.2188 33.9844C51.0789 33.8166 51.008 33.6019 51.0206 33.3838V32.1826C51.0216 31.8643 51.1484 31.5594 51.3735 31.3343C51.5985 31.1092 51.9035 30.9824 52.2218 30.9814H52.2338C52.2238 30.932 52.2198 30.8816 52.2218 30.8313Z" fill="#F1671C"/>
<path d="M48.0176 27.9785C48.4171 27.9776 48.8162 28.0017 49.2127 28.0506L49.2188 27.9785L45.0146 25.5761C45.0146 27.3779 48.0176 27.9785 48.0176 27.9785Z" fill="#88AB00"/>
<path d="M42.7568 38.9512L44.0541 40.5908H38.0783L36.5468 39.3716C36.0774 38.9907 35.7528 38.4603 35.6271 37.8691C35.5014 37.2778 35.5822 36.6613 35.8561 36.1224C35.8861 36.0804 35.9162 36.0263 35.9462 35.9783C36.1628 35.6335 36.4543 35.342 36.799 35.1254C36.8471 35.0954 36.9011 35.0654 36.9432 35.0353C37.4379 34.785 37.9986 34.6955 38.5467 34.7795C39.0949 34.8635 39.603 35.1167 40.0001 35.5038C40.0688 35.5737 40.133 35.648 40.1923 35.726L42.7568 38.9512Z" fill="#FF9B00"/>
<path d="M35.5674 35.8702L35.8557 36.1224C35.6395 36.5385 35.5418 37.0059 35.5734 37.4737L31.7837 37.1855C31.5224 37.1622 31.2778 37.0473 31.093 36.8611L30.9248 36.693C30.7532 36.5208 30.6433 36.2966 30.6124 36.0555C30.5816 35.8143 30.6314 35.5697 30.7542 35.3598C30.8769 35.1499 31.0657 34.9866 31.2911 34.8953C31.5164 34.804 31.7657 34.7899 31.9999 34.8552L35.5674 35.8702Z" fill="#88AB00"/>
<path d="M36.9421 35.0354C36.9001 35.0654 36.846 35.0954 36.798 35.1255C36.4532 35.3421 36.1617 35.6336 35.9451 35.9783C35.9151 36.0264 35.8851 36.0804 35.855 36.1224L35.5667 35.8702L32.2035 33.0294C31.9879 32.8098 31.8672 32.5144 31.8672 32.2066C31.8672 31.8989 31.9879 31.6035 32.2035 31.3838C32.3113 31.2753 32.4395 31.1892 32.5807 31.1304C32.7219 31.0716 32.8733 31.0414 33.0263 31.0414C33.1792 31.0414 33.3307 31.0716 33.4719 31.1304C33.6131 31.1892 33.7413 31.2753 33.8491 31.3838L36.6898 34.7471L36.9421 35.0354Z" fill="#88AB00"/>
<path d="M35.9567 30.1046C36.0585 30.0018 36.1796 29.9203 36.3131 29.8646C36.4466 29.809 36.5898 29.7803 36.7345 29.7803C36.8791 29.7803 37.0223 29.809 37.1558 29.8646C37.2893 29.9203 37.4104 30.0018 37.5122 30.1046L37.6804 30.2727C37.8665 30.4575 37.9814 30.7021 38.0047 30.9634L38.281 34.597L38.293 34.7531C37.8252 34.7215 37.3577 34.8192 36.9417 35.0354L36.6894 34.7471L35.6744 31.1796C35.621 30.9916 35.619 30.7926 35.6686 30.6035C35.7183 30.4144 35.8178 30.2421 35.9567 30.1046Z" fill="#88AB00"/>
<path d="M39.6818 39.3896C39.4685 39.3897 39.2573 39.3477 39.0603 39.2661C38.8632 39.1845 38.6842 39.0648 38.5335 38.9139L37.1029 37.4833C36.9016 37.2829 36.7564 37.0331 36.682 36.759C36.6075 36.4848 36.6064 36.1959 36.6787 35.9212C36.751 35.6465 36.8942 35.3956 37.094 35.1937C37.2938 34.9917 37.5431 34.8458 37.817 34.7704C37.5126 34.8076 37.2169 34.8972 36.9432 35.0353C36.9011 35.0653 36.8471 35.0954 36.799 35.1254C36.4543 35.342 36.1628 35.6335 35.9462 35.9782C35.9162 36.0263 35.8861 36.0803 35.8561 36.1224C35.5822 36.6613 35.5014 37.2778 35.6271 37.869C35.7528 38.4603 36.0774 38.9906 36.5468 39.3715L38.0783 40.5907H44.0541L43.104 39.3896H39.6818Z" fill="#F37924"/>
<path d="M35.8557 36.1224L35.5675 35.8702L35.126 35.7447L34.9981 35.9993C34.9417 36.1121 34.8513 36.2043 34.7397 36.2628C34.628 36.3214 34.5007 36.3433 34.3759 36.3254L31.2613 35.8804C31.1319 35.8613 31.0124 35.8003 30.9211 35.7066C30.8298 35.613 30.7719 35.4919 30.7562 35.3621C30.6323 35.5711 30.5816 35.8155 30.6122 36.0565C30.6428 36.2975 30.7528 36.5215 30.9249 36.693L31.0931 36.8612C31.2779 37.0473 31.5225 37.1622 31.7838 37.1855L35.5735 37.4738C35.5419 37.006 35.6395 36.5385 35.8557 36.1224Z" fill="#628C1B"/>
<path d="M36.6895 34.7471L36.4636 34.4792L36.2234 34.6395C35.9924 34.7935 35.7152 34.8626 35.4389 34.8353C35.1627 34.8079 34.9045 34.6857 34.7081 34.4894L32.8367 32.618C32.6397 32.4197 32.5182 32.1587 32.4936 31.8803C32.4689 31.6018 32.5425 31.3235 32.7016 31.0937C32.5085 31.1508 32.3336 31.257 32.1938 31.4019C32.0541 31.5468 31.9542 31.7254 31.904 31.9203C31.8538 32.1153 31.855 32.3199 31.9074 32.5143C31.9598 32.7086 32.0617 32.8861 32.2031 33.0294L35.5664 35.8701L35.8547 36.1224C35.8847 36.0804 35.9147 36.0263 35.9447 35.9783C36.1613 35.6335 36.4528 35.342 36.7976 35.1254C36.8456 35.0954 36.8997 35.0654 36.9417 35.0353L36.6895 34.7471Z" fill="#628C1B"/>
<path d="M38.2159 33.7321L37.8555 33.8228C37.7739 33.8433 37.6889 33.8463 37.6061 33.8318C37.5232 33.8173 37.4443 33.7856 37.3745 33.7386C37.3047 33.6917 37.2455 33.6306 37.2008 33.5593C37.1561 33.4881 37.1269 33.4082 37.115 33.3249L36.7264 30.6373C36.6878 30.342 36.7615 30.043 36.933 29.7995C36.749 29.7655 36.5593 29.779 36.3819 29.8386C36.2046 29.8982 36.0453 30.0019 35.9191 30.1401C35.7929 30.2783 35.704 30.4464 35.6607 30.6285C35.6174 30.8106 35.6213 31.0006 35.6718 31.1808L36.6868 34.7483L36.939 35.0366C37.3551 34.8204 37.8226 34.7228 38.2904 34.7543L38.2783 34.5982L38.2159 33.7321Z" fill="#628C1B"/>
<path d="M38.7439 37.7206C38.714 37.7479 38.69 37.781 38.6733 37.8179C38.6566 37.8548 38.6475 37.8946 38.6466 37.9351C38.6456 37.9756 38.6529 38.0158 38.6679 38.0534C38.683 38.091 38.7054 38.1251 38.734 38.1538C38.7626 38.1825 38.7966 38.2051 38.8341 38.2203C38.8717 38.2355 38.9119 38.2429 38.9524 38.2422C38.9928 38.2414 39.0327 38.2325 39.0697 38.2159C39.1066 38.1994 39.1398 38.1755 39.1673 38.1458L40.8105 36.5068L40.4423 36.0431C40.4252 36.0523 40.4089 36.0629 40.3937 36.075L38.7439 37.7206ZM41.6687 39.3896L42.4675 38.5878L42.0915 38.1146L40.8207 39.3896H41.6687Z" fill="#F37924"/>
<path d="M40.6153 39.595C40.559 39.6513 40.5273 39.7277 40.5273 39.8073C40.5273 39.887 40.559 39.9633 40.6153 40.0196C40.6429 40.0476 40.6758 40.0697 40.7121 40.0848C40.7484 40.0998 40.7874 40.1075 40.8267 40.1073C40.8663 40.1074 40.9055 40.0996 40.9421 40.0845C40.9787 40.0693 41.0119 40.0471 41.0399 40.019L41.6681 39.3896H40.8201L40.6153 39.595Z" fill="#E95410"/>
<path d="M37.7265 35.5303C37.6585 35.555 37.5979 35.5964 37.5502 35.6506C37.5024 35.7049 37.4691 35.7703 37.4532 35.8408C37.4521 35.8972 37.4652 35.9529 37.4913 36.0029C37.5174 36.0529 37.5558 36.0954 37.6027 36.1267C37.6972 36.1885 37.8019 36.2328 37.912 36.2576C38.2688 36.3585 38.6297 36.4456 38.9931 36.511C39.0777 36.5402 39.1684 36.5472 39.2565 36.5314C39.3445 36.5156 39.4271 36.4776 39.4964 36.4209C39.5423 36.3612 39.5689 36.289 39.5727 36.2137C39.5848 36.0605 39.539 35.9083 39.4441 35.7873C39.2158 35.5787 38.9304 35.4428 38.6245 35.397C38.3185 35.3512 38.0059 35.3976 37.7265 35.5303Z" fill="#FBCB00"/>
<path d="M40.21 26.1767H42.6123V28.5791H40.21V26.1767Z" fill="#30CFFF"/>
<path d="M44.4141 29.7803V30.9814H38.4082V29.7803C38.4092 29.462 38.536 29.157 38.7611 28.9319C38.9861 28.7069 39.2911 28.58 39.6094 28.5791H43.2129C43.3711 28.5775 43.528 28.6074 43.6745 28.6672C43.8209 28.727 43.954 28.8155 44.0658 28.9273C44.1777 29.0392 44.2661 29.1722 44.3259 29.3187C44.3857 29.4652 44.4157 29.6221 44.4141 29.7803Z" fill="#E7F5F5"/>
<path d="M44.4741 35.8402L44.4141 35.7861V30.9814H38.4082V34.7681C39.0087 34.8187 39.5722 35.0792 39.9998 35.5038C40.0684 35.5738 40.1326 35.648 40.1919 35.7261L42.7564 38.9512L44.0537 40.5908H44.2339C43.9507 39.6151 43.8091 38.6038 43.8135 37.5879C43.8231 36.9461 44.0568 36.3279 44.4741 35.8402Z" fill="#30CFFF"/>
<path d="M40.21 29.7803C40.21 29.4617 40.3365 29.1562 40.5618 28.9309C40.787 28.7056 41.0926 28.5791 41.4111 28.5791H39.6094C39.2911 28.58 38.9861 28.7069 38.7611 28.9319C38.536 29.157 38.4092 29.462 38.4082 29.7803V30.9814H40.21V29.7803Z" fill="#CEDADA"/>
<path d="M44.4741 35.8402L44.4141 35.7861V33.6841C44.4141 34.2416 44.1926 34.7762 43.7984 35.1704C43.4042 35.5646 42.8695 35.7861 42.312 35.7861C41.7545 35.7861 41.2198 35.5646 40.8256 35.1704C40.4314 34.7762 40.21 34.2416 40.21 33.6841V30.9814H38.4082V34.7681C39.0087 34.8187 39.5722 35.0792 39.9998 35.5038C40.0684 35.5738 40.1326 35.648 40.1919 35.7261L42.7564 38.9512L44.0537 40.5908H44.2339C43.9507 39.6151 43.8091 38.6038 43.8135 37.5879C43.8231 36.9461 44.0568 36.3279 44.4741 35.8402ZM40.21 26.1767V28.5791H42.6123V27.9785H41.4111C41.2518 27.9785 41.0991 27.9152 40.9865 27.8026C40.8738 27.69 40.8105 27.5372 40.8105 27.3779V26.1767H40.21Z" fill="#01A3EC"/>
<path d="M41.4111 26.1767H42.0117V27.9785H41.4111V26.1767Z" fill="#01A3EC"/>
<path d="M43.8135 30.3808C43.8135 30.2216 43.7502 30.0688 43.6376 29.9562C43.5249 29.8435 43.3722 29.7803 43.2129 29.7803C43.0536 29.7803 42.9008 29.8435 42.7882 29.9562C42.6756 30.0688 42.6123 30.2216 42.6123 30.3808V30.9814H43.8135V30.3808Z" fill="white"/>
<path d="M42.6123 30.9814V33.3838C42.6123 33.5431 42.6756 33.6958 42.7882 33.8084C42.9008 33.9211 43.0536 33.9844 43.2129 33.9844C43.3722 33.9844 43.5249 33.9211 43.6376 33.8084C43.7502 33.6958 43.8135 33.5431 43.8135 33.3838V30.9814H42.6123Z" fill="#99EFFF"/>
<path d="M46.8164 48.999C49.1383 48.999 51.0205 48.1923 51.0205 47.1972C51.0205 46.2022 49.1383 45.3955 46.8164 45.3955C44.4945 45.3955 42.6123 46.2022 42.6123 47.1972C42.6123 48.1923 44.4945 48.999 46.8164 48.999Z" fill="#88AB00"/>
<path d="M59.4287 40.5908V58.6084L57.0264 62.2119V40.5908H58.5639H59.4287Z" fill="#E5AA5C"/>
<path d="M57.0264 40.5908V62.2119H37.8076L36.6064 61.0107V40.5908H57.0264ZM51.0205 47.1972C51.0205 46.2003 49.1407 45.3955 46.8164 45.3955C44.4921 45.3955 42.6123 46.2003 42.6123 47.1972C42.6123 48.1942 44.4921 48.999 46.8164 48.999C49.1407 48.999 51.0205 48.1942 51.0205 47.1972Z" fill="#FAD27A"/>
<path d="M61.6329 40.5908H59.4287V58.6084L61.8311 61.0107V40.5908H61.6329Z" fill="#D28E43"/>
<path d="M57.0264 62.2119L61.8311 61.0107L59.4287 58.6084L57.0264 62.2119Z" fill="#A15C27"/>
<path d="M46.8169 45.0952C44.2488 45.0952 42.3125 45.9991 42.3125 47.1972C42.3125 48.3954 44.2488 49.2993 46.8169 49.2993C49.385 49.2993 51.3213 48.3954 51.3213 47.1972C51.3213 45.9991 49.385 45.0952 46.8169 45.0952ZM46.8169 48.999C44.495 48.999 42.6128 48.1924 42.6128 47.1972C42.6128 46.2021 44.495 45.3955 46.8169 45.3955C49.1388 45.3955 51.021 46.2021 51.021 47.1972C51.021 48.1924 49.1388 48.999 46.8169 48.999Z" fill="#FAAB1B"/>
<path d="M48.0176 59.8095C45.7876 59.8095 43.6489 58.9237 42.0721 57.3468C40.4952 55.77 39.6094 53.6313 39.6094 51.4013V40.5908H36.6064V61.0107L37.8076 62.2119H57.0264V59.8095H48.0176Z" fill="#F5B662"/>
</g>
<path d="M90 61.875L104.062 65.643L114.357 75.9375L118.125 90L114.357 104.062L104.062 114.357L90 118.125L75.9375 114.357L65.643 104.062L61.875 90L65.643 75.9375L75.9375 65.643L90 61.875Z" fill="#0E9F60" stroke="white" stroke-width="2.8125"/>
<path d="M76.6985 87.0625H75.1697L78.6048 77.517H80.2687L83.7038 87.0625H82.175L79.4763 79.2509H79.4018L76.6985 87.0625ZM76.9548 83.3245H81.914V84.5363H76.9548V83.3245ZM86.3639 77.517V87.0625H84.9703V77.517H86.3639ZM89.6324 77.517V87.0625H88.2388V77.517H89.6324ZM94.9807 87.0625V79.9034H96.3743V87.0625H94.9807ZM95.6845 78.7988C95.4421 78.7988 95.234 78.718 95.06 78.5564C94.8891 78.3917 94.8036 78.196 94.8036 77.9691C94.8036 77.7392 94.8891 77.5435 95.06 77.3819C95.234 77.2172 95.4421 77.1349 95.6845 77.1349C95.9269 77.1349 96.1335 77.2172 96.3044 77.3819C96.4784 77.5435 96.5654 77.7392 96.5654 77.9691C96.5654 78.196 96.4784 78.3917 96.3044 78.5564C96.1335 78.718 95.9269 78.7988 95.6845 78.7988ZM99.6428 82.8118V87.0625H98.2492V79.9034H99.5868V81.0686H99.6754C99.8401 80.6895 100.098 80.385 100.449 80.1551C100.803 79.9252 101.249 79.8102 101.787 79.8102C102.275 79.8102 102.702 79.9127 103.068 80.1178C103.435 80.3198 103.719 80.6212 103.921 81.022C104.123 81.4229 104.224 81.9185 104.224 82.5088V87.0625H102.831V82.6766C102.831 82.1577 102.696 81.7522 102.425 81.4601C102.155 81.165 101.784 81.0174 101.311 81.0174C100.988 81.0174 100.701 81.0873 100.449 81.2271C100.201 81.3669 100.003 81.572 99.8572 81.8423C99.7142 82.1096 99.6428 82.4327 99.6428 82.8118ZM86.523 98.2898C86.523 99.3089 86.3366 100.185 85.9637 100.919C85.5908 101.649 85.0797 102.211 84.4303 102.606C83.784 102.997 83.0491 103.193 82.2257 103.193C81.3991 103.193 80.6612 102.997 80.0118 102.606C79.3655 102.211 78.8559 101.647 78.483 100.914C78.1101 100.181 77.9237 99.3058 77.9237 98.2898C77.9237 97.2706 78.1101 96.3959 78.483 95.6657C78.8559 94.9324 79.3655 94.37 80.0118 93.9785C80.6612 93.5839 81.3991 93.3865 82.2257 93.3865C83.0491 93.3865 83.784 93.5839 84.4303 93.9785C85.0797 94.37 85.5908 94.9324 85.9637 95.6657C86.3366 96.3959 86.523 97.2706 86.523 98.2898ZM85.0968 98.2898C85.0968 97.513 84.9709 96.8589 84.7192 96.3275C84.4707 95.7931 84.1289 95.3892 83.6938 95.1157C83.2619 94.8392 82.7725 94.7009 82.2257 94.7009C81.6757 94.7009 81.1847 94.8392 80.7528 95.1157C80.3209 95.3892 79.9791 95.7931 79.7275 96.3275C79.4789 96.8589 79.3546 97.513 79.3546 98.2898C79.3546 99.0666 79.4789 99.7222 79.7275 100.257C79.9791 100.788 80.3209 101.192 80.7528 101.468C81.1847 101.742 81.6757 101.879 82.2257 101.879C82.7725 101.879 83.2619 101.742 83.6938 101.468C84.1289 101.192 84.4707 100.788 84.7192 100.257C84.9709 99.7222 85.0968 99.0666 85.0968 98.2898ZM89.6003 98.8118V103.062H88.2067V95.9034H89.5444V97.0686H89.633C89.7976 96.6895 90.0555 96.385 90.4067 96.1551C90.7609 95.9252 91.2068 95.8102 91.7443 95.8102C92.2322 95.8102 92.6594 95.9127 93.0261 96.1178C93.3927 96.3198 93.677 96.6212 93.879 97.022C94.081 97.4229 94.182 97.9185 94.182 98.5088V103.062H92.7884V98.6766C92.7884 98.1577 92.6532 97.7522 92.3829 97.4601C92.1125 97.165 91.7412 97.0174 91.2689 97.0174C90.9458 97.0174 90.6583 97.0873 90.4067 97.2271C90.1581 97.3669 89.9608 97.572 89.8147 97.8423C89.6718 98.1096 89.6003 98.4327 89.6003 98.8118ZM99.1365 103.207C98.4311 103.207 97.8237 103.056 97.3141 102.755C96.8076 102.45 96.4161 102.023 96.1395 101.473C95.8661 100.92 95.7294 100.272 95.7294 99.5296C95.7294 98.7963 95.8661 98.1499 96.1395 97.5906C96.4161 97.0313 96.8014 96.5948 97.2954 96.2809C97.7926 95.9671 98.3736 95.8102 99.0386 95.8102C99.4425 95.8102 99.834 95.877 100.213 96.0106C100.592 96.1442 100.932 96.354 101.234 96.6398C101.535 96.9257 101.773 97.297 101.947 97.7538C102.121 98.2074 102.208 98.759 102.208 99.4084V99.9024H96.5171V98.8584H100.842C100.842 98.4917 100.768 98.167 100.619 97.8843C100.469 97.5984 100.26 97.3731 99.9894 97.2085C99.7222 97.0438 99.4083 96.9614 99.0479 96.9614C98.6564 96.9614 98.3146 97.0578 98.0225 97.2504C97.7335 97.4399 97.5098 97.6885 97.3514 97.9961C97.196 98.3006 97.1183 98.6316 97.1183 98.9889V99.8046C97.1183 100.283 97.2022 100.69 97.37 101.026C97.5409 101.361 97.7786 101.618 98.0831 101.795C98.3876 101.969 98.7434 102.056 99.1504 102.056C99.4146 102.056 99.6554 102.018 99.8729 101.944C100.09 101.866 100.278 101.751 100.437 101.599C100.595 101.447 100.716 101.259 100.8 101.035L102.119 101.273C102.014 101.661 101.824 102.001 101.551 102.293C101.28 102.582 100.94 102.808 100.53 102.969C100.123 103.128 99.6585 103.207 99.1365 103.207Z" fill="white"/>
</g>
<defs>
<filter id="filter0_d_149_1816" x="0" y="0" width="180" height="180" filterUnits="userSpaceOnUse" color-interpolation-filters="sRGB">
<feFlood flood-opacity="0" result="BackgroundImageFix"/>
<feColorMatrix in="SourceAlpha" type="matrix" values="0 0 0 0 0 0 0 0 0 0 0 0 0 0 0 0 0 0 127 0" result="hardAlpha"/>
<feOffset/>
<feGaussianBlur stdDeviation="7.5"/>
<feComposite in2="hardAlpha" operator="out"/>
<feColorMatrix type="matrix" values="0 0 0 0 0 0 0 0 0 0 0 0 0 0 0 0 0 0 0.08 0"/>
<feBlend mode="normal" in2="BackgroundImageFix" result="effect1_dropShadow_149_1816"/>
<feBlend mode="normal" in="SourceGraphic" in2="effect1_dropShadow_149_1816" result="shape"/>
</filter>
<clipPath id="clip0_149_1816">
<rect width="38.4375" height="38.4375" fill="white" transform="translate(20.1562 84.8438)"/>
</clipPath>
<clipPath id="clip1_149_1816">
<rect width="38.4375" height="38.4375" fill="white" transform="translate(70.7812 120.938)"/>
</clipPath>
<clipPath id="clip2_149_1816">
<rect width="38.4375" height="38.4375" fill="white" transform="translate(112.969 20.625)"/>
</clipPath>
<clipPath id="clip3_149_1816">
<rect width="38.4375" height="38.4375" fill="white" transform="translate(30 24.375)"/>
</clipPath>
</defs>
</svg>
