<svg width="60" height="60" viewBox="0 0 60 60" fill="none" xmlns="http://www.w3.org/2000/svg">
<rect width="60" height="60" rx="30" fill="#54A8C7"/>
<g clip-path="url(#clip0_149_2778)">
<path d="M16.4 17C15.075 17 14 18.075 14 19.4V35.4C14 36.725 15.075 37.8 16.4 37.8H17.2C17.2 40.45 19.35 42.6 22 42.6C24.65 42.6 26.8 40.45 26.8 37.8H33.2C33.2 40.45 35.35 42.6 38 42.6C40.65 42.6 42.8 40.45 42.8 37.8H44.4C45.285 37.8 46 37.085 46 36.2C46 35.315 45.285 34.6 44.4 34.6V31.4V29.8V28.865C44.4 28.015 44.065 27.2 43.465 26.6L39.6 22.735C39 22.135 38.185 21.8 37.335 21.8H34.8V19.4C34.8 18.075 33.725 17 32.4 17H16.4ZM34.8 25H37.335L41.2 28.865V29.8H34.8V25ZM19.6 37.8C19.6 37.1635 19.8529 36.553 20.3029 36.1029C20.753 35.6529 21.3635 35.4 22 35.4C22.6365 35.4 23.247 35.6529 23.6971 36.1029C24.1471 36.553 24.4 37.1635 24.4 37.8C24.4 38.4365 24.1471 39.047 23.6971 39.4971C23.247 39.9471 22.6365 40.2 22 40.2C21.3635 40.2 20.753 39.9471 20.3029 39.4971C19.8529 39.047 19.6 38.4365 19.6 37.8ZM38 35.4C38.6365 35.4 39.247 35.6529 39.6971 36.1029C40.1471 36.553 40.4 37.1635 40.4 37.8C40.4 38.4365 40.1471 39.047 39.6971 39.4971C39.247 39.9471 38.6365 40.2 38 40.2C37.3635 40.2 36.753 39.9471 36.3029 39.4971C35.8529 39.047 35.6 38.4365 35.6 37.8C35.6 37.1635 35.8529 36.553 36.3029 36.1029C36.753 35.6529 37.3635 35.4 38 35.4Z" fill="white"/>
</g>
<defs>
<clipPath id="clip0_149_2778">
<rect width="32" height="25.6" fill="white" transform="translate(14 17)"/>
</clipPath>
</defs>
</svg>
