<svg width="60" height="60" viewBox="0 0 60 60" fill="none" xmlns="http://www.w3.org/2000/svg">
<rect width="60" height="60" rx="30" fill="#D16B86"/>
<path d="M34 18C34.7364 18 35.3333 18.597 35.3333 19.3333V24.6667C35.3333 25.403 34.7364 26 34 26H31.3333V28.6667H36.6667C37.4031 28.6667 38 29.2636 38 30V34H40.6667C41.4031 34 42 34.5969 42 35.3333V40.6667C42 41.4031 41.4031 42 40.6667 42H32.6667C31.9303 42 31.3333 41.4031 31.3333 40.6667V35.3333C31.3333 34.5969 31.9303 34 32.6667 34H35.3333V31.3333H24.6667V34H27.3333C28.0697 34 28.6667 34.5969 28.6667 35.3333V40.6667C28.6667 41.4031 28.0697 42 27.3333 42H19.3333C18.597 42 18 41.4031 18 40.6667V35.3333C18 34.5969 18.597 34 19.3333 34H22V30C22 29.2636 22.597 28.6667 23.3333 28.6667H28.6667V26H26C25.2636 26 24.6667 25.403 24.6667 24.6667V19.3333C24.6667 18.597 25.2636 18 26 18H34ZM26 36.6667H20.6667V39.3333H26V36.6667ZM39.3333 36.6667H34V39.3333H39.3333V36.6667ZM32.6667 20.6667H27.3333V23.3333H32.6667V20.6667Z" fill="white"/>
</svg>
