<svg width="155" height="52" viewBox="0 0 155 52" fill="none" xmlns="http://www.w3.org/2000/svg">
<rect x="1" y="1" width="153" height="50" rx="5" fill="black" stroke="black"/>
<path d="M61.18 31.105H66.445C66.475 31.225 66.5 31.37 66.52 31.54C66.54 31.71 66.55 31.88 66.55 32.05C66.55 32.74 66.445 33.39 66.235 34C66.025 34.61 65.695 35.155 65.245 35.635C64.765 36.145 64.19 36.54 63.52 36.82C62.85 37.1 62.085 37.24 61.225 37.24C60.445 37.24 59.71 37.1 59.02 36.82C58.33 36.54 57.73 36.15 57.22 35.65C56.71 35.15 56.305 34.56 56.005 33.88C55.705 33.19 55.555 32.44 55.555 31.63C55.555 30.82 55.705 30.075 56.005 29.395C56.305 28.705 56.71 28.11 57.22 27.61C57.73 27.11 58.33 26.72 59.02 26.44C59.71 26.16 60.445 26.02 61.225 26.02C62.095 26.02 62.87 26.17 63.55 26.47C64.24 26.77 64.83 27.185 65.32 27.715L63.925 29.08C63.575 28.71 63.185 28.43 62.755 28.24C62.325 28.04 61.81 27.94 61.21 27.94C60.72 27.94 60.255 28.03 59.815 28.21C59.375 28.38 58.99 28.625 58.66 28.945C58.33 29.265 58.065 29.655 57.865 30.115C57.675 30.565 57.58 31.07 57.58 31.63C57.58 32.19 57.675 32.7 57.865 33.16C58.065 33.61 58.33 33.995 58.66 34.315C59 34.635 59.39 34.885 59.83 35.065C60.27 35.235 60.74 35.32 61.24 35.32C61.81 35.32 62.29 35.24 62.68 35.08C63.08 34.91 63.42 34.695 63.7 34.435C63.9 34.255 64.07 34.03 64.21 33.76C64.36 33.48 64.475 33.17 64.555 32.83H61.18V31.105ZM71.3903 29.41C71.9603 29.41 72.4803 29.51 72.9503 29.71C73.4303 29.9 73.8403 30.17 74.1803 30.52C74.5303 30.86 74.8003 31.27 74.9903 31.75C75.1903 32.23 75.2903 32.755 75.2903 33.325C75.2903 33.895 75.1903 34.42 74.9903 34.9C74.8003 35.38 74.5303 35.795 74.1803 36.145C73.8403 36.485 73.4303 36.755 72.9503 36.955C72.4803 37.145 71.9603 37.24 71.3903 37.24C70.8203 37.24 70.2953 37.145 69.8153 36.955C69.3453 36.755 68.9353 36.485 68.5853 36.145C68.2453 35.795 67.9753 35.38 67.7753 34.9C67.5853 34.42 67.4903 33.895 67.4903 33.325C67.4903 32.755 67.5853 32.23 67.7753 31.75C67.9753 31.27 68.2453 30.86 68.5853 30.52C68.9353 30.17 69.3453 29.9 69.8153 29.71C70.2953 29.51 70.8203 29.41 71.3903 29.41ZM71.3903 35.425C71.6403 35.425 71.8803 35.38 72.1103 35.29C72.3503 35.19 72.5603 35.05 72.7403 34.87C72.9203 34.69 73.0603 34.47 73.1603 34.21C73.2703 33.95 73.3253 33.655 73.3253 33.325C73.3253 32.995 73.2703 32.7 73.1603 32.44C73.0603 32.18 72.9203 31.96 72.7403 31.78C72.5603 31.6 72.3503 31.465 72.1103 31.375C71.8803 31.275 71.6403 31.225 71.3903 31.225C71.1303 31.225 70.8853 31.275 70.6553 31.375C70.4253 31.465 70.2203 31.6 70.0403 31.78C69.8603 31.96 69.7153 32.18 69.6053 32.44C69.5053 32.7 69.4553 32.995 69.4553 33.325C69.4553 33.655 69.5053 33.95 69.6053 34.21C69.7153 34.47 69.8603 34.69 70.0403 34.87C70.2203 35.05 70.4253 35.19 70.6553 35.29C70.8853 35.38 71.1303 35.425 71.3903 35.425ZM80.0329 29.41C80.6029 29.41 81.1229 29.51 81.5929 29.71C82.0729 29.9 82.4829 30.17 82.8229 30.52C83.1729 30.86 83.4429 31.27 83.6329 31.75C83.8329 32.23 83.9329 32.755 83.9329 33.325C83.9329 33.895 83.8329 34.42 83.6329 34.9C83.4429 35.38 83.1729 35.795 82.8229 36.145C82.4829 36.485 82.0729 36.755 81.5929 36.955C81.1229 37.145 80.6029 37.24 80.0329 37.24C79.4629 37.24 78.9379 37.145 78.4579 36.955C77.9879 36.755 77.5779 36.485 77.2279 36.145C76.8879 35.795 76.6179 35.38 76.4179 34.9C76.2279 34.42 76.1329 33.895 76.1329 33.325C76.1329 32.755 76.2279 32.23 76.4179 31.75C76.6179 31.27 76.8879 30.86 77.2279 30.52C77.5779 30.17 77.9879 29.9 78.4579 29.71C78.9379 29.51 79.4629 29.41 80.0329 29.41ZM80.0329 35.425C80.2829 35.425 80.5229 35.38 80.7529 35.29C80.9929 35.19 81.2029 35.05 81.3829 34.87C81.5629 34.69 81.7029 34.47 81.8029 34.21C81.9129 33.95 81.9679 33.655 81.9679 33.325C81.9679 32.995 81.9129 32.7 81.8029 32.44C81.7029 32.18 81.5629 31.96 81.3829 31.78C81.2029 31.6 80.9929 31.465 80.7529 31.375C80.5229 31.275 80.2829 31.225 80.0329 31.225C79.7729 31.225 79.5279 31.275 79.2979 31.375C79.0679 31.465 78.8629 31.6 78.6829 31.78C78.5029 31.96 78.3579 32.18 78.2479 32.44C78.1479 32.7 78.0979 32.995 78.0979 33.325C78.0979 33.655 78.1479 33.95 78.2479 34.21C78.3579 34.47 78.5029 34.69 78.6829 34.87C78.8629 35.05 79.0679 35.19 79.2979 35.29C79.5279 35.38 79.7729 35.425 80.0329 35.425ZM88.5855 40.48C88.0655 40.48 87.6005 40.41 87.1905 40.27C86.7905 40.14 86.4405 39.965 86.1405 39.745C85.8405 39.535 85.5905 39.3 85.3905 39.04C85.1905 38.78 85.0455 38.52 84.9555 38.26L86.8305 37.51C86.9705 37.9 87.2005 38.2 87.5205 38.41C87.8405 38.63 88.1955 38.74 88.5855 38.74C89.2055 38.74 89.6955 38.545 90.0555 38.155C90.4155 37.775 90.5955 37.24 90.5955 36.55V36.04H90.4755C90.2455 36.36 89.9405 36.615 89.5605 36.805C89.1905 36.985 88.7505 37.075 88.2405 37.075C87.8005 37.075 87.3705 36.985 86.9505 36.805C86.5405 36.625 86.1755 36.37 85.8555 36.04C85.5355 35.7 85.2755 35.295 85.0755 34.825C84.8755 34.355 84.7755 33.83 84.7755 33.25C84.7755 32.67 84.8755 32.145 85.0755 31.675C85.2755 31.195 85.5355 30.79 85.8555 30.46C86.1755 30.12 86.5405 29.86 86.9505 29.68C87.3705 29.5 87.8005 29.41 88.2405 29.41C88.7505 29.41 89.1905 29.505 89.5605 29.695C89.9405 29.875 90.2455 30.125 90.4755 30.445H90.5955V29.65H92.4705V36.475C92.4705 37.095 92.3755 37.65 92.1855 38.14C91.9955 38.64 91.7305 39.06 91.3905 39.4C91.0505 39.75 90.6405 40.015 90.1605 40.195C89.6905 40.385 89.1655 40.48 88.5855 40.48ZM88.6605 35.305C88.9005 35.305 89.1355 35.26 89.3655 35.17C89.6055 35.08 89.8155 34.95 89.9955 34.78C90.1755 34.6 90.3205 34.385 90.4305 34.135C90.5405 33.875 90.5955 33.58 90.5955 33.25C90.5955 32.92 90.5405 32.625 90.4305 32.365C90.3205 32.105 90.1755 31.89 89.9955 31.72C89.8155 31.54 89.6055 31.405 89.3655 31.315C89.1355 31.225 88.9005 31.18 88.6605 31.18C88.4205 31.18 88.1855 31.225 87.9555 31.315C87.7255 31.405 87.5205 31.54 87.3405 31.72C87.1605 31.9 87.0155 32.12 86.9055 32.38C86.7955 32.63 86.7405 32.92 86.7405 33.25C86.7405 33.58 86.7955 33.875 86.9055 34.135C87.0155 34.385 87.1605 34.6 87.3405 34.78C87.5205 34.95 87.7255 35.08 87.9555 35.17C88.1855 35.26 88.4205 35.305 88.6605 35.305ZM94.1457 37V26.26H96.1107V37H94.1457ZM104.68 35.23C104.34 35.83 103.88 36.315 103.3 36.685C102.73 37.055 102.03 37.24 101.2 37.24C100.64 37.24 100.12 37.145 99.6399 36.955C99.1699 36.755 98.7599 36.48 98.4099 36.13C98.0599 35.78 97.7849 35.37 97.5849 34.9C97.3949 34.42 97.2999 33.895 97.2999 33.325C97.2999 32.795 97.3949 32.295 97.5849 31.825C97.7749 31.345 98.0399 30.93 98.3799 30.58C98.7199 30.22 99.1199 29.935 99.5799 29.725C100.05 29.515 100.565 29.41 101.125 29.41C101.715 29.41 102.24 29.51 102.7 29.71C103.16 29.9 103.545 30.17 103.855 30.52C104.165 30.86 104.4 31.265 104.56 31.735C104.72 32.205 104.8 32.715 104.8 33.265C104.8 33.335 104.8 33.395 104.8 33.445C104.79 33.505 104.785 33.56 104.785 33.61C104.775 33.66 104.77 33.715 104.77 33.775H99.2349C99.2749 34.075 99.3549 34.335 99.4749 34.555C99.6049 34.765 99.7599 34.945 99.9399 35.095C100.13 35.235 100.335 35.34 100.555 35.41C100.775 35.47 101 35.5 101.23 35.5C101.68 35.5 102.05 35.4 102.34 35.2C102.64 34.99 102.875 34.73 103.045 34.42L104.68 35.23ZM102.895 32.38C102.885 32.25 102.84 32.105 102.76 31.945C102.69 31.785 102.58 31.635 102.43 31.495C102.29 31.355 102.11 31.24 101.89 31.15C101.68 31.06 101.425 31.015 101.125 31.015C100.705 31.015 100.335 31.135 100.015 31.375C99.6949 31.615 99.4699 31.95 99.3399 32.38H102.895ZM109.591 37V26.26H113.371C113.881 26.26 114.356 26.345 114.796 26.515C115.246 26.675 115.636 26.905 115.966 27.205C116.296 27.505 116.556 27.865 116.746 28.285C116.936 28.695 117.031 29.15 117.031 29.65C117.031 30.16 116.936 30.625 116.746 31.045C116.556 31.455 116.296 31.81 115.966 32.11C115.636 32.41 115.246 32.645 114.796 32.815C114.356 32.975 113.881 33.055 113.371 33.055H111.616V37H109.591ZM113.401 31.135C113.931 31.135 114.331 30.985 114.601 30.685C114.871 30.385 115.006 30.04 115.006 29.65C115.006 29.46 114.971 29.275 114.901 29.095C114.841 28.915 114.741 28.76 114.601 28.63C114.471 28.49 114.306 28.38 114.106 28.3C113.906 28.22 113.671 28.18 113.401 28.18H111.616V31.135H113.401ZM118.301 37V26.26H120.266V37H118.301ZM126.405 36.22H126.285C126.055 36.5 125.775 36.74 125.445 36.94C125.125 37.14 124.71 37.24 124.2 37.24C123.82 37.24 123.46 37.175 123.12 37.045C122.79 36.925 122.5 36.755 122.25 36.535C122 36.315 121.805 36.05 121.665 35.74C121.525 35.43 121.455 35.09 121.455 34.72C121.455 34.34 121.53 34 121.68 33.7C121.83 33.39 122.04 33.125 122.31 32.905C122.58 32.685 122.895 32.52 123.255 32.41C123.625 32.29 124.025 32.23 124.455 32.23C124.935 32.23 125.33 32.27 125.64 32.35C125.95 32.42 126.205 32.495 126.405 32.575V32.35C126.405 31.96 126.25 31.64 125.94 31.39C125.63 31.13 125.245 31 124.785 31C124.105 31 123.53 31.285 123.06 31.855L121.635 30.88C122.415 29.9 123.48 29.41 124.83 29.41C125.97 29.41 126.84 29.68 127.44 30.22C128.04 30.75 128.34 31.54 128.34 32.59V37H126.405V36.22ZM126.405 34.015C126.175 33.905 125.935 33.82 125.685 33.76C125.445 33.69 125.18 33.655 124.89 33.655C124.42 33.655 124.055 33.76 123.795 33.97C123.545 34.17 123.42 34.42 123.42 34.72C123.42 35.02 123.54 35.26 123.78 35.44C124.03 35.62 124.315 35.71 124.635 35.71C124.895 35.71 125.135 35.665 125.355 35.575C125.575 35.475 125.76 35.35 125.91 35.2C126.07 35.04 126.19 34.86 126.27 34.66C126.36 34.45 126.405 34.235 126.405 34.015ZM132.066 36.64L128.976 29.65H131.211L133.071 34.105H133.176L134.961 29.65H137.151L132.546 40.24H130.431L132.066 36.64Z" fill="white"/>
<path d="M58.296 15.856H61.104C61.12 15.92 61.1333 15.9973 61.144 16.088C61.1547 16.1787 61.16 16.2693 61.16 16.36C61.16 16.728 61.104 17.0747 60.992 17.4C60.88 17.7253 60.704 18.016 60.464 18.272C60.208 18.544 59.9013 18.7547 59.544 18.904C59.1867 19.0533 58.7787 19.128 58.32 19.128C57.904 19.128 57.512 19.0533 57.144 18.904C56.776 18.7547 56.456 18.5467 56.184 18.28C55.912 18.0133 55.696 17.6987 55.536 17.336C55.376 16.968 55.296 16.568 55.296 16.136C55.296 15.704 55.376 15.3067 55.536 14.944C55.696 14.576 55.912 14.2587 56.184 13.992C56.456 13.7253 56.776 13.5173 57.144 13.368C57.512 13.2187 57.904 13.144 58.32 13.144C58.784 13.144 59.1973 13.224 59.56 13.384C59.928 13.544 60.2427 13.7653 60.504 14.048L59.76 14.776C59.5733 14.5787 59.3653 14.4293 59.136 14.328C58.9067 14.2213 58.632 14.168 58.312 14.168C58.0507 14.168 57.8027 14.216 57.568 14.312C57.3333 14.4027 57.128 14.5333 56.952 14.704C56.776 14.8747 56.6347 15.0827 56.528 15.328C56.4267 15.568 56.376 15.8373 56.376 16.136C56.376 16.4347 56.4267 16.7067 56.528 16.952C56.6347 17.192 56.776 17.3973 56.952 17.568C57.1333 17.7387 57.3413 17.872 57.576 17.968C57.8107 18.0587 58.0613 18.104 58.328 18.104C58.632 18.104 58.888 18.0613 59.096 17.976C59.3093 17.8853 59.4907 17.7707 59.64 17.632C59.7467 17.536 59.8373 17.416 59.912 17.272C59.992 17.1227 60.0533 16.9573 60.096 16.776H58.296V15.856ZM65.5975 18.056C65.4162 18.376 65.1708 18.6347 64.8615 18.832C64.5575 19.0293 64.1842 19.128 63.7415 19.128C63.4428 19.128 63.1655 19.0773 62.9095 18.976C62.6588 18.8693 62.4402 18.7227 62.2535 18.536C62.0668 18.3493 61.9202 18.1307 61.8135 17.88C61.7122 17.624 61.6615 17.344 61.6615 17.04C61.6615 16.7573 61.7122 16.4907 61.8135 16.24C61.9148 15.984 62.0562 15.7627 62.2375 15.576C62.4188 15.384 62.6322 15.232 62.8775 15.12C63.1282 15.008 63.4028 14.952 63.7015 14.952C64.0162 14.952 64.2962 15.0053 64.5415 15.112C64.7868 15.2133 64.9922 15.3573 65.1575 15.544C65.3228 15.7253 65.4482 15.9413 65.5335 16.192C65.6188 16.4427 65.6615 16.7147 65.6615 17.008C65.6615 17.0453 65.6615 17.0773 65.6615 17.104C65.6562 17.136 65.6535 17.1653 65.6535 17.192C65.6482 17.2187 65.6455 17.248 65.6455 17.28H62.6935C62.7148 17.44 62.7575 17.5787 62.8215 17.696C62.8908 17.808 62.9735 17.904 63.0695 17.984C63.1708 18.0587 63.2802 18.1147 63.3975 18.152C63.5148 18.184 63.6348 18.2 63.7575 18.2C63.9975 18.2 64.1948 18.1467 64.3495 18.04C64.5095 17.928 64.6348 17.7893 64.7255 17.624L65.5975 18.056ZM64.6455 16.536C64.6402 16.4667 64.6162 16.3893 64.5735 16.304C64.5362 16.2187 64.4775 16.1387 64.3975 16.064C64.3228 15.9893 64.2268 15.928 64.1095 15.88C63.9975 15.832 63.8615 15.808 63.7015 15.808C63.4775 15.808 63.2802 15.872 63.1095 16C62.9388 16.128 62.8188 16.3067 62.7495 16.536H64.6455ZM66.6456 15.976H65.9576V15.08H66.6456V13.88H67.6936V15.08H68.6536V15.976H67.6936V17.496C67.6936 17.5867 67.7016 17.672 67.7176 17.752C67.739 17.8267 67.7763 17.8907 67.8296 17.944C67.9043 18.0293 68.011 18.072 68.1496 18.072C68.2403 18.072 68.3123 18.064 68.3656 18.048C68.419 18.0267 68.4696 18 68.5176 17.968L68.8136 18.888C68.691 18.9467 68.5576 18.9893 68.4136 19.016C68.275 19.048 68.1203 19.064 67.9496 19.064C67.7523 19.064 67.5736 19.0347 67.4136 18.976C67.259 18.912 67.1283 18.8267 67.0216 18.72C66.771 18.48 66.6456 18.1387 66.6456 17.696V15.976ZM71.7664 14.512C71.6757 14.512 71.5877 14.496 71.5024 14.464C71.4224 14.4267 71.3504 14.3787 71.2864 14.32C71.2277 14.256 71.1797 14.184 71.1424 14.104C71.1104 14.024 71.0944 13.936 71.0944 13.84C71.0944 13.744 71.1104 13.656 71.1424 13.576C71.1797 13.496 71.2277 13.4267 71.2864 13.368C71.3504 13.304 71.4224 13.256 71.5024 13.224C71.5877 13.1867 71.6757 13.168 71.7664 13.168C71.953 13.168 72.113 13.2347 72.2464 13.368C72.3797 13.496 72.4464 13.6533 72.4464 13.84C72.4464 14.0267 72.3797 14.1867 72.2464 14.32C72.113 14.448 71.953 14.512 71.7664 14.512ZM71.2464 19V15.08H72.2944V19H71.2464ZM73.6456 15.976H72.9576V15.08H73.6456V13.88H74.6936V15.08H75.6536V15.976H74.6936V17.496C74.6936 17.5867 74.7016 17.672 74.7176 17.752C74.739 17.8267 74.7763 17.8907 74.8296 17.944C74.9043 18.0293 75.011 18.072 75.1496 18.072C75.2403 18.072 75.3123 18.064 75.3656 18.048C75.419 18.0267 75.4696 18 75.5176 17.968L75.8136 18.888C75.691 18.9467 75.5576 18.9893 75.4136 19.016C75.275 19.048 75.1203 19.064 74.9496 19.064C74.7523 19.064 74.5736 19.0347 74.4136 18.976C74.259 18.912 74.1283 18.8267 74.0216 18.72C73.771 18.48 73.6456 18.1387 73.6456 17.696V15.976ZM80.0384 14.952C80.3424 14.952 80.6197 15.0053 80.8704 15.112C81.1264 15.2133 81.345 15.3573 81.5264 15.544C81.713 15.7253 81.857 15.944 81.9584 16.2C82.065 16.456 82.1184 16.736 82.1184 17.04C82.1184 17.344 82.065 17.624 81.9584 17.88C81.857 18.136 81.713 18.3573 81.5264 18.544C81.345 18.7253 81.1264 18.8693 80.8704 18.976C80.6197 19.0773 80.3424 19.128 80.0384 19.128C79.7344 19.128 79.4544 19.0773 79.1984 18.976C78.9477 18.8693 78.729 18.7253 78.5424 18.544C78.361 18.3573 78.217 18.136 78.1104 17.88C78.009 17.624 77.9584 17.344 77.9584 17.04C77.9584 16.736 78.009 16.456 78.1104 16.2C78.217 15.944 78.361 15.7253 78.5424 15.544C78.729 15.3573 78.9477 15.2133 79.1984 15.112C79.4544 15.0053 79.7344 14.952 80.0384 14.952ZM80.0384 18.16C80.1717 18.16 80.2997 18.136 80.4224 18.088C80.5504 18.0347 80.6624 17.96 80.7584 17.864C80.8544 17.768 80.929 17.6507 80.9824 17.512C81.041 17.3733 81.0704 17.216 81.0704 17.04C81.0704 16.864 81.041 16.7067 80.9824 16.568C80.929 16.4293 80.8544 16.312 80.7584 16.216C80.6624 16.12 80.5504 16.048 80.4224 16C80.2997 15.9467 80.1717 15.92 80.0384 15.92C79.8997 15.92 79.769 15.9467 79.6464 16C79.5237 16.048 79.4144 16.12 79.3184 16.216C79.2224 16.312 79.145 16.4293 79.0864 16.568C79.033 16.7067 79.0064 16.864 79.0064 17.04C79.0064 17.216 79.033 17.3733 79.0864 17.512C79.145 17.6507 79.2224 17.768 79.3184 17.864C79.4144 17.96 79.5237 18.0347 79.6464 18.088C79.769 18.136 79.8997 18.16 80.0384 18.16ZM83.6976 15.592H83.7616C83.8843 15.3947 84.0496 15.24 84.2576 15.128C84.4656 15.0107 84.703 14.952 84.9696 14.952C85.215 14.952 85.431 14.992 85.6176 15.072C85.8043 15.152 85.9563 15.2667 86.0736 15.416C86.1963 15.56 86.287 15.736 86.3456 15.944C86.4096 16.1467 86.4416 16.3733 86.4416 16.624V19H85.3936V16.752C85.3936 16.4693 85.3296 16.2613 85.2016 16.128C85.079 15.9893 84.8976 15.92 84.6576 15.92C84.5136 15.92 84.3856 15.952 84.2736 16.016C84.167 16.0747 84.0736 16.1573 83.9936 16.264C83.919 16.3653 83.8603 16.488 83.8176 16.632C83.7803 16.7707 83.7616 16.92 83.7616 17.08V19H82.7136V15.08H83.6976V15.592Z" fill="white"/>
<g clip-path="url(#clip0_169_2571)">
<path d="M34.0835 25.4583L20.7294 38.75C20.4155 38.4485 20.1667 38.0859 19.9983 37.6846C19.8299 37.2833 19.7455 36.8518 19.7502 36.4166V15.5833C19.7479 15.1416 19.8375 14.7042 20.0133 14.299C20.189 13.8937 20.447 13.5294 20.771 13.2291L34.0835 25.4583Z" fill="url(#paint0_linear_169_2571)"/>
<path d="M45.7497 26.0001C45.7459 26.5929 45.5811 27.1736 45.2729 27.6799C44.9646 28.1863 44.5245 28.5994 43.9997 28.8751L40.1872 30.9584L35.458 26.6251L34.083 25.4584L39.1038 20.4792L43.9372 23.1251C44.4737 23.3922 44.9265 23.8017 45.2462 24.3087C45.5658 24.8157 45.74 25.4008 45.7497 26.0001Z" fill="url(#paint1_linear_169_2571)"/>
<path d="M34.083 25.4583L20.7705 13.2083C20.9624 13.0342 21.1718 12.8806 21.3955 12.75C21.9332 12.4371 22.5442 12.2722 23.1663 12.2722C23.7885 12.2722 24.3995 12.4371 24.9372 12.75L39.1663 20.5208L34.083 25.4583Z" fill="url(#paint2_linear_169_2571)"/>
<path d="M40.1878 30.9791L24.9378 39.3124C24.4062 39.5984 23.8123 39.7486 23.2087 39.7499C22.5692 39.7595 21.9403 39.586 21.3962 39.2499C21.157 39.107 20.9336 38.9395 20.7295 38.7499L34.0837 25.4583L35.3962 26.6458L40.1878 30.9791Z" fill="url(#paint3_linear_169_2571)"/>
</g>
<defs>
<linearGradient id="paint0_linear_169_2571" x1="26.9585" y1="37.8958" x2="26.9585" y2="14.1458" gradientUnits="userSpaceOnUse">
<stop stop-color="#00E4FF"/>
<stop offset="0.99" stop-color="#00CCFF"/>
</linearGradient>
<linearGradient id="paint1_linear_169_2571" x1="34.1455" y1="25.7292" x2="45.7497" y2="25.7292" gradientUnits="userSpaceOnUse">
<stop offset="0.01" stop-color="#FFBC00"/>
<stop offset="1" stop-color="#FFE100"/>
</linearGradient>
<linearGradient id="paint2_linear_169_2571" x1="29.958" y1="25.4583" x2="29.958" y2="12.25" gradientUnits="userSpaceOnUse">
<stop stop-color="#00F055"/>
<stop offset="0.99" stop-color="#00E05A"/>
</linearGradient>
<linearGradient id="paint3_linear_169_2571" x1="30.4587" y1="39.7499" x2="30.4587" y2="25.4583" gradientUnits="userSpaceOnUse">
<stop offset="0.01" stop-color="#DE1646"/>
<stop offset="1" stop-color="#FF2B43"/>
</linearGradient>
<clipPath id="clip0_169_2571">
<rect width="30" height="30" fill="white" transform="translate(17 11)"/>
</clipPath>
</defs>
</svg>
