<svg width="60" height="60" viewBox="0 0 60 60" fill="none" xmlns="http://www.w3.org/2000/svg">
<rect width="60" height="60" rx="30" fill="#FAB758"/>
<path d="M43.3322 24.6666C43.3323 24.4246 43.2664 24.1872 43.1415 23.98L39.5295 17.96C39.2916 17.5664 38.9564 17.2407 38.5561 17.0142C38.1559 16.7877 37.7041 16.668 37.2442 16.6666H22.7535C21.8229 16.6666 20.9469 17.1626 20.4682 17.9613L16.8562 23.98C16.7313 24.1872 16.6654 24.4246 16.6655 24.6666C16.6655 26.0066 17.1802 27.2186 17.9989 28.1573V40.6666C17.9989 41.0202 18.1393 41.3594 18.3894 41.6094C18.6394 41.8595 18.9786 42 19.3322 42H29.9989C30.3525 42 30.6916 41.8595 30.9417 41.6094C31.1917 41.3594 31.3322 41.0202 31.3322 40.6666V34H36.6655V40.6666C36.6655 41.0202 36.806 41.3594 37.0561 41.6094C37.3061 41.8595 37.6452 42 37.9989 42H40.6655C41.0191 42 41.3583 41.8595 41.6083 41.6094C41.8584 41.3594 41.9989 41.0202 41.9989 40.6666V28.1573C42.8175 27.2186 43.3322 26.0066 43.3322 24.6666ZM40.6442 25.0013C40.5622 25.6452 40.2483 26.2371 39.7614 26.6663C39.2745 27.0955 38.6479 27.3327 37.9989 27.3333C36.5282 27.3333 35.3322 26.1373 35.3322 24.6666C35.3322 24.576 35.2989 24.496 35.2802 24.4106L35.3069 24.4053L34.2922 19.3333H37.2442L40.6442 25.0013ZM27.3415 24.7533L28.4242 19.3333H31.5722L32.6562 24.7533C32.6095 26.184 31.4389 27.3333 29.9989 27.3333C28.5589 27.3333 27.3882 26.184 27.3415 24.7533ZM22.7535 19.3333H25.7055L24.6922 24.4053L24.7189 24.4106C24.6989 24.496 24.6655 24.576 24.6655 24.6666C24.6655 26.1373 23.4695 27.3333 21.9989 27.3333C21.3498 27.3327 20.7232 27.0955 20.2363 26.6663C19.7494 26.2371 19.4356 25.6452 19.3535 25.0013L22.7535 19.3333ZM27.3322 35.3333H21.9989V31.3333H27.3322V35.3333Z" fill="white"/>
</svg>
