<svg width="60" height="60" viewBox="0 0 60 60" fill="none" xmlns="http://www.w3.org/2000/svg">
<rect width="60" height="60" rx="30" fill="#F78B77"/>
<path d="M22.673 16.6666H37.3397C37.7593 16.6666 38.1545 16.8642 38.4064 17.2L42.0064 22V42C42.0064 42.7364 41.4094 43.3333 40.673 43.3333H19.3397C18.6033 43.3333 18.0063 42.7364 18.0063 42V22L21.6063 17.2C21.8582 16.8642 22.2533 16.6666 22.673 16.6666ZM38.673 22L36.673 19.3333H23.3397L21.3397 22H38.673ZM26.0063 27.3333H23.3397V30C23.3397 33.6818 26.3245 36.6666 30.0064 36.6666C33.6882 36.6666 36.673 33.6818 36.673 30V27.3333H34.0064V30C34.0064 32.2092 32.2154 34 30.0064 34C27.7972 34 26.0063 32.2092 26.0063 30V27.3333Z" fill="white"/>
</svg>
