<svg width="60" height="60" viewBox="0 0 60 60" fill="none" xmlns="http://www.w3.org/2000/svg">
<rect width="60" height="60" rx="30" fill="#3F78E0"/>
<rect x="14" y="20" width="32" height="20" rx="3" fill="white"/>
<path d="M19.3252 35H17.3916L20.9121 25H23.1484L26.6738 35H24.7402L22.0693 27.0508H21.9912L19.3252 35ZM19.3887 31.0791H24.6621V32.5342H19.3887V31.0791Z" fill="#3F78E0"/>
<rect x="31" y="23" width="12" height="14" rx="1" fill="#3F78E0"/>
<path d="M38.1314 33.0436C38.0071 33.043 37.8876 33.0918 37.7992 33.1793C37.7109 33.2667 37.6609 33.3857 37.6602 33.51C37.6654 33.6315 37.7173 33.7462 37.8051 33.8303C37.8929 33.9144 38.0098 33.9614 38.1314 33.9614C38.253 33.9614 38.3699 33.9144 38.4577 33.8303C38.5455 33.7462 38.5974 33.6315 38.6026 33.51C38.6023 33.4484 38.5899 33.3875 38.5661 33.3307C38.5423 33.2739 38.5075 33.2224 38.4637 33.179C38.4199 33.1357 38.3681 33.1013 38.3111 33.078C38.254 33.0547 38.193 33.0433 38.1314 33.0436ZM39.3737 33.0239C39.2494 33.0234 39.13 33.0723 39.0417 33.1599C38.9534 33.2474 38.9035 33.3664 38.9029 33.4907C38.9029 33.6157 38.9526 33.7356 39.0409 33.824C39.1293 33.9123 39.2492 33.962 39.3741 33.962C39.4991 33.962 39.619 33.9123 39.7073 33.824C39.7957 33.7356 39.8454 33.6157 39.8454 33.4907C39.8451 33.4291 39.8327 33.3681 39.8088 33.3113C39.7849 33.2545 39.7501 33.2029 39.7063 33.1596C39.6625 33.1162 39.6106 33.0819 39.5535 33.0586C39.4964 33.0353 39.4353 33.0235 39.3737 33.0239ZM36.5051 27C36.4012 27.0002 36.3015 27.0417 36.2281 27.1152C36.1546 27.1887 36.1133 27.2884 36.1132 27.3923V31.9127C36.1132 32.5557 35.5916 33.0787 34.9507 33.0787C34.6415 33.0783 34.3452 32.9554 34.1266 32.7368C33.908 32.5182 33.785 32.2218 33.7847 31.9127V31.1648C33.7799 31.064 33.7365 30.9688 33.6634 30.8992C33.5904 30.8295 33.4933 30.7906 33.3923 30.7906C33.2914 30.7906 33.1943 30.8295 33.1212 30.8992C33.0482 30.9688 33.0048 31.064 33 31.1648V31.9127C33.0006 32.4298 33.2063 32.9257 33.572 33.2914C33.9377 33.6571 34.4335 33.8628 34.9507 33.8633C35.4674 33.8623 35.9625 33.6563 36.3275 33.2906C36.6924 32.9249 36.8974 32.4293 36.8974 31.9127V27.3923C36.8973 27.2883 36.8559 27.1886 36.7824 27.115C36.7088 27.0415 36.6091 27.0001 36.5051 27ZM39.6547 30.8496C39.5507 30.8498 39.4509 30.8911 39.3774 30.9647C39.3038 31.0382 39.2625 31.138 39.2624 31.242V31.5278C39.2624 31.7868 39.0519 31.9977 38.7933 31.9977C38.5364 31.9977 38.3273 31.7873 38.3273 31.5278V28.5689C38.3226 28.468 38.2792 28.3729 38.2061 28.3032C38.133 28.2335 38.036 28.1947 37.935 28.1947C37.8341 28.1947 37.737 28.2335 37.6639 28.3032C37.5909 28.3729 37.5475 28.468 37.5427 28.5689V31.5278C37.5427 31.8598 37.6743 32.1782 37.9088 32.4132C38.1432 32.6482 38.4613 32.7807 38.7933 32.7815C39.1257 32.781 39.4443 32.6488 39.6793 32.4138C39.9143 32.1788 40.0465 31.8601 40.047 31.5278V31.242C40.0469 31.138 40.0055 31.0382 39.932 30.9647C39.8584 30.8911 39.7587 30.8498 39.6547 30.8496Z" fill="white"/>
</svg>
