<svg width="60" height="60" viewBox="0 0 60 60" fill="none" xmlns="http://www.w3.org/2000/svg">
<rect width="60" height="60" rx="30" fill="#F78B77"/>
<g clip-path="url(#clip0_149_2572)">
<path d="M39 16.5C39.69 16.5 40.25 17.06 40.25 17.75V22.4462L29.0012 33.6963L28.9937 38.9938L34.3012 39.0012L40.25 33.0525V40.25C40.25 40.94 39.69 41.5 39 41.5H19C18.31 41.5 17.75 40.94 17.75 40.25V17.75C17.75 17.06 18.31 16.5 19 16.5H39ZM41.2225 25.01L42.99 26.7775L33.2675 36.5L31.4975 36.4975L31.5 34.7325L41.2225 25.01ZM29 29H22.75V31.5H29V29ZM32.75 24H22.75V26.5H32.75V24Z" fill="white"/>
</g>
<defs>
<clipPath id="clip0_149_2572">
<rect width="30" height="30" fill="white" transform="translate(14 14)"/>
</clipPath>
</defs>
</svg>
