<svg width="60" height="60" viewBox="0 0 60 60" fill="none" xmlns="http://www.w3.org/2000/svg">
<rect width="60" height="60" rx="30" fill="#FAB758"/>
<path d="M17.5556 17.5555C15.5944 17.5555 14 19.15 14 21.1111V22.8889H46V21.1111C46 19.15 44.4056 17.5555 42.4444 17.5555H17.5556ZM46 28.2222H14V38.8889C14 40.85 15.5944 42.4444 17.5556 42.4444H42.4444C44.4056 42.4444 46 40.85 46 38.8889V28.2222ZM20.2222 35.3333H23.7778C24.2667 35.3333 24.6667 35.7333 24.6667 36.2222C24.6667 36.7111 24.2667 37.1111 23.7778 37.1111H20.2222C19.7333 37.1111 19.3333 36.7111 19.3333 36.2222C19.3333 35.7333 19.7333 35.3333 20.2222 35.3333ZM26.4444 36.2222C26.4444 35.7333 26.8444 35.3333 27.3333 35.3333H34.4444C34.9333 35.3333 35.3333 35.7333 35.3333 36.2222C35.3333 36.7111 34.9333 37.1111 34.4444 37.1111H27.3333C26.8444 37.1111 26.4444 36.7111 26.4444 36.2222Z" fill="white"/>
</svg>
