<svg width="60" height="60" viewBox="0 0 60 60" fill="none" xmlns="http://www.w3.org/2000/svg">
<rect width="60" height="60" rx="30" fill="#54A8C7"/>
<path d="M23.3335 29.3334C20.0198 29.3334 17.3335 26.6471 17.3335 23.3334C17.3335 20.0197 20.0198 17.3334 23.3335 17.3334C26.6472 17.3334 29.3335 20.0197 29.3335 23.3334C29.3335 26.6471 26.6472 29.3334 23.3335 29.3334ZM23.3335 42.6667C20.0198 42.6667 17.3335 39.9804 17.3335 36.6667C17.3335 33.353 20.0198 30.6667 23.3335 30.6667C26.6472 30.6667 29.3335 33.353 29.3335 36.6667C29.3335 39.9804 26.6472 42.6667 23.3335 42.6667ZM36.6668 29.3334C33.3531 29.3334 30.6668 26.6471 30.6668 23.3334C30.6668 20.0197 33.3531 17.3334 36.6668 17.3334C39.9806 17.3334 42.6668 20.0197 42.6668 23.3334C42.6668 26.6471 39.9806 29.3334 36.6668 29.3334ZM36.6668 42.6667C33.3531 42.6667 30.6668 39.9804 30.6668 36.6667C30.6668 33.353 33.3531 30.6667 36.6668 30.6667C39.9806 30.6667 42.6668 33.353 42.6668 36.6667C42.6668 39.9804 39.9806 42.6667 36.6668 42.6667Z" fill="white"/>
</svg>
