<svg width="60" height="60" viewBox="0 0 60 60" fill="none" xmlns="http://www.w3.org/2000/svg">
<rect width="60" height="60" rx="30" fill="#3F78E0"/>
<g clip-path="url(#clip0_149_2528)">
<path d="M29.9998 14C28.8935 14 27.9998 14.8937 27.9998 16V17.2C23.4373 18.125 19.9998 22.1625 19.9998 27V28.175C19.9998 31.1125 18.9185 33.95 16.9685 36.15L16.506 36.6688C15.981 37.2563 15.856 38.1 16.1748 38.8188C16.4935 39.5375 17.2123 40 17.9998 40H41.9998C42.7873 40 43.4998 39.5375 43.8248 38.8188C44.1498 38.1 44.0185 37.2563 43.4935 36.6688L43.031 36.15C41.081 33.95 39.9998 31.1187 39.9998 28.175V27C39.9998 22.1625 36.5623 18.125 31.9998 17.2V16C31.9998 14.8937 31.106 14 29.9998 14ZM32.831 44.8312C33.581 44.0812 33.9998 43.0625 33.9998 42H29.9998H25.9998C25.9998 43.0625 26.4185 44.0812 27.1685 44.8312C27.9185 45.5812 28.9373 46 29.9998 46C31.0623 46 32.081 45.5812 32.831 44.8312Z" fill="white"/>
</g>
<defs>
<clipPath id="clip0_149_2528">
<rect width="28" height="32" fill="white" transform="translate(16 14)"/>
</clipPath>
</defs>
</svg>
