<svg width="60" height="60" viewBox="0 0 60 60" fill="none" xmlns="http://www.w3.org/2000/svg">
<rect width="60" height="60" rx="30" fill="#FAB758"/>
<path d="M35.4337 14H24.6231C22.7852 14 21.2236 15.4986 21.2236 17.336V42.6679C21.2236 44.5052 22.7522 46 24.5901 46L35.4184 45.9883C37.256 45.9883 38.7594 44.4933 38.7594 42.6557L38.7752 17.3342C38.7749 15.4902 37.2789 14 35.4337 14ZM28.4667 16H31.6031C31.8786 16 32.103 16.2237 32.103 16.5C32.103 16.7763 31.8786 16.9999 31.6031 16.9999H28.4667C28.401 17 28.336 16.9871 28.2753 16.9619C28.2146 16.9368 28.1595 16.9 28.1131 16.8536C28.0667 16.8071 28.0298 16.752 28.0047 16.6913C27.9796 16.6307 27.9667 16.5657 27.9667 16.5C27.9667 16.4343 27.9796 16.3693 28.0047 16.3086C28.0298 16.248 28.0667 16.1929 28.1131 16.1464C28.1595 16.1 28.2146 16.0632 28.2753 16.0381C28.336 16.0129 28.401 16 28.4667 16ZM26.582 16.1592C26.7673 15.9741 27.1046 15.9716 27.2896 16.1592C27.3836 16.2535 27.4366 16.3811 27.4373 16.5142C27.4373 16.6444 27.3824 16.774 27.2896 16.8668C27.1973 16.9595 27.067 17.0142 26.9371 17.0142C26.8047 17.0142 26.6773 16.9595 26.582 16.8668C26.4897 16.7742 26.4371 16.6444 26.4371 16.5142C26.4369 16.3816 26.4897 16.2517 26.582 16.1592ZM29.934 45.009C29.1089 45.009 28.4379 44.3375 28.4379 43.5127C28.4379 42.6877 29.1089 42.0164 29.934 42.0164C30.759 42.0164 31.43 42.6877 31.43 43.5127C31.43 44.3375 30.7587 45.009 29.934 45.009ZM37.2233 40.9995H22.9736V18.7501H37.2233V40.9995Z" fill="white"/>
</svg>
