<svg width="60" height="60" viewBox="0 0 60 60" fill="none" xmlns="http://www.w3.org/2000/svg">
<rect width="60" height="60" rx="30" fill="#6BBEA3"/>
<path d="M40.6668 40.6668C40.6668 41.4032 40.0699 42.0002 39.3335 42.0002H20.6668C19.9305 42.0002 19.3335 41.4032 19.3335 40.6668V28.6668H15.3335L29.1032 16.1489C29.6118 15.6865 30.3886 15.6865 30.8971 16.1489L44.6668 28.6668H40.6668V40.6668ZM24.0002 31.3335C24.0002 34.6472 26.6865 37.3335 30.0002 37.3335C33.3139 37.3335 36.0002 34.6472 36.0002 31.3335H33.3335C33.3335 33.1744 31.8411 34.6668 30.0002 34.6668C28.1592 34.6668 26.6668 33.1744 26.6668 31.3335H24.0002Z" fill="white"/>
</svg>
