<svg width="60" height="60" viewBox="0 0 60 60" fill="none" xmlns="http://www.w3.org/2000/svg">
<rect width="60" height="60" rx="30" fill="#3F78E0"/>
<path d="M40.6668 24.6666L32.6668 16.6666H22.0002C21.2929 16.6666 20.6146 16.9476 20.1145 17.4477C19.6144 17.9478 19.3335 18.626 19.3335 19.3333V40.6666C19.3335 41.3739 19.6144 42.0521 20.1145 42.5522C20.6146 43.0523 21.2929 43.3333 22.0002 43.3333H38.0002C38.7074 43.3333 39.3857 43.0523 39.8858 42.5522C40.3859 42.0521 40.6668 41.3739 40.6668 40.6666V24.6666ZM26.0002 39.3333H23.3335V27.3333H26.0002V39.3333ZM31.3335 39.3333H28.6668V31.3333H31.3335V39.3333ZM36.6668 39.3333H34.0002V35.3333H36.6668V39.3333ZM32.6668 26H31.3335V19.3333L38.0002 26H32.6668Z" fill="white"/>
</svg>
