<svg width="60" height="60" viewBox="0 0 60 60" fill="none" xmlns="http://www.w3.org/2000/svg">
<rect width="60" height="60" rx="30" fill="#6BBEA3"/>
<g clip-path="url(#clip0_160_11600)">
<path d="M45 22.0898V17.6953C45 16.2414 43.8172 15.0586 42.3633 15.0586H17.6367C16.1828 15.0586 15 16.2414 15 17.6953V22.0898H45ZM35.2734 18.5742H40.5469C41.0323 18.5742 41.4258 18.9677 41.4258 19.4531C41.4258 19.9385 41.0323 20.332 40.5469 20.332H35.2734C34.788 20.332 34.3945 19.9385 34.3945 19.4531C34.3945 18.9677 34.788 18.5742 35.2734 18.5742ZM26.4844 18.5742C26.9698 18.5742 27.3633 18.9677 27.3633 19.4531C27.3633 19.9385 26.9698 20.332 26.4844 20.332C25.999 20.332 25.6055 19.9385 25.6055 19.4531C25.6055 18.9677 25.999 18.5742 26.4844 18.5742ZM22.9688 18.5742C23.4541 18.5742 23.8477 18.9677 23.8477 19.4531C23.8477 19.9385 23.4541 20.332 22.9688 20.332C22.4834 20.332 22.0898 19.9385 22.0898 19.4531C22.0898 18.9677 22.4834 18.5742 22.9688 18.5742ZM19.4531 18.5742C19.9385 18.5742 20.332 18.9677 20.332 19.4531C20.332 19.9385 19.9385 20.332 19.4531 20.332C18.9677 20.332 18.5742 19.9385 18.5742 19.4531C18.5742 18.9677 18.9677 18.5742 19.4531 18.5742ZM15 23.8477V42.3047C15 43.7586 16.1828 44.9414 17.6367 44.9414H42.3633C43.8172 44.9414 45 43.7586 45 42.3047V23.8477H15ZM25.2756 36.3449C25.6547 36.6482 25.7161 37.2012 25.4129 37.5803C25.1097 37.9593 24.5565 38.0208 24.1775 37.7175L19.783 34.2019C19.3436 33.8505 19.3433 33.1809 19.783 32.8293L24.1775 29.3136C24.5564 29.0104 25.1096 29.0718 25.4129 29.4509C25.7161 29.8299 25.6547 30.383 25.2756 30.6862L21.739 33.5156L25.2756 36.3449ZM33.4445 27.7095L28.1711 40.0142C27.9799 40.4603 27.4634 40.6671 27.0171 40.4758C26.5709 40.2846 26.3642 39.7679 26.5554 39.3217L31.8289 27.0171C32.0201 26.5709 32.5368 26.3643 32.9829 26.5554C33.4291 26.7466 33.6358 27.2633 33.4445 27.7095ZM40.217 34.2019L35.8225 37.7176C35.4441 38.0204 34.8908 37.9599 34.5871 37.5803C34.2839 37.2013 34.3453 36.6482 34.7244 36.345L38.261 33.5156L34.7244 30.6863C34.3453 30.3831 34.2839 29.83 34.5871 29.451C34.8903 29.0719 35.4434 29.0105 35.8225 29.3137L40.217 32.8294C40.6564 33.1808 40.6567 33.8503 40.217 34.2019Z" fill="white"/>
</g>
<defs>
<clipPath id="clip0_160_11600">
<rect width="30" height="30" fill="white" transform="translate(15 15)"/>
</clipPath>
</defs>
</svg>
