<svg width="42" height="42" viewBox="0 0 42 42" fill="none" xmlns="http://www.w3.org/2000/svg">
<g clip-path="url(#clip0_135_10396)">
<path d="M41.1026 8.45989C40.3126 4.89317 36.855 1.62587 33.2784 0.931884C31.0989 0.496298 25.0195 -0.0418264 21 9.49367e-06C16.9805 -0.0442874 10.902 0.492197 8.72238 0.929424C5.14582 1.62587 1.6882 4.89317 0.902344 8.45989C0.448711 10.6255 0.0065625 13.5721 0 17.5941C0.0065625 21.6136 0.448711 24.561 0.902344 26.7274C1.6923 30.2942 5.14992 33.5615 8.72648 34.2554C9.90281 34.49 12.2169 34.7558 14.7287 34.9429C15.0131 35.3897 15.3221 35.8654 15.6557 36.3702C16.9887 38.3898 18.0083 39.7966 18.7819 40.7769C20.0681 42.4077 21.9401 42.4077 23.2263 40.7769C23.9999 39.7966 25.0195 38.3898 26.3525 36.3702C26.6861 35.866 26.9951 35.3902 27.2795 34.9429C29.7921 34.7558 32.1054 34.49 33.2825 34.2554C36.8591 33.5615 40.3167 30.2942 41.1067 26.7274C41.5562 24.561 41.9975 21.6152 42.0049 17.5941C41.9934 13.5713 41.5521 10.6263 41.1026 8.45989Z" fill="#F9973E"/>
<path d="M21 9.49367e-06C16.9805 -0.0442874 10.902 0.492197 8.72238 0.929424C5.14582 1.62587 1.6882 4.89317 0.902344 8.45989C0.448711 10.6255 0.0065625 13.5721 0 17.5941C0.0065625 21.6136 0.448711 24.561 0.902344 26.7274C1.36746 28.8266 2.75707 30.8224 4.55109 32.2506C6.30107 32.6696 8.09435 32.8808 9.89379 32.8798C22.4963 32.8798 32.7124 22.6636 32.7124 10.062C32.7153 6.78013 32.0073 3.53662 30.637 0.554541C27.834 0.239541 23.8867 -0.0295218 21 9.49367e-06Z" fill="#FCA84C"/>
<path d="M23.3199 29.7888C23.2655 30.0443 23.1382 30.2786 22.9535 30.4633C22.7687 30.648 22.5345 30.7753 22.279 30.8298C21.4316 30.9599 20.5694 30.9599 19.722 30.8298C19.4665 30.7754 19.2322 30.6481 19.0474 30.4634C18.8627 30.2787 18.7354 30.0443 18.6811 29.7888C18.5498 28.9413 18.5498 28.0786 18.6811 27.231C18.7354 26.9755 18.8627 26.7412 19.0474 26.5564C19.2322 26.3717 19.4665 26.2444 19.722 26.1901C20.5694 26.0599 21.4316 26.0599 22.279 26.1901C22.5349 26.2448 22.7695 26.3725 22.9542 26.5579C23.139 26.7432 23.266 26.9782 23.3199 27.2343C23.4512 28.0819 23.4512 28.9445 23.3199 29.7921V29.7888ZM28.314 16.3529C27.6807 17.2487 26.7316 18.0665 25.3272 18.9254C23.5496 20.0213 23.265 20.4717 23.265 21.3535V21.7021C23.2707 22.0036 23.2163 22.3031 23.1049 22.5833C22.9935 22.8634 22.8274 23.1186 22.6162 23.3338C22.4051 23.549 22.1532 23.7199 21.8752 23.8366C21.5972 23.9533 21.2987 24.0134 20.9972 24.0134C20.6957 24.0134 20.3973 23.9533 20.1193 23.8366C19.8413 23.7199 19.5894 23.549 19.3782 23.3338C19.1671 23.1186 19.0009 22.8634 18.8895 22.5833C18.7782 22.3031 18.7237 22.0036 18.7295 21.7021V20.8941C18.7295 19.854 18.9895 18.9713 19.5244 18.1961C20.0428 17.4447 20.8204 16.777 21.9722 16.092C24.096 14.8427 24.4848 14.1413 24.4848 13.2103C24.4848 12.0405 23.4881 11.2842 21.9418 11.2842C20.2528 11.2842 19.1528 12.052 18.6729 13.5671C18.5174 14.0545 18.2102 14.4795 17.7961 14.7799C17.382 15.0804 16.8827 15.2406 16.3711 15.2373C16.312 15.2373 16.2521 15.2373 16.1939 15.2307C15.8263 15.2048 15.4696 15.0953 15.1508 14.9104C14.8321 14.7256 14.5598 14.4704 14.3547 14.1643C14.1499 13.8636 14.0164 13.5201 13.9647 13.16C13.9129 12.7998 13.9442 12.4326 14.0562 12.0864C14.5483 10.5088 15.5577 9.14308 16.9215 8.20964C18.2963 7.27285 20.0329 6.7782 21.9418 6.7782C23.9245 6.7782 25.7645 7.41066 27.1229 8.5591C28.5215 9.74035 29.291 11.3703 29.291 13.1479C29.2951 14.3702 28.9744 15.4218 28.314 16.3529Z" fill="white"/>
</g>
<defs>
<clipPath id="clip0_135_10396">
<rect width="42" height="42" fill="white"/>
</clipPath>
</defs>
</svg>
