<svg width="42" height="42" viewBox="0 0 42 42" fill="none" xmlns="http://www.w3.org/2000/svg">
<path d="M38.6845 3.53048C38.506 3.12533 37.9378 3.10548 37.729 3.49579L36.0433 6.64505C35.9735 6.77544 35.8706 6.88517 35.745 6.9632C35.6193 7.04123 35.4754 7.08481 35.3275 7.08957L32.9843 7.16496C32.8365 7.16971 32.69 7.13547 32.5596 7.06568C32.4292 6.99589 32.3195 6.893 32.2414 6.76736L31.0046 4.77572C30.9265 4.65006 30.8829 4.50608 30.8782 4.35824C30.8734 4.2104 30.9077 4.06391 30.9775 3.9335L32.6632 0.784078C32.8722 0.393774 32.5404 -0.0678161 32.1043 0.00839089C30.3283 0.318633 28.7083 1.4149 27.795 3.13075C26.9401 4.73708 26.8797 6.55186 27.4772 8.12694C27.6159 8.49255 27.5853 8.90082 27.4009 9.2456L21.6316 20.0241H24.2814V24.5072H27.2158L33.6081 12.5647C33.7924 12.2202 34.1148 11.9683 34.4956 11.8809C36.1424 11.5028 37.6233 10.4417 38.4833 8.83495C39.3977 7.12657 39.4096 5.1762 38.6845 3.53048Z" fill="#ADC0ED"/>
<path d="M21.8225 11.7137H20.4159C20.3374 11.7138 20.2607 11.6891 20.197 11.6432C20.1333 11.5972 20.0857 11.5323 20.061 11.4577C19.945 11.1047 19.8025 10.761 19.6346 10.4295C19.5992 10.3593 19.5868 10.2797 19.5993 10.202C19.6119 10.1243 19.6486 10.0526 19.7043 9.99712L20.6993 9.00216C21.1752 8.52622 21.1752 7.75463 20.6993 7.27868L19.5142 6.09358C19.0382 5.61763 18.2666 5.61763 17.7907 6.09358L16.7957 7.08854C16.7402 7.14426 16.6685 7.181 16.5909 7.19352C16.5132 7.20605 16.4336 7.19371 16.3634 7.15826C16.0319 6.99038 15.6882 6.84784 15.3352 6.73186C15.2606 6.70718 15.1957 6.65958 15.1497 6.59585C15.1037 6.53212 15.079 6.4555 15.0792 6.37691V4.97033C15.0792 4.29726 14.5335 3.75159 13.8604 3.75159H12.1844C11.5114 3.75159 10.9658 4.29718 10.9658 4.97033V6.37683C10.9659 6.45542 10.9412 6.53203 10.8953 6.59577C10.8493 6.6595 10.7844 6.7071 10.7098 6.73178C10.3568 6.84776 10.0131 6.9903 9.68158 7.15818C9.61135 7.1936 9.53173 7.20593 9.45408 7.1934C9.37643 7.18088 9.30473 7.14415 9.24919 7.08845L8.25424 6.0935C7.77829 5.61755 7.0067 5.61755 6.53076 6.0935L5.34549 7.2786C4.86954 7.75455 4.86954 8.52613 5.34549 9.00208L6.34045 9.99704C6.39616 10.0526 6.43289 10.1243 6.44542 10.2019C6.45794 10.2796 6.4456 10.3592 6.41017 10.4294C6.2423 10.7609 6.09976 11.1046 5.98378 11.4576C5.9591 11.5322 5.9115 11.5971 5.84776 11.6431C5.78403 11.6891 5.70741 11.7137 5.62883 11.7136H4.22232C3.54925 11.7136 3.00366 12.2593 3.00366 12.9324V14.6083C3.00366 15.2814 3.54925 15.827 4.22232 15.827H5.62883C5.70741 15.8269 5.78403 15.8516 5.84776 15.8975C5.9115 15.9435 5.9591 16.0084 5.98378 16.083C6.09511 16.4212 6.23087 16.7508 6.38999 17.0693H11.7968C10.4578 16.5716 9.50357 15.2826 9.50357 13.7702C9.50357 11.8269 11.079 10.2515 13.0223 10.2515C14.9656 10.2515 16.541 11.8269 16.541 13.7702C16.541 15.2825 15.5868 16.5716 14.2478 17.0693H19.6547C19.8137 16.7508 19.9495 16.4212 20.0609 16.083C20.0856 16.0084 20.1332 15.9435 20.1969 15.8975C20.2606 15.8515 20.3373 15.8268 20.4159 15.827H21.8224C22.4954 15.827 23.041 15.2814 23.041 14.6083V12.9323C23.0411 12.2593 22.4955 11.7137 21.8225 11.7137Z" fill="#4A66A0"/>
<path d="M36.8474 21.9471L31.8974 25.0808L26.9475 21.9471L29.5285 15.7388C29.6352 15.482 29.8156 15.2627 30.0469 15.1084C30.2782 14.954 30.55 14.8717 30.828 14.8717H37.6797C38.6834 14.8717 39.3645 15.8924 38.9792 16.8193L36.8474 21.9471Z" fill="#FFA93F"/>
<path d="M9.27812 14.8717H10.546L14.2532 16.7233L17.5762 14.8717H23.067C23.6356 14.8717 24.1483 15.2138 24.3665 15.7388L26.9475 21.9471H19.5089L15.7077 19.9598L12.4786 21.9471H10.1104L8.05388 21.413L6.41211 17.6076L8.17176 14.8925L9.27812 14.8717Z" fill="#F9D171"/>
<path d="M9.27807 14.8717H4.20764C3.2039 14.8717 2.5228 15.8924 2.9081 16.8193L5.03984 21.9471L7.68502 23.8996L10.1103 21.9471L7.97853 16.8193C7.59323 15.8924 8.27434 14.8717 9.27807 14.8717Z" fill="#F3C23B"/>
<path d="M34.2852 42.0001H26.9474L20.8582 31.5199L26.9474 21.947H36.8474V39.4379C36.8473 40.8529 35.7002 42.0001 34.2852 42.0001Z" fill="#F9D171"/>
<path d="M10.1104 21.9471H12.4786L15.9933 24.0832L19.5088 21.9471H26.9475V42H12.7499L11.8913 41.981L6.66553 40.4273L7.22736 31.339L10.1104 21.9471Z" fill="#F9EE80"/>
<path d="M10.1105 39.3606V21.9471H5.04004V39.3606C5.04004 40.8183 6.22178 42 7.67948 42H12.7499C11.2921 42 10.1105 40.8183 10.1105 39.3606Z" fill="#F9D171"/>
<path d="M17.8735 28.7275L16.6661 27.7576C16.4755 27.6044 16.2382 27.5209 15.9936 27.5209C15.749 27.5209 15.5117 27.6044 15.3211 27.7576L14.1136 28.7275C13.4556 29.2562 12.4785 28.7877 12.4785 27.9437V21.947L15.7076 19.9597L19.5088 21.947V27.9437C19.5087 28.7878 18.5316 29.2562 17.8735 28.7275Z" fill="#FFA93F"/>
<path d="M12.4626 21.947H19.4929L17.5761 14.8717H10.5459L12.4626 21.947Z" fill="#FF9000"/>
</svg>
