<svg width="100" height="100" viewBox="0 0 100 100" fill="none" xmlns="http://www.w3.org/2000/svg">
<g clip-path="url(#clip0_7_1649)">
<path d="M69.7674 0H30.2326C13.5356 0 0 13.5356 0 30.2326V69.7674C0 86.4644 13.5356 100 30.2326 100H69.7674C86.4644 100 100 86.4644 100 69.7674V30.2326C100 13.5356 86.4644 0 69.7674 0Z" fill="url(#paint0_radial_7_1649)"/>
<mask id="mask0_7_1649" style="mask-type:luminance" maskUnits="userSpaceOnUse" x="15" y="15" width="70" height="70">
<path d="M84.375 15.625H15.625V84.375H84.375V15.625Z" fill="white"/>
</mask>
<g mask="url(#mask0_7_1649)">
<mask id="mask1_7_1649" style="mask-type:luminance" maskUnits="userSpaceOnUse" x="15" y="15" width="70" height="70">
<path d="M84.2297 15.625H15.625V84.2297H84.2297V15.625Z" fill="white"/>
</mask>
<g mask="url(#mask1_7_1649)">
<path fill-rule="evenodd" clip-rule="evenodd" d="M35.7319 16.0295C34.9645 16.1488 33.3947 16.524 32.2435 16.8633C29.8505 17.5686 29.9191 17.5635 28.0575 17.1856C24.281 16.4193 20.3347 18.4528 18.6926 22.0114C18.1633 23.1584 18.071 23.6905 18.0345 25.8049C18.0012 27.7419 17.8935 28.4584 17.5284 29.177C17.2733 29.6791 16.7698 30.9793 16.4094 32.0665C15.7966 33.9151 15.7533 34.2995 15.7431 37.9968C15.7333 41.4461 15.7998 42.1844 16.2638 43.7863C18.4149 51.2133 23.6291 56.537 30.8954 58.7247C32.6491 59.2528 33.4963 59.3565 36.8301 59.4512C41.0812 59.5721 43.1717 59.4251 54.4163 58.2147C59.0745 57.7133 62.1884 57.2754 62.5956 57.0649C64.7961 55.927 65.0252 52.5374 62.9991 51.0947C61.9531 50.3498 60.697 50.3375 54.4529 51.0095C40.5756 52.5035 37.2154 52.7047 34.4528 52.2075C29.2105 51.2642 24.9835 47.5533 23.1224 42.2607C22.3901 40.1779 22.1596 36.5654 22.6426 34.7409C22.9835 33.4535 22.8121 33.5061 25.3066 33.9228C28.8615 34.5167 32.5866 32.4905 34.1766 29.0981C34.7266 27.9242 34.8017 27.4802 34.8017 25.3979V23.0316L35.4345 22.9051C37.3154 22.5288 39.0933 22.5121 40.7319 22.8554C46.2566 24.0121 50.7698 28.4044 52.1624 33.9798C53.004 37.35 53.9715 38.4351 56.1352 38.4351C57.3926 38.4351 58.1998 37.9567 59.0694 36.6963C59.5484 36.0021 59.601 35.7161 59.4931 34.3921C59.2498 31.4095 57.8049 27.7621 55.6703 24.7409C53.3545 21.4633 51.2612 19.7051 47.6238 17.9821C43.9952 16.2633 39.2475 15.4837 35.7319 16.0295ZM57.9412 40.2326C56.4703 40.3386 51.3017 40.8458 46.4554 41.3598C37.0668 42.3551 36.7589 42.4247 35.7563 43.7695C35.388 44.2637 35.2668 44.7665 35.2668 45.8012C35.2668 47.1035 35.3177 47.227 36.2324 48.1416C37.0424 48.9516 37.3796 49.1235 38.3254 49.2084C38.9454 49.2642 42.9063 48.9407 47.1273 48.4898C61.3417 46.9707 63.7691 46.913 67.2498 48.0126C69.4359 48.7033 70.5889 49.4595 72.8722 51.7007C74.3159 53.1175 74.8701 53.877 75.7261 55.6116C77.3996 59.0016 77.7968 61.6114 77.1036 64.6595C76.7424 66.2475 76.7119 66.2935 76.1152 66.16C73.6035 65.5988 72.9903 65.5437 71.7668 65.77C69.7987 66.1337 68.5245 66.8019 67.1205 68.2058C65.2094 70.1168 64.817 71.1537 64.8087 74.313L64.8017 76.9081L63.9877 77.043C62.3966 77.3063 60.0833 77.1763 58.3154 76.7242C52.7326 75.2963 48.7315 71.1114 47.2617 65.1628C46.8598 63.537 46.5742 62.8763 46.0349 62.3247C43.8061 60.0449 40.0301 61.5879 40.0359 64.7761C40.0384 66.1842 40.8889 69.3754 41.7698 71.2819C45.4208 79.1837 52.737 83.9128 61.3287 83.924C63.9954 83.9274 65.6035 83.683 68.3659 82.8542C70.1033 82.333 70.4331 82.3007 71.5789 82.5384C77.0008 83.6642 81.8417 79.2095 81.6368 73.2835C81.5894 71.9068 81.6884 71.4847 82.4573 69.7879C85.3266 63.4561 84.5889 55.6826 80.551 49.7007C76.8989 44.29 71.5173 41.0542 64.8017 40.2314C62.4994 39.9491 61.8687 39.9493 57.9412 40.2326Z" fill="#F37916"/>
<path d="M73.4156 83.9972C78.5531 83.9972 82.7179 79.8324 82.7179 74.6949C82.7179 69.5574 78.5531 65.3926 73.4156 65.3926C68.2781 65.3926 64.1133 69.5574 64.1133 74.6949C64.1133 79.8324 68.2781 83.9972 73.4156 83.9972Z" fill="#231F20"/>
<path d="M26.2066 34.4621C31.3442 34.4621 35.509 30.2973 35.509 25.1598C35.509 20.0222 31.3442 15.8574 26.2066 15.8574C21.0691 15.8574 16.9043 20.0222 16.9043 25.1598C16.9043 30.2973 21.0691 34.4621 26.2066 34.4621Z" fill="#231F20"/>
</g>
</g>
</g>
<defs>
<radialGradient id="paint0_radial_7_1649" cx="0" cy="0" r="1" gradientUnits="userSpaceOnUse" gradientTransform="translate(50 50) rotate(89.2205) scale(51.2838)">
<stop offset="0.666667" stop-color="white"/>
<stop offset="1" stop-color="#F5F5F5"/>
</radialGradient>
<clipPath id="clip0_7_1649">
<rect width="100" height="100" fill="white"/>
</clipPath>
</defs>
</svg>
