<svg width="365" height="100" viewBox="0 0 365 100" fill="none" xmlns="http://www.w3.org/2000/svg">
<g clip-path="url(#clip0_172_1626)">
<path fill-rule="evenodd" clip-rule="evenodd" d="M312.369 0.361544C311.685 0.799334 310.562 2.40397 309.939 3.83249C306.981 10.6138 305.372 26.2277 305.336 48.4849L305.322 57.1302L304.803 55.5259C304.517 54.6435 304.003 52.558 303.661 50.8913C302.093 43.2633 300.03 36.0475 298.109 31.4706C297.294 29.53 295.848 27.3309 295.027 26.7845C293.826 25.9851 292.524 26.3901 291.812 27.7842C291.194 28.9972 291.03 30.4678 291.14 33.8341C291.318 39.3254 292.777 47.0257 295.671 57.7541C296.213 59.7639 296.695 61.5687 296.741 61.7648C296.849 62.228 296.357 61.4082 294.12 57.3976C287.655 45.8059 284.3 40.6844 280.799 37.0612C278.499 34.6822 276.999 33.9245 275.68 34.476C275.183 34.6835 274.942 34.9459 274.657 35.591C273.307 38.6416 276.321 46.0428 283.608 57.5758C286.626 62.3517 291.03 69.0088 292.901 71.6225C293.792 72.8674 294.606 74.0063 294.71 74.1533C294.814 74.3004 294.302 73.8549 293.572 73.1635C292.843 72.4719 291.845 71.5574 291.355 71.1311C290.865 70.7049 289.742 69.6615 288.859 68.8125C283.239 63.4052 277.404 59.3583 275.227 59.3583C274.491 59.3583 274.298 59.4337 273.97 59.8485C273.647 60.2573 273.599 60.487 273.685 61.23C273.829 62.468 274.806 64.3423 276.239 66.1289C277.623 67.856 281.519 71.8361 281.825 71.8361C281.937 71.8361 283.205 72.891 284.642 74.1803C287.713 76.9355 292.854 81.2457 295.772 83.5116C297.692 85.0018 298.302 85.612 297.549 85.2867C296.67 84.907 291.567 83.3915 290.092 83.0717C288.406 82.7065 286.298 82.5637 285.932 82.7899C285.562 83.0184 285.745 83.7136 286.319 84.2655C288.005 85.8844 293.087 87.7738 301.743 89.999L305.178 90.8824L305.769 90.2744C306.431 89.5929 306.655 88.9592 306.955 86.9216C307.347 84.253 307.931 83.3024 309.496 82.7826C310.648 82.3999 311.816 82.52 313.133 83.1562C313.97 83.5607 314.897 84.3902 317.915 87.4325C320.922 90.4653 321.861 91.3052 322.692 91.7074C323.811 92.2485 325.274 92.3808 325.977 92.0041C327.12 91.3926 329.153 92.1084 331.907 94.0927C332.741 94.6931 333.509 95.1849 333.615 95.1858C333.992 95.1886 338.268 93.9549 340.107 93.3123C342.788 92.3754 345.36 91.0079 346.479 89.9239C347.323 89.1074 347.415 88.9412 347.415 88.2519C347.415 87.6234 347.31 87.3813 346.825 86.8967C346.501 86.5721 345.879 86.202 345.444 86.0744C344.556 85.8139 339.842 85.7464 337.522 85.9608L336.096 86.0926L338.325 84.9138C345.377 81.1828 353.28 75.7658 356.88 72.1947C359.555 69.5423 360.239 67.9735 359.353 66.5209C358.18 64.5975 354.459 64.9156 349.61 67.3535C345.315 69.5123 339.035 73.5193 335.116 76.6009C334.773 76.8708 335.945 75.5681 337.721 73.7063C343.071 68.0965 345.826 65.0585 348.281 62.0608C349.03 61.1453 350.712 59.14 352.017 57.6045C357.99 50.579 362.808 43.7457 364.465 39.951C365.048 38.6145 365.058 38.548 365.06 35.9672L365.062 33.3425L364.483 33.0371C361.521 31.4753 355.892 35.6295 347.052 45.9002C344.049 49.389 337.61 57.6801 335.215 61.1409C334.639 61.9742 334.12 62.7123 334.062 62.7813C334.005 62.8503 333.985 62.4639 334.019 61.9225C334.078 60.9783 334.053 60.9116 333.39 60.2838L332.699 59.6293L333.382 57.7774C334.323 55.2255 335.932 49.7152 336.284 47.8396C336.465 46.8728 336.551 45.6658 336.514 44.6375C336.46 43.182 336.402 42.9328 336.021 42.5275C335.131 41.5813 333.56 42.0184 331.941 43.6623C331.33 44.2822 331.009 44.5127 331.083 44.2788C331.955 41.5173 332.541 37.8929 332.374 36.2926C332.145 34.104 331.238 33.0913 329.501 33.0845C325.769 33.0703 321.592 39.6906 316.804 53.2086C316.214 54.8753 315.56 56.7202 315.351 57.3084C315.142 57.8967 315.007 58.1774 315.051 57.9323C315.966 52.8542 317.857 36.5425 318.444 28.6794C319.639 12.6635 318.753 2.28614 316.025 0.343362C315.332 -0.149508 313.149 -0.138634 312.369 0.361544ZM191.128 14.8776C189.97 15.8521 189.485 18.4578 189.354 24.4207C189.228 30.1471 189.691 38.992 190.552 47.3184C190.643 48.1965 190.697 48.935 190.672 48.9594C190.648 48.9838 190.237 48.0649 189.76 46.9173C189.283 45.7697 188.713 44.4296 188.493 43.9394C188.273 43.4492 187.557 41.845 186.901 40.3744C185.025 36.1662 182.211 30.764 180.727 28.5229C179.355 26.4498 177.936 24.9189 177.088 24.5965C173.026 23.0521 173.913 30.0853 179.595 44.4742C180.409 46.533 181.4 48.9795 181.8 49.9109C182.32 51.1243 182.413 51.4528 182.127 51.0699C180.964 49.5088 178.81 47.0751 176.83 45.0836C172.285 40.5145 168.966 38.571 167.235 39.466C164.347 40.9592 167.126 47.9213 174.497 57.6594C175.533 59.0289 176.488 60.2952 176.619 60.4733C176.776 60.6872 176.473 60.5797 175.728 60.1566C173.921 59.1314 170.966 57.7648 169.519 57.2851C165.221 55.8612 162.966 55.8175 161.573 57.1312C161.047 57.6271 160.963 57.8225 160.963 58.5398C160.963 59.5439 161.375 60.4025 162.474 61.6908C163.539 62.9378 163.747 63.0464 164.231 62.6063C165.124 61.7936 165.792 61.6756 166.798 62.153C167.684 62.5737 168.183 63.7075 167.917 64.6963C167.812 65.0854 167.649 65.4521 167.553 65.5111C167.458 65.5699 167.38 65.6897 167.38 65.7769C167.38 66.0113 169.312 67.3485 171.998 68.9742C173.762 70.0412 174.283 70.4344 174.038 70.5129C173.856 70.5706 173.547 70.6861 173.351 70.7694C173.025 70.9077 173.023 70.9216 173.324 70.9327C173.834 70.9514 174.61 71.4767 174.931 72.0214C175.522 73.0216 175.158 74.3918 174.142 74.9893C173.676 75.263 173.609 75.3899 173.695 75.8245C173.751 76.1063 173.797 76.9617 173.797 77.7252V79.1134L175.802 81.4016C176.905 82.6601 178.321 84.3131 178.949 85.0749C180.185 86.5762 180.386 86.6437 181.257 85.853C181.79 85.3699 183.548 82.3872 186.053 77.7184L188.013 74.0642L189.06 73.4917C192.627 71.5412 201.449 67.6106 204.332 66.687C206.945 65.85 206.791 65.8024 209.195 68.1929C210.335 69.3264 211.288 70.2287 211.313 70.1983C211.338 70.1676 211.649 69.1801 212.004 68.0036C212.36 66.8271 213.173 64.3027 213.812 62.3938C214.451 60.4849 214.973 58.8038 214.973 58.658C214.973 58.2129 213.41 59.8797 212.393 61.4082C211.871 62.1926 211.028 63.5963 210.519 64.5277C210.01 65.459 209.646 66.0607 209.71 65.8646C210.618 63.1113 212.4 56.815 213.602 52.1138L215.113 46.2061L214.777 45.6967C214.113 44.6895 214.481 43.0446 215.487 42.5246C215.972 42.2735 216.011 42.1566 216.388 39.8033C217.117 35.2491 217.099 32.1152 216.337 30.9804C215.118 29.1653 213.273 31.2733 211.002 37.0767C209.321 41.3697 205.482 53.976 204.884 57.1626C204.62 58.5706 204.662 57.4261 204.986 54.3546C205.328 51.1254 205.829 45.3706 206.274 39.5722C206.403 37.886 206.501 33.5129 206.503 29.3227C206.506 22.9441 206.467 21.8603 206.195 20.804C205.637 18.6305 205.081 18.0264 204.183 18.6154C202.353 19.8143 200.516 29.7243 198.943 46.8806L198.461 52.1391L198.335 50C198.265 48.8236 198.095 46.2968 197.955 44.3851C197.816 42.4733 197.613 39.6658 197.506 38.1462C197.278 34.927 196.771 30.327 196.269 26.9138C195.219 19.781 193.965 15.5965 192.633 14.7842C191.904 14.34 191.756 14.3491 191.128 14.8776ZM232.097 28.3036C231.65 28.7726 230.938 29.6549 230.515 30.2644C229.617 31.5587 229.599 31.5498 232.002 31.0248C232.994 30.8079 233.678 30.5605 233.82 30.3669C234.052 30.0496 234.133 28.2407 233.938 27.733C233.723 27.1726 232.948 27.4129 232.097 28.3036ZM231.373 32.3653C230.343 32.6011 229.339 32.8321 229.141 32.8787C228.877 32.9405 228.281 33.9713 226.925 36.7111C225.905 38.7722 225.118 40.507 225.177 40.5658C225.236 40.6248 225.731 40.5801 226.278 40.4664C227.081 40.2999 227.273 40.1918 227.273 39.9072C227.273 38.8296 228.379 37.7897 229.525 37.7897C230.165 37.7897 230.426 37.9013 231.005 38.4246L231.708 39.0594L232.072 37.8364C232.673 35.8166 233.509 32.5526 233.511 32.2193C233.512 31.8476 233.685 31.8359 231.373 32.3653ZM240.261 33.3104C238.816 34.2268 236.817 36.8218 233.673 41.8619C231.465 45.4016 229.487 48.9082 227.991 51.9366C227.375 53.1831 226.84 54.1721 226.802 54.1343C226.764 54.0965 226.846 53.7924 226.985 53.4589C227.123 53.1252 227.517 51.9516 227.86 50.851L228.485 48.8498L227.954 49.3804C227.095 50.2394 226.009 50.3047 224.963 49.5599L224.466 49.2061L222.973 49.7487C220.579 50.6184 221.085 49.7605 217.969 58.2361L217.628 59.1639L217.125 58.6018L216.623 58.0398L216.358 58.5655C215.999 59.2779 214.325 64.263 213.129 68.1819C212.342 70.761 212.191 71.4485 212.358 71.6869C215.19 75.7093 215.629 76.0981 219.689 78.1824C225.723 81.2794 227.06 82.5899 227.997 86.328C228.354 87.7524 228.425 87.8776 229.169 88.4118C230.279 89.209 233.722 90.8132 237.702 92.3876C242.892 94.4409 242.796 94.4132 243.798 94.1478C245.598 93.6713 246.664 92.4599 246.474 91.1072C246.087 88.3517 243.96 86.0528 240.693 84.8582L239.407 84.3877L242.832 84.1715C246.618 83.9323 248.462 83.6492 250.571 82.9829C254.03 81.8902 255.187 79.8976 253.767 77.4756C252.95 76.0812 251.351 75.2193 248.335 74.5478C245.949 74.0164 237.663 74.166 234.314 74.8008C233.949 74.8697 234.433 74.4813 235.829 73.5819C243.806 68.4437 248.079 65.1796 250.264 62.5539C251.394 61.1961 251.736 60.5334 251.759 59.6599C251.774 59.1016 251.676 58.879 251.255 58.517C250.794 58.1202 250.616 58.0781 249.742 58.159C247.079 58.4058 242.178 60.8687 235.038 65.5494L232.197 67.4118L233.523 65.9462C242.537 55.9808 247.55 48.5869 247.653 45.1059C247.704 43.3633 246.993 42.6025 245.312 42.6025C244.221 42.6025 243.495 42.8466 242.246 43.6339C240.959 44.445 237.864 47.5626 236.016 49.9109C234.181 52.2418 234.033 52.3819 234.705 51.1587C238.236 44.7279 240.872 39.3974 241.699 37.0175C242 36.1516 242.296 35.0184 242.357 34.4993C242.453 33.6876 242.415 33.5025 242.09 33.1771C241.586 32.6731 241.224 32.6995 240.261 33.3104ZM226.382 41.6378C225.744 41.7738 225.036 41.9293 224.809 41.9831C224.5 42.0562 224.233 42.4325 223.765 43.456C222.755 45.6619 221.538 48.692 221.627 48.7808C221.672 48.8257 222.234 48.6794 222.876 48.4553C223.993 48.0655 224.05 48.0166 224.23 47.3034C224.499 46.2323 225.272 45.6328 226.382 45.6328C227.459 45.6328 228.237 46.2213 228.553 47.2749L228.77 47.9997L229.715 45.1717C230.234 43.6163 230.66 42.2988 230.66 42.2441C230.66 42.1892 230.185 42.1473 229.605 42.1507C228.751 42.1557 228.469 42.0804 228.123 41.7558C227.888 41.5352 227.661 41.3628 227.618 41.3726C227.575 41.3826 227.019 41.5018 226.382 41.6378ZM169.296 71.8758C168.34 72.1826 167.558 72.5207 167.558 72.6273C167.558 72.7339 168.681 73.9421 170.054 75.312L172.549 77.8027V76.6065C172.549 75.4537 172.529 75.4 172.007 75.1296C171.336 74.7829 170.768 73.8849 170.767 73.1703C170.767 72.8747 170.927 72.3334 171.123 71.9671C171.559 71.1546 171.546 71.1539 169.296 71.8758ZM165.33 73.691C163.192 74.2191 161.676 75.5885 161.676 76.9904C161.676 77.3389 161.873 77.7524 162.237 78.1671L162.798 78.8063L163.374 78.2484C164.461 77.1949 166.177 77.3753 166.912 78.6205L167.222 79.1444H169.618C170.936 79.1444 172.014 79.0833 172.014 79.0086C172.014 78.7961 166.595 73.4385 166.397 73.4555C166.3 73.4639 165.82 73.5697 165.33 73.691ZM170.945 80.3922L169.608 80.5063L170.856 80.5403C171.542 80.559 172.424 80.627 172.817 80.6911C173.467 80.7977 173.508 80.782 173.285 80.5109C173.15 80.3476 172.87 80.2284 172.661 80.246C172.452 80.2637 171.68 80.3295 170.945 80.3922ZM175.292 83.1346C175.362 83.4175 175.733 84.32 176.115 85.14L176.811 86.6311H177.71C178.205 86.6311 178.61 86.5829 178.61 86.5241C178.61 86.3861 175.879 83.21 175.473 82.8749C175.189 82.641 175.174 82.6623 175.292 83.1346ZM145.767 99.9553C147.556 99.9844 150.484 99.9844 152.273 99.9553C154.062 99.9261 152.598 99.9024 149.02 99.9024C145.441 99.9024 143.977 99.9261 145.767 99.9553Z" fill="#FBD794"/>
<path fill-rule="evenodd" clip-rule="evenodd" d="M236.445 17.4442C235.426 18.066 234.872 19.5416 235.25 20.6271C235.409 21.0838 235.351 21.2184 234.642 22.0189C233.095 23.7685 231.205 26.1496 229.763 28.1639L228.296 30.2138L228.408 29.0735C228.47 28.4464 228.521 27.1473 228.521 26.1867C228.521 24.463 228.527 24.4369 229.004 24.2075C229.27 24.0795 229.678 23.6942 229.911 23.351C230.257 22.8419 230.32 22.5653 230.253 21.8469C230.017 19.3189 226.496 18.9788 225.839 21.4205C225.563 22.4434 225.922 23.4972 226.707 23.9726L227.3 24.3314L227.211 28.2924L227.121 32.2533L226.095 33.9965C225.531 34.9551 224.569 36.6949 223.959 37.8624L222.848 39.9852L222.146 37.7733C221.468 35.6378 221.455 35.5491 221.762 35.2048C222.913 33.9136 222.572 31.9952 221.073 31.3319C220.532 31.0927 220.096 31.0184 219.684 31.0958C218.409 31.335 217.486 32.6854 217.725 33.9617C217.869 34.7278 218.735 35.6043 219.487 35.7455C220.065 35.8539 220.066 35.8551 220.991 38.8881L221.916 41.9221L221.231 43.1981C220.854 43.8999 220.159 45.3772 219.686 46.4813C219.214 47.5852 218.772 48.4275 218.705 48.353C218.637 48.2783 218.449 47.805 218.285 47.3009C217.989 46.3879 217.99 46.3822 218.441 45.7164C219.56 44.0674 218.593 42.2458 216.599 42.2458C216.042 42.2458 215.757 42.3717 215.269 42.8319C214.423 43.6291 214.27 44.4819 214.789 45.4963C215.243 46.3847 215.602 46.7022 216.151 46.7022C216.498 46.7022 216.632 46.9524 217.213 48.6966C217.862 50.6441 217.871 50.7082 217.6 51.415C215.55 56.7683 214.997 58.3223 215.073 58.5184C215.122 58.6464 214.793 59.7902 214.343 61.0601C213.892 62.3298 213.044 64.9303 212.457 66.8387C211.87 68.7473 211.363 70.3362 211.329 70.3697C211.296 70.4034 210.323 69.4952 209.168 68.3516L207.067 66.2724L206.207 66.3865C203.952 66.6856 196.857 69.6669 189.751 73.3011L188.146 74.1214L187.362 75.6079C185.898 78.3803 183.017 83.5059 182.268 84.6701C181.448 85.9457 181.229 86.1685 180.536 86.4319C180.095 86.5997 179.999 86.5286 178.937 85.2414C178.316 84.4884 176.865 82.8031 175.713 81.4959L173.619 79.1195V77.453C173.619 76.5366 173.572 75.6651 173.515 75.5166C173.446 75.3375 173.595 75.1519 173.958 74.9644C175.313 74.2635 175.389 71.9847 174.079 71.3188C172.693 70.6147 171.93 70.7546 171.33 71.823C170.609 73.1061 170.906 74.3141 172.118 75.0294L172.727 75.389V76.7637V78.1384L170.027 75.4034L167.327 72.6685L167.185 71.3164C167.106 70.5728 167.038 69.1557 167.033 68.1672C167.024 66.5933 167.078 66.2617 167.468 65.4934C167.98 64.4851 168.027 63.8366 167.644 63.0956C167.04 61.9268 165.419 61.7286 164.276 62.6835C163.601 63.2473 163.376 63.8671 163.566 64.6384C163.767 65.4541 164.153 65.9198 164.901 66.2498C165.567 66.5435 165.597 66.5931 165.597 67.387C165.597 67.8435 165.651 68.8492 165.716 69.622L165.835 71.027L164.424 69.7592C163.647 69.0619 162.05 67.723 160.874 66.7842L158.734 65.077L157.287 61.5683L155.839 58.0594L156.262 57.4362C156.749 56.7182 156.789 56.2102 156.428 55.3457C155.737 53.6927 152.833 53.579 152.224 55.181C151.651 56.6867 152.32 58.1271 153.761 58.4899C154.192 58.5986 154.546 58.7081 154.546 58.733C154.546 58.7582 154.986 59.8405 155.525 61.1382C156.48 63.4394 156.492 63.4897 156.015 63.176C153.578 61.574 150.494 59.7375 148.959 58.9742C147.121 58.0598 147.096 58.0396 147.002 57.3371C146.809 55.8945 145.652 55.0131 144.101 55.1271C142.929 55.2134 142.185 55.7425 141.793 56.7681C141.376 57.8606 141.561 58.7157 142.395 59.5455C143.423 60.5692 145.128 60.6448 146.131 59.7107L146.524 59.3444L148.669 60.4378C150.593 61.4189 156.819 65.358 156.66 65.4938C156.624 65.5237 154.909 65.809 152.849 66.1275L149.102 66.7066L148.385 65.9901C146.12 63.725 142.532 66.3009 143.984 69.1494C144.421 70.0057 145.102 70.4453 146.146 70.5457C147.406 70.6669 148.51 70.0216 148.932 68.9166L149.231 68.1336L152.2 67.6655C153.833 67.4082 155.891 67.0851 156.774 66.9478L158.378 66.6979L159.002 67.1694C159.345 67.4286 160.65 68.4844 161.902 69.5155C163.154 70.5466 164.434 71.5906 164.747 71.8353L165.315 72.2806L163.896 72.4904C161.829 72.7963 161.539 72.7835 161.411 72.3795C161.122 71.4697 159.211 70.9993 158.113 71.5674C157.336 71.9692 157.041 72.5132 157.041 73.545C157.041 74.5696 157.426 75.2221 158.296 75.6719C159.323 76.2032 160.715 75.8161 161.314 74.8323C161.69 74.2129 161.872 74.1612 166.015 73.4984L166.7 73.3888L169.446 76.1307C170.957 77.6387 172.193 78.9738 172.193 79.0975C172.193 79.2683 171.574 79.3225 169.629 79.3225H167.067L166.854 78.8089C166.078 76.9369 162.745 77.7221 162.745 79.7767C162.745 80.8002 163.351 81.6564 164.311 81.9908C165.334 82.3471 166.385 81.9986 166.984 81.105C167.374 80.5225 167.481 80.4737 168.594 80.3696C169.25 80.3082 170.608 80.2482 171.613 80.2359C173.241 80.2163 173.441 80.2476 173.444 80.5257C173.449 80.8745 174.898 82.4713 175.292 82.5619C175.574 82.6268 178.788 86.3776 178.788 86.6418C178.788 86.8671 177.124 86.8564 176.897 86.6295C176.652 86.3847 168.561 86.386 167.468 86.6311C166.41 86.8681 166.193 86.9854 164.535 88.2148C163.796 88.7631 161.105 90.5956 158.556 92.2865C156.007 93.9776 153.841 95.4246 153.743 95.502C153.645 95.5795 152.878 95.741 152.037 95.861C149.476 96.227 146.353 97.461 143.701 99.1551L142.75 99.763L152.257 99.8811C157.487 99.9462 201.471 99.9799 250 99.9558C298.529 99.9318 327.788 99.8915 315.018 99.8662C302.248 99.8409 291.8 99.771 291.8 99.7106C291.8 99.35 293.273 97.2794 294.162 96.391C296.086 94.4664 297.67 93.641 301.109 92.7719C302.96 92.3041 304.939 91.4517 304.857 91.1578C304.804 90.9674 304.73 90.9444 301.426 90.0972C291.734 87.612 285.562 84.9519 285.562 83.2598C285.562 82.6211 286.008 82.4762 287.659 82.5788C289.339 82.6831 292.063 83.3437 295.429 84.463C296.591 84.8492 297.433 85.0655 297.3 84.9432C297.167 84.8209 295.615 83.5683 293.85 82.1599C290.407 79.412 287.094 76.5947 283.729 73.5541L281.628 71.6564L280.966 71.9961C279.532 72.7314 278.945 73.8733 278.528 76.7378C278.079 79.822 277.872 80.3733 276.769 81.4161C275.428 82.6847 273.687 83.5 270.577 84.3164C266.325 85.4327 263.926 86.6168 261.19 88.9492C259.418 90.4606 257.17 93.5202 255.266 97.0141C254.852 97.774 254.491 98.3956 254.464 98.3956C254.35 98.3956 249.039 96.5565 246.017 95.4705C244.219 94.8241 242.685 94.3339 242.608 94.3813C242.306 94.5681 234.194 91.2678 231.194 89.7373C228.577 88.4022 228.315 88.1261 227.833 86.204C226.949 82.6797 225.861 81.6255 219.915 78.5275C216.464 76.7296 215.007 75.7204 214.313 74.6476C214.041 74.2286 213.428 73.3398 212.949 72.6726L212.078 71.4596L212.566 69.7314C213.47 66.5298 215.89 59.2781 216.43 58.153C216.724 57.5393 217.466 55.7426 218.077 54.1605C219.174 51.3189 219.197 51.2803 219.893 50.9983C220.282 50.8414 220.785 50.5795 221.012 50.4164C221.239 50.2535 222.142 49.8615 223.019 49.5453L224.613 48.9706L225.026 49.3587C225.899 50.1786 227.578 49.9357 228.263 48.8902C228.67 48.2692 228.521 47.0047 227.973 46.4207C226.709 45.0754 224.645 45.7407 224.261 47.6173C224.163 48.099 224.007 48.2207 223.001 48.5986C222.37 48.8359 221.751 48.9909 221.626 48.943C221.501 48.8951 221.119 48.9728 220.777 49.1159C220.434 49.2589 220.117 49.376 220.073 49.376C219.973 49.376 221.083 46.8018 222.256 44.3168C223.079 42.5703 223.159 42.4663 223.76 42.3537C224.109 42.2881 224.421 42.1565 224.453 42.0612C224.484 41.966 225.244 41.756 226.142 41.5949C227.764 41.3034 227.776 41.304 228.266 41.6897C228.675 42.0109 228.958 42.0703 229.913 42.035C230.987 41.9954 231.09 41.9549 231.397 41.4507C231.593 41.1296 231.728 40.5724 231.728 40.0829C231.729 39.3451 231.653 39.1883 231.016 38.6123C230.419 38.0738 230.171 37.9678 229.503 37.9678C228.46 37.9678 227.635 38.6546 227.472 39.6589C227.343 40.451 227.064 40.5819 225.174 40.7346L224.056 40.8252L224.612 39.7084C224.918 39.0942 225.856 37.3779 226.696 35.8943C228.457 32.7867 228.361 32.8601 231.373 32.2851C235.485 31.4997 235.51 31.4975 236.524 31.8291C238.236 32.3892 239.55 31.6164 239.709 29.9551C239.809 28.9177 239.521 28.3451 238.627 27.7995C237.197 26.9275 235.116 27.948 235.116 29.5214C235.116 30.025 235.04 30.136 234.626 30.2343C234.356 30.2984 234.015 30.4507 233.868 30.5729C233.465 30.9075 230.386 31.5583 229.78 31.4371L229.25 31.3311L230.088 30.1195C231.187 28.533 233.508 25.5826 235.056 23.8065L236.291 22.3904L237.739 22.3804C239.028 22.3717 239.24 22.3218 239.67 21.925C241.038 20.6631 240.913 18.5191 239.412 17.5168C238.639 17.0004 237.23 16.966 236.445 17.4442ZM336.096 97.6826C336.274 97.8786 336.459 98.0391 336.508 98.0391C336.557 98.0391 336.452 97.8786 336.275 97.6826C336.097 97.4865 335.912 97.3261 335.863 97.3261C335.814 97.3261 335.919 97.4865 336.096 97.6826Z" fill="#374149"/>
<path fill-rule="evenodd" clip-rule="evenodd" d="M318.936 13.5473C318.936 13.8905 318.973 14.0309 319.018 13.8593C319.063 13.6876 319.063 13.407 319.018 13.2354C318.973 13.0637 318.936 13.2042 318.936 13.5473ZM190.886 14.9288C190.665 15.2115 190.671 15.2177 190.954 14.9962C191.251 14.7632 191.345 14.6168 191.198 14.6168C191.161 14.6168 191.021 14.7571 190.886 14.9288ZM318.936 18.1819C318.936 18.525 318.973 18.6655 319.018 18.4938C319.063 18.3222 319.063 18.0416 319.018 17.87C318.973 17.6983 318.936 17.8388 318.936 18.1819ZM197.717 40.9092C197.721 41.2033 197.761 41.302 197.806 41.1286C197.852 40.9552 197.848 40.7145 197.8 40.5938C197.751 40.4732 197.714 40.6151 197.717 40.9092ZM213.524 59.6703C213.303 59.953 213.309 59.9593 213.592 59.7377C213.763 59.6031 213.904 59.4626 213.904 59.4257C213.904 59.279 213.757 59.3733 213.524 59.6703ZM134.276 71.9122C130.989 72.9577 128.18 76.8462 126.767 82.3085C126.507 83.3133 126.246 84.1356 126.188 84.1356C126.13 84.1356 125.983 83.9181 125.862 83.6521C124.972 81.6997 121.722 77.6006 120.071 76.3491C117.816 74.64 114.96 73.6516 112.833 73.8445C111.493 73.966 110.658 74.473 110.026 75.5503C109.588 76.2962 109.531 76.5865 109.474 78.3774C109.409 80.3922 109.779 82.8313 110.429 84.6728C110.566 85.0635 110.642 85.3833 110.596 85.3833C110.55 85.3833 109.33 84.7922 107.886 84.0696C101.504 80.8785 96.5116 79.3888 92.6959 79.5373C90.2854 79.6311 89.326 80.0257 87.9827 81.4767C85.8775 83.7505 85.1676 86.9821 86.1455 89.8396L86.5419 90.9983L81.5508 91.0004C78.4995 91.0017 75.867 91.0926 74.7772 91.2343C70.9959 91.7263 66.9045 92.8553 64.9412 93.9489L64.0178 94.4632L63.713 93.5329C62.8198 90.8077 60.8485 88.0193 59.2701 87.2484C56.5652 85.9272 53.5856 86.4448 50.5633 88.7614L49.3761 89.6714V87.729C49.3761 83.8564 48.2759 80.0425 46.4886 77.7184C45.7963 76.8183 44.3324 75.4011 44.0948 75.4011C43.9602 75.4011 43.8503 75.3288 43.8503 75.2404C43.8503 74.73 41.6553 74.5236 40.8203 74.9553C39.4991 75.6386 38.2856 78.276 37.5394 82.0856C37.1934 83.8525 36.7216 87.6815 36.7162 88.7648L36.7123 89.5723L36.3636 89.1266C36.1718 88.8815 36.0132 88.6152 36.0111 88.5348C36.0089 88.4544 35.751 88.0133 35.438 87.5544C33.7111 85.0232 30.6941 82.402 28.9114 81.8839C26.6376 81.2227 24.5857 81.8454 23.6228 83.4881C22.621 85.1978 22.3841 88.9357 23.0594 92.3798L23.2954 93.583L21.8526 93.5846C18.7296 93.5881 13.5743 94.4323 9.76274 95.5644C6.39447 96.565 0 99.3643 0 99.8384C0 99.9348 28.7371 100 71.2822 100C133.019 100 142.578 99.9659 142.662 99.7445C142.778 99.4423 145.634 97.7343 147.12 97.0781C148.852 96.3133 150.951 95.7199 152.34 95.6026C153.063 95.5414 153.654 95.4716 153.654 95.4471C153.654 95.4227 153.409 94.8277 153.11 94.1247C152.811 93.4216 152.324 92.1596 152.028 91.3204C151.55 89.9662 151.282 89.3158 150.357 87.255C150.225 86.9609 149.465 85.1159 148.668 83.1552C146.339 77.4236 145.835 76.4933 144.146 74.802C142.589 73.2434 141.194 72.4063 139.394 71.9509C138.115 71.6274 135.24 71.6056 134.276 71.9122ZM346.702 86.6985C346.702 86.7354 346.843 86.8758 347.014 87.0104C347.297 87.232 347.303 87.2257 347.082 86.943C346.849 86.6461 346.702 86.5518 346.702 86.6985Z" fill="#E3E3E3"/>
<path fill-rule="evenodd" clip-rule="evenodd" d="M233.512 30.6597C233.351 30.7634 233.329 30.8335 233.457 30.8353C233.573 30.8367 233.718 30.7577 233.779 30.6597C233.916 30.4383 233.854 30.4383 233.512 30.6597ZM214.059 30.9716C213.838 31.2543 213.844 31.2606 214.127 31.039C214.298 30.9044 214.439 30.764 214.439 30.7271C214.439 30.5804 214.292 30.6747 214.059 30.9716ZM228.844 37.9116C228.972 37.9631 229.126 37.9567 229.185 37.8975C229.245 37.8383 229.139 37.7962 228.951 37.8039C228.744 37.8125 228.702 37.8547 228.844 37.9116ZM197.519 38.785C197.527 38.9927 197.569 39.0349 197.626 38.8929C197.678 38.7642 197.671 38.6103 197.612 38.5511C197.553 38.492 197.511 38.5971 197.519 38.785ZM197.718 41.8005C197.721 42.0946 197.761 42.1934 197.806 42.0199C197.852 41.8465 197.849 41.6059 197.8 41.4852C197.751 41.3645 197.714 41.5064 197.718 41.8005ZM214.951 42.9146C214.729 43.1973 214.735 43.2035 215.018 42.982C215.315 42.749 215.409 42.6027 215.263 42.6027C215.226 42.6027 215.085 42.7429 214.951 42.9146ZM228.555 47.8611C228.559 48.1552 228.599 48.254 228.644 48.0805C228.689 47.9071 228.686 47.6665 228.638 47.5458C228.589 47.4251 228.552 47.567 228.555 47.8611ZM224.078 47.8759C224.087 48.0836 224.129 48.1258 224.186 47.9838C224.238 47.8551 224.231 47.7012 224.172 47.642C224.113 47.5829 224.071 47.688 224.078 47.8759ZM224.421 49.0871C224.421 49.124 224.561 49.2645 224.733 49.3991C225.015 49.6207 225.022 49.6144 224.8 49.3317C224.567 49.0347 224.421 48.9404 224.421 49.0871ZM226.161 50.0371C226.383 50.0797 226.704 50.0781 226.874 50.0335C227.044 49.9889 226.863 49.954 226.471 49.956C226.079 49.9579 225.939 49.9945 226.161 50.0371ZM214.154 59.0465L213.815 59.4476L214.216 59.108C214.593 58.7889 214.698 58.6454 214.555 58.6454C214.522 58.6454 214.341 58.8258 214.154 59.0465ZM333.155 59.9606C333.155 59.9975 333.296 60.1379 333.467 60.2725C333.75 60.4941 333.756 60.4879 333.535 60.2051C333.302 59.9082 333.155 59.8139 333.155 59.9606ZM165.464 61.9768C165.635 62.0217 165.916 62.0217 166.087 61.9768C166.259 61.9321 166.119 61.8953 165.776 61.8953C165.432 61.8953 165.292 61.9321 165.464 61.9768ZM167.929 64.097C167.937 64.3046 167.979 64.3469 168.036 64.2048C168.088 64.0761 168.081 63.9223 168.022 63.8631C167.963 63.8039 167.921 63.9091 167.929 64.097ZM206.027 66.2538C206.156 66.3053 206.31 66.2989 206.369 66.2397C206.428 66.1805 206.323 66.1385 206.135 66.1461C205.927 66.1547 205.885 66.197 206.027 66.2538ZM206.774 66.2021C206.774 66.2406 206.898 66.3199 207.05 66.3784C207.209 66.4392 207.281 66.4093 207.218 66.3084C207.114 66.1388 206.774 66.0577 206.774 66.2021ZM208.2 67.269C208.2 67.3059 208.34 67.4463 208.512 67.5809C208.794 67.8025 208.801 67.7962 208.579 67.5135C208.346 67.2166 208.2 67.1223 208.2 67.269ZM209.537 68.6276C209.92 69.0198 210.273 69.3406 210.322 69.3406C210.371 69.3406 210.098 69.0198 209.715 68.6276C209.332 68.2355 208.979 67.9146 208.93 67.9146C208.881 67.9146 209.154 68.2355 209.537 68.6276ZM277.897 68.1602C277.897 68.1971 278.037 68.3376 278.209 68.4722C278.491 68.6937 278.498 68.6875 278.276 68.4048C278.043 68.1078 277.897 68.0135 277.897 68.1602ZM175.059 72.6531C175.067 72.8608 175.11 72.903 175.166 72.7609C175.218 72.6322 175.212 72.4784 175.152 72.4192C175.093 72.3601 175.051 72.4652 175.059 72.6531ZM284.046 73.7969C284.429 74.1891 284.783 74.51 284.832 74.51C284.881 74.51 284.608 74.1891 284.225 73.7969C283.842 73.4048 283.488 73.0839 283.439 73.0839C283.39 73.0839 283.664 73.4048 284.046 73.7969ZM175.059 73.5444C175.067 73.752 175.11 73.7943 175.166 73.6522C175.218 73.5235 175.212 73.3697 175.152 73.3105C175.093 73.2513 175.051 73.3565 175.059 73.5444ZM168.806 75.6686C170.028 76.8941 171.069 77.8968 171.118 77.8968C171.167 77.8968 170.207 76.8941 168.984 75.6686C167.762 74.4431 166.721 73.4404 166.672 73.4404C166.623 73.4404 167.583 74.4431 168.806 75.6686ZM171.391 74.6882C171.568 74.8843 171.753 75.0447 171.802 75.0447C171.851 75.0447 171.746 74.8843 171.569 74.6882C171.391 74.4921 171.206 74.3317 171.157 74.3317C171.108 74.3317 171.213 74.4921 171.391 74.6882ZM174.487 74.6437C174.266 74.9264 174.272 74.9326 174.555 74.711C174.851 74.4781 174.946 74.3317 174.799 74.3317C174.762 74.3317 174.622 74.4722 174.487 74.6437ZM214.26 74.5773C214.26 74.6142 214.401 74.7547 214.572 74.8893C214.855 75.1109 214.861 75.1046 214.64 74.8219C214.407 74.5249 214.26 74.4306 214.26 74.5773ZM285.74 75.3121C286.073 75.6552 286.385 75.936 286.434 75.936C286.483 75.936 286.251 75.6552 285.918 75.3121C285.586 74.969 285.273 74.6882 285.224 74.6882C285.175 74.6882 285.407 74.969 285.74 75.3121ZM215.419 75.7577C215.596 75.9538 215.782 76.1142 215.831 76.1142C215.88 76.1142 215.775 75.9538 215.597 75.7577C215.42 75.5617 215.235 75.4012 215.186 75.4012C215.136 75.4012 215.242 75.5617 215.419 75.7577ZM173.672 76.8273C173.672 77.3665 173.705 77.587 173.746 77.3174C173.787 77.0479 173.787 76.6066 173.746 76.3371C173.705 76.0675 173.672 76.288 173.672 76.8273ZM287.166 76.5599C287.396 76.805 287.625 77.0055 287.674 77.0055C287.723 77.0055 287.574 76.805 287.344 76.5599C287.114 76.3148 286.885 76.1142 286.836 76.1142C286.787 76.1142 286.936 76.3148 287.166 76.5599ZM172.578 77.1497C172.558 77.5647 172.483 77.7023 172.326 77.6137C172.15 77.5139 172.149 77.5369 172.323 77.7251C172.634 78.0599 172.765 77.8511 172.679 77.1563L172.606 76.5599L172.578 77.1497ZM217.112 76.9073C217.112 76.9563 217.353 77.1208 217.647 77.2729C217.941 77.4249 218.182 77.5092 218.182 77.4602C218.182 77.4112 217.941 77.2467 217.647 77.0946C217.353 76.9426 217.112 76.8583 217.112 76.9073ZM288.325 77.5403C288.502 77.7363 288.687 77.8968 288.736 77.8968C288.785 77.8968 288.68 77.7363 288.503 77.5403C288.325 77.3442 288.14 77.1838 288.091 77.1838C288.042 77.1838 288.147 77.3442 288.325 77.5403ZM163.358 78.2978L162.834 78.8772L163.414 78.3536C163.732 78.0658 163.993 77.805 163.993 77.7743C163.993 77.6365 163.846 77.7579 163.358 78.2978ZM289.572 78.6098C289.75 78.8059 289.935 78.9663 289.984 78.9663C290.033 78.9663 289.928 78.8059 289.751 78.6098C289.573 78.4137 289.388 78.2533 289.339 78.2533C289.29 78.2533 289.395 78.4137 289.572 78.6098ZM290.374 79.2119C290.374 79.2488 290.515 79.3893 290.686 79.5239C290.969 79.7454 290.975 79.7392 290.754 79.4565C290.521 79.1595 290.374 79.0652 290.374 79.2119ZM221.925 79.3994C221.925 79.4485 222.086 79.5743 222.282 79.6793C222.478 79.7843 222.638 79.8299 222.638 79.7809C222.638 79.7319 222.478 79.606 222.282 79.501C222.086 79.3961 221.925 79.3504 221.925 79.3994ZM174.866 80.4814C175.097 80.7265 175.325 80.9271 175.374 80.9271C175.423 80.9271 175.275 80.7265 175.045 80.4814C174.814 80.2363 174.586 80.0358 174.537 80.0358C174.488 80.0358 174.636 80.2363 174.866 80.4814ZM291.444 80.1032C291.444 80.1401 291.584 80.2805 291.756 80.4151C292.039 80.6367 292.045 80.6305 291.823 80.3477C291.59 80.0508 291.444 79.9565 291.444 80.1032ZM170.725 80.3433C171.046 80.3829 171.527 80.3822 171.795 80.3415C172.063 80.3007 171.8 80.2682 171.212 80.2693C170.624 80.2702 170.405 80.3035 170.725 80.3433ZM173.173 80.3923C173.234 80.4904 173.318 80.5706 173.362 80.5706C173.405 80.5706 173.44 80.4904 173.44 80.3923C173.44 80.2943 173.355 80.2141 173.252 80.2141C173.148 80.2141 173.112 80.2943 173.173 80.3923ZM225.045 81.4618C225.222 81.6579 225.407 81.8183 225.456 81.8183C225.505 81.8183 225.4 81.6579 225.223 81.4618C225.046 81.2658 224.86 81.1053 224.811 81.1053C224.762 81.1053 224.867 81.2658 225.045 81.4618ZM176.203 81.9966C176.381 82.1927 176.566 82.3531 176.615 82.3531C176.664 82.3531 176.559 82.1927 176.382 81.9966C176.204 81.8005 176.019 81.6401 175.97 81.6401C175.921 81.6401 176.026 81.8005 176.203 81.9966ZM293.405 81.7075C293.405 81.7444 293.545 81.8848 293.717 82.0194C293.999 82.241 294.006 82.2347 293.784 81.952C293.551 81.6551 293.405 81.5608 293.405 81.7075ZM294.296 82.4205C294.296 82.4574 294.436 82.5978 294.608 82.7324C294.891 82.954 294.897 82.9478 294.675 82.665C294.442 82.3681 294.296 82.2738 294.296 82.4205ZM175.579 82.977C175.81 83.2221 176.038 83.4226 176.087 83.4226C176.136 83.4226 175.988 83.2221 175.758 82.977C175.527 82.7319 175.299 82.5313 175.25 82.5313C175.201 82.5313 175.349 82.7319 175.579 82.977ZM286.23 82.6493C286.353 82.6989 286.553 82.6989 286.676 82.6493C286.798 82.6 286.698 82.5595 286.453 82.5595C286.208 82.5595 286.108 82.6 286.23 82.6493ZM287.302 82.6574C287.523 82.7 287.844 82.6984 288.015 82.6538C288.185 82.6092 288.004 82.5743 287.612 82.5763C287.219 82.5782 287.08 82.6148 287.302 82.6574ZM310.127 82.6531C310.256 82.7046 310.41 82.6982 310.469 82.639C310.528 82.5798 310.423 82.5378 310.235 82.5454C310.027 82.554 309.985 82.5962 310.127 82.6531ZM311.375 82.6531C311.504 82.7046 311.657 82.6982 311.717 82.639C311.776 82.5798 311.671 82.5378 311.483 82.5454C311.275 82.554 311.233 82.5962 311.375 82.6531ZM285.623 82.9846C285.565 83.136 285.557 83.2996 285.606 83.3483C285.655 83.3969 285.737 83.2731 285.79 83.0732C285.901 82.6485 285.777 82.5829 285.623 82.9846ZM288.915 82.8314C289.044 82.8829 289.197 82.8764 289.257 82.8173C289.316 82.7581 289.211 82.716 289.023 82.7237C288.815 82.7322 288.773 82.7745 288.915 82.8314ZM177.273 83.2444C177.45 83.4404 177.636 83.6009 177.685 83.6009C177.734 83.6009 177.628 83.4404 177.451 83.2444C177.274 83.0483 177.088 82.8879 177.039 82.8879C176.99 82.8879 177.095 83.0483 177.273 83.2444ZM295.187 83.1335C295.187 83.1704 295.328 83.3108 295.499 83.4454C295.782 83.667 295.788 83.6608 295.567 83.3781C295.334 83.0811 295.187 82.9868 295.187 83.1335ZM296.079 83.8465C296.079 83.8834 296.219 84.0239 296.391 84.1584C296.673 84.38 296.679 84.3738 296.458 84.0911C296.225 83.7941 296.079 83.6998 296.079 83.8465ZM285.918 84.0248C285.918 84.0616 286.058 84.2021 286.23 84.3367C286.513 84.5583 286.519 84.552 286.297 84.2693C286.064 83.9723 285.918 83.878 285.918 84.0248ZM176.649 84.203C176.649 84.2399 176.789 84.3804 176.961 84.5149C177.244 84.7365 177.25 84.7303 177.028 84.4476C176.795 84.1506 176.649 84.0563 176.649 84.203ZM178.075 84.203C178.075 84.2399 178.215 84.3804 178.387 84.5149C178.67 84.7365 178.676 84.7303 178.454 84.4476C178.221 84.1506 178.075 84.0563 178.075 84.203ZM315.063 84.6704C315.24 84.8665 315.425 85.0269 315.474 85.0269C315.523 85.0269 315.418 84.8665 315.241 84.6704C315.063 84.4743 314.878 84.3139 314.829 84.3139C314.78 84.3139 314.885 84.4743 315.063 84.6704ZM297.594 85.2051C297.533 85.3032 297.569 85.3834 297.672 85.3834C297.776 85.3834 297.861 85.3032 297.861 85.2051C297.861 85.1071 297.826 85.0269 297.782 85.0269C297.739 85.0269 297.654 85.1071 297.594 85.2051ZM178.966 85.2725C178.966 85.3094 179.107 85.4499 179.278 85.5845C179.561 85.806 179.567 85.7998 179.346 85.5171C179.113 85.2201 178.966 85.1258 178.966 85.2725ZM181.261 85.8736C181.039 86.1563 181.045 86.1625 181.328 85.941C181.5 85.8064 181.64 85.6659 181.64 85.629C181.64 85.4823 181.494 85.5766 181.261 85.8736ZM317.283 86.854C318.022 87.641 318.182 87.7825 318.182 87.6486C318.182 87.6201 317.801 87.239 317.335 86.8019L316.489 86.0073L317.283 86.854ZM306.98 86.6312C306.98 86.8763 307.021 86.9766 307.07 86.854C307.12 86.7315 307.12 86.531 307.07 86.4084C307.021 86.2859 306.98 86.3861 306.98 86.6312ZM177.32 86.7572C177.541 86.7998 177.862 86.7982 178.033 86.7536C178.203 86.7091 178.022 86.6741 177.629 86.6761C177.237 86.6781 177.098 86.7146 177.32 86.7572ZM306.802 87.8789C306.802 88.124 306.842 88.2244 306.892 88.1018C306.941 87.9793 306.941 87.7788 306.892 87.6561C306.842 87.5337 306.802 87.6338 306.802 87.8789ZM228.699 88.1246C228.699 88.1615 228.839 88.3019 229.011 88.4365C229.294 88.6581 229.3 88.6518 229.078 88.3691C228.845 88.0722 228.699 87.9779 228.699 88.1246ZM319.697 89.4832C320.378 90.1695 320.975 90.731 321.024 90.731C321.073 90.731 320.556 90.1695 319.875 89.4832C319.194 88.7969 318.597 88.2355 318.548 88.2355C318.499 88.2355 319.016 88.7969 319.697 89.4832ZM299.076 89.4267C299.204 89.4782 299.358 89.4718 299.417 89.4126C299.476 89.3535 299.371 89.3114 299.183 89.319C298.976 89.3276 298.933 89.3699 299.076 89.4267ZM306.038 89.9734C305.816 90.2561 305.823 90.2624 306.105 90.0408C306.402 89.8078 306.497 89.6615 306.35 89.6615C306.313 89.6615 306.173 89.8019 306.038 89.9734ZM301.036 89.9615C301.165 90.013 301.319 90.0066 301.378 89.9474C301.437 89.8882 301.332 89.8461 301.144 89.8538C300.936 89.8624 300.894 89.9046 301.036 89.9615ZM301.749 90.1397C301.878 90.1912 302.032 90.1848 302.091 90.1256C302.15 90.0665 302.045 90.0244 301.857 90.0321C301.649 90.0406 301.607 90.0829 301.749 90.1397ZM302.462 90.318C302.591 90.3695 302.745 90.3631 302.804 90.3039C302.863 90.2447 302.758 90.2027 302.57 90.2103C302.362 90.2189 302.32 90.2611 302.462 90.318ZM233.155 90.6419C233.4 90.782 233.681 90.8966 233.779 90.8966C233.877 90.8966 233.757 90.782 233.512 90.6419C233.267 90.5018 232.986 90.3871 232.888 90.3871C232.79 90.3871 232.91 90.5018 233.155 90.6419ZM303.175 90.4962C303.304 90.5478 303.458 90.5413 303.517 90.4822C303.576 90.423 303.471 90.3809 303.283 90.3886C303.075 90.3971 303.033 90.4394 303.175 90.4962ZM303.888 90.6745C304.017 90.726 304.171 90.7196 304.23 90.6604C304.289 90.6012 304.184 90.5592 303.996 90.5668C303.788 90.5754 303.746 90.6176 303.888 90.6745ZM304.601 90.8527C304.73 90.9043 304.884 90.8978 304.943 90.8387C305.002 90.7795 304.897 90.7374 304.709 90.7451C304.501 90.7536 304.459 90.7959 304.601 90.8527ZM321.376 90.974C321.613 91.2663 322.282 91.7084 322.282 91.5729C322.282 91.5388 322.021 91.3201 321.702 91.087C321.344 90.8246 321.219 90.7814 321.376 90.974ZM234.581 91.2658C234.728 91.3608 234.929 91.4385 235.027 91.4385C235.125 91.4385 235.085 91.3608 234.938 91.2658C234.791 91.1707 234.59 91.093 234.492 91.093C234.394 91.093 234.434 91.1707 234.581 91.2658ZM322.591 91.8226C322.712 91.9445 322.856 91.9993 322.91 91.9444C322.965 91.8895 322.866 91.7898 322.691 91.7228C322.436 91.6262 322.416 91.6465 322.591 91.8226ZM326.153 91.9103C326.093 91.9707 325.778 92.0887 325.455 92.1727L324.866 92.3255L325.49 92.2274C327.669 91.8848 327.829 91.9062 329.51 92.7622C330.387 93.2091 330.945 93.4476 330.749 93.2923C329.892 92.6142 327.894 91.8005 327.085 91.8005C326.633 91.8005 326.213 91.8499 326.153 91.9103ZM236.72 92.157C236.867 92.252 237.068 92.3297 237.166 92.3297C237.264 92.3297 237.224 92.252 237.077 92.157C236.93 92.062 236.729 91.9843 236.631 91.9843C236.533 91.9843 236.573 92.062 236.72 92.157ZM323.351 92.1545C323.498 92.251 323.813 92.331 324.049 92.3326C324.622 92.3362 324.477 92.2347 323.708 92.0937C323.269 92.0132 323.163 92.0312 323.351 92.1545ZM239.929 93.4048C240.076 93.4998 240.276 93.5775 240.374 93.5775C240.473 93.5775 240.432 93.4998 240.285 93.4048C240.138 93.3098 239.938 93.2321 239.84 93.2321C239.742 93.2321 239.782 93.3098 239.929 93.4048ZM331.194 93.6296C331.194 93.747 333.105 95.1873 333.261 95.1873C333.327 95.1873 333.19 95.0417 332.956 94.8636C331.659 93.875 331.194 93.5499 331.194 93.6296ZM241.355 93.9395C241.502 94.0346 241.702 94.1123 241.8 94.1123C241.899 94.1123 241.858 94.0346 241.711 93.9395C241.564 93.8445 241.364 93.7668 241.266 93.7668C241.168 93.7668 241.208 93.8445 241.355 93.9395ZM152.451 95.6666C152.623 95.7116 152.904 95.7116 153.075 95.6666C153.246 95.6219 153.106 95.5852 152.763 95.5852C152.42 95.5852 152.28 95.6219 152.451 95.6666Z" fill="#6880AC"/>
<path fill-rule="evenodd" clip-rule="evenodd" d="M229.367 37.9077C229.49 37.9573 229.69 37.9573 229.813 37.9077C229.936 37.8583 229.835 37.8179 229.59 37.8179C229.345 37.8179 229.245 37.8583 229.367 37.9077ZM230.927 38.5027C231.104 38.6988 231.29 38.8592 231.339 38.8592C231.388 38.8592 231.283 38.6988 231.105 38.5027C230.928 38.3066 230.743 38.1462 230.694 38.1462C230.645 38.1462 230.75 38.3066 230.927 38.5027ZM227.225 40.0927C227.147 40.3892 227.171 40.4589 227.303 40.3266C227.407 40.2229 227.456 40.033 227.413 39.9043C227.369 39.7708 227.288 39.8517 227.225 40.0927ZM227.808 41.4221C227.808 41.459 227.948 41.5995 228.12 41.7341C228.402 41.9557 228.409 41.9494 228.187 41.6667C227.954 41.3697 227.808 41.2754 227.808 41.4221ZM229.282 42.1913C229.455 42.2366 229.696 42.2336 229.816 42.1847C229.937 42.1359 229.795 42.099 229.501 42.1025C229.207 42.1061 229.108 42.146 229.282 42.1913ZM224.599 49.087C224.599 49.1239 224.739 49.2644 224.911 49.399C225.194 49.6205 225.2 49.6143 224.978 49.3316C224.745 49.0346 224.599 48.9403 224.599 49.087ZM164.065 62.7897L163.726 63.1908L164.127 62.8512C164.504 62.5321 164.609 62.3886 164.466 62.3886C164.432 62.3886 164.252 62.569 164.065 62.7897ZM205.671 66.432C205.799 66.4835 205.953 66.4771 206.012 66.4179C206.072 66.3587 205.966 66.3166 205.779 66.3243C205.571 66.3328 205.529 66.3751 205.671 66.432ZM207.309 66.5442C207.309 66.5749 207.569 66.8357 207.888 67.1236L208.467 67.6471L207.944 67.0678C207.456 66.5279 207.309 66.4065 207.309 66.5442ZM210.606 69.8753C210.784 70.0713 210.969 70.2318 211.018 70.2318C211.067 70.2318 210.962 70.0713 210.784 69.8753C210.607 69.6792 210.422 69.5188 210.373 69.5188C210.324 69.5188 210.429 69.6792 210.606 69.8753ZM282.799 72.7273C283.182 73.1195 283.535 73.4403 283.584 73.4403C283.633 73.4403 283.36 73.1195 282.977 72.7273C282.594 72.3352 282.241 72.0143 282.192 72.0143C282.143 72.0143 282.416 72.3352 282.799 72.7273ZM167.38 72.6626C167.38 72.7578 167.681 73.112 168.048 73.45L168.717 74.0642L168.093 73.3532C167.75 72.9621 167.449 72.6079 167.424 72.5658C167.4 72.5239 167.38 72.5674 167.38 72.6626ZM170.795 73.0838C170.795 73.3289 170.835 73.4293 170.885 73.3066C170.934 73.1842 170.934 72.9836 170.885 72.861C170.835 72.7385 170.795 72.8387 170.795 73.0838ZM284.849 74.5772C284.849 74.6141 284.989 74.7546 285.161 74.8892C285.443 75.1107 285.45 75.1045 285.228 74.8218C284.995 74.5248 284.849 74.4305 284.849 74.5772ZM214.439 74.9221C214.439 74.9528 214.699 75.2136 215.018 75.5015L215.597 76.025L215.074 75.4457C214.586 74.9057 214.439 74.7844 214.439 74.9221ZM173.522 75.2348C173.458 75.3393 173.443 75.4631 173.49 75.5098C173.536 75.5565 173.622 75.471 173.68 75.3197C173.801 75.0056 173.698 74.9503 173.522 75.2348ZM172.594 76.025C172.596 76.4172 172.633 76.5566 172.675 76.3348C172.718 76.1131 172.716 75.7922 172.672 75.6218C172.627 75.4514 172.592 75.6328 172.594 76.025ZM171.212 76.6489C171.695 77.1391 172.13 77.5401 172.179 77.5401C172.228 77.5401 171.873 77.1391 171.39 76.6489C170.908 76.1587 170.472 75.7576 170.423 75.7576C170.374 75.7576 170.729 76.1587 171.212 76.6489ZM287.701 77.0728C287.701 77.1097 287.841 77.2501 288.013 77.3847C288.295 77.6063 288.302 77.6 288.08 77.3173C287.847 77.0204 287.701 76.9261 287.701 77.0728ZM164.84 77.6582C164.962 77.7077 165.163 77.7077 165.285 77.6582C165.408 77.6088 165.308 77.5683 165.063 77.5683C164.817 77.5683 164.717 77.6088 164.84 77.6582ZM173.667 78.4314C173.667 78.8726 173.702 79.0532 173.745 78.8325C173.787 78.6118 173.787 78.251 173.745 78.0303C173.702 77.8097 173.667 77.9902 173.667 78.4314ZM171.123 77.9524C171.123 77.9831 171.384 78.2439 171.702 78.5318L172.282 79.0553L171.758 78.476C171.27 77.9361 171.123 77.8147 171.123 77.9524ZM289.038 78.2532C289.215 78.4492 289.4 78.6097 289.449 78.6097C289.498 78.6097 289.393 78.4492 289.216 78.2532C289.038 78.0571 288.853 77.8967 288.804 77.8967C288.755 77.8967 288.86 78.0571 289.038 78.2532ZM220.677 78.8697C220.677 78.9188 220.998 79.1227 221.39 79.3227C221.783 79.5227 222.104 79.6464 222.104 79.5974C222.104 79.5483 221.783 79.3444 221.39 79.1444C220.998 78.9444 220.677 78.8207 220.677 78.8697ZM290.018 79.0336C290.018 79.0705 290.158 79.2109 290.33 79.3455C290.613 79.5671 290.619 79.5608 290.397 79.2781C290.164 78.9811 290.018 78.8869 290.018 79.0336ZM168.324 79.277C169.088 79.3106 170.291 79.3104 170.998 79.2767C171.704 79.2428 171.079 79.2155 169.608 79.2157C168.137 79.2159 167.559 79.2435 168.324 79.277ZM174.064 79.6792C174.242 79.8753 174.427 80.0357 174.476 80.0357C174.525 80.0357 174.42 79.8753 174.243 79.6792C174.065 79.4831 173.88 79.3227 173.831 79.3227C173.782 79.3227 173.887 79.4831 174.064 79.6792ZM291.177 80.0357C291.354 80.2318 291.539 80.3922 291.588 80.3922C291.637 80.3922 291.532 80.2318 291.355 80.0357C291.177 79.8396 290.992 79.6792 290.943 79.6792C290.894 79.6792 290.999 79.8396 291.177 80.0357ZM169.653 80.3319C169.775 80.3815 169.976 80.3815 170.098 80.3319C170.221 80.2826 170.12 80.2421 169.875 80.2421C169.63 80.2421 169.53 80.2826 169.653 80.3319ZM223.53 80.4546C223.53 80.4958 223.74 80.6672 223.997 80.8359C224.254 81.0043 224.41 81.0541 224.344 80.9464C224.217 80.7407 223.53 80.3255 223.53 80.4546ZM291.979 80.6378C291.979 80.6747 292.119 80.8152 292.291 80.9498C292.573 81.1713 292.58 81.1651 292.358 80.8824C292.125 80.5854 291.979 80.4911 291.979 80.6378ZM175.49 81.2835C175.668 81.4795 175.853 81.64 175.902 81.64C175.951 81.64 175.846 81.4795 175.669 81.2835C175.491 81.0874 175.306 80.927 175.257 80.927C175.208 80.927 175.313 81.0874 175.49 81.2835ZM292.87 81.3508C292.87 81.3877 293.01 81.5282 293.182 81.6628C293.465 81.8844 293.471 81.8781 293.249 81.5954C293.016 81.2984 292.87 81.2041 292.87 81.3508ZM225.758 82.1747C225.935 82.3708 226.12 82.5312 226.169 82.5312C226.218 82.5312 226.113 82.3708 225.936 82.1747C225.759 81.9787 225.573 81.8182 225.524 81.8182C225.475 81.8182 225.58 81.9787 225.758 82.1747ZM176.471 82.4204C176.471 82.4573 176.611 82.5977 176.783 82.7323C177.065 82.9539 177.072 82.9476 176.85 82.6649C176.617 82.368 176.471 82.2737 176.471 82.4204ZM309.909 82.7268C308.113 83.158 307.474 84.0959 307.05 86.9246C306.901 87.9193 306.693 88.9621 306.587 89.2419C306.36 89.845 305.376 90.9091 305.045 90.9091C304.918 90.9091 304.833 90.9975 304.858 91.1056C304.933 91.4401 303.029 92.2868 301.109 92.7721C297.671 93.6412 296.086 94.4665 294.162 96.3911C293.274 97.2787 291.8 99.3499 291.8 99.71C291.8 99.7701 302.268 99.8398 315.063 99.8651C327.857 99.8902 338.325 99.861 338.325 99.7999C338.325 99.7387 337.474 98.8965 336.435 97.9282C333.809 95.4826 333.47 95.1872 333.288 95.1872C333.2 95.1872 332.638 94.8102 332.04 94.3494C331.441 93.8888 330.268 93.1603 329.433 92.7307C328.022 92.0045 327.846 91.9573 326.926 92.0578C323.863 92.392 323.777 92.3888 322.813 91.9043C321.492 91.2409 320.542 90.4061 318.237 87.8847C314.162 83.4255 312.161 82.1861 309.909 82.7268ZM176.382 83.779C176.559 83.9751 176.744 84.1355 176.793 84.1355C176.842 84.1355 176.737 83.9751 176.56 83.779C176.382 83.5829 176.197 83.4225 176.148 83.4225C176.099 83.4225 176.204 83.5829 176.382 83.779ZM177.184 84.7377C177.184 84.7745 177.324 84.915 177.496 85.0496C177.778 85.2712 177.785 85.2649 177.563 84.9822C177.33 84.6852 177.184 84.591 177.184 84.7377ZM178.075 85.8072C178.075 85.8441 178.215 85.9845 178.387 86.1191C178.67 86.3407 178.676 86.3344 178.454 86.0517C178.221 85.7548 178.075 85.6605 178.075 85.8072ZM170.9 86.3926C171.023 86.4421 171.223 86.4421 171.346 86.3926C171.469 86.3432 171.368 86.3027 171.123 86.3027C170.878 86.3027 170.778 86.3432 170.9 86.3926ZM178.398 86.7528C178.527 86.8043 178.681 86.7979 178.74 86.7387C178.799 86.6795 178.694 86.6375 178.506 86.6451C178.298 86.6537 178.256 86.6959 178.398 86.7528ZM151.649 95.84C151.772 95.8895 151.972 95.8895 152.095 95.84C152.217 95.7906 152.117 95.7501 151.872 95.7501C151.627 95.7501 151.527 95.7906 151.649 95.84ZM150.769 96.022C150.897 96.0735 151.051 96.0671 151.11 96.0079C151.17 95.9487 151.064 95.9066 150.877 95.9143C150.669 95.9229 150.627 95.9651 150.769 96.022Z" fill="#546C94"/>
</g>
<defs>
<clipPath id="clip0_172_1626">
<rect width="365" height="100" fill="white"/>
</clipPath>
</defs>
</svg>
