<svg width="365" height="100" viewBox="0 0 365 100" fill="none" xmlns="http://www.w3.org/2000/svg">
<g clip-path="url(#clip0_172_1633)">
<path fill-rule="evenodd" clip-rule="evenodd" d="M52.6315 1.36154C53.3147 1.79933 54.4379 3.40397 55.0608 4.83249C58.0186 11.6138 59.6282 27.2277 59.6642 49.4849L59.6782 58.1302L60.1972 56.5259C60.4826 55.6435 60.9965 53.558 61.3391 51.8913C62.9074 44.2633 64.9703 37.0475 66.8913 32.4706C67.7059 30.53 69.1519 28.3309 69.9728 27.7845C71.1742 26.9851 72.4764 27.3901 73.1876 28.7842C73.8065 29.9972 73.97 31.4678 73.8603 34.8341C73.6815 40.3254 72.2227 48.0257 69.3288 58.7541C68.7865 60.7639 68.3054 62.5687 68.2593 62.7648C68.1505 63.228 68.6425 62.4082 70.8796 58.3976C77.3448 46.8059 80.6999 41.6844 84.2015 38.0612C86.5006 35.6822 88.0008 34.9245 89.3204 35.476C89.8172 35.6835 90.0578 35.9459 90.3432 36.591C91.6926 39.6416 88.679 47.0428 81.3915 58.5758C78.3737 63.3517 73.9698 70.0088 72.0988 72.6225C71.2077 73.8674 70.3937 75.0063 70.2899 75.1533C70.1862 75.3004 70.6981 74.8549 71.4275 74.1635C72.1571 73.4719 73.155 72.5574 73.6452 72.1311C74.1354 71.7049 75.2584 70.6615 76.1407 69.8125C81.761 64.4052 87.5963 60.3583 89.7726 60.3583C90.5088 60.3583 90.702 60.4337 91.0302 60.8485C91.3534 61.2573 91.4006 61.487 91.3145 62.23C91.1708 63.468 90.1942 65.3423 88.7614 67.1289C87.3765 68.856 83.4806 72.8361 83.1749 72.8361C83.0628 72.8361 81.7953 73.891 80.3582 75.1803C77.2869 77.9355 72.1457 82.2457 69.2275 84.5116C67.3085 86.0018 66.6978 86.612 67.4509 86.2867C68.33 85.907 73.4325 84.3915 74.9081 84.0717C76.594 83.7065 78.7017 83.5637 79.0676 83.7899C79.4377 84.0184 79.2553 84.7136 78.6808 85.2655C76.9953 86.8844 71.9127 88.7738 63.2575 90.999L59.8216 91.8824L59.2313 91.2744C58.5694 90.5929 58.3452 89.9592 58.0453 87.9216C57.6527 85.253 57.0689 84.3024 55.5042 83.7826C54.3521 83.3999 53.184 83.52 51.8671 84.1562C51.0302 84.5607 50.1026 85.3902 47.0855 88.4325C44.0778 91.4653 43.1389 92.3052 42.3079 92.7074C41.1894 93.2485 39.7263 93.3808 39.0225 93.0041C37.8799 92.3926 35.8473 93.1084 33.0926 95.0927C32.2593 95.6931 31.4908 96.1849 31.3849 96.1858C31.0076 96.1886 26.7323 94.9549 24.8929 94.3123C22.2118 93.3754 19.6396 92.0079 18.5206 90.9239C17.6774 90.1074 17.5846 89.9412 17.5846 89.2519C17.5846 88.6234 17.6899 88.3813 18.1746 87.8967C18.4992 87.5721 19.1209 87.202 19.5561 87.0744C20.4438 86.814 25.1582 86.7464 27.4776 86.9608L28.9036 87.0926L26.6755 85.9138C19.6229 82.1828 11.72 76.7658 8.1195 73.1947C5.44517 70.5423 4.7614 68.9735 5.64696 67.5209C6.81969 65.5976 10.5405 65.9156 15.3903 68.3535C19.6849 70.5123 25.9651 74.5193 29.884 77.6009C30.2272 77.8708 29.055 76.5681 27.279 74.7063C21.9286 69.0965 19.1739 66.0585 16.7193 63.0608C15.9698 62.1453 14.2885 60.14 12.9831 58.6045C7.01042 51.579 2.19205 44.7457 0.53537 40.951C-0.0482309 39.6145 -0.0582204 39.548 -0.0603594 36.9672L-0.0624918 34.3425L0.516831 34.0371C3.47851 32.4753 9.1081 36.6295 17.9484 46.9002C20.9512 50.389 27.3903 58.6801 29.7846 62.1409C30.3612 62.9742 30.8801 63.7123 30.9379 63.7813C30.9954 63.8503 31.0149 63.4639 30.9808 62.9225C30.9216 61.9783 30.9473 61.9116 31.6101 61.2838L32.301 60.6293L31.6179 58.7774C30.6767 56.2255 29.0678 50.7152 28.7163 48.8396C28.5352 47.8728 28.4486 46.6658 28.4864 45.6375C28.54 44.182 28.5981 43.9328 28.9792 43.5275C29.8687 42.5813 31.44 43.0184 33.0594 44.6623C33.6703 45.2822 33.9908 45.5127 33.917 45.2788C33.0448 42.5173 32.4591 38.8929 32.6263 37.2926C32.855 35.104 33.7619 34.0913 35.499 34.0845C39.2309 34.0703 43.4079 40.6906 48.1956 54.2086C48.7858 55.8753 49.4398 57.7202 49.6487 58.3084C49.8578 58.8967 49.9926 59.1774 49.9486 58.9323C49.0345 53.8542 47.1429 37.5425 46.5562 29.6794C45.3612 13.6635 46.2473 3.28614 48.9755 1.34336C49.6678 0.850492 51.8509 0.861366 52.6315 1.36154ZM173.872 15.8776C175.03 16.8521 175.515 19.4578 175.646 25.4207C175.772 31.1471 175.309 39.992 174.448 48.3184C174.357 49.1965 174.303 49.935 174.328 49.9594C174.352 49.9838 174.763 49.0649 175.24 47.9173C175.717 46.7697 176.287 45.4296 176.507 44.9394C176.727 44.4492 177.443 42.845 178.099 41.3744C179.975 37.1662 182.789 31.764 184.273 29.5229C185.645 27.4498 187.064 25.9189 187.912 25.5965C191.974 24.0521 191.087 31.0853 185.405 45.4742C184.591 47.533 183.6 49.9795 183.2 50.9109C182.68 52.1243 182.587 52.4528 182.873 52.0699C184.036 50.5088 186.19 48.0751 188.17 46.0836C192.715 41.5145 196.034 39.571 197.765 40.466C200.653 41.9592 197.874 48.9213 190.503 58.6594C189.467 60.0289 188.512 61.2952 188.381 61.4733C188.224 61.6872 188.527 61.5797 189.272 61.1566C191.079 60.1314 194.034 58.7648 195.481 58.2851C199.779 56.8612 202.034 56.8175 203.427 58.1312C203.953 58.6271 204.037 58.8225 204.037 59.5398C204.037 60.5439 203.625 61.4025 202.526 62.6908C201.461 63.9378 201.253 64.0464 200.769 63.6063C199.876 62.7936 199.208 62.6756 198.202 63.153C197.316 63.5737 196.817 64.7075 197.083 65.6963C197.188 66.0854 197.351 66.4521 197.447 66.5111C197.542 66.5699 197.62 66.6897 197.62 66.7769C197.62 67.0113 195.688 68.3485 193.002 69.9742C191.238 71.0412 190.717 71.4344 190.962 71.5129C191.144 71.5706 191.453 71.6861 191.649 71.7694C191.975 71.9077 191.977 71.9216 191.676 71.9327C191.166 71.9514 190.39 72.4767 190.069 73.0214C189.478 74.0216 189.842 75.3918 190.858 75.9894C191.324 76.263 191.391 76.3899 191.305 76.8245C191.249 77.1063 191.203 77.9617 191.203 78.7252V80.1134L189.198 82.4016C188.095 83.6601 186.679 85.3131 186.051 86.0749C184.815 87.5762 184.614 87.6437 183.743 86.853C183.21 86.3699 181.452 83.3872 178.947 78.7184L176.987 75.0642L175.94 74.4917C172.373 72.5412 163.551 68.6106 160.668 67.687C158.055 66.85 158.209 66.8024 155.805 69.1929C154.665 70.3264 153.712 71.2287 153.687 71.1983C153.662 71.1676 153.351 70.1801 152.996 69.0036C152.64 67.8271 151.827 65.3027 151.188 63.3938C150.549 61.4849 150.027 59.8038 150.027 59.658C150.027 59.2129 151.59 60.8797 152.607 62.4082C153.129 63.1926 153.972 64.5963 154.481 65.5277C154.99 66.459 155.354 67.0607 155.29 66.8646C154.382 64.1113 152.6 57.815 151.398 53.1138L149.887 47.2061L150.223 46.6967C150.887 45.6895 150.519 44.0446 149.513 43.5246C149.028 43.2735 148.989 43.1566 148.612 40.8033C147.883 36.2491 147.901 33.1152 148.663 31.9804C149.882 30.1653 151.727 32.2733 153.998 38.0767C155.679 42.3697 159.518 54.976 160.116 58.1626C160.38 59.5706 160.338 58.4261 160.014 55.3546C159.672 52.1254 159.171 46.3706 158.726 40.5722C158.597 38.886 158.499 34.5129 158.497 30.3227C158.494 23.9441 158.533 22.8603 158.805 21.804C159.363 19.6305 159.919 19.0264 160.817 19.6154C162.647 20.8143 164.484 30.7243 166.057 47.8806L166.539 53.1391L166.665 51C166.735 49.8236 166.905 47.2968 167.045 45.3851C167.184 43.4733 167.387 40.6658 167.494 39.1462C167.722 35.927 168.229 31.327 168.731 27.9138C169.781 20.781 171.035 16.5965 172.367 15.7842C173.096 15.34 173.244 15.3491 173.872 15.8776ZM132.903 29.3036C133.35 29.7726 134.062 30.655 134.485 31.2644C135.383 32.5587 135.401 32.5498 132.998 32.0248C132.006 31.8079 131.322 31.5605 131.18 31.3669C130.948 31.0496 130.867 29.2407 131.062 28.733C131.277 28.1726 132.052 28.4129 132.903 29.3036ZM133.627 33.3653C134.657 33.6011 135.661 33.8321 135.859 33.8787C136.123 33.9405 136.719 34.9713 138.075 37.7111C139.095 39.7722 139.882 41.507 139.823 41.5658C139.764 41.6248 139.269 41.5801 138.722 41.4664C137.919 41.2999 137.727 41.1918 137.727 40.9072C137.727 39.8296 136.621 38.7897 135.475 38.7897C134.835 38.7897 134.574 38.9013 133.995 39.4246L133.292 40.0594L132.928 38.8364C132.327 36.8166 131.491 33.5526 131.489 33.2193C131.488 32.8476 131.315 32.8359 133.627 33.3653ZM124.739 34.3104C126.184 35.2268 128.183 37.8218 131.327 42.8619C133.535 46.4017 135.513 49.9082 137.009 52.9366C137.625 54.1831 138.16 55.1721 138.198 55.1343C138.236 55.0965 138.154 54.7924 138.015 54.4589C137.877 54.1252 137.483 52.9516 137.14 51.851L136.515 49.8498L137.046 50.3804C137.905 51.2394 138.991 51.3047 140.037 50.5599L140.534 50.2061L142.027 50.7487C144.421 51.6184 143.915 50.7605 147.031 59.2361L147.372 60.1639L147.875 59.6018L148.377 59.0398L148.642 59.5655C149.001 60.2779 150.675 65.263 151.871 69.1819C152.658 71.761 152.809 72.4485 152.642 72.6869C149.81 76.7093 149.371 77.0981 145.311 79.1824C139.277 82.2794 137.94 83.5899 137.003 87.328C136.646 88.7524 136.575 88.8776 135.831 89.4118C134.721 90.209 131.278 91.8132 127.298 93.3876C122.108 95.4409 122.204 95.4132 121.202 95.1478C119.402 94.6713 118.336 93.4599 118.526 92.1072C118.913 89.3517 121.04 87.0528 124.307 85.8582L125.593 85.3877L122.168 85.1715C118.382 84.9323 116.538 84.6492 114.429 83.9829C110.97 82.8902 109.813 80.8976 111.233 78.4756C112.05 77.0812 113.649 76.2193 116.665 75.5478C119.051 75.0164 127.337 75.166 130.686 75.8008C131.051 75.8697 130.567 75.4813 129.171 74.5819C121.194 69.4437 116.921 66.1795 114.736 63.5539C113.606 62.1961 113.264 61.5334 113.241 60.6599C113.226 60.1016 113.324 59.879 113.745 59.517C114.206 59.1202 114.384 59.0781 115.258 59.159C117.921 59.4058 122.822 61.8687 129.962 66.5494L132.803 68.4118L131.477 66.9462C122.463 56.9808 117.45 49.5869 117.347 46.1059C117.296 44.3633 118.007 43.6025 119.688 43.6025C120.779 43.6025 121.505 43.8466 122.754 44.6339C124.041 45.445 127.136 48.5626 128.984 50.9109C130.819 53.2418 130.967 53.3819 130.295 52.1587C126.764 45.7279 124.128 40.3974 123.301 38.0175C123 37.1516 122.704 36.0184 122.643 35.4993C122.547 34.6876 122.585 34.5025 122.91 34.1771C123.414 33.6731 123.776 33.6995 124.739 34.3104ZM138.618 42.6378C139.256 42.7738 139.964 42.9293 140.191 42.9831C140.5 43.0562 140.767 43.4325 141.235 44.456C142.245 46.6619 143.462 49.692 143.373 49.7808C143.328 49.8257 142.766 49.6794 142.124 49.4553C141.007 49.0655 140.95 49.0166 140.77 48.3034C140.501 47.2323 139.728 46.6328 138.618 46.6328C137.541 46.6328 136.763 47.2213 136.447 48.2749L136.23 48.9997L135.285 46.1717C134.766 44.6163 134.34 43.2988 134.34 43.2441C134.34 43.1892 134.815 43.1473 135.395 43.1507C136.249 43.1557 136.531 43.0804 136.877 42.7558C137.112 42.5352 137.339 42.3628 137.382 42.3726C137.425 42.3826 137.981 42.5018 138.618 42.6378ZM195.704 72.8758C196.66 73.1826 197.442 73.5207 197.442 73.6273C197.442 73.7339 196.319 74.9421 194.946 76.312L192.451 78.8027V77.6065C192.451 76.4537 192.471 76.4 192.993 76.1296C193.664 75.7829 194.232 74.8849 194.233 74.1703C194.233 73.8747 194.073 73.3334 193.877 72.9671C193.441 72.1546 193.454 72.1539 195.704 72.8758ZM199.67 74.691C201.808 75.2191 203.324 76.5885 203.324 77.9904C203.324 78.3389 203.127 78.7525 202.763 79.1671L202.202 79.8063L201.626 79.2484C200.539 78.1949 198.823 78.3753 198.088 79.6205L197.778 80.1444H195.382C194.064 80.1444 192.986 80.0833 192.986 80.0086C192.986 79.7961 198.405 74.4385 198.603 74.4555C198.7 74.4639 199.18 74.5697 199.67 74.691ZM194.055 81.3922L195.392 81.5063L194.144 81.5403C193.458 81.559 192.576 81.627 192.183 81.6911C191.533 81.7977 191.492 81.782 191.715 81.5109C191.85 81.3476 192.13 81.2284 192.339 81.246C192.548 81.2637 193.32 81.3295 194.055 81.3922ZM189.708 84.1346C189.638 84.4175 189.267 85.32 188.885 86.14L188.189 87.6311H187.29C186.795 87.6311 186.39 87.5829 186.39 87.5241C186.39 87.3861 189.121 84.21 189.527 83.8749C189.811 83.641 189.826 83.6623 189.708 84.1346ZM219.233 100.955C217.444 100.984 214.516 100.984 212.727 100.955C210.938 100.926 212.402 100.902 215.98 100.902C219.559 100.902 221.023 100.926 219.233 100.955Z" fill="#FBD794"/>
<path fill-rule="evenodd" clip-rule="evenodd" d="M128.555 18.4442C129.574 19.066 130.128 20.5416 129.75 21.6271C129.591 22.0838 129.649 22.2184 130.358 23.0189C131.905 24.7685 133.795 27.1496 135.237 29.1639L136.704 31.2138L136.592 30.0735C136.53 29.4464 136.479 28.1473 136.479 27.1867C136.479 25.463 136.473 25.4369 135.996 25.2075C135.73 25.0795 135.322 24.6942 135.089 24.351C134.743 23.8419 134.68 23.5653 134.747 22.8469C134.983 20.3189 138.504 19.9788 139.161 22.4205C139.437 23.4434 139.078 24.4972 138.293 24.9726L137.7 25.3314L137.789 29.2924L137.879 33.2533L138.905 34.9965C139.469 35.9551 140.431 37.6949 141.041 38.8624L142.152 40.9852L142.854 38.7733C143.532 36.6378 143.545 36.5491 143.238 36.2048C142.087 34.9136 142.428 32.9952 143.927 32.3319C144.468 32.0927 144.904 32.0184 145.316 32.0958C146.591 32.335 147.514 33.6854 147.275 34.9617C147.131 35.7278 146.265 36.6043 145.513 36.7455C144.935 36.8539 144.934 36.8551 144.009 39.8881L143.084 42.9221L143.769 44.1981C144.146 44.8999 144.841 46.3772 145.314 47.4813C145.786 48.5852 146.228 49.4275 146.295 49.353C146.363 49.2783 146.551 48.805 146.715 48.3009C147.011 47.3879 147.01 47.3822 146.559 46.7164C145.44 45.0674 146.407 43.2458 148.401 43.2458C148.958 43.2458 149.243 43.3717 149.731 43.8319C150.577 44.6291 150.73 45.4819 150.211 46.4963C149.757 47.3847 149.398 47.7022 148.849 47.7022C148.502 47.7022 148.368 47.9524 147.787 49.6966C147.138 51.6441 147.129 51.7082 147.4 52.415C149.45 57.7683 150.003 59.3223 149.927 59.5184C149.878 59.6464 150.207 60.7902 150.657 62.0601C151.108 63.3298 151.956 65.9303 152.543 67.8387C153.13 69.7473 153.637 71.3362 153.671 71.3697C153.704 71.4034 154.677 70.4952 155.832 69.3516L157.933 67.2724L158.793 67.3865C161.048 67.6856 168.143 70.6669 175.249 74.3011L176.854 75.1214L177.638 76.6079C179.102 79.3803 181.983 84.5059 182.732 85.6701C183.552 86.9457 183.771 87.1685 184.464 87.4319C184.905 87.5997 185.001 87.5286 186.063 86.2414C186.684 85.4884 188.135 83.8031 189.287 82.4959L191.381 80.1195V78.453C191.381 77.5366 191.428 76.6651 191.485 76.5166C191.554 76.3375 191.405 76.1519 191.042 75.9644C189.687 75.2635 189.611 72.9847 190.921 72.3188C192.307 71.6147 193.07 71.7546 193.67 72.823C194.391 74.1061 194.094 75.3141 192.882 76.0294L192.273 76.389V77.7637V79.1384L194.973 76.4034L197.673 73.6685L197.815 72.3164C197.894 71.5728 197.962 70.1557 197.967 69.1672C197.976 67.5933 197.922 67.2617 197.532 66.4934C197.02 65.4851 196.973 64.8366 197.356 64.0956C197.96 62.9268 199.581 62.7286 200.724 63.6835C201.399 64.2473 201.624 64.8671 201.434 65.6384C201.233 66.4541 200.847 66.9198 200.099 67.2498C199.433 67.5435 199.403 67.5931 199.403 68.387C199.403 68.8435 199.349 69.8492 199.284 70.622L199.165 72.027L200.576 70.7592C201.353 70.0619 202.95 68.723 204.126 67.7842L206.266 66.077L207.713 62.5683L209.161 59.0594L208.738 58.4362C208.251 57.7182 208.211 57.2102 208.572 56.3457C209.263 54.6927 212.167 54.579 212.776 56.181C213.349 57.6867 212.68 59.1271 211.239 59.4899C210.808 59.5986 210.454 59.7081 210.454 59.733C210.454 59.7582 210.014 60.8405 209.475 62.1382C208.52 64.4394 208.508 64.4897 208.985 64.176C211.422 62.574 214.506 60.7375 216.041 59.9742C217.879 59.0598 217.904 59.0396 217.998 58.3371C218.191 56.8945 219.348 56.0131 220.899 56.1271C222.071 56.2134 222.815 56.7425 223.207 57.7681C223.624 58.8606 223.439 59.7157 222.605 60.5455C221.577 61.5692 219.872 61.6448 218.869 60.7107L218.476 60.3444L216.331 61.4378C214.407 62.4189 208.181 66.358 208.34 66.4938C208.376 66.5237 210.091 66.809 212.151 67.1275L215.898 67.7066L216.615 66.9901C218.88 64.725 222.468 67.3009 221.016 70.1494C220.579 71.0057 219.898 71.4453 218.854 71.5457C217.594 71.6669 216.49 71.0216 216.068 69.9166L215.769 69.1336L212.8 68.6655C211.167 68.4082 209.109 68.0851 208.226 67.9478L206.622 67.6979L205.998 68.1694C205.655 68.4286 204.35 69.4844 203.098 70.5155C201.846 71.5466 200.566 72.5906 200.253 72.8353L199.685 73.2806L201.104 73.4904C203.171 73.7963 203.461 73.7835 203.589 73.3795C203.878 72.4697 205.789 71.9993 206.887 72.5674C207.664 72.9692 207.959 73.5132 207.959 74.545C207.959 75.5696 207.574 76.2221 206.704 76.6719C205.677 77.2032 204.285 76.8161 203.686 75.8323C203.31 75.2129 203.128 75.1612 198.985 74.4984L198.3 74.3888L195.554 77.1307C194.043 78.6387 192.807 79.9738 192.807 80.0975C192.807 80.2683 193.426 80.3225 195.371 80.3225H197.933L198.146 79.8089C198.922 77.9369 202.255 78.7221 202.255 80.7767C202.255 81.8002 201.649 82.6564 200.689 82.9908C199.666 83.3471 198.615 82.9986 198.016 82.105C197.626 81.5225 197.519 81.4737 196.406 81.3696C195.75 81.3082 194.392 81.2482 193.387 81.2359C191.759 81.2163 191.559 81.2476 191.556 81.5257C191.551 81.8745 190.102 83.4713 189.708 83.5619C189.426 83.6268 186.212 87.3776 186.212 87.6418C186.212 87.8671 187.876 87.8564 188.103 87.6295C188.348 87.3847 196.439 87.386 197.532 87.6311C198.59 87.8681 198.807 87.9854 200.465 89.2148C201.204 89.7631 203.895 91.5956 206.444 93.2865C208.993 94.9776 211.159 96.4246 211.257 96.502C211.355 96.5795 212.122 96.741 212.963 96.861C215.524 97.227 218.647 98.461 221.299 100.155L222.25 100.763L212.743 100.881C207.513 100.946 163.529 100.98 115 100.956C66.4705 100.932 37.2124 100.891 49.9821 100.866C62.7518 100.841 73.1996 100.771 73.1996 100.711C73.1996 100.35 71.7269 98.2794 70.8385 97.391C68.9138 95.4664 67.3295 94.641 63.8908 93.7719C62.04 93.3041 60.0605 92.4517 60.1425 92.1578C60.1957 91.9674 60.27 91.9444 63.5739 91.0972C73.2664 88.612 79.4384 85.9519 79.4384 84.2598C79.4384 83.6211 78.9921 83.4762 77.3408 83.5788C75.6613 83.6831 72.9372 84.3437 69.5714 85.463C68.4094 85.8492 67.5671 86.0655 67.6998 85.9432C67.8326 85.8209 69.385 84.5683 71.1497 83.1599C74.5926 80.412 77.906 77.5947 81.2714 74.5541L83.3716 72.6564L84.0343 72.9961C85.468 73.7314 86.055 74.8733 86.472 77.7378C86.9208 80.822 87.1279 81.3733 88.2306 82.4161C89.5719 83.6847 91.3126 84.5 94.4229 85.3164C98.6746 86.4327 101.074 87.6168 103.81 89.9492C105.582 91.4606 107.83 94.5202 109.734 98.0141C110.148 98.774 110.509 99.3956 110.536 99.3956C110.65 99.3956 115.961 97.5565 118.983 96.4705C120.781 95.8241 122.315 95.3339 122.392 95.3813C122.694 95.5681 130.806 92.2678 133.806 90.7373C136.423 89.4022 136.685 89.1261 137.167 87.204C138.051 83.6797 139.139 82.6255 145.085 79.5275C148.536 77.7296 149.993 76.7204 150.687 75.6476C150.959 75.2286 151.572 74.3398 152.051 73.6726L152.922 72.4596L152.434 70.7314C151.53 67.5298 149.11 60.2781 148.57 59.153C148.276 58.5393 147.534 56.7426 146.923 55.1605C145.826 52.3189 145.803 52.2803 145.107 51.9983C144.718 51.8414 144.215 51.5795 143.988 51.4164C143.761 51.2535 142.858 50.8615 141.981 50.5453L140.387 49.9706L139.974 50.3587C139.101 51.1786 137.422 50.9357 136.737 49.8902C136.33 49.2692 136.479 48.0047 137.027 47.4207C138.291 46.0754 140.355 46.7407 140.739 48.6173C140.837 49.099 140.993 49.2207 141.999 49.5986C142.63 49.8359 143.249 49.9909 143.374 49.943C143.499 49.8951 143.881 49.9728 144.223 50.1159C144.566 50.2589 144.883 50.376 144.927 50.376C145.027 50.376 143.917 47.8018 142.744 45.3168C141.921 43.5703 141.841 43.4663 141.24 43.3537C140.891 43.2881 140.579 43.1565 140.547 43.0612C140.516 42.966 139.756 42.756 138.858 42.5949C137.236 42.3034 137.224 42.304 136.734 42.6897C136.325 43.0109 136.042 43.0703 135.087 43.035C134.013 42.9954 133.91 42.9549 133.603 42.4507C133.407 42.1296 133.272 41.5724 133.272 41.0829C133.271 40.3451 133.347 40.1883 133.984 39.6123C134.581 39.0738 134.829 38.9678 135.497 38.9678C136.54 38.9678 137.365 39.6546 137.528 40.6589C137.657 41.451 137.936 41.5819 139.826 41.7346L140.944 41.8252L140.388 40.7084C140.082 40.0942 139.144 38.3779 138.304 36.8943C136.543 33.7867 136.639 33.8601 133.627 33.2851C129.515 32.4997 129.49 32.4975 128.476 32.8291C126.764 33.3892 125.45 32.6164 125.291 30.9551C125.191 29.9177 125.479 29.3451 126.373 28.7995C127.803 27.9275 129.884 28.948 129.884 30.5214C129.884 31.025 129.96 31.136 130.374 31.2343C130.644 31.2984 130.985 31.4507 131.132 31.5729C131.535 31.9075 134.614 32.5583 135.22 32.4371L135.75 32.3311L134.912 31.1195C133.813 29.533 131.492 26.5826 129.944 24.8065L128.709 23.3904L127.261 23.3804C125.972 23.3717 125.76 23.3218 125.33 22.925C123.962 21.6631 124.087 19.5191 125.588 18.5168C126.361 18.0004 127.77 17.966 128.555 18.4442ZM28.9037 98.6826C28.7263 98.8786 28.5409 99.0391 28.4919 99.0391C28.4429 99.0391 28.5481 98.8786 28.7254 98.6826C28.9028 98.4865 29.0882 98.3261 29.1372 98.3261C29.1862 98.3261 29.0811 98.4865 28.9037 98.6826Z" fill="#374149"/>
<path fill-rule="evenodd" clip-rule="evenodd" d="M46.0638 14.5473C46.0638 14.8905 46.0271 15.0309 45.9824 14.8593C45.9374 14.6876 45.9374 14.407 45.9824 14.2354C46.0271 14.0637 46.0638 14.2042 46.0638 14.5473ZM174.114 15.9288C174.335 16.2115 174.329 16.2177 174.046 15.9962C173.749 15.7632 173.655 15.6168 173.802 15.6168C173.839 15.6168 173.979 15.7571 174.114 15.9288ZM46.0638 19.1819C46.0638 19.525 46.0271 19.6655 45.9824 19.4938C45.9374 19.3222 45.9374 19.0416 45.9824 18.87C46.0271 18.6983 46.0638 18.8388 46.0638 19.1819ZM167.283 41.9092C167.279 42.2033 167.239 42.302 167.194 42.1286C167.148 41.9552 167.152 41.7145 167.2 41.5938C167.249 41.4732 167.286 41.6151 167.283 41.9092ZM151.476 60.6703C151.697 60.953 151.691 60.9593 151.408 60.7377C151.237 60.6031 151.096 60.4626 151.096 60.4257C151.096 60.279 151.243 60.3733 151.476 60.6703ZM230.724 72.9122C234.011 73.9577 236.82 77.8462 238.233 83.3085C238.493 84.3133 238.754 85.1355 238.812 85.1355C238.87 85.1355 239.017 84.9181 239.138 84.6521C240.028 82.6997 243.278 78.6006 244.929 77.3491C247.184 75.64 250.04 74.6516 252.167 74.8445C253.507 74.966 254.342 75.473 254.974 76.5503C255.412 77.2962 255.469 77.5865 255.526 79.3774C255.591 81.3922 255.221 83.8313 254.571 85.6728C254.434 86.0635 254.358 86.3833 254.404 86.3833C254.45 86.3833 255.67 85.7922 257.114 85.0696C263.496 81.8785 268.488 80.3888 272.304 80.5373C274.715 80.6311 275.674 81.0257 277.017 82.4767C279.122 84.7505 279.832 87.9821 278.855 90.8396L278.458 91.9983L283.449 92.0004C286.501 92.0017 289.133 92.0926 290.223 92.2343C294.004 92.7263 298.096 93.8553 300.059 94.9489L300.982 95.4632L301.287 94.5329C302.18 91.8077 304.152 89.0193 305.73 88.2484C308.435 86.9272 311.414 87.4448 314.437 89.7614L315.624 90.6714V88.729C315.624 84.8564 316.724 81.0425 318.511 78.7184C319.204 77.8183 320.668 76.4011 320.905 76.4011C321.04 76.4011 321.15 76.3288 321.15 76.2404C321.15 75.73 323.345 75.5236 324.18 75.9553C325.501 76.6386 326.714 79.276 327.461 83.0856C327.807 84.8525 328.278 88.6815 328.284 89.7648L328.288 90.5723L328.636 90.1266C328.828 89.8815 328.987 89.6152 328.989 89.5348C328.991 89.4544 329.249 89.0133 329.562 88.5544C331.289 86.0232 334.306 83.402 336.089 82.8839C338.362 82.2227 340.414 82.8454 341.377 84.4881C342.379 86.1978 342.616 89.9357 341.941 93.3798L341.705 94.583L343.147 94.5846C346.27 94.5881 351.426 95.4323 355.237 96.5644C358.606 97.565 365 100.364 365 100.838C365 100.935 336.263 101 293.718 101C231.981 101 222.422 100.966 222.338 100.744C222.222 100.442 219.366 98.7343 217.88 98.0781C216.148 97.3133 214.049 96.7199 212.66 96.6026C211.937 96.5414 211.346 96.4716 211.346 96.4471C211.346 96.4227 211.591 95.8277 211.89 95.1247C212.189 94.4216 212.676 93.1596 212.972 92.3204C213.45 90.9662 213.718 90.3158 214.643 88.255C214.775 87.9609 215.535 86.1159 216.332 84.1552C218.661 78.4236 219.165 77.4933 220.854 75.802C222.411 74.2434 223.806 73.4063 225.606 72.9509C226.885 72.6274 229.76 72.6056 230.724 72.9122ZM18.2977 87.6985C18.2977 87.7354 18.1574 87.8758 17.9857 88.0104C17.703 88.232 17.6968 88.2257 17.9184 87.943C18.1513 87.6461 18.2977 87.5518 18.2977 87.6985Z" fill="#E3E3E3"/>
<path fill-rule="evenodd" clip-rule="evenodd" d="M131.488 31.6597C131.649 31.7634 131.671 31.8335 131.543 31.8353C131.427 31.8367 131.282 31.7577 131.221 31.6597C131.084 31.4383 131.146 31.4383 131.488 31.6597ZM150.941 31.9716C151.162 32.2543 151.156 32.2606 150.873 32.039C150.702 31.9044 150.561 31.764 150.561 31.7271C150.561 31.5804 150.708 31.6747 150.941 31.9716ZM136.156 38.9116C136.028 38.9631 135.874 38.9567 135.815 38.8975C135.755 38.8383 135.861 38.7962 136.049 38.8039C136.256 38.8125 136.298 38.8547 136.156 38.9116ZM167.481 39.785C167.473 39.9927 167.431 40.0349 167.374 39.8929C167.322 39.7642 167.329 39.6103 167.388 39.5511C167.447 39.492 167.489 39.5971 167.481 39.785ZM167.282 42.8005C167.279 43.0946 167.239 43.1934 167.194 43.0199C167.148 42.8465 167.151 42.6059 167.2 42.4852C167.249 42.3645 167.286 42.5064 167.282 42.8005ZM150.049 43.9146C150.271 44.1973 150.265 44.2035 149.982 43.982C149.685 43.749 149.591 43.6027 149.737 43.6027C149.774 43.6027 149.915 43.7429 150.049 43.9146ZM136.445 48.8611C136.441 49.1552 136.401 49.254 136.356 49.0805C136.311 48.9071 136.314 48.6665 136.362 48.5458C136.411 48.4251 136.448 48.567 136.445 48.8611ZM140.922 48.8759C140.913 49.0836 140.871 49.1258 140.814 48.9838C140.762 48.8551 140.769 48.7012 140.828 48.642C140.887 48.5829 140.929 48.688 140.922 48.8759ZM140.579 50.0871C140.579 50.124 140.439 50.2645 140.267 50.3991C139.985 50.6207 139.978 50.6144 140.2 50.3317C140.433 50.0347 140.579 49.9404 140.579 50.0871ZM138.839 51.0371C138.617 51.0797 138.296 51.0781 138.126 51.0335C137.956 50.9889 138.137 50.954 138.529 50.956C138.921 50.9579 139.061 50.9945 138.839 51.0371ZM150.846 60.0465L151.185 60.4476L150.784 60.108C150.407 59.7889 150.302 59.6454 150.445 59.6454C150.478 59.6454 150.659 59.8258 150.846 60.0465ZM31.8448 60.9606C31.8448 60.9975 31.7045 61.1379 31.5329 61.2725C31.2501 61.4941 31.2439 61.4879 31.4655 61.2051C31.6984 60.9082 31.8448 60.8139 31.8448 60.9606ZM199.536 62.9768C199.365 63.0217 199.084 63.0217 198.913 62.9768C198.741 62.9321 198.881 62.8953 199.224 62.8953C199.568 62.8953 199.708 62.9321 199.536 62.9768ZM197.071 65.097C197.063 65.3046 197.021 65.3469 196.964 65.2048C196.912 65.0761 196.919 64.9223 196.978 64.8631C197.037 64.8039 197.079 64.9091 197.071 65.097ZM158.973 67.2538C158.844 67.3053 158.69 67.2989 158.631 67.2397C158.572 67.1805 158.677 67.1385 158.865 67.1461C159.073 67.1547 159.115 67.197 158.973 67.2538ZM158.226 67.2021C158.226 67.2406 158.102 67.3199 157.95 67.3784C157.791 67.4392 157.719 67.4093 157.782 67.3084C157.886 67.1388 158.226 67.0577 158.226 67.2021ZM156.8 68.269C156.8 68.3059 156.66 68.4463 156.488 68.5809C156.206 68.8025 156.199 68.7962 156.421 68.5135C156.654 68.2166 156.8 68.1223 156.8 68.269ZM155.463 69.6276C155.08 70.0198 154.727 70.3406 154.678 70.3406C154.629 70.3406 154.902 70.0198 155.285 69.6276C155.668 69.2355 156.021 68.9146 156.07 68.9146C156.119 68.9146 155.846 69.2355 155.463 69.6276ZM87.1033 69.1602C87.1033 69.1971 86.963 69.3376 86.7913 69.4722C86.5086 69.6937 86.5023 69.6875 86.7239 69.4048C86.9569 69.1078 87.1033 69.0135 87.1033 69.1602ZM189.941 73.6531C189.933 73.8608 189.89 73.903 189.834 73.7609C189.782 73.6322 189.788 73.4784 189.848 73.4192C189.907 73.3601 189.949 73.4652 189.941 73.6531ZM80.9535 74.7969C80.5706 75.1891 80.2172 75.51 80.1681 75.51C80.1191 75.51 80.3924 75.1891 80.7753 74.7969C81.1582 74.4048 81.5116 74.0839 81.5607 74.0839C81.6097 74.0839 81.3364 74.4048 80.9535 74.7969ZM189.941 74.5444C189.933 74.752 189.89 74.7943 189.834 74.6522C189.782 74.5235 189.788 74.3697 189.848 74.3105C189.907 74.2513 189.949 74.3565 189.941 74.5444ZM196.194 76.6686C194.972 77.8941 193.931 78.8968 193.882 78.8968C193.833 78.8968 194.793 77.8941 196.016 76.6686C197.238 75.4431 198.279 74.4404 198.328 74.4404C198.377 74.4404 197.417 75.4431 196.194 76.6686ZM193.609 75.6882C193.432 75.8843 193.247 76.0447 193.198 76.0447C193.149 76.0447 193.254 75.8843 193.431 75.6882C193.609 75.4921 193.794 75.3317 193.843 75.3317C193.892 75.3317 193.787 75.4921 193.609 75.6882ZM190.513 75.6437C190.734 75.9264 190.728 75.9326 190.445 75.711C190.149 75.4781 190.054 75.3317 190.201 75.3317C190.238 75.3317 190.378 75.4722 190.513 75.6437ZM150.74 75.5773C150.74 75.6142 150.599 75.7547 150.428 75.8893C150.145 76.1109 150.139 76.1046 150.36 75.8219C150.593 75.5249 150.74 75.4306 150.74 75.5773ZM79.2601 76.3121C78.9275 76.6552 78.6154 76.936 78.5664 76.936C78.5173 76.936 78.7492 76.6552 79.0819 76.3121C79.4145 75.969 79.7266 75.6882 79.7756 75.6882C79.8246 75.6882 79.5927 75.969 79.2601 76.3121ZM149.581 76.7577C149.404 76.9538 149.218 77.1142 149.169 77.1142C149.12 77.1142 149.225 76.9538 149.403 76.7577C149.58 76.5617 149.765 76.4012 149.814 76.4012C149.864 76.4012 149.758 76.5617 149.581 76.7577ZM191.328 77.8273C191.328 78.3665 191.295 78.587 191.254 78.3174C191.213 78.0479 191.213 77.6066 191.254 77.3371C191.295 77.0675 191.328 77.288 191.328 77.8273ZM77.8341 77.5599C77.6038 77.805 77.3753 78.0055 77.3262 78.0055C77.2772 78.0055 77.4255 77.805 77.6558 77.5599C77.8861 77.3148 78.1147 77.1142 78.1637 77.1142C78.2127 77.1142 78.0644 77.3148 77.8341 77.5599ZM192.422 78.1497C192.442 78.5647 192.517 78.7023 192.674 78.6137C192.85 78.5139 192.851 78.5369 192.677 78.7251C192.366 79.0599 192.235 78.8511 192.321 78.1563L192.394 77.5599L192.422 78.1497ZM147.888 77.9073C147.888 77.9563 147.647 78.1208 147.353 78.2729C147.059 78.4249 146.818 78.5092 146.818 78.4602C146.818 78.4112 147.059 78.2467 147.353 78.0946C147.647 77.9426 147.888 77.8583 147.888 77.9073ZM76.6754 78.5403C76.4981 78.7363 76.3127 78.8968 76.2637 78.8968C76.2146 78.8968 76.3198 78.7363 76.4972 78.5403C76.6746 78.3442 76.86 78.1838 76.909 78.1838C76.958 78.1838 76.8528 78.3442 76.6754 78.5403ZM201.642 79.2978L202.166 79.8772L201.586 79.3536C201.268 79.0658 201.007 78.805 201.007 78.7743C201.007 78.6365 201.154 78.7579 201.642 79.2978ZM75.4277 79.6098C75.2503 79.8059 75.0649 79.9663 75.0159 79.9663C74.9669 79.9663 75.0721 79.8059 75.2494 79.6098C75.4268 79.4137 75.6122 79.2533 75.6612 79.2533C75.7102 79.2533 75.605 79.4137 75.4277 79.6098ZM74.6255 80.2119C74.6255 80.2488 74.4852 80.3893 74.3136 80.5239C74.0309 80.7454 74.0246 80.7392 74.2462 80.4565C74.4792 80.1595 74.6255 80.0652 74.6255 80.2119ZM143.075 80.3994C143.075 80.4485 142.914 80.5743 142.718 80.6793C142.522 80.7843 142.362 80.8299 142.362 80.7809C142.362 80.7319 142.522 80.606 142.718 80.501C142.914 80.3961 143.075 80.3504 143.075 80.3994ZM190.134 81.4814C189.903 81.7265 189.675 81.9271 189.626 81.9271C189.577 81.9271 189.725 81.7265 189.955 81.4814C190.186 81.2363 190.414 81.0358 190.463 81.0358C190.512 81.0358 190.364 81.2363 190.134 81.4814ZM73.556 81.1032C73.556 81.1401 73.4157 81.2805 73.2441 81.4151C72.9614 81.6367 72.9551 81.6305 73.1767 81.3477C73.4097 81.0508 73.556 80.9565 73.556 81.1032ZM194.275 81.3433C193.954 81.3829 193.473 81.3822 193.205 81.3415C192.937 81.3007 193.2 81.2682 193.788 81.2693C194.376 81.2702 194.595 81.3035 194.275 81.3433ZM191.827 81.3923C191.766 81.4904 191.682 81.5706 191.638 81.5706C191.595 81.5706 191.56 81.4904 191.56 81.3923C191.56 81.2943 191.645 81.2141 191.748 81.2141C191.852 81.2141 191.888 81.2943 191.827 81.3923ZM139.955 82.4618C139.778 82.6579 139.593 82.8183 139.544 82.8183C139.495 82.8183 139.6 82.6579 139.777 82.4618C139.954 82.2658 140.14 82.1053 140.189 82.1053C140.238 82.1053 140.133 82.2658 139.955 82.4618ZM188.797 82.9966C188.619 83.1927 188.434 83.3531 188.385 83.3531C188.336 83.3531 188.441 83.1927 188.618 82.9966C188.796 82.8005 188.981 82.6401 189.03 82.6401C189.079 82.6401 188.974 82.8005 188.797 82.9966ZM71.5952 82.7075C71.5952 82.7444 71.4549 82.8848 71.2833 83.0194C71.0006 83.241 70.9943 83.2347 71.2159 82.952C71.4489 82.6551 71.5952 82.5608 71.5952 82.7075ZM70.704 83.4205C70.704 83.4574 70.5637 83.5978 70.392 83.7324C70.1093 83.954 70.1031 83.9478 70.3246 83.665C70.5576 83.3681 70.704 83.2738 70.704 83.4205ZM189.421 83.977C189.19 84.2221 188.962 84.4226 188.913 84.4226C188.864 84.4226 189.012 84.2221 189.242 83.977C189.473 83.7319 189.701 83.5313 189.75 83.5313C189.799 83.5313 189.651 83.7319 189.421 83.977ZM78.7699 83.6493C78.6473 83.6989 78.4467 83.6989 78.3243 83.6493C78.2016 83.6 78.302 83.5595 78.5471 83.5595C78.7922 83.5595 78.8924 83.6 78.7699 83.6493ZM77.6983 83.6574C77.4765 83.7 77.1557 83.6984 76.9853 83.6538C76.8148 83.6092 76.9963 83.5743 77.3885 83.5763C77.7806 83.5782 77.92 83.6148 77.6983 83.6574ZM54.8728 83.6531C54.7442 83.7046 54.5904 83.6982 54.5312 83.639C54.4721 83.5798 54.5772 83.5378 54.7651 83.5454C54.9728 83.554 55.015 83.5962 54.8728 83.6531ZM53.625 83.6531C53.4965 83.7046 53.3427 83.6982 53.2835 83.639C53.2243 83.5798 53.3295 83.5378 53.5173 83.5454C53.725 83.554 53.7672 83.5962 53.625 83.6531ZM79.3769 83.9846C79.435 84.136 79.4426 84.2996 79.394 84.3483C79.3451 84.3969 79.2626 84.2731 79.2104 84.0732C79.0992 83.6485 79.2227 83.5829 79.3769 83.9846ZM76.0849 83.8314C75.9564 83.8829 75.8025 83.8764 75.7434 83.8173C75.6842 83.7581 75.7894 83.716 75.9772 83.7237C76.1849 83.7322 76.2271 83.7745 76.0849 83.8314ZM187.727 84.2444C187.55 84.4404 187.364 84.6009 187.315 84.6009C187.266 84.6009 187.372 84.4404 187.549 84.2444C187.726 84.0483 187.912 83.8879 187.961 83.8879C188.01 83.8879 187.905 84.0483 187.727 84.2444ZM69.8127 84.1335C69.8127 84.1704 69.6724 84.3108 69.5008 84.4454C69.218 84.667 69.2118 84.6608 69.4334 84.3781C69.6664 84.0811 69.8127 83.9868 69.8127 84.1335ZM68.9214 84.8465C68.9214 84.8834 68.7811 85.0239 68.6095 85.1584C68.3268 85.38 68.3205 85.3738 68.5421 85.0911C68.7751 84.7941 68.9214 84.6998 68.9214 84.8465ZM79.0819 85.0248C79.0819 85.0616 78.9416 85.2021 78.7699 85.3367C78.4872 85.5583 78.481 85.552 78.7025 85.2693C78.9355 84.9723 79.0819 84.878 79.0819 85.0248ZM188.351 85.203C188.351 85.2399 188.211 85.3804 188.039 85.5149C187.756 85.7365 187.75 85.7303 187.972 85.4476C188.205 85.1506 188.351 85.0563 188.351 85.203ZM186.925 85.203C186.925 85.2399 186.785 85.3804 186.613 85.5149C186.33 85.7365 186.324 85.7303 186.546 85.4476C186.779 85.1506 186.925 85.0563 186.925 85.203ZM49.9375 85.6704C49.7601 85.8665 49.5747 86.0269 49.5257 86.0269C49.4767 86.0269 49.5819 85.8665 49.7592 85.6704C49.9366 85.4743 50.122 85.3139 50.171 85.3139C50.22 85.3139 50.1148 85.4743 49.9375 85.6704ZM67.4063 86.2051C67.4669 86.3032 67.4314 86.3834 67.3277 86.3834C67.2239 86.3834 67.1389 86.3032 67.1389 86.2051C67.1389 86.1071 67.1742 86.0269 67.2175 86.0269C67.2608 86.0269 67.3457 86.1071 67.4063 86.2051ZM186.034 86.2725C186.034 86.3094 185.893 86.4499 185.722 86.5845C185.439 86.806 185.433 86.7998 185.654 86.5171C185.887 86.2201 186.034 86.1258 186.034 86.2725ZM183.739 86.8736C183.961 87.1563 183.955 87.1625 183.672 86.941C183.5 86.8064 183.36 86.6659 183.36 86.629C183.36 86.4823 183.506 86.5766 183.739 86.8736ZM47.7168 87.854C46.9781 88.641 46.8181 88.7825 46.8181 88.6486C46.8181 88.6201 47.1992 88.239 47.6647 87.8019L48.5115 87.0073L47.7168 87.854ZM58.0198 87.6312C58.0198 87.8763 57.9794 87.9766 57.93 87.854C57.8804 87.7315 57.8804 87.531 57.93 87.4084C57.9794 87.2859 58.0198 87.3861 58.0198 87.6312ZM187.68 87.7572C187.459 87.7998 187.138 87.7982 186.967 87.7536C186.797 87.7091 186.978 87.6741 187.371 87.6761C187.763 87.6781 187.902 87.7146 187.68 87.7572ZM58.1981 88.8789C58.1981 89.124 58.1576 89.2244 58.1082 89.1018C58.0587 88.9793 58.0587 88.7788 58.1082 88.6561C58.1576 88.5337 58.1981 88.6338 58.1981 88.8789ZM136.301 89.1246C136.301 89.1615 136.161 89.3019 135.989 89.4365C135.706 89.6581 135.7 89.6518 135.922 89.3691C136.155 89.0722 136.301 88.9779 136.301 89.1246ZM45.3029 90.4832C44.622 91.1695 44.0246 91.731 43.9756 91.731C43.9266 91.731 44.4437 91.1695 45.1246 90.4832C45.8056 89.7969 46.4029 89.2355 46.4519 89.2355C46.5009 89.2355 45.9838 89.7969 45.3029 90.4832ZM65.9245 90.4267C65.7959 90.4782 65.6421 90.4718 65.5829 90.4126C65.5238 90.3535 65.6289 90.3114 65.8168 90.319C66.0245 90.3276 66.0667 90.3699 65.9245 90.4267ZM58.9621 90.9734C59.1837 91.2561 59.1774 91.2624 58.8947 91.0408C58.5977 90.8078 58.5034 90.6615 58.6501 90.6615C58.687 90.6615 58.8275 90.8019 58.9621 90.9734ZM63.9637 90.9615C63.8352 91.013 63.6813 91.0066 63.6221 90.9474C63.563 90.8882 63.6681 90.8461 63.856 90.8538C64.0637 90.8624 64.1059 90.9046 63.9637 90.9615ZM63.2507 91.1397C63.1221 91.1912 62.9683 91.1848 62.9091 91.1256C62.85 91.0665 62.9551 91.0244 63.143 91.0321C63.3507 91.0406 63.3929 91.0829 63.2507 91.1397ZM62.5377 91.318C62.4091 91.3695 62.2553 91.3631 62.1961 91.3039C62.1369 91.2447 62.2421 91.2027 62.43 91.2103C62.6377 91.2189 62.6799 91.2611 62.5377 91.318ZM131.845 91.6419C131.6 91.782 131.319 91.8966 131.221 91.8966C131.123 91.8966 131.243 91.782 131.488 91.6419C131.733 91.5018 132.014 91.3871 132.112 91.3871C132.21 91.3871 132.09 91.5018 131.845 91.6419ZM61.8246 91.4962C61.6961 91.5478 61.5423 91.5413 61.4831 91.4822C61.4239 91.423 61.5291 91.3809 61.717 91.3886C61.9247 91.3971 61.9669 91.4394 61.8246 91.4962ZM61.1116 91.6745C60.9831 91.726 60.8293 91.7196 60.7701 91.6604C60.7109 91.6012 60.8161 91.5592 61.004 91.5668C61.2116 91.5754 61.2539 91.6176 61.1116 91.6745ZM60.3986 91.8527C60.2701 91.9043 60.1163 91.8978 60.0571 91.8387C59.9979 91.7795 60.1031 91.7374 60.291 91.7451C60.4986 91.7536 60.5409 91.7959 60.3986 91.8527ZM43.6241 91.974C43.3869 92.2663 42.7182 92.7084 42.7182 92.5729C42.7182 92.5388 42.979 92.3201 43.2975 92.087C43.656 91.8246 43.7806 91.7814 43.6241 91.974ZM130.419 92.2658C130.272 92.3608 130.071 92.4385 129.973 92.4385C129.875 92.4385 129.915 92.3608 130.062 92.2658C130.209 92.1707 130.41 92.093 130.508 92.093C130.606 92.093 130.566 92.1707 130.419 92.2658ZM42.4093 92.8226C42.2883 92.9445 42.1444 92.9993 42.0897 92.9444C42.0348 92.8895 42.1337 92.7898 42.3095 92.7228C42.5635 92.6262 42.584 92.6465 42.4093 92.8226ZM38.8471 92.9103C38.9073 92.9707 39.2216 93.0887 39.5451 93.1727L40.1336 93.3255L39.5097 93.2274C37.3307 92.8848 37.1706 92.9062 35.4897 93.7622C34.6125 94.2091 34.0551 94.4476 34.2512 94.2923C35.1075 93.6142 37.1059 92.8005 37.9152 92.8005C38.3673 92.8005 38.7867 92.8499 38.8471 92.9103ZM128.28 93.157C128.133 93.252 127.932 93.3297 127.834 93.3297C127.736 93.3297 127.776 93.252 127.923 93.157C128.07 93.062 128.271 92.9843 128.369 92.9843C128.467 92.9843 128.427 93.062 128.28 93.157ZM41.6487 93.1545C41.5016 93.251 41.1874 93.331 40.9505 93.3326C40.3785 93.3362 40.5234 93.2347 41.2922 93.0937C41.7311 93.0132 41.8368 93.0312 41.6487 93.1545ZM125.071 94.4048C124.924 94.4998 124.724 94.5775 124.626 94.5775C124.527 94.5775 124.568 94.4998 124.715 94.4048C124.862 94.3098 125.062 94.2321 125.16 94.2321C125.258 94.2321 125.218 94.3098 125.071 94.4048ZM33.8056 94.6296C33.8056 94.747 31.8951 96.1873 31.7393 96.1873C31.6728 96.1873 31.8097 96.0417 32.0435 95.8636C33.3414 94.875 33.8056 94.5499 33.8056 94.6296ZM123.645 94.9395C123.498 95.0346 123.298 95.1123 123.2 95.1123C123.101 95.1123 123.142 95.0346 123.289 94.9395C123.436 94.8445 123.636 94.7668 123.734 94.7668C123.832 94.7668 123.792 94.8445 123.645 94.9395ZM212.549 96.6666C212.377 96.7116 212.096 96.7116 211.925 96.6666C211.754 96.6219 211.894 96.5852 212.237 96.5852C212.58 96.5852 212.72 96.6219 212.549 96.6666Z" fill="#6880AC"/>
<path fill-rule="evenodd" clip-rule="evenodd" d="M135.633 38.9077C135.51 38.9573 135.31 38.9573 135.187 38.9077C135.064 38.8583 135.165 38.8179 135.41 38.8179C135.655 38.8179 135.755 38.8583 135.633 38.9077ZM134.073 39.5027C133.896 39.6988 133.71 39.8592 133.661 39.8592C133.612 39.8592 133.717 39.6988 133.895 39.5027C134.072 39.3066 134.257 39.1462 134.306 39.1462C134.355 39.1462 134.25 39.3066 134.073 39.5027ZM137.775 41.0927C137.853 41.3892 137.829 41.4589 137.697 41.3266C137.593 41.2229 137.544 41.033 137.587 40.9043C137.631 40.7708 137.712 40.8517 137.775 41.0927ZM137.192 42.4221C137.192 42.459 137.052 42.5995 136.88 42.7341C136.598 42.9557 136.591 42.9494 136.813 42.6667C137.046 42.3697 137.192 42.2754 137.192 42.4221ZM135.718 43.1913C135.545 43.2366 135.304 43.2336 135.184 43.1847C135.063 43.1359 135.205 43.099 135.499 43.1025C135.793 43.1061 135.892 43.146 135.718 43.1913ZM140.401 50.087C140.401 50.1239 140.261 50.2644 140.089 50.399C139.806 50.6205 139.8 50.6143 140.022 50.3316C140.255 50.0346 140.401 49.9403 140.401 50.087ZM200.935 63.7897L201.274 64.1908L200.873 63.8512C200.496 63.5321 200.391 63.3886 200.534 63.3886C200.568 63.3886 200.748 63.569 200.935 63.7897ZM159.329 67.432C159.201 67.4835 159.047 67.4771 158.988 67.4179C158.928 67.3587 159.034 67.3166 159.221 67.3243C159.429 67.3328 159.471 67.3751 159.329 67.432ZM157.691 67.5442C157.691 67.5749 157.431 67.8357 157.112 68.1236L156.533 68.6471L157.056 68.0678C157.544 67.5279 157.691 67.4065 157.691 67.5442ZM154.394 70.8753C154.216 71.0713 154.031 71.2318 153.982 71.2318C153.933 71.2318 154.038 71.0713 154.216 70.8753C154.393 70.6792 154.578 70.5188 154.627 70.5188C154.676 70.5188 154.571 70.6792 154.394 70.8753ZM82.2013 73.7273C81.8184 74.1195 81.4649 74.4403 81.4159 74.4403C81.3669 74.4403 81.6402 74.1195 82.0231 73.7273C82.4059 73.3352 82.7594 73.0143 82.8084 73.0143C82.8575 73.0143 82.5842 73.3352 82.2013 73.7273ZM197.62 73.6626C197.62 73.7578 197.319 74.112 196.952 74.45L196.283 75.0642L196.907 74.3532C197.25 73.9621 197.551 73.6079 197.576 73.5658C197.6 73.5239 197.62 73.5674 197.62 73.6626ZM194.205 74.0838C194.205 74.3289 194.165 74.4293 194.115 74.3066C194.066 74.1842 194.066 73.9836 194.115 73.861C194.165 73.7385 194.205 73.8387 194.205 74.0838ZM80.1514 75.5772C80.1514 75.6141 80.0111 75.7546 79.8394 75.8892C79.5567 76.1107 79.5505 76.1045 79.7721 75.8218C80.005 75.5248 80.1514 75.4305 80.1514 75.5772ZM150.561 75.9221C150.561 75.9528 150.301 76.2136 149.982 76.5015L149.403 77.025L149.926 76.4457C150.414 75.9057 150.561 75.7844 150.561 75.9221ZM191.478 76.2348C191.542 76.3393 191.557 76.4631 191.51 76.5098C191.464 76.5565 191.378 76.471 191.32 76.3197C191.199 76.0056 191.302 75.9503 191.478 76.2348ZM192.406 77.025C192.404 77.4172 192.367 77.5566 192.325 77.3348C192.282 77.1131 192.284 76.7922 192.328 76.6218C192.373 76.4514 192.408 76.6328 192.406 77.025ZM193.788 77.6489C193.305 78.1391 192.87 78.5401 192.821 78.5401C192.772 78.5401 193.127 78.1391 193.61 77.6489C194.092 77.1587 194.528 76.7576 194.577 76.7576C194.626 76.7576 194.271 77.1587 193.788 77.6489ZM77.2993 78.0728C77.2993 78.1097 77.1591 78.2501 76.9874 78.3847C76.7047 78.6063 76.6984 78.6 76.92 78.3173C77.153 78.0204 77.2993 77.9261 77.2993 78.0728ZM200.16 78.6582C200.038 78.7077 199.837 78.7077 199.715 78.6582C199.592 78.6088 199.692 78.5683 199.937 78.5683C200.183 78.5683 200.283 78.6088 200.16 78.6582ZM191.333 79.4314C191.333 79.8726 191.298 80.0532 191.255 79.8325C191.213 79.6118 191.213 79.251 191.255 79.0303C191.298 78.8097 191.333 78.9902 191.333 79.4314ZM193.877 78.9524C193.877 78.9831 193.616 79.2439 193.298 79.5318L192.718 80.0553L193.242 79.476C193.73 78.9361 193.877 78.8147 193.877 78.9524ZM75.9624 79.2532C75.7851 79.4492 75.5997 79.6097 75.5507 79.6097C75.5016 79.6097 75.6068 79.4492 75.7842 79.2532C75.9615 79.0571 76.1469 78.8967 76.196 78.8967C76.245 78.8967 76.1398 79.0571 75.9624 79.2532ZM144.323 79.8697C144.323 79.9188 144.002 80.1227 143.61 80.3227C143.217 80.5227 142.896 80.6464 142.896 80.5974C142.896 80.5483 143.217 80.3444 143.61 80.1444C144.002 79.9444 144.323 79.8207 144.323 79.8697ZM74.9821 80.0336C74.9821 80.0705 74.8418 80.2109 74.6701 80.3455C74.3874 80.5671 74.3811 80.5608 74.6027 80.2781C74.8357 79.9811 74.9821 79.8869 74.9821 80.0336ZM196.676 80.277C195.912 80.3106 194.709 80.3104 194.002 80.2767C193.296 80.2428 193.921 80.2155 195.392 80.2157C196.863 80.2159 197.441 80.2435 196.676 80.277ZM190.936 80.6792C190.758 80.8753 190.573 81.0357 190.524 81.0357C190.475 81.0357 190.58 80.8753 190.757 80.6792C190.935 80.4831 191.12 80.3227 191.169 80.3227C191.218 80.3227 191.113 80.4831 190.936 80.6792ZM73.8234 81.0357C73.646 81.2318 73.4606 81.3922 73.4116 81.3922C73.3626 81.3922 73.4678 81.2318 73.6452 81.0357C73.8225 80.8396 74.0079 80.6792 74.0569 80.6792C74.106 80.6792 74.0008 80.8396 73.8234 81.0357ZM195.347 81.3319C195.225 81.3815 195.024 81.3815 194.902 81.3319C194.779 81.2826 194.88 81.2421 195.125 81.2421C195.37 81.2421 195.47 81.2826 195.347 81.3319ZM141.47 81.4546C141.47 81.4958 141.26 81.6672 141.003 81.8359C140.746 82.0043 140.59 82.0541 140.656 81.9464C140.783 81.7407 141.47 81.3255 141.47 81.4546ZM73.0213 81.6378C73.0213 81.6747 72.881 81.8152 72.7093 81.9498C72.4266 82.1713 72.4204 82.1651 72.6419 81.8824C72.8749 81.5854 73.0213 81.4911 73.0213 81.6378ZM189.51 82.2835C189.332 82.4795 189.147 82.64 189.098 82.64C189.049 82.64 189.154 82.4795 189.331 82.2835C189.509 82.0874 189.694 81.927 189.743 81.927C189.792 81.927 189.687 82.0874 189.51 82.2835ZM72.13 82.3508C72.13 82.3877 71.9897 82.5282 71.8181 82.6628C71.5354 82.8844 71.5291 82.8781 71.7507 82.5954C71.9836 82.2984 72.13 82.2041 72.13 82.3508ZM139.242 83.1747C139.065 83.3708 138.88 83.5312 138.831 83.5312C138.782 83.5312 138.887 83.3708 139.064 83.1747C139.241 82.9787 139.427 82.8182 139.476 82.8182C139.525 82.8182 139.42 82.9787 139.242 83.1747ZM188.529 83.4204C188.529 83.4573 188.389 83.5977 188.217 83.7323C187.935 83.9539 187.928 83.9476 188.15 83.6649C188.383 83.368 188.529 83.2737 188.529 83.4204ZM55.091 83.7268C56.8871 84.158 57.5259 85.0959 57.95 87.9246C58.0992 88.9193 58.3074 89.9621 58.4129 90.2419C58.6403 90.845 59.6243 91.9091 59.9546 91.9091C60.0824 91.9091 60.1671 91.9975 60.1425 92.1056C60.0665 92.4401 61.971 93.2868 63.8908 93.7721C67.3295 94.6412 68.9138 95.4665 70.8384 97.3911C71.7259 98.2787 73.1995 100.35 73.1995 100.71C73.1995 100.77 62.7316 100.84 49.9375 100.865C37.1434 100.89 26.6755 100.861 26.6755 100.8C26.6755 100.739 27.5261 99.8965 28.5655 98.9282C31.1911 96.4826 31.5302 96.1872 31.7122 96.1872C31.8 96.1872 32.3617 95.8102 32.9605 95.3494C33.5592 94.8888 34.7321 94.1603 35.5671 93.7307C36.9785 93.0045 37.1543 92.9573 38.0744 93.0578C41.137 93.392 41.2227 93.3888 42.1872 92.9043C43.5083 92.2409 44.4583 91.4061 46.7626 88.8847C50.8377 84.4255 52.8391 83.1861 55.091 83.7268ZM188.618 84.779C188.441 84.9751 188.256 85.1355 188.207 85.1355C188.158 85.1355 188.263 84.9751 188.44 84.779C188.618 84.5829 188.803 84.4225 188.852 84.4225C188.901 84.4225 188.796 84.5829 188.618 84.779ZM187.816 85.7377C187.816 85.7745 187.676 85.915 187.504 86.0496C187.222 86.2712 187.215 86.2649 187.437 85.9822C187.67 85.6852 187.816 85.591 187.816 85.7377ZM186.925 86.8072C186.925 86.8441 186.785 86.9845 186.613 87.1191C186.33 87.3407 186.324 87.3344 186.546 87.0517C186.779 86.7548 186.925 86.6605 186.925 86.8072ZM194.1 87.3926C193.977 87.4421 193.777 87.4421 193.654 87.3926C193.531 87.3432 193.632 87.3027 193.877 87.3027C194.122 87.3027 194.222 87.3432 194.1 87.3926ZM186.602 87.7528C186.473 87.8043 186.319 87.7979 186.26 87.7387C186.201 87.6795 186.306 87.6375 186.494 87.6451C186.702 87.6537 186.744 87.6959 186.602 87.7528ZM213.351 96.84C213.228 96.8895 213.028 96.8895 212.905 96.84C212.783 96.7906 212.883 96.7501 213.128 96.7501C213.373 96.7501 213.473 96.7906 213.351 96.84ZM214.231 97.022C214.103 97.0735 213.949 97.0671 213.89 97.0079C213.83 96.9487 213.936 96.9066 214.123 96.9143C214.331 96.9229 214.373 96.9651 214.231 97.022Z" fill="#546C94"/>
</g>
<defs>
<clipPath id="clip0_172_1633">
<rect width="365" height="100" fill="white" transform="matrix(-1 0 0 1 365 0)"/>
</clipPath>
</defs>
</svg>
