<svg width="42" height="42" viewBox="0 0 42 42" fill="none" xmlns="http://www.w3.org/2000/svg">
<path d="M19.9696 0.256419L3.75925 8.86189C3.53859 8.97903 3.354 9.15405 3.22527 9.36815C3.09654 9.58225 3.02854 9.82737 3.02856 10.0772V31.6787C3.02856 32.1065 3.14706 32.526 3.37094 32.8906C3.59482 33.2552 3.91532 33.5506 4.29689 33.7442L20.193 41.8068C20.4431 41.9336 20.7195 41.9998 20.9999 41.9998C21.2803 41.9998 21.5567 41.9336 21.8068 41.8068L37.7031 33.7442C38.0846 33.5506 38.4051 33.2552 38.629 32.8906C38.8529 32.526 38.9714 32.1065 38.9714 31.6787V10.0772C38.9714 9.82735 38.9034 9.58222 38.7747 9.36811C38.6459 9.154 38.4613 8.979 38.2406 8.86189L22.0304 0.256419C21.713 0.0880406 21.3592 0 21 0C20.6407 0 20.2869 0.0880406 19.9696 0.256419Z" fill="#FFCE94"/>
<path d="M21 42C21.2766 42 21.5534 41.9357 21.8069 41.807L37.7032 33.7445C38.0847 33.5509 38.4052 33.2554 38.6291 32.8909C38.853 32.5263 38.9715 32.1068 38.9715 31.6789V10.0772C38.9707 9.85673 38.9167 9.63973 38.8141 9.44458L21 18.9326V42Z" fill="#FCB043"/>
<path d="M21.0001 18.9326L3.18607 9.44446C3.08342 9.63957 3.02938 9.85659 3.02856 10.0771V31.6787C3.02856 32.1065 3.14706 32.526 3.37094 32.8906C3.59482 33.2552 3.91532 33.5507 4.29689 33.7442L20.193 41.8068C20.4431 41.9336 20.7195 41.9997 20.9999 41.9997L21.0001 18.9326Z" fill="#E2791B"/>
<path d="M27.3511 3.08093L9.32251 12.6821V15.7542C9.32253 15.8989 9.36187 16.0409 9.43634 16.165C9.51081 16.289 9.6176 16.3905 9.74528 16.4586L12.8784 18.1285C13.1271 18.261 13.4272 18.0809 13.4272 17.7992V14.9319L31.4838 5.27484L27.3511 3.08093Z" fill="#DEF2FC"/>
<path d="M23.5972 35.8697L28.4068 33.5695C28.7082 33.4253 28.9616 33.1971 29.1364 32.9124C29.3112 32.6276 29.4 32.2983 29.3921 31.9643L29.3916 31.9429C29.3783 31.38 28.7806 31.0247 28.2797 31.282L23.5973 33.6868V35.8697H23.5972ZM23.5972 39.2238L26.2383 37.9968C26.5443 37.8546 26.8022 37.6262 26.9804 37.3396C27.1585 37.0529 27.2492 36.7206 27.2412 36.3832C27.2279 35.8183 26.6268 35.4632 26.1256 35.7242L23.5972 37.0405V39.2238Z" fill="#403A46"/>
<path d="M9.32251 12.7129V15.7542C9.32253 15.8989 9.36187 16.0409 9.43634 16.1649C9.51081 16.289 9.6176 16.3905 9.74528 16.4586L12.8784 18.1285C13.1271 18.261 13.4272 18.0809 13.4272 17.7991V14.9318L13.4577 14.9155L9.32251 12.7129Z" fill="#B6C8CE"/>
</svg>
