<svg width="27" height="27" viewBox="0 0 27 27" fill="none" xmlns="http://www.w3.org/2000/svg">
<path d="M13.75 4C10.0234 4 7 6.87766 7 10.4219C7 14.5 11.5 20.9627 13.1523 23.1948C13.2209 23.2891 13.3108 23.3657 13.4147 23.4186C13.5186 23.4715 13.6335 23.499 13.75 23.499C13.8665 23.499 13.9814 23.4715 14.0853 23.4186C14.1892 23.3657 14.2791 23.2891 14.3477 23.1948C16 20.9636 20.5 14.5033 20.5 10.4219C20.5 6.87766 17.4766 4 13.75 4Z" stroke="white" stroke-width="1.5" stroke-linecap="round" stroke-linejoin="round"/>
<path d="M13.75 13C14.9926 13 16 11.9926 16 10.75C16 9.50736 14.9926 8.5 13.75 8.5C12.5074 8.5 11.5 9.50736 11.5 10.75C11.5 11.9926 12.5074 13 13.75 13Z" stroke="white" stroke-width="1.5" stroke-linecap="round" stroke-linejoin="round"/>
</svg>
