<svg width="229" height="214" viewBox="0 0 229 214" fill="none" xmlns="http://www.w3.org/2000/svg">
<g clip-path="url(#clip0_118_2314)">
<path d="M20.1931 129.542L22.4622 130.933L22.994 133.542L24.3858 131.273L26.9941 130.741L24.725 129.349L24.1932 126.741L22.8014 129.01L20.1931 129.542Z" stroke="#F27816" stroke-width="1.84157" stroke-linecap="round" stroke-linejoin="round"/>
<path d="M125.731 179.147L128.728 180.683L129.147 184.025L130.683 181.028L134.025 180.609L131.028 179.073L130.609 175.731L129.073 178.728L125.731 179.147Z" stroke="#F27816" stroke-width="2.80707" stroke-linecap="round" stroke-linejoin="round"/>
<path d="M202.179 110.405C201.815 110.34 201.467 110.584 201.403 110.948C201.338 111.312 201.582 111.66 201.946 111.724C202.31 111.788 202.658 111.545 202.722 111.181C202.786 110.817 202.543 110.469 202.179 110.405Z" fill="#F27816"/>
<path d="M165.643 154.345C164.565 154.155 163.535 154.876 163.344 155.954C163.154 157.033 163.875 158.063 164.954 158.253C166.032 158.443 167.062 157.722 167.253 156.644C167.443 155.565 166.722 154.535 165.643 154.345Z" fill="#F27816"/>
<path d="M170.462 89.8473L173.473 91.6941L174.179 95.155L176.025 92.1442L179.486 91.4385L176.476 89.5917L175.77 86.1308L173.923 89.1417L170.462 89.8473Z" stroke="#F27816" stroke-width="2.44358" stroke-linecap="round" stroke-linejoin="round"/>
<path d="M23.2938 130.088L23.494 130.211L23.5409 130.441L23.6637 130.241L23.8938 130.194L23.6936 130.071L23.6467 129.841L23.5239 130.041L23.2938 130.088Z" stroke="#F27816" stroke-width="0.162465" stroke-linecap="round" stroke-linejoin="round"/>
<path d="M92.4531 14.1135L93.3239 14.5599L93.4455 15.5308L93.8918 14.66L94.8628 14.5384L93.992 14.0921L93.8704 13.1211L93.424 13.9919L92.4531 14.1135Z" stroke="#F27816" stroke-width="0.815622" stroke-linecap="round" stroke-linejoin="round"/>
<path d="M121.246 168.12L121.704 168.355L121.768 168.866L122.003 168.408L122.514 168.344L122.056 168.108L121.992 167.597L121.757 168.056L121.246 168.12Z" stroke="#F27816" stroke-width="0.429489" stroke-linecap="round" stroke-linejoin="round"/>
<path d="M202.407 109.11C201.328 108.92 200.298 109.641 200.108 110.72C199.918 111.798 200.639 112.828 201.718 113.018C202.796 113.209 203.826 112.487 204.016 111.409C204.206 110.33 203.485 109.3 202.407 109.11Z" fill="#F27816"/>
<path d="M19.573 88.1042C18.0651 87.8383 16.6249 88.8467 16.359 90.3546C16.0931 91.8625 17.1016 93.3027 18.6095 93.5686C20.1174 93.8345 21.5575 92.826 21.8234 91.3181C22.0893 89.8102 21.0809 88.3701 19.573 88.1042Z" fill="#F27816"/>
<path d="M93.5325 14.304L93.6233 14.3506L93.636 14.4517L93.6825 14.361L93.7837 14.3483L93.6929 14.3018L93.6803 14.2006L93.6337 14.2914L93.5325 14.304Z" stroke="#F27816" stroke-width="0.0850024" stroke-linecap="round" stroke-linejoin="round"/>
<path d="M65.5467 168.635C64.1544 168.389 62.8247 169.32 62.5792 170.713C62.3337 172.105 63.2648 173.435 64.6571 173.68C66.0493 173.926 67.379 172.994 67.6245 171.602C67.87 170.21 66.9389 168.88 65.5467 168.635Z" fill="#F27816"/>
<path d="M19.4097 129.403L22.2016 131.116L22.8559 134.325L24.5684 131.533L27.7776 130.879L24.9857 129.166L24.3314 125.957L22.6189 128.749L19.4097 129.403Z" stroke="#F27816" stroke-width="2.26586" stroke-linecap="round" stroke-linejoin="round"/>
<path d="M173.068 142.814C183.217 158.143 193.19 173.204 198.66 181.465L173.068 142.814Z" fill="#EBE6E6"/>
<path d="M173.068 142.814C183.217 158.143 193.19 173.204 198.66 181.465" stroke="#F27816" stroke-width="5.33333" stroke-linecap="round" stroke-linejoin="round"/>
<path d="M186.116 162.52C187.891 165.201 189.587 167.762 191.171 170.155L186.116 162.52Z" fill="#EBE6E6"/>
<path d="M186.116 162.52C187.891 165.201 189.587 167.762 191.171 170.155" stroke="#F27816" stroke-width="5.33333" stroke-linecap="round" stroke-linejoin="round"/>
<path d="M39.9375 34.0377C38.3271 33.7538 36.789 34.8308 36.5051 36.4412C36.2211 38.0516 37.2981 39.5897 38.9085 39.8736C40.5189 40.1576 42.057 39.0806 42.341 37.4702C42.6249 35.8598 41.5479 34.3217 39.9375 34.0377Z" fill="#F27816"/>
<path d="M163.884 46.0427C162.638 45.823 161.448 46.6565 161.228 47.9028C161.008 49.1491 161.842 50.3394 163.088 50.5592C164.334 50.779 165.525 49.9455 165.744 48.6991C165.964 47.4528 165.131 46.2625 163.884 46.0427Z" fill="#F27816"/>
<path d="M145.154 185.273L165.234 186.954L170.193 167.82L180.367 187.423L179.457 203.985L174.683 207.084L154.254 196.78L145.154 185.273Z" fill="#EBE6E6"/>
<path d="M145.154 185.273L165.234 186.954L170.193 167.82L180.367 187.423L179.457 203.985L174.683 207.084L154.254 196.78L145.154 185.273Z" fill="#EBE6E6"/>
<path d="M155.024 197.331L173.807 197.736L178.434 180.692L180.367 187.423L179.457 203.985L174.683 207.084L154.254 196.78L155.024 197.331Z" fill="#EBE6E6"/>
<path d="M155.024 197.331L173.807 197.736L178.434 180.692L180.367 187.423L179.457 203.985L174.683 207.084L154.254 196.78L155.024 197.331Z" fill="#F27816"/>
<path d="M168.875 163.971C186.966 186.326 179.676 205.305 179.676 205.305C179.676 205.305 159.879 208.594 143.461 182.434" stroke="#483220" stroke-width="2" stroke-linecap="round" stroke-linejoin="round"/>
<path d="M63.499 39.8511C146.184 54.8563 160.484 149.395 160.484 149.395L133.244 169.369C133.244 169.369 49.1699 120.947 63.499 39.8511Z" fill="#EBE6E6"/>
<path d="M63.7384 39.6765L87.1097 46.1357L106.732 57.5164L121.105 67.2172L135.017 83.8452L147.597 106.202L158.359 150.755C158.359 150.755 142.397 93.4991 113.28 75.0994C84.1638 56.6996 63.1221 52.9427 63.1221 52.9427L63.7384 39.6765Z" fill="#EBE6E6"/>
<path d="M61.9724 42.7907L65.9819 40.2439L88.4805 49.5347L61.8728 68.8663L61.9724 42.7907Z" fill="#F37916"/>
<path d="M63.9927 40.2304L75.151 42.4821L88.5558 47.3219L79.5 55.5L64.0205 52.8709L63.9927 40.2304Z" fill="#F37916"/>
<path d="M61.3976 61.1545C61.3976 61.1545 68.7624 103.049 100.989 131.275C133.216 159.501 140.992 162.641 140.992 162.641L132.711 169.39L91.1183 137.348L70.8092 104.858L63.2626 78.8441L61.3976 61.1545Z" fill="white"/>
<path d="M63.4989 39.8505C146.184 54.8557 156.863 136.094 156.863 136.094L122.585 160.999C122.585 160.999 49.1697 120.946 63.4989 39.8505Z" stroke="#483220" stroke-width="2"/>
<path d="M89.3311 48.1846L62.0043 68.0386" stroke="#483220" stroke-width="2"/>
<path d="M123.993 161.597C123.737 161.393 123.744 161.072 124.009 160.88L156.22 137.477C156.485 137.285 156.784 137.38 156.888 137.69L160.622 148.779C160.726 149.089 160.596 149.497 160.331 149.689L133.993 168.825C133.729 169.017 133.306 169.008 133.05 168.804L123.993 161.597Z" stroke="#483220" stroke-width="2"/>
<path d="M95.3974 140.465C95.3974 140.465 119.832 159.284 119.667 160.006C113.129 188.562 122.567 196.299 121.643 195.744C85.2301 173.855 95.3974 140.465 95.3974 140.465Z" fill="#F27816"/>
<path d="M96.5266 148.068C103.855 174.79 115.116 178.695 115.116 178.695L117.005 190.873L110.341 186.742L96.2444 168.6C96.2444 168.6 95.8211 145.496 96.5266 148.068Z" fill="#EBE6E6"/>
<path d="M95.3974 140.465C95.3974 140.465 119.832 159.284 119.667 160.006C113.129 188.562 122.567 196.299 121.643 195.744C85.2301 173.855 95.3974 140.465 95.3974 140.465Z" stroke="#483220" stroke-width="2"/>
<path d="M146.456 103.369C146.456 103.369 156.803 132.423 157.541 132.489C186.719 135.095 191.161 146.463 190.919 145.412C181.353 104.018 146.456 103.369 146.456 103.369Z" fill="#F27816"/>
<path d="M150.025 110.298C148.659 118.249 155.831 131.9 155.831 131.9L181.859 138.992L178.244 137.041C178.244 137.041 173.701 127.756 168.721 122.169C163.793 116.64 150.476 107.67 150.025 110.298Z" fill="#EBE6E6"/>
<path d="M146.456 103.369C146.456 103.369 156.803 132.423 157.541 132.489C186.719 135.095 191.161 146.463 190.919 145.412C181.353 104.018 146.456 103.369 146.456 103.369Z" stroke="#483220" stroke-width="2"/>
<path d="M122.983 125.001C125.315 123.222 128.54 122.062 131.674 126.377C135.245 131.291 160.386 171.44 160.386 171.44C160.386 171.44 162.018 175.199 159.501 177.028C156.984 178.856 153.773 175.696 153.773 175.696L121.661 134.019C121.661 134.019 117.47 129.006 122.983 125.001Z" fill="#F27816"/>
<path d="M122.983 125.001C125.315 123.222 128.54 122.062 131.674 126.377C135.245 131.291 160.386 171.44 160.386 171.44C160.386 171.44 162.018 175.199 159.501 177.028C156.984 178.856 153.773 175.696 153.773 175.696L121.661 134.019C121.661 134.019 117.47 129.006 122.983 125.001Z" stroke="#483220" stroke-width="2"/>
<path d="M89.8831 78.1814C82.0776 83.8523 80.3446 94.7941 86.0156 102.6C91.6866 110.405 102.628 112.138 110.434 106.467C118.239 100.796 119.972 89.8542 114.301 82.0488C108.63 74.2434 97.6885 72.5104 89.8831 78.1814Z" fill="#F27816"/>
<path d="M92.9212 79.087C91.9489 76.0651 101.114 74.2331 101.114 74.2331L108.357 75.3802L114.813 81.4938L117.866 97.0382C117.866 97.0382 110.86 103.777 110.424 103.178C113.022 92.1345 104.303 80.8897 92.9212 79.087Z" fill="#F27816"/>
<path d="M89.8831 78.1814C82.0776 83.8523 80.3446 94.7941 86.0156 102.6C91.6866 110.405 102.628 112.138 110.434 106.467C118.239 100.796 119.972 89.8542 114.301 82.0488C108.63 74.2434 97.6885 72.5104 89.8831 78.1814Z" stroke="#483220" stroke-width="5.92593"/>
<path d="M104.51 86.9021C102.075 84.5471 98.2247 84.2067 95.3904 86.2659C95.0495 86.5136 94.737 86.7861 94.4534 87.0793" stroke="white" stroke-width="5.92593" stroke-linecap="round" stroke-linejoin="round"/>
</g>
<defs>
<clipPath id="clip0_118_2314">
<rect width="200" height="180.741" fill="white" transform="matrix(-0.984808 -0.173648 -0.173648 0.984808 228.347 35.3674)"/>
</clipPath>
</defs>
</svg>
