<svg width="18" height="25" viewBox="0 0 18 25" fill="none" xmlns="http://www.w3.org/2000/svg">
<path d="M17.25 10.5468H10.5V3.75457C10.5 3.3376 10.1644 2.99988 9.75 2.99988H8.25C7.83563 2.99988 7.5 3.3376 7.5 3.75457V10.5468H0.75C0.335625 10.5468 0 10.8845 0 11.3014V12.8108C0 13.2278 0.335625 13.5655 0.75 13.5655H7.5V20.3577C7.5 20.7747 7.83563 21.1124 8.25 21.1124H9.75C10.1644 21.1124 10.5 20.7747 10.5 20.3577V13.5655H17.25C17.6644 13.5655 18 13.2278 18 12.8108V11.3014C18 10.8845 17.6644 10.5468 17.25 10.5468Z" fill="#04BB77"/>
</svg>
