<svg width="32" height="40" viewBox="0 0 32 40" fill="none" xmlns="http://www.w3.org/2000/svg">
<path d="M15.7796 3.77914C7.22745 3.77914 0.294922 10.7117 0.294922 19.2638C0.294922 23.6687 2.14769 27.6442 5.10475 30.4663C5.26016 30.3354 5.41558 30.2045 5.571 30.0736C5.5301 30.1063 5.48512 30.1432 5.43604 30.1841V15.9877C5.43604 15.3742 5.86548 14.6135 6.38082 14.2822L14.8962 8.82209C15.4115 8.4908 16.2581 8.4908 16.7612 8.82209L25.1784 14.2822C25.6937 14.6135 26.1109 15.3742 26.1109 15.9877V29.3988C26.0946 29.3906 26.0782 29.3783 26.0618 29.362C26.3563 29.5665 26.6385 29.7832 26.9085 30.0123C29.6079 27.227 31.2643 23.4356 31.2643 19.2638C31.2643 10.7117 24.3318 3.77914 15.7796 3.77914Z" fill="#404040"/>
<path d="M16.2822 26.2209C19.9509 26.2209 23.3497 27.3988 26.1104 29.3988V15.9877C26.1104 15.3742 25.6932 14.6135 25.1779 14.2822L16.7607 8.82209C16.2576 8.4908 15.411 8.4908 14.8957 8.82209L6.38033 14.2822C5.86499 14.6135 5.43555 15.3742 5.43555 15.9877V30.1841C8.36807 27.7055 12.1472 26.2209 16.2822 26.2209Z" fill="#E4DDFF"/>
<g style="mix-blend-mode:multiply" opacity="0.2">
<path d="M17.5948 11.7423C17.5948 12.7485 16.785 13.5583 15.7788 13.5583C14.7727 13.5583 13.9629 12.7485 13.9629 11.7423C13.9629 10.7362 14.7727 9.92638 15.7788 9.92638C16.785 9.92638 17.5948 10.7362 17.5948 11.7423Z" fill="#291482"/>
</g>
<path d="M17.1528 11.3006C17.1528 12.0491 16.5393 12.6626 15.7785 12.6626C15.0178 12.6626 14.4043 12.0491 14.4043 11.3006C14.4043 10.5399 15.0178 9.92638 15.7785 9.92638C16.5393 9.92638 17.1528 10.5399 17.1528 11.3006Z" fill="#414143"/>
<path d="M15.7807 11.6442C15.7071 11.6442 15.6457 11.6196 15.5967 11.5583C15.4371 11.3374 11.793 6.11043 11.793 3.98773C11.793 1.79141 13.5844 0 15.7807 0C15.9034 0 16.0016 0.098158 16.0016 0.220857C16.0016 0.343557 15.9034 0.441719 15.7807 0.441719C13.8298 0.441719 12.2347 2.03681 12.2347 3.98773C12.2347 5.96319 15.9279 11.2393 15.9648 11.3006C16.0261 11.3988 16.0016 11.5337 15.9034 11.6074C15.8625 11.6319 15.8216 11.6442 15.7807 11.6442Z" fill="#4E22FF"/>
<path d="M8.01367 33.227C11.9401 36.9325 15.7806 40 15.7806 40C15.7806 40 19.621 36.9325 23.5474 33.227H8.01367Z" fill="#E4DDFF"/>
<path d="M26.1104 29.3988V15.9877C26.1104 15.3742 25.6932 14.6135 25.1779 14.2822L25.1534 14.2577C22.8343 20.5522 16.4662 28.135 5.43555 23.1043V30.1841C8.36807 27.7055 12.1472 26.2209 16.2822 26.2209C19.9509 26.2209 23.3497 27.3988 26.1104 29.3988Z" fill="#4E22FF"/>
<path d="M12.6875 37.4233C14.5157 38.9939 15.7795 40 15.7795 40C15.7795 40 19.62 36.9325 23.5464 33.227H19.5709C18.4912 35.1902 16.3317 37.2883 12.6875 37.4233Z" fill="#4E22FF"/>
<path d="M15.7796 11.6442C15.7305 11.6442 15.6855 11.6319 15.6446 11.6074C15.5465 11.5337 15.5219 11.3988 15.5955 11.3006C15.6324 11.2393 19.3133 5.96319 19.3133 3.98773C19.3133 2.03681 17.7305 0.441719 15.7796 0.441719C15.6569 0.441719 15.5587 0.343557 15.5587 0.220857C15.5587 0.098158 15.6569 0 15.7796 0C17.9759 0 19.7551 1.79141 19.7551 3.98773C19.7551 6.11043 16.1109 11.3374 15.9636 11.5583C15.9146 11.6196 15.8532 11.6442 15.7796 11.6442Z" fill="#4E22FF"/>
<path d="M14.6622 8.96932C14.4332 8.56032 14.2083 8.14723 13.9874 7.73006L13.3984 8.67484C13.5457 8.94478 13.697 9.21881 13.8524 9.49693L14.6622 8.96932Z" fill="#414143"/>
</svg>
