<svg width="150" height="105" viewBox="0 0 150 105" fill="none" xmlns="http://www.w3.org/2000/svg">
<g clip-path="url(#clip0_118_2590)">
<path d="M85.9292 0.703796H64.0707C54.8391 0.703796 47.3555 8.18748 47.3555 17.4191V39.2774C47.3555 48.509 54.8391 55.9927 64.0707 55.9927H85.9292C95.1608 55.9927 102.644 48.509 102.644 39.2774V17.4191C102.644 8.18748 95.1608 0.703796 85.9292 0.703796Z" fill="url(#paint0_radial_118_2590)"/>
<mask id="mask0_118_2590" style="mask-type:luminance" maskUnits="userSpaceOnUse" x="55" y="9" width="40" height="39">
<path d="M94.0073 9.34277H55.9961V47.354H94.0073V9.34277Z" fill="white"/>
</mask>
<g mask="url(#mask0_118_2590)">
<mask id="mask1_118_2590" style="mask-type:luminance" maskUnits="userSpaceOnUse" x="55" y="9" width="39" height="39">
<path d="M93.9268 9.34283H55.9961V47.2736H93.9268V9.34283Z" fill="white"/>
</mask>
<g mask="url(#mask1_118_2590)">
<path fill-rule="evenodd" clip-rule="evenodd" d="M67.1132 9.56648C66.6889 9.63243 65.8211 9.83984 65.1845 10.0274C63.8615 10.4174 63.8995 10.4146 62.87 10.2057C60.7821 9.78198 58.6003 10.9063 57.6924 12.8738C57.3997 13.5079 57.3487 13.8021 57.3285 14.9712C57.3101 16.0421 57.2505 16.4383 57.0487 16.8356C56.9076 17.1132 56.6294 17.8321 56.43 18.4332C56.0912 19.4552 56.0673 19.6678 56.0615 21.712C56.0561 23.619 56.093 24.0273 56.3495 24.9128C57.5389 29.0192 60.4217 31.9626 64.4391 33.1721C65.4088 33.4643 65.8773 33.5215 67.7204 33.5738C70.0709 33.6406 71.2267 33.5595 77.4437 32.8902C80.019 32.613 81.7408 32.3709 81.9659 32.2545C83.1825 31.6255 83.3092 29.7514 82.1889 28.9537C81.6107 28.5418 80.9161 28.535 77.4638 28.9066C69.7912 29.7325 67.9335 29.8437 66.4061 29.5688C63.5076 29.0474 61.1706 26.9956 60.1416 24.0694C59.7366 22.9178 59.6092 20.9205 59.8762 19.9118C60.0648 19.2 59.97 19.2291 61.3491 19.4595C63.3146 19.7879 65.3742 18.6676 66.2532 16.792C66.5574 16.1429 66.5989 15.8974 66.5989 14.7462V13.4379L66.9489 13.3679C67.9887 13.1599 68.9717 13.1506 69.8777 13.3404C72.9323 13.98 75.4275 16.4084 76.1974 19.491C76.6628 21.3543 77.1976 21.9543 78.3939 21.9543C79.0891 21.9543 79.5356 21.6898 80.0163 20.9929C80.281 20.6091 80.3103 20.4509 80.2505 19.7189C80.1161 18.0699 79.3171 16.0533 78.1368 14.3829C76.8565 12.5707 75.6993 11.5987 73.6881 10.646C71.6818 9.69569 69.057 9.2647 67.1132 9.56648ZM79.3924 22.9481C78.5792 23.0068 75.7215 23.2871 73.0422 23.5713C67.8513 24.1217 67.681 24.1601 67.1267 24.9037C66.9231 25.1769 66.8561 25.4549 66.8561 26.0269C66.8561 26.747 66.8841 26.8153 67.3899 27.3209C67.8377 27.7688 68.0242 27.8638 68.5472 27.9107C68.8899 27.9416 71.0798 27.7628 73.4136 27.5134C81.2725 26.6736 82.6146 26.6416 84.5391 27.2495C85.7478 27.6315 86.3852 28.0495 87.6476 29.2887C88.446 30.0719 88.7522 30.4918 89.2256 31.451C90.1507 33.3252 90.3704 34.7682 89.9872 36.4535C89.7874 37.3315 89.7706 37.357 89.4408 37.2831C88.052 36.9728 87.713 36.9423 87.0364 37.0674C85.9484 37.2686 85.2439 37.6379 84.4677 38.4143C83.4109 39.4707 83.1941 40.0441 83.1895 41.7908L83.1856 43.2257L82.7356 43.3002C81.8559 43.4458 80.5769 43.3738 79.5995 43.124C76.5128 42.3344 74.3005 40.0207 73.4879 36.7317C73.2657 35.8329 73.1078 35.4676 72.8096 35.1626C71.5773 33.902 69.4895 34.7551 69.4928 36.518C69.4943 37.2964 69.9644 39.0607 70.4516 40.1149C72.47 44.4838 76.5152 47.0985 81.2655 47.1045C82.7397 47.1066 83.6289 46.9713 85.1561 46.513C86.1167 46.2251 86.2991 46.207 86.9327 46.3385C89.9304 46.9609 92.6068 44.4981 92.4935 41.2215C92.4673 40.4603 92.5221 40.2271 92.9472 39.2889C94.5335 35.7881 94.1256 31.4902 91.8933 28.1829C89.874 25.1914 86.8987 23.4024 83.1856 22.9474C81.9126 22.7914 81.564 22.7914 79.3924 22.9481Z" fill="#F37916"/>
<path d="M87.9474 47.145C90.7878 47.145 93.0905 44.8423 93.0905 42.0018C93.0905 39.1613 90.7878 36.8586 87.9474 36.8586C85.1069 36.8586 82.8042 39.1613 82.8042 42.0018C82.8042 44.8423 85.1069 47.145 87.9474 47.145Z" fill="#231F20"/>
<path d="M61.8473 19.7576C64.6877 19.7576 66.9904 17.455 66.9904 14.6145C66.9904 11.774 64.6877 9.47131 61.8473 9.47131C59.0068 9.47131 56.7041 11.774 56.7041 14.6145C56.7041 17.455 59.0068 19.7576 61.8473 19.7576Z" fill="#231F20"/>
</g>
</g>
<path d="M0.464924 86.6375L2.05168 82.601C6.08815 85.3292 11.7949 85.9694 11.7949 82.9072C11.7949 80.2906 0.158708 81.4041 0.464924 74.3053C0.687625 68.4873 8.89977 66.8449 15.3581 71.4103L13.493 74.7229C9.42869 71.6051 4.66842 71.9949 4.58492 74.5837C4.47357 77.813 15.9149 76.4211 15.9149 82.6846C15.9149 88.7255 9.42869 90.9246 0.464924 86.6375Z" fill="#231F20"/>
<path d="M27.3808 88.4409C24.2352 88.4409 19.3357 87.6059 19.3357 82.2055V77.3617H17.9717V73.4644H19.3357V70.3743H23.2329V73.4644H26.852V77.3617H23.2329V81.3424C23.2329 84.2654 25.4043 84.5438 27.3808 84.5438V88.4409Z" fill="#231F20"/>
<path d="M37.0655 88.3333C32.8064 88.3333 29.3545 84.8814 29.3545 80.6221C29.3545 76.3908 32.8064 72.9389 37.0655 72.9389C41.2968 72.9389 44.7487 76.3908 44.7487 80.6221V88.4445H40.8514V86.6074C39.9885 87.6373 38.6244 88.3333 37.0655 88.3333ZM37.0655 84.436C39.1532 84.436 40.8514 82.7379 40.8514 80.6221C40.8514 78.5343 39.1532 76.8362 37.0655 76.8362C34.9497 76.8362 33.2518 78.5343 33.2518 80.6221C33.2518 82.7379 34.9497 84.436 37.0655 84.436Z" fill="#231F20"/>
<path d="M54.5542 88.4426C50.2673 88.4426 46.7876 84.9074 46.7876 80.5646C46.7876 75.9992 50.4621 72.7422 54.5542 72.7422C57.0318 72.7422 59.3146 73.9671 60.5673 75.7764L57.7556 78.5046C57.0876 77.1963 55.6677 76.6395 54.582 76.6395C52.6334 76.6395 50.6849 78.1428 50.6849 80.5646C50.6849 82.7638 52.4108 84.5455 54.582 84.5455C55.9739 84.5455 57.2546 83.7381 57.7834 82.6524L60.5673 85.3806C59.3424 87.2179 57.0318 88.4426 54.5542 88.4426Z" fill="#231F20"/>
<path d="M66.8821 84.3433L66.8912 79.6074H67.4659L72.0256 74.2043H76.5576L70.4314 81.3591H69.4956L66.8821 84.3433ZM63.3047 88.4396V70.3292H67.2526V88.4396H63.3047ZM72.2016 88.4396L68.0126 82.2396L70.6447 79.4499L76.8263 88.4396H72.2016Z" fill="#231F20"/>
<path d="M94.439 88.4412L92.8523 85.5462H83.5821L81.9954 88.469L77.5137 88.4412L88.2033 70.2422L98.9207 88.4412H94.439ZM85.6423 81.9271H90.7643L88.2033 77.2225L85.6423 81.9271Z" fill="#F37916"/>
<path d="M108.093 88.441C106.534 88.441 105.114 87.7451 104.251 86.6594V92.9507H100.354V80.73C100.354 76.443 103.805 72.9631 108.093 72.9631C112.352 72.9631 115.831 76.443 115.831 80.73C115.831 84.9891 112.352 88.441 108.093 88.441ZM108.093 76.8604C105.949 76.8604 104.251 78.5864 104.251 80.73C104.251 82.8457 105.949 84.5439 108.093 84.5439C110.208 84.5439 111.934 82.8457 111.934 80.73C111.934 78.5864 110.208 76.8604 108.093 76.8604Z" fill="#F37916"/>
<path d="M126.362 88.441C124.803 88.441 123.383 87.7452 122.52 86.6595V92.9508H118.623V80.73C118.623 76.4431 122.074 72.9632 126.362 72.9632C130.621 72.9632 134.1 76.4431 134.1 80.73C134.1 84.9891 130.621 88.441 126.362 88.441ZM126.362 76.8605C124.218 76.8605 122.52 78.5864 122.52 80.73C122.52 82.8458 124.218 84.5439 126.362 84.5439C128.477 84.5439 130.203 82.8458 130.203 80.73C130.203 78.5864 128.477 76.8605 126.362 76.8605Z" fill="#F37916"/>
<path d="M135.5 86.3253L136.864 83.0962C140.344 85.0726 145.411 85.88 145.411 83.458C145.411 81.3425 135.64 82.2332 135.918 76.5821C136.28 71.6549 143.601 70.7362 149.113 74.3829L147.526 77.0553C144.576 74.7728 140.066 74.9398 139.982 76.8049C139.899 78.8649 149.447 78.3917 149.447 83.291C149.447 87.9678 143.963 90.501 135.5 86.3253Z" fill="#F37916"/>
<path d="M0.463379 97.2503H1.2022L2.67985 99.7375H2.74227L4.21993 97.2503H4.95875L3.03364 100.383V102.578H2.38848V100.383L0.463379 97.2503ZM12.2725 99.9144C12.2725 100.476 12.171 100.962 11.9681 101.371C11.7652 101.78 11.4869 102.096 11.1331 102.318C10.7792 102.54 10.3752 102.651 9.92076 102.651C9.46636 102.651 9.06227 102.54 8.70848 102.318C8.35466 102.096 8.07632 101.78 7.87339 101.371C7.67047 100.962 7.56902 100.476 7.56902 99.9144C7.56902 99.3524 7.67047 98.8667 7.87339 98.4576C8.07632 98.0482 8.35466 97.7325 8.70848 97.5105C9.06227 97.2885 9.46636 97.1775 9.92076 97.1775C10.3752 97.1775 10.7792 97.2885 11.1331 97.5105C11.4869 97.7325 11.7652 98.0482 11.9681 98.4576C12.171 98.8667 12.2725 99.3524 12.2725 99.9144ZM11.6481 99.9144C11.6481 99.453 11.571 99.0636 11.4166 98.7462C11.264 98.4289 11.0567 98.1887 10.7949 98.0256C10.5347 97.8626 10.2434 97.781 9.92076 97.781C9.59819 97.781 9.30595 97.8626 9.04406 98.0256C8.78391 98.1887 8.57667 98.4289 8.42231 98.7462C8.26968 99.0636 8.19337 99.453 8.19337 99.9144C8.19337 100.376 8.26968 100.765 8.42231 101.082C8.57667 101.4 8.78391 101.64 9.04406 101.803C9.30595 101.966 9.59819 102.048 9.92076 102.048C10.2434 102.048 10.5347 101.966 10.7949 101.803C11.0567 101.64 11.264 101.4 11.4166 101.082C11.571 100.765 11.6481 100.376 11.6481 99.9144ZM19.0881 97.2503H19.7332V100.778C19.7332 101.142 19.6474 101.467 19.4757 101.754C19.3057 102.038 19.0655 102.263 18.7551 102.427C18.4446 102.59 18.0804 102.672 17.6625 102.672C17.2445 102.672 16.8803 102.59 16.5698 102.427C16.2594 102.263 16.0183 102.038 15.8466 101.754C15.6767 101.467 15.5917 101.142 15.5917 100.778V97.2503H16.2369V100.726C16.2369 100.986 16.2941 101.218 16.4086 101.421C16.523 101.622 16.686 101.78 16.8976 101.897C17.1109 102.011 17.3659 102.068 17.6625 102.068C17.959 102.068 18.214 102.011 18.4273 101.897C18.6406 101.78 18.8036 101.622 18.9164 101.421C19.0308 101.218 19.0881 100.986 19.0881 100.726V97.2503ZM23.2559 102.578V97.2503H25.0562C25.4725 97.2503 25.814 97.3215 26.0813 97.4638C26.3483 97.6043 26.546 97.7976 26.6744 98.0439C26.8026 98.2902 26.8669 98.5702 26.8669 98.8841C26.8669 99.198 26.8026 99.4765 26.6744 99.7192C26.546 99.9619 26.3491 100.153 26.0837 100.292C25.8184 100.429 25.4794 100.497 25.0665 100.497H23.6099V99.9144H25.0458C25.3302 99.9144 25.5593 99.8727 25.7327 99.7895C25.9078 99.7061 26.0344 99.5883 26.1124 99.4356C26.1922 99.2812 26.2321 99.0974 26.2321 98.8841C26.2321 98.6709 26.1922 98.4843 26.1124 98.3248C26.0327 98.1653 25.9051 98.042 25.73 97.9555C25.5549 97.8669 25.3234 97.8227 25.0354 97.8227H23.9012V102.578H23.2559ZM25.7638 100.185L27.075 102.578H26.3257L25.0354 100.185H25.7638ZM34.4711 102.578V97.2503H36.2713C36.6891 97.2503 37.0308 97.3258 37.2962 97.4767C37.5634 97.6258 37.7609 97.8279 37.8893 98.0829C38.0178 98.3379 38.0819 98.6223 38.0819 98.9362C38.0819 99.2501 38.0178 99.5354 37.8893 99.792C37.7628 100.049 37.5667 100.253 37.3014 100.406C37.036 100.557 36.6962 100.632 36.2817 100.632H34.9912V100.06H36.2609C36.547 100.06 36.7769 100.01 36.9501 99.9117C37.1236 99.8128 37.2493 99.6794 37.3275 99.5111C37.4072 99.3412 37.447 99.1495 37.447 98.9362C37.447 98.7229 37.4072 98.5321 37.3275 98.3638C37.2493 98.1955 37.1227 98.0638 36.9476 97.9684C36.7725 97.8713 36.54 97.8227 36.2503 97.8227H35.1161V102.578H34.4711ZM41.3555 102.578V97.2503H43.1557C43.5719 97.2503 43.9136 97.3215 44.1808 97.4638C44.4479 97.6043 44.6456 97.7976 44.7738 98.0439C44.9022 98.2902 44.9663 98.5702 44.9663 98.8841C44.9663 99.198 44.9022 99.4765 44.7738 99.7192C44.6456 99.9619 44.4487 100.153 44.1833 100.292C43.918 100.429 43.579 100.497 43.1661 100.497H41.7093V99.9144H43.1454C43.4298 99.9144 43.6586 99.8727 43.8321 99.7895C44.0074 99.7061 44.134 99.5883 44.212 99.4356C44.2918 99.2812 44.3317 99.0974 44.3317 98.8841C44.3317 98.6709 44.2918 98.4843 44.212 98.3248C44.1321 98.1653 44.0047 98.042 43.8296 97.9555C43.6543 97.8669 43.4227 97.8227 43.135 97.8227H42.0008V102.578H41.3555ZM43.8634 100.185L45.1744 102.578H44.4252L43.135 100.185H43.8634ZM48.2759 102.578V97.2503H51.4912V97.8227H48.9209V99.6229H51.3248V100.195H48.9209V102.006H51.5329V102.578H48.2759ZM54.8885 97.2503H55.6584L57.4692 101.673H57.5317L59.3423 97.2503H60.1122V102.578H59.5086V98.5304H59.4568L57.7916 102.578H57.2091L55.5441 98.5304H55.492V102.578H54.8885V97.2503ZM64.2854 97.2503V102.578H63.6402V97.2503H64.2854ZM71.3097 97.2503H71.9549V100.778C71.9549 101.142 71.869 101.467 71.6974 101.754C71.5273 102.038 71.2873 102.263 70.9767 102.427C70.6663 102.59 70.302 102.672 69.8842 102.672C69.4661 102.672 69.102 102.59 68.7914 102.427C68.481 102.263 68.24 102.038 68.0682 101.754C67.8983 101.467 67.8134 101.142 67.8134 100.778V97.2503H68.4584V100.726C68.4584 100.986 68.5157 101.218 68.6302 101.421C68.7447 101.622 68.9076 101.78 69.1192 101.897C69.3325 102.011 69.5875 102.068 69.8842 102.068C70.1806 102.068 70.4356 102.011 70.6489 101.897C70.8622 101.78 71.0252 101.622 71.1381 101.421C71.2524 101.218 71.3097 100.986 71.3097 100.726V97.2503ZM75.4777 97.2503H76.2476L78.0582 101.673H78.1207L79.9315 97.2503H80.7014V102.578H80.0978V98.5304H80.0458L78.3808 102.578H77.7981L76.1331 98.5304H76.0812V102.578H75.4777V97.2503ZM89.1692 97.2503V102.578H88.5242V97.2503H89.1692ZM92.4059 97.8227V97.2503H96.4018V97.8227H94.7263V102.578H94.0812V97.8227H92.4059ZM103.926 102.578V97.2503H105.727C106.145 97.2503 106.486 97.3258 106.752 97.4767C107.019 97.6258 107.217 97.8279 107.345 98.0829C107.473 98.3379 107.537 98.6223 107.537 98.9362C107.537 99.2501 107.473 99.5354 107.345 99.792C107.218 100.049 107.022 100.253 106.757 100.406C106.492 100.557 106.152 100.632 105.737 100.632H104.447V100.06H105.716C106.003 100.06 106.232 100.01 106.406 99.9117C106.579 99.8128 106.705 99.6794 106.783 99.5111C106.863 99.3412 106.903 99.1495 106.903 98.9362C106.903 98.7229 106.863 98.5321 106.783 98.3638C106.705 98.1955 106.578 98.0638 106.403 97.9684C106.228 97.8713 105.996 97.8227 105.706 97.8227H104.572V102.578H103.926ZM110.486 102.578H109.809L111.766 97.2503H112.432L114.388 102.578H113.712L112.12 98.0933H112.078L110.486 102.578ZM110.736 100.497H113.462V101.069H110.736V100.497ZM117.452 102.578V97.2503H119.253C119.669 97.2503 120.01 97.3215 120.278 97.4638C120.545 97.6043 120.742 97.7976 120.871 98.0439C120.999 98.2902 121.063 98.5702 121.063 98.8841C121.063 99.198 120.999 99.4765 120.871 99.7192C120.742 99.9619 120.546 100.153 120.28 100.292C120.015 100.429 119.676 100.497 119.263 100.497H117.806V99.9144H119.242C119.527 99.9144 119.756 99.8727 119.929 99.7895C120.104 99.7061 120.231 99.5883 120.309 99.4356C120.389 99.2812 120.428 99.0974 120.428 98.8841C120.428 98.6709 120.389 98.4843 120.309 98.3248C120.229 98.1653 120.102 98.042 119.926 97.9555C119.751 97.8669 119.52 97.8227 119.232 97.8227H118.097V102.578H117.452ZM119.96 100.185L121.271 102.578H120.522L119.232 100.185H119.96ZM124.081 97.8227V97.2503H128.077V97.8227H126.402V102.578H125.757V97.8227H124.081ZM135.532 97.2503V102.578H134.908L132.004 98.3951H131.952V102.578H131.307V97.2503H131.932L134.845 101.444H134.897V97.2503H135.532ZM139.057 102.578V97.2503H142.273V97.8227H139.703V99.6229H142.106V100.195H139.703V102.006H142.314V102.578H139.057ZM145.67 102.578V97.2503H147.47C147.886 97.2503 148.228 97.3215 148.495 97.4638C148.762 97.6043 148.96 97.7976 149.088 98.0439C149.217 98.2902 149.281 98.5702 149.281 98.8841C149.281 99.198 149.217 99.4765 149.088 99.7192C148.96 99.9619 148.763 100.153 148.498 100.292C148.232 100.429 147.893 100.497 147.481 100.497H146.024V99.9144H147.46C147.744 99.9144 147.973 99.8727 148.147 99.7895C148.322 99.7061 148.448 99.5883 148.526 99.4356C148.606 99.2812 148.646 99.0974 148.646 98.8841C148.646 98.6709 148.606 98.4843 148.526 98.3248C148.447 98.1653 148.319 98.042 148.144 97.9555C147.969 97.8669 147.737 97.8227 147.449 97.8227H146.315V102.578H145.67ZM148.178 100.185L149.489 102.578H148.74L147.449 100.185H148.178Z" fill="#231F20"/>
</g>
<defs>
<radialGradient id="paint0_radial_118_2590" cx="0" cy="0" r="1" gradientUnits="userSpaceOnUse" gradientTransform="translate(74.9999 28.3484) rotate(89.2205) scale(28.3542 28.3544)">
<stop offset="0.666667" stop-color="white"/>
<stop offset="1" stop-color="#F5F5F5"/>
</radialGradient>
<clipPath id="clip0_118_2590">
<rect width="150" height="104.15" fill="white" transform="translate(0 0.5)"/>
</clipPath>
</defs>
</svg>
