<svg width="651" height="250" viewBox="0 0 651 250" fill="none" xmlns="http://www.w3.org/2000/svg">
<path d="M96.7791 23.6196C43.3282 23.6196 0 66.9479 0 120.399C0 147.929 11.5797 172.776 30.0613 190.414C31.0327 189.596 32.0041 188.778 32.9754 187.96C32.7198 188.165 32.4387 188.395 32.1319 188.65V99.9233C32.1319 96.089 34.8159 91.3344 38.0368 89.2638L91.2576 55.138C94.4785 53.0675 99.7699 53.0675 102.914 55.138L155.521 89.2638C158.742 91.3344 161.35 96.089 161.35 99.9233V183.742C161.247 183.691 161.145 183.615 161.043 183.512C162.883 184.79 164.647 186.145 166.334 187.577C183.205 170.169 193.558 146.472 193.558 120.399C193.558 66.9479 150.23 23.6196 96.7791 23.6196Z" fill="#404040"/>
<path d="M99.9232 163.88C122.853 163.88 144.095 171.242 161.35 183.742V99.9233C161.35 96.0889 158.742 91.3343 155.521 89.2638L102.914 55.138C99.7699 53.0674 94.4784 53.0674 91.2576 55.138L38.0367 89.2638C34.8159 91.3343 32.1318 96.0889 32.1318 99.9233V188.65C50.4601 173.159 74.0797 163.88 99.9232 163.88Z" fill="#E4DDFF"/>
<g style="mix-blend-mode:multiply" opacity="0.2">
<path d="M108.129 73.3896C108.129 79.678 103.067 84.7393 96.7791 84.7393C90.4908 84.7393 85.4294 79.678 85.4294 73.3896C85.4294 67.1013 90.4908 62.0399 96.7791 62.0399C103.067 62.0399 108.129 67.1013 108.129 73.3896Z" fill="#291482"/>
</g>
<path d="M105.368 70.6289C105.368 75.3068 101.534 79.1412 96.7792 79.1412C92.0246 79.1412 88.1902 75.3068 88.1902 70.6289C88.1902 65.8743 92.0246 62.0399 96.7792 62.0399C101.534 62.0399 105.368 65.8743 105.368 70.6289Z" fill="#414143"/>
<path d="M96.779 72.7761C96.3189 72.7761 95.9355 72.6227 95.6287 72.2393C94.6318 70.8589 71.8557 38.1902 71.8557 24.9233C71.8557 11.1963 83.052 0 96.779 0C97.5459 0 98.1594 0.613488 98.1594 1.38036C98.1594 2.14723 97.5459 2.76074 96.779 2.76074C84.5858 2.76074 74.6165 12.7301 74.6165 24.9233C74.6165 37.2699 97.6993 70.2454 97.9293 70.6288C98.3128 71.2423 98.1594 72.0859 97.5459 72.546C97.2903 72.6994 97.0346 72.7761 96.779 72.7761Z" fill="#4E22FF"/>
<path d="M48.2361 207.669C72.776 230.828 96.779 250 96.779 250C96.779 250 120.782 230.828 145.322 207.669H48.2361Z" fill="#E4DDFF"/>
<path d="M161.35 183.742V99.9233C161.35 96.089 158.742 91.3344 155.521 89.2638L155.368 89.1105C140.874 128.451 101.074 175.844 32.1318 144.402V188.65C50.4601 173.16 74.0797 163.88 99.9232 163.88C122.853 163.88 144.095 171.242 161.35 183.742Z" fill="#4E22FF"/>
<path d="M77.4539 233.896C88.8802 243.712 96.779 250 96.779 250C96.779 250 120.782 230.828 145.322 207.669H120.475C113.727 219.939 100.23 233.052 77.4539 233.896Z" fill="#4E22FF"/>
<path d="M96.7792 72.7761C96.4724 72.7761 96.1912 72.6994 95.9356 72.546C95.3221 72.0859 95.1687 71.2423 95.6289 70.6288C95.8589 70.2454 118.865 37.2699 118.865 24.9233C118.865 12.7301 108.972 2.76074 96.7792 2.76074C96.0123 2.76074 95.3988 2.14723 95.3988 1.38036C95.3988 0.613488 96.0123 0 96.7792 0C110.506 0 121.626 11.1963 121.626 24.9233C121.626 38.1902 98.8497 70.8589 97.9295 72.2393C97.6227 72.6227 97.2393 72.7761 96.7792 72.7761Z" fill="#4E22FF"/>
<path d="M89.8006 56.0583C88.3691 53.502 86.9632 50.9202 85.5828 48.3129L81.9019 54.2178C82.8221 55.9049 83.7679 57.6176 84.7393 59.3558L89.8006 56.0583Z" fill="#414143"/>
<path d="M275.038 108.767C272.303 108.767 269.619 108.422 266.986 107.732C264.353 107.041 261.95 106.006 259.778 104.626C257.605 103.245 255.803 101.52 254.371 99.4494C252.965 97.3788 252.122 94.9504 251.84 92.1641H263.305C263.689 93.8512 264.417 95.2699 265.491 96.4202C266.564 97.5706 267.919 98.4525 269.555 99.066C271.191 99.6794 273.006 99.9862 275 99.9862C277.045 99.9862 278.911 99.7306 280.598 99.2193C282.285 98.7081 283.64 97.9412 284.663 96.9187C285.685 95.8707 286.196 94.567 286.196 93.0077C286.196 91.6017 285.775 90.4514 284.931 89.5567C284.113 88.6621 283.001 87.9335 281.595 87.3712C280.189 86.8088 278.591 86.3487 276.802 85.9908L267.216 84.0353C263.024 83.2428 259.701 81.5813 257.247 79.0506C254.793 76.4944 253.528 73.0946 253.451 68.8512C253.425 65.3747 254.346 62.3712 256.212 59.8405C258.103 57.2843 260.659 55.316 263.88 53.9356C267.127 52.5552 270.757 51.865 274.77 51.865C279.55 51.865 283.563 52.6191 286.81 54.1273C290.082 55.6099 292.561 57.6293 294.248 60.1856C295.961 62.7163 296.843 65.5409 296.894 68.6595H285.659C285.455 66.7168 284.867 65.1702 283.896 64.0199C282.924 62.8696 281.672 62.0389 280.138 61.5276C278.63 61.0164 276.904 60.7607 274.962 60.7607C273.479 60.7607 272.124 60.9269 270.897 61.2592C269.696 61.5915 268.673 62.0644 267.83 62.6779C266.986 63.2659 266.334 63.9688 265.874 64.7868C265.414 65.6048 265.184 66.5251 265.184 67.5475C265.184 69.158 265.721 70.4617 266.794 71.4586C267.868 72.4555 269.875 73.2735 272.814 73.9126L282.324 75.8681C285.723 76.5327 288.42 77.5169 290.414 78.8206C292.434 80.1242 293.942 81.5941 294.939 83.2301C295.961 84.8661 296.626 86.5404 296.932 88.2531C297.265 89.9402 297.431 91.4995 297.431 92.931C297.431 95.9218 296.485 98.6186 294.594 101.021C292.727 103.399 290.12 105.29 286.771 106.696C283.423 108.077 279.512 108.767 275.038 108.767ZM329.004 76.1365H320.185L320.262 97.2638C320.262 98.2352 320.377 98.9637 320.607 99.4494C320.862 99.9095 321.246 100.216 321.757 100.37C322.294 100.497 322.971 100.561 323.789 100.561H329.119V107.463C328.608 107.693 327.802 107.911 326.703 108.115C325.63 108.32 324.121 108.422 322.179 108.422C318.702 108.422 316.005 107.974 314.088 107.08C312.197 106.185 310.88 104.933 310.139 103.322C309.398 101.712 309.027 99.8456 309.027 97.7239V76.1365H302.585V68.3528H309.41L312.209 56.3896H320.185V68.3144H329.004V76.1365ZM348.703 108.767C346.172 108.767 343.897 108.294 341.878 107.348C339.858 106.402 338.261 105.035 337.085 103.245C335.909 101.43 335.321 99.2321 335.321 96.6503C335.321 92.3047 336.944 89.0072 340.191 86.7577C343.437 84.4826 348.562 83.3067 355.566 83.2301L360.513 83.1534V80.7761C360.513 78.9611 359.976 77.568 358.902 76.5966C357.854 75.5997 356.218 75.114 353.994 75.1396C352.358 75.1651 350.799 75.5486 349.316 76.2899C347.859 77.0312 346.862 78.3221 346.326 80.1626H337.008C337.161 77.2996 337.992 74.9479 339.5 73.1074C341.009 71.2413 343.054 69.8609 345.635 68.9663C348.243 68.046 351.195 67.5859 354.493 67.5859C358.557 67.5859 361.816 68.0971 364.27 69.1196C366.724 70.1166 368.501 71.5608 369.6 73.4525C370.699 75.3185 371.249 77.5424 371.249 80.1242V108H361.893L360.973 101.175C359.618 104.038 357.918 106.019 355.873 107.118C353.854 108.217 351.464 108.767 348.703 108.767ZM352.461 101.405C353.483 101.405 354.467 101.226 355.413 100.868C356.384 100.485 357.241 99.9862 357.982 99.3727C358.749 98.7336 359.362 98.0179 359.823 97.2255C360.283 96.433 360.513 95.615 360.513 94.7715V88.9049L356.487 88.9816C354.621 89.0072 352.882 89.2372 351.272 89.6718C349.661 90.0808 348.358 90.7582 347.361 91.704C346.389 92.6498 345.904 93.9279 345.904 95.5383C345.904 97.3788 346.543 98.8231 347.821 99.8712C349.099 100.894 350.646 101.405 352.461 101.405ZM398.146 67.5859C401.469 67.5859 404.332 68.2633 406.735 69.6181C409.164 70.9729 411.068 72.8006 412.448 75.1012C413.854 77.4018 414.66 79.9709 414.864 82.8083H405.547C405.368 81.7602 404.997 80.725 404.435 79.7025C403.872 78.6544 403.08 77.7981 402.057 77.1334C401.035 76.4433 399.757 76.0982 398.223 76.0982C395.616 76.0982 393.494 77.1079 391.858 79.1273C390.248 81.1212 389.442 84.1631 389.442 88.2531C389.442 92.113 390.235 95.1805 391.82 97.4555C393.404 99.705 395.616 100.83 398.453 100.83C399.961 100.83 401.214 100.459 402.211 99.7178C403.233 98.9765 404.026 98.0946 404.588 97.0721C405.15 96.024 405.508 95.0527 405.662 94.158H414.749C414.57 96.8931 413.778 99.3727 412.372 101.597C410.966 103.795 409.049 105.546 406.62 106.85C404.217 108.128 401.393 108.767 398.146 108.767C394.465 108.767 391.181 107.949 388.292 106.313C385.403 104.677 383.128 102.338 381.467 99.296C379.831 96.2285 379.013 92.5731 379.013 88.3298C379.013 84.2398 379.805 80.6355 381.39 77.5169C382.975 74.3983 385.199 71.9698 388.062 70.2316C390.95 68.4678 394.312 67.5859 398.146 67.5859ZM460.879 108H449.721L439.024 90.8988L433.77 96.4969V108H422.574V51.0215H433.77V84.8021L448.341 68.3528H460.381L445.964 84.1503L460.879 108ZM276.802 141.788C280.969 141.788 284.675 142.632 287.922 144.319C291.194 145.981 293.827 148.256 295.821 151.144C297.84 154.033 299.029 157.292 299.386 160.922H287.653C287.295 159.005 286.644 157.305 285.698 155.822C284.752 154.314 283.512 153.138 281.978 152.294C280.445 151.425 278.604 150.991 276.457 150.991C273.875 150.991 271.651 151.617 269.785 152.87C267.919 154.122 266.488 156.142 265.491 158.928C264.494 161.714 263.995 165.395 263.995 169.971C263.995 176.873 265.095 181.87 267.293 184.963C269.517 188.031 272.572 189.564 276.457 189.564C278.604 189.564 280.445 189.079 281.978 188.107C283.512 187.11 284.752 185.807 285.698 184.196C286.644 182.56 287.295 180.771 287.653 178.828H299.386C299.054 181.461 298.415 183.979 297.469 186.382C296.523 188.759 295.181 190.881 293.443 192.747C291.705 194.613 289.468 196.083 286.733 197.156C283.998 198.23 280.688 198.767 276.802 198.767C271.639 198.767 267.178 197.565 263.42 195.163C259.663 192.76 256.761 189.385 254.716 185.04C252.697 180.694 251.687 175.62 251.687 169.817C251.687 163.989 252.697 158.992 254.716 154.825C256.736 150.633 259.624 147.412 263.382 145.163C267.14 142.913 271.613 141.788 276.802 141.788ZM325.017 198.767C321.132 198.767 317.745 197.936 314.856 196.275C311.993 194.613 309.769 192.261 308.185 189.219C306.625 186.177 305.846 182.573 305.846 178.406C305.846 174.24 306.625 170.597 308.185 167.479C309.769 164.36 311.993 161.931 314.856 160.193C317.745 158.455 321.145 157.586 325.056 157.586C328.967 157.586 332.354 158.442 335.217 160.155C338.08 161.842 340.291 164.245 341.85 167.363C343.409 170.482 344.189 174.163 344.189 178.406C344.189 182.394 343.422 185.922 341.889 188.989C340.38 192.031 338.195 194.421 335.332 196.16C332.494 197.898 329.056 198.767 325.017 198.767ZM325.056 190.446C327.024 190.446 328.609 189.871 329.81 188.721C331.012 187.571 331.881 186.062 332.418 184.196C332.98 182.305 333.261 180.247 333.261 178.023C333.261 175.927 333.006 173.946 332.494 172.08C332.009 170.214 331.165 168.706 329.964 167.555C328.762 166.405 327.126 165.83 325.056 165.83C323.087 165.83 321.49 166.379 320.263 167.479C319.061 168.552 318.179 170.022 317.617 171.888C317.055 173.729 316.773 175.774 316.773 178.023C316.773 180.094 317.029 182.087 317.54 184.005C318.052 185.896 318.908 187.443 320.109 188.644C321.311 189.846 322.96 190.446 325.056 190.446ZM351.654 198V158.353H362.62V163.951C363.821 162.213 365.432 160.717 367.451 159.465C369.496 158.212 372.065 157.586 375.158 157.586C376.513 157.586 377.893 157.829 379.299 158.314C380.705 158.8 382.022 159.516 383.249 160.462C384.501 161.382 385.511 162.545 386.278 163.951C387.556 162.136 389.23 160.628 391.301 159.426C393.397 158.199 395.723 157.586 398.279 157.586C399.762 157.586 401.257 157.829 402.765 158.314C404.299 158.8 405.705 159.593 406.983 160.692C408.261 161.791 409.284 163.261 410.051 165.101C410.843 166.916 411.239 169.166 411.239 171.85V198H400.043V173.23C400.043 171.645 399.724 170.38 399.085 169.434C398.471 168.463 397.679 167.772 396.707 167.363C395.761 166.929 394.752 166.712 393.678 166.712C392.681 166.712 391.671 166.916 390.649 167.325C389.626 167.709 388.757 168.335 388.042 169.204C387.326 170.073 386.968 171.211 386.968 172.617V198H375.81V172.233C375.81 171.032 375.49 170.022 374.851 169.204C374.212 168.386 373.407 167.772 372.436 167.363C371.49 166.929 370.519 166.712 369.522 166.712C368.499 166.712 367.477 166.929 366.454 167.363C365.432 167.772 364.575 168.424 363.885 169.319C363.195 170.188 362.85 171.287 362.85 172.617V198H351.654ZM420.327 198V158.353H431.294V163.951C432.495 162.213 434.106 160.717 436.125 159.465C438.17 158.212 440.739 157.586 443.832 157.586C445.187 157.586 446.567 157.829 447.973 158.314C449.379 158.8 450.696 159.516 451.923 160.462C453.175 161.382 454.185 162.545 454.952 163.951C456.23 162.136 457.904 160.628 459.975 159.426C462.071 158.199 464.397 157.586 466.953 157.586C468.436 157.586 469.931 157.829 471.439 158.314C472.973 158.8 474.379 159.593 475.657 160.692C476.935 161.791 477.958 163.261 478.725 165.101C479.517 166.916 479.913 169.166 479.913 171.85V198H468.717V173.23C468.717 171.645 468.397 170.38 467.758 169.434C467.145 168.463 466.352 167.772 465.381 167.363C464.435 166.929 463.426 166.712 462.352 166.712C461.355 166.712 460.345 166.916 459.323 167.325C458.3 167.709 457.431 168.335 456.715 169.204C456 170.073 455.642 171.211 455.642 172.617V198H444.484V172.233C444.484 171.032 444.164 170.022 443.525 169.204C442.886 168.386 442.081 167.772 441.11 167.363C440.164 166.929 439.192 166.712 438.196 166.712C437.173 166.712 436.151 166.929 435.128 167.363C434.106 167.772 433.249 168.424 432.559 169.319C431.869 170.188 431.524 171.287 431.524 172.617V198H420.327ZM498.204 180.745C498.178 182.765 498.498 184.529 499.162 186.037C499.827 187.519 500.786 188.67 502.038 189.488C503.316 190.28 504.85 190.676 506.639 190.676C508.557 190.676 510.231 190.267 511.662 189.449C513.119 188.631 514.129 187.289 514.692 185.423H524.776C524.341 188.235 523.217 190.638 521.402 192.632C519.612 194.626 517.439 196.147 514.883 197.195C512.327 198.243 509.669 198.767 506.908 198.767C502.997 198.767 499.546 197.949 496.555 196.313C493.59 194.651 491.276 192.312 489.615 189.296C487.953 186.28 487.122 182.726 487.122 178.637C487.122 174.674 487.877 171.108 489.385 167.939C490.893 164.743 493.079 162.225 495.942 160.385C498.83 158.519 502.294 157.586 506.333 157.586C510.371 157.586 513.758 158.442 516.494 160.155C519.254 161.842 521.325 164.207 522.705 167.248C524.111 170.265 524.814 173.754 524.814 177.716V180.745H498.204ZM498.165 174.074H514.346C514.346 172.489 514.052 171.032 513.465 169.702C512.877 168.373 511.982 167.325 510.78 166.558C509.605 165.791 508.122 165.408 506.333 165.408C504.594 165.408 503.112 165.83 501.885 166.673C500.683 167.491 499.763 168.565 499.124 169.894C498.485 171.223 498.165 172.617 498.165 174.074ZM532.587 198V158.353H543.362V167.747C544.001 165.728 544.895 163.964 546.046 162.456C547.222 160.922 548.64 159.733 550.302 158.89C551.963 158.02 553.842 157.586 555.938 157.586C556.296 157.586 556.629 157.611 556.935 157.663C557.268 157.688 557.51 157.739 557.664 157.816V168.475C557.434 168.373 557.153 168.309 556.82 168.284C556.514 168.258 556.232 168.233 555.977 168.207C553.778 168.028 551.9 168.092 550.34 168.399C548.781 168.706 547.516 169.23 546.544 169.971C545.573 170.712 544.87 171.62 544.435 172.693C544.001 173.767 543.783 174.968 543.783 176.298V198H532.587ZM580.578 157.586C583.901 157.586 586.764 158.263 589.167 159.618C591.595 160.973 593.5 162.801 594.88 165.101C596.286 167.402 597.091 169.971 597.296 172.808H587.978C587.799 171.76 587.428 170.725 586.866 169.702C586.304 168.654 585.511 167.798 584.489 167.133C583.466 166.443 582.188 166.098 580.654 166.098C578.047 166.098 575.925 167.108 574.289 169.127C572.679 171.121 571.874 174.163 571.874 178.253C571.874 182.113 572.666 185.18 574.251 187.456C575.836 189.705 578.047 190.83 580.884 190.83C582.393 190.83 583.645 190.459 584.642 189.718C585.665 188.976 586.457 188.095 587.019 187.072C587.582 186.024 587.94 185.053 588.093 184.158H597.18C597.002 186.893 596.209 189.373 594.803 191.597C593.397 193.795 591.48 195.546 589.052 196.85C586.649 198.128 583.824 198.767 580.578 198.767C576.897 198.767 573.612 197.949 570.723 196.313C567.835 194.677 565.56 192.338 563.898 189.296C562.262 186.229 561.444 182.573 561.444 178.33C561.444 174.24 562.237 170.635 563.822 167.517C565.406 164.398 567.63 161.97 570.493 160.232C573.382 158.468 576.743 157.586 580.578 157.586ZM614.208 180.745C614.182 182.765 614.502 184.529 615.167 186.037C615.831 187.519 616.79 188.67 618.042 189.488C619.32 190.28 620.854 190.676 622.644 190.676C624.561 190.676 626.235 190.267 627.667 189.449C629.124 188.631 630.133 187.289 630.696 185.423H640.78C640.346 188.235 639.221 190.638 637.406 192.632C635.617 194.626 633.444 196.147 630.887 197.195C628.331 198.243 625.673 198.767 622.912 198.767C619.001 198.767 615.55 197.949 612.559 196.313C609.594 194.651 607.281 192.312 605.619 189.296C603.958 186.28 603.127 182.726 603.127 178.637C603.127 174.674 603.881 171.108 605.389 167.939C606.897 164.743 609.083 162.225 611.946 160.385C614.834 158.519 618.298 157.586 622.337 157.586C626.376 157.586 629.763 158.442 632.498 160.155C635.259 161.842 637.329 164.207 638.71 167.248C640.115 170.265 640.818 173.754 640.818 177.716V180.745H614.208ZM614.17 174.074H630.351C630.351 172.489 630.057 171.032 629.469 169.702C628.881 168.373 627.986 167.325 626.785 166.558C625.609 165.791 624.126 165.408 622.337 165.408C620.599 165.408 619.116 165.83 617.889 166.673C616.688 167.491 615.767 168.565 615.128 169.894C614.489 171.223 614.17 172.617 614.17 174.074Z" fill="#404040"/>
</svg>
