<svg width="42" height="42" viewBox="0 0 42 42" fill="none" xmlns="http://www.w3.org/2000/svg">
<path d="M20.7589 3.96811C11.7791 3.96811 4.5 11.2473 4.5 20.227C4.5 24.8522 6.4454 29.0264 9.55031 31.9896C9.7135 31.8522 9.87669 31.7147 10.0399 31.5773C9.99693 31.6117 9.9497 31.6503 9.89816 31.6933V16.7871C9.89816 16.143 10.3491 15.3442 10.8902 14.9963L19.8313 9.2632C20.3724 8.91535 21.2614 8.91535 21.7896 9.2632L30.6276 14.9963C31.1687 15.3442 31.6068 16.143 31.6068 16.7871V30.8687C31.5896 30.8601 31.5724 30.8472 31.5552 30.8301C31.8644 31.0448 32.1607 31.2724 32.4442 31.5129C35.2785 28.5884 37.0178 24.6074 37.0178 20.227C37.0178 11.2473 29.7387 3.96811 20.7589 3.96811Z" fill="#404040"/>
<path d="M21.2872 27.5319C25.1393 27.5319 28.708 28.7687 31.6068 30.8687V16.7871C31.6068 16.1429 31.1688 15.3442 30.6276 14.9963L21.7896 9.26318C21.2614 8.91533 20.3724 8.91533 19.8313 9.26318L10.8902 14.9963C10.3491 15.3442 9.89819 16.1429 9.89819 16.7871V31.6932C12.9773 29.0908 16.9454 27.5319 21.2872 27.5319Z" fill="#E4DDFF"/>
<g style="mix-blend-mode:multiply" opacity="0.2">
<path d="M22.6655 12.3295C22.6655 13.3859 21.8152 14.2362 20.7588 14.2362C19.7024 14.2362 18.8521 13.3859 18.8521 12.3295C18.8521 11.273 19.7024 10.4227 20.7588 10.4227C21.8152 10.4227 22.6655 11.273 22.6655 12.3295Z" fill="#291482"/>
</g>
<path d="M22.2018 11.8656C22.2018 12.6515 21.5576 13.2957 20.7589 13.2957C19.9601 13.2957 19.3159 12.6515 19.3159 11.8656C19.3159 11.0669 19.9601 10.4227 20.7589 10.4227C21.5576 10.4227 22.2018 11.0669 22.2018 11.8656Z" fill="#414143"/>
<path d="M20.7589 12.2264C20.6816 12.2264 20.6172 12.2006 20.5656 12.1362C20.3982 11.9043 16.5718 6.41595 16.5718 4.18712C16.5718 1.88098 18.4528 0 20.7589 0C20.8877 0 20.9908 0.103066 20.9908 0.2319C20.9908 0.360735 20.8877 0.463804 20.7589 0.463804C18.7104 0.463804 17.0356 2.13865 17.0356 4.18712C17.0356 6.26135 20.9135 11.8012 20.9521 11.8656C21.0166 11.9687 20.9908 12.1104 20.8877 12.1877C20.8448 12.2135 20.8018 12.2264 20.7589 12.2264Z" fill="#4E22FF"/>
<path d="M12.6038 34.8883C16.7265 38.7791 20.759 42 20.759 42C20.759 42 24.7915 38.7791 28.9142 34.8883H12.6038Z" fill="#E4DDFF"/>
<path d="M31.6068 30.8687V16.7871C31.6068 16.1429 31.1688 15.3442 30.6276 14.9963L30.6019 14.9706C28.1669 21.5798 21.4804 29.5417 9.89819 24.2595V31.6932C12.9773 29.0908 16.9454 27.5319 21.2872 27.5319C25.1393 27.5319 28.708 28.7687 31.6068 30.8687Z" fill="#4E22FF"/>
<path d="M17.5122 39.2945C19.4318 40.9436 20.7588 42 20.7588 42C20.7588 42 24.7914 38.7791 28.9141 34.8883H24.7398C23.6061 36.9497 21.3386 39.1528 17.5122 39.2945Z" fill="#4E22FF"/>
<path d="M20.7589 12.2264C20.7074 12.2264 20.6602 12.2135 20.6172 12.1877C20.5142 12.1104 20.4884 11.9687 20.5657 11.8656C20.6043 11.8012 24.4694 6.26135 24.4694 4.18712C24.4694 2.13865 22.8074 0.463804 20.7589 0.463804C20.6301 0.463804 20.527 0.360735 20.527 0.2319C20.527 0.103066 20.6301 0 20.7589 0C23.0651 0 24.9332 1.88098 24.9332 4.18712C24.9332 6.41595 21.1068 11.9043 20.9522 12.1362C20.9007 12.2006 20.8363 12.2264 20.7589 12.2264Z" fill="#4E22FF"/>
<path d="M19.5865 9.4178C19.346 8.98836 19.1098 8.55461 18.8779 8.11658L18.2595 9.1086C18.4141 9.39204 18.573 9.67977 18.7362 9.97179L19.5865 9.4178Z" fill="#414143"/>
</svg>
