<svg width="194" height="50" viewBox="0 0 194 50" fill="none" xmlns="http://www.w3.org/2000/svg">
<g clip-path="url(#clip0_172_1651)">
<path d="M34.1103 0.186035H14.7811C6.61772 0.186035 0 6.80378 0 14.9672V34.2964C0 42.4598 6.61772 49.0776 14.7811 49.0776H34.1103C42.2736 49.0776 48.8913 42.4598 48.8913 34.2964V14.9672C48.8913 6.80378 42.2736 0.186035 34.1103 0.186035Z" fill="url(#paint0_radial_172_1651)"/>
<mask id="mask0_172_1651" style="mask-type:luminance" maskUnits="userSpaceOnUse" x="7" y="7" width="35" height="35">
<path d="M41.2514 7.82373H7.63867V41.4366H41.2514V7.82373Z" fill="white"/>
</mask>
<g mask="url(#mask0_172_1651)">
<mask id="mask1_172_1651" style="mask-type:luminance" maskUnits="userSpaceOnUse" x="7" y="7" width="35" height="35">
<path d="M41.1775 7.82373H7.63574V41.3657H41.1775V7.82373Z" fill="white"/>
</mask>
<g mask="url(#mask1_172_1651)">
<path fill-rule="evenodd" clip-rule="evenodd" d="M17.4666 8.01969C17.0914 8.07802 16.3239 8.26142 15.7611 8.42731C14.5911 8.77217 14.6246 8.76967 13.7145 8.58491C11.8681 8.21025 9.9387 9.20446 9.13585 10.9443C8.87707 11.5051 8.83193 11.7653 8.81409 12.799C8.79782 13.746 8.74518 14.0963 8.56666 14.4477C8.44193 14.6932 8.19578 15.3289 8.01953 15.8604C7.71994 16.7642 7.69878 16.9522 7.69378 18.7598C7.68901 20.4462 7.72153 20.8072 7.94836 21.5904C9.00008 25.2216 11.5494 27.8245 15.1019 28.8941C15.9594 29.1522 16.3736 29.2029 18.0035 29.2493C20.0819 29.3083 21.104 29.2364 26.6017 28.6447C28.879 28.3995 30.4015 28.1854 30.6005 28.0826C31.6765 27.5262 31.7884 25.8689 30.7978 25.1635C30.2865 24.7995 29.6723 24.7933 26.6196 25.122C19.8348 25.8524 18.1919 25.9508 16.8412 25.7076C14.2782 25.2464 12.2116 23.4322 11.3016 20.8445C10.9436 19.8262 10.8309 18.06 11.0671 17.168C11.2337 16.5385 11.1499 16.5642 12.3695 16.768C14.1075 17.0584 15.9288 16.0677 16.7062 14.4091C16.9751 13.8352 17.0118 13.6181 17.0118 12.6V11.4431L17.3212 11.3813C18.2408 11.1973 19.11 11.1891 19.9112 11.3569C22.6123 11.9225 24.8188 14.07 25.4996 16.7958C25.9111 18.4436 26.3842 18.9741 27.4421 18.9741C28.0567 18.9741 28.4515 18.7403 28.8765 18.124C29.1107 17.7846 29.1365 17.6447 29.0838 16.9974C28.9648 15.5392 28.2584 13.7559 27.2148 12.2788C26.0825 10.6763 25.059 9.81675 23.2808 8.97433C21.5065 8.13396 19.1854 7.75285 17.4666 8.01969ZM28.325 19.8529C27.6059 19.9049 25.0788 20.1528 22.7094 20.4041C18.1192 20.8906 17.9687 20.9247 17.4785 21.5822C17.2984 21.8239 17.2392 22.0697 17.2392 22.5754C17.2392 23.2122 17.2641 23.2726 17.7113 23.7199C18.1073 24.1158 18.2722 24.1999 18.7346 24.2414C19.0377 24.2687 20.9742 24.1104 23.0379 23.8901C29.9875 23.1474 31.1744 23.1191 32.8761 23.6568C33.945 23.9945 34.5086 24.3641 35.6249 25.4599C36.3307 26.1526 36.6017 26.5239 37.0203 27.372C37.8384 29.0295 38.0326 30.3054 37.6938 31.7956C37.517 32.572 37.5022 32.5945 37.2105 32.5293C35.9824 32.2549 35.6826 32.2279 35.0846 32.3385C34.1223 32.5164 33.4994 32.8431 32.8128 33.5295C31.8784 34.4637 31.6867 34.9708 31.6827 36.5154L31.6792 37.7843L31.2813 37.8501C30.5032 37.9789 29.3723 37.9152 28.508 37.6943C25.7784 36.9962 23.8223 34.9501 23.1036 32.0418C22.9071 31.2468 22.7675 30.9237 22.5038 30.6541C21.4142 29.5395 19.5681 30.2939 19.5708 31.8526C19.5721 32.541 19.9879 34.1012 20.4187 35.0333C22.2036 38.8968 25.7806 41.2089 29.9811 41.2143C31.285 41.216 32.0713 41.0966 33.4217 40.6914C34.2713 40.4366 34.4324 40.4206 34.9926 40.537C37.6434 41.0874 40.0103 38.9095 39.9101 36.012C39.8868 35.3389 39.9353 35.1326 40.3113 34.3029C41.7141 31.2072 41.3534 27.4066 39.3792 24.482C37.5936 21.8366 34.9624 20.2547 31.6792 19.8524C30.5536 19.7143 30.2452 19.7145 28.325 19.8529Z" fill="#F37916"/>
<path d="M35.8927 41.2504C38.4046 41.2504 40.4408 39.2142 40.4408 36.7024C40.4408 34.1905 38.4046 32.1543 35.8927 32.1543C33.3809 32.1543 31.3447 34.1905 31.3447 36.7024C31.3447 39.2142 33.3809 41.2504 35.8927 41.2504Z" fill="#231F20"/>
<path d="M12.8088 17.0317C15.3206 17.0317 17.3568 14.9954 17.3568 12.4836C17.3568 9.97178 15.3206 7.93555 12.8088 7.93555C10.297 7.93555 8.26074 9.97178 8.26074 12.4836C8.26074 14.9954 10.297 17.0317 12.8088 17.0317Z" fill="#231F20"/>
</g>
</g>
<mask id="mask2_172_1651" style="mask-type:luminance" maskUnits="userSpaceOnUse" x="59" y="8" width="134" height="23">
<path d="M192.205 8.80566H59.8906V30.8068H192.205V8.80566Z" fill="white"/>
</mask>
<g mask="url(#mask2_172_1651)">
<path d="M60.182 24.9044L61.5851 21.335C65.1545 23.7475 70.201 24.3137 70.201 21.6058C70.201 19.2917 59.9112 20.2765 60.182 13.9992C60.3789 8.85433 67.6408 7.40193 73.352 11.4391L71.7025 14.3685C68.1085 11.6114 63.8991 11.956 63.8253 14.2454C63.7268 17.1009 73.8443 15.8701 73.8443 21.4089C73.8443 26.7508 68.1085 28.6954 60.182 24.9044Z" fill="white"/>
<path d="M83.9834 26.5002C81.2017 26.5002 76.8692 25.7617 76.8692 20.9861V16.7027H75.6631V13.2564H76.8692V10.5239H80.3156V13.2564H83.5157V16.7027H80.3156V20.2228C80.3156 22.8077 82.2356 23.0538 83.9834 23.0538V26.5002Z" fill="white"/>
<path d="M92.5473 26.4041C88.781 26.4041 85.7285 23.3516 85.7285 19.5853C85.7285 15.8435 88.781 12.791 92.5473 12.791C96.2891 12.791 99.3415 15.8435 99.3415 19.5853V26.5026H95.8952V24.8778C95.1321 25.7886 93.9258 26.4041 92.5473 26.4041ZM92.5473 22.9578C94.3937 22.9578 95.8952 21.4561 95.8952 19.5853C95.8952 17.739 94.3937 16.2374 92.5473 16.2374C90.6766 16.2374 89.1748 17.739 89.1748 19.5853C89.1748 21.4561 90.6766 22.9578 92.5473 22.9578Z" fill="white"/>
<path d="M108.012 26.502C104.221 26.502 101.144 23.3756 101.144 19.5354C101.144 15.4983 104.393 12.6182 108.012 12.6182C110.202 12.6182 112.221 13.7013 113.329 15.3014L110.843 17.7138C110.252 16.5569 108.996 16.0645 108.036 16.0645C106.313 16.0645 104.59 17.3938 104.59 19.5354C104.59 21.4802 106.116 23.0556 108.036 23.0556C109.267 23.0556 110.399 22.3418 110.867 21.3818L113.329 23.7941C112.246 25.4189 110.202 26.502 108.012 26.502Z" fill="white"/>
<path d="M118.913 22.8755L118.922 18.6876H119.43L123.462 13.9097H127.469L122.052 20.2364H121.225L118.913 22.8755ZM115.75 26.4978V10.4829H119.241V26.4978H115.75ZM123.617 26.4978L119.913 21.0151L122.241 18.5483L127.707 26.4978H123.617Z" fill="white"/>
<path d="M143.281 26.501L141.878 23.9408H133.681L132.278 26.5256L128.314 26.501L137.767 10.4077L147.245 26.501H143.281ZM135.503 20.7406H140.032L137.767 16.5804L135.503 20.7406Z" fill="#F37916"/>
<path d="M155.357 26.5004C153.979 26.5004 152.723 25.885 151.96 24.9248V30.4883H148.514V19.6816C148.514 15.8906 151.566 12.8135 155.357 12.8135C159.123 12.8135 162.201 15.8906 162.201 19.6816C162.201 23.4479 159.123 26.5004 155.357 26.5004ZM155.357 16.2598C153.462 16.2598 151.96 17.7861 151.96 19.6816C151.96 21.5523 153.462 23.0541 155.357 23.0541C157.228 23.0541 158.754 21.5523 158.754 19.6816C158.754 17.7861 157.228 16.2598 155.357 16.2598Z" fill="#F37916"/>
<path d="M171.512 26.5004C170.134 26.5004 168.878 25.885 168.115 24.9248V30.4883H164.669V19.6816C164.669 15.8906 167.721 12.8135 171.512 12.8135C175.279 12.8135 178.356 15.8906 178.356 19.6816C178.356 23.4479 175.279 26.5004 171.512 26.5004ZM171.512 16.2598C169.617 16.2598 168.115 17.7861 168.115 19.6816C168.115 21.5523 169.617 23.0541 171.512 23.0541C173.383 23.0541 174.909 21.5523 174.909 19.6816C174.909 17.7861 173.383 16.2598 171.512 16.2598Z" fill="#F37916"/>
<path d="M179.591 24.6286L180.797 21.773C183.874 23.5209 188.354 24.2348 188.354 22.093C188.354 20.2223 179.714 21.01 179.96 16.0127C180.28 11.6556 186.754 10.8432 191.628 14.068L190.225 16.4312C187.616 14.4126 183.628 14.5604 183.554 16.2097C183.48 18.0313 191.924 17.6128 191.924 21.9454C191.924 26.0809 187.074 28.3211 179.591 24.6286Z" fill="#F37916"/>
</g>
<path d="M60.1787 33.8213H60.8322L62.1387 36.0205H62.1939L63.5006 33.8213H64.1539L62.4516 36.5911V38.5326H61.881V36.5911L60.1787 33.8213ZM70.6214 36.177C70.6214 36.6738 70.5317 37.1032 70.3523 37.4653C70.1729 37.8272 69.9267 38.1063 69.6139 38.3026C69.301 38.499 68.9437 38.597 68.5418 38.597C68.14 38.597 67.7827 38.499 67.4698 38.3026C67.157 38.1063 66.9108 37.8272 66.7314 37.4653C66.552 37.1032 66.4621 36.6738 66.4621 36.177C66.4621 35.6801 66.552 35.2507 66.7314 34.8888C66.9108 34.5266 67.157 34.2476 67.4698 34.0513C67.7827 33.8549 68.14 33.7568 68.5418 33.7568C68.9437 33.7568 69.301 33.8549 69.6139 34.0513C69.9267 34.2476 70.1729 34.5266 70.3523 34.8888C70.5317 35.2507 70.6214 35.6801 70.6214 36.177ZM70.0693 36.177C70.0693 35.769 70.001 35.4247 69.8646 35.144C69.7296 34.8634 69.5464 34.6509 69.3148 34.5068C69.0846 34.3626 68.8271 34.2905 68.5418 34.2905C68.2566 34.2905 67.9981 34.3626 67.7666 34.5068C67.5366 34.6509 67.3533 34.8634 67.2168 35.144C67.0818 35.4247 67.0143 35.769 67.0143 36.177C67.0143 36.5849 67.0818 36.9291 67.2168 37.2099C67.3533 37.4905 67.5366 37.703 67.7666 37.847C67.9981 37.9913 68.2566 38.0634 68.5418 38.0634C68.8271 38.0634 69.0846 37.9913 69.3148 37.847C69.5464 37.703 69.7296 37.4905 69.8646 37.2099C70.001 36.9291 70.0693 36.5849 70.0693 36.177ZM76.6483 33.8213H77.2188V36.9407C77.2188 37.2628 77.1429 37.5503 76.9911 37.8034C76.8408 38.0549 76.6285 38.2536 76.3538 38.3991C76.0794 38.5434 75.7573 38.6155 75.3877 38.6155C75.0181 38.6155 74.696 38.5434 74.4215 38.3991C74.1469 38.2536 73.9339 38.0549 73.7819 37.8034C73.6317 37.5503 73.5565 37.2628 73.5565 36.9407V33.8213H74.1271V36.8947C74.1271 37.1247 74.1777 37.3295 74.2788 37.509C74.3802 37.6868 74.5242 37.8272 74.7113 37.9299C74.9 38.0311 75.1254 38.0816 75.3877 38.0816C75.65 38.0816 75.8754 38.0311 76.064 37.9299C76.2527 37.8272 76.3969 37.6868 76.4965 37.509C76.5977 37.3295 76.6483 37.1247 76.6483 36.8947V33.8213ZM80.334 38.5326V33.8213H81.9259C82.294 33.8213 82.5961 33.8841 82.8323 34.0099C83.0684 34.1341 83.2432 34.3051 83.3569 34.523C83.4704 34.7407 83.5271 34.9884 83.5271 35.2659C83.5271 35.5436 83.4704 35.7897 83.3569 36.0043C83.2432 36.2191 83.0692 36.3878 82.8346 36.5105C82.6 36.6316 82.3002 36.6922 81.9352 36.6922H80.6469V36.177H81.9167C82.1682 36.177 82.3707 36.1401 82.524 36.0665C82.679 35.993 82.7909 35.8886 82.86 35.7536C82.9305 35.6172 82.9657 35.4545 82.9657 35.2659C82.9657 35.0772 82.9305 34.9124 82.86 34.7713C82.7894 34.6303 82.6767 34.5215 82.5217 34.4447C82.3669 34.3665 82.1621 34.3274 81.9075 34.3274H80.9046V38.5326H80.334ZM82.5517 36.4163L83.7111 38.5326H83.0486L81.9075 36.4163H82.5517ZM90.2513 38.5326V33.8213H91.8432C92.2128 33.8213 92.5149 33.888 92.7495 34.0215C92.9859 34.1534 93.1607 34.332 93.2742 34.5574C93.3876 34.7828 93.4443 35.0343 93.4443 35.312C93.4443 35.5895 93.3876 35.8418 93.2742 36.0688C93.1622 36.2959 92.9888 36.4768 92.7542 36.6116C92.5195 36.7451 92.219 36.8118 91.8524 36.8118H90.7115V36.3057H91.834C92.087 36.3057 92.2903 36.262 92.4436 36.1747C92.597 36.0872 92.7082 35.9691 92.7772 35.8203C92.8478 35.6701 92.883 35.5007 92.883 35.312C92.883 35.1234 92.8478 34.9545 92.7772 34.8059C92.7082 34.657 92.5963 34.5405 92.4413 34.4563C92.2865 34.3703 92.0809 34.3274 91.8247 34.3274H90.8219V38.5326H90.2513ZM96.3391 38.5326V33.8213H97.9311C98.2991 33.8213 98.6013 33.8841 98.8376 34.0099C99.0737 34.1341 99.2486 34.3051 99.362 34.523C99.4755 34.7407 99.5322 34.9884 99.5322 35.2659C99.5322 35.5436 99.4755 35.7897 99.362 36.0043C99.2486 36.2191 99.0745 36.3878 98.8399 36.5105C98.6051 36.6316 98.3053 36.6922 97.9403 36.6922H96.652V36.177H97.922C98.1734 36.177 98.3759 36.1401 98.5293 36.0665C98.6841 35.993 98.7961 35.8886 98.8651 35.7536C98.9357 35.6172 98.9709 35.4545 98.9709 35.2659C98.9709 35.0772 98.9357 34.9124 98.8651 34.7713C98.7945 34.6303 98.6818 34.5215 98.527 34.4447C98.372 34.3665 98.1674 34.3274 97.9128 34.3274H96.9097V38.5326H96.3391ZM98.5568 36.4163L99.7163 38.5326H99.0538L97.9128 36.4163H98.5568ZM102.459 38.5326V33.8213H105.302V34.3274H103.029V35.9193H105.155V36.4253H103.029V38.0265H105.339V38.5326H102.459ZM108.306 33.8213H108.987L110.588 37.732H110.644L112.245 33.8213H112.926V38.5326H112.392V34.9532H112.346L110.874 38.5326H110.358L108.886 34.9532H108.84V38.5326H108.306V33.8213ZM116.616 33.8213V38.5326H116.045V33.8213H116.616ZM122.827 33.8213H123.398V36.9407C123.398 37.2628 123.322 37.5503 123.17 37.8034C123.02 38.0549 122.808 38.2536 122.533 38.3991C122.258 38.5434 121.936 38.6155 121.567 38.6155C121.197 38.6155 120.875 38.5434 120.601 38.3991C120.326 38.2536 120.113 38.0549 119.961 37.8034C119.811 37.5503 119.736 37.2628 119.736 36.9407V33.8213H120.306V36.8947C120.306 37.1247 120.357 37.3295 120.458 37.509C120.559 37.6868 120.703 37.8272 120.89 37.9299C121.079 38.0311 121.304 38.0816 121.567 38.0816C121.829 38.0816 122.054 38.0311 122.243 37.9299C122.432 37.8272 122.576 37.6868 122.676 37.509C122.777 37.3295 122.827 37.1247 122.827 36.8947V33.8213ZM126.513 33.8213H127.194L128.795 37.732H128.85L130.451 33.8213H131.132V38.5326H130.599V34.9532H130.553L129.08 38.5326H128.565L127.093 34.9532H127.047V38.5326H126.513V33.8213ZM138.62 33.8213V38.5326H138.05V33.8213H138.62ZM141.482 34.3274V33.8213H145.016V34.3274H143.535V38.5326H142.964V34.3274H141.482ZM151.67 38.5326V33.8213H153.262C153.632 33.8213 153.934 33.888 154.168 34.0215C154.405 34.1534 154.579 34.332 154.693 34.5574C154.806 34.7828 154.863 35.0343 154.863 35.312C154.863 35.5895 154.806 35.8418 154.693 36.0688C154.581 36.2959 154.408 36.4768 154.173 36.6116C153.938 36.7451 153.638 36.8118 153.271 36.8118H152.13V36.3057H153.253C153.506 36.3057 153.709 36.262 153.862 36.1747C154.016 36.0872 154.127 35.9691 154.196 35.8203C154.267 35.6701 154.302 35.5007 154.302 35.312C154.302 35.1234 154.267 34.9545 154.196 34.8059C154.127 34.657 154.015 34.5405 153.86 34.4563C153.705 34.3703 153.5 34.3274 153.244 34.3274H152.241V38.5326H151.67ZM157.47 38.5326H156.872L158.602 33.8213H159.191L160.921 38.5326H160.323L158.915 34.5666H158.878L157.47 38.5326ZM157.691 36.6922H160.102V37.1984H157.691V36.6922ZM163.631 38.5326V33.8213H165.223C165.591 33.8213 165.893 33.8841 166.129 34.0099C166.365 34.1341 166.54 34.3051 166.653 34.523C166.767 34.7407 166.824 34.9884 166.824 35.2659C166.824 35.5436 166.767 35.7897 166.653 36.0043C166.54 36.2191 166.366 36.3878 166.131 36.5105C165.897 36.6316 165.597 36.6922 165.232 36.6922H163.944V36.177H165.214C165.465 36.177 165.668 36.1401 165.821 36.0665C165.976 35.993 166.088 35.8886 166.157 35.7536C166.227 35.6172 166.263 35.4545 166.263 35.2659C166.263 35.0772 166.227 34.9124 166.157 34.7713C166.086 34.6303 165.973 34.5215 165.818 34.4447C165.664 34.3665 165.459 34.3274 165.204 34.3274H164.201V38.5326H163.631ZM165.848 36.4163L167.008 38.5326H166.345L165.204 36.4163H165.848ZM169.493 34.3274V33.8213H173.026V34.3274H171.545V38.5326H170.974V34.3274H169.493ZM179.618 33.8213V38.5326H179.066L176.499 34.8334H176.453V38.5326H175.882V33.8213H176.435L179.011 37.5295H179.057V33.8213H179.618ZM182.736 38.5326V33.8213H185.579V34.3274H183.306V35.9193H185.432V36.4253H183.306V38.0265H185.616V38.5326H182.736ZM188.583 38.5326V33.8213H190.175C190.543 33.8213 190.846 33.8841 191.082 34.0099C191.318 34.1341 191.493 34.3051 191.606 34.523C191.72 34.7407 191.776 34.9884 191.776 35.2659C191.776 35.5436 191.72 35.7897 191.606 36.0043C191.493 36.2191 191.319 36.3878 191.084 36.5105C190.849 36.6316 190.55 36.6922 190.185 36.6922H188.896V36.177H190.166C190.418 36.177 190.62 36.1401 190.773 36.0665C190.928 35.993 191.04 35.8886 191.109 35.7536C191.18 35.6172 191.215 35.4545 191.215 35.2659C191.215 35.0772 191.18 34.9124 191.109 34.7713C191.039 34.6303 190.926 34.5215 190.771 34.4447C190.616 34.3665 190.411 34.3274 190.157 34.3274H189.154V38.5326H188.583ZM190.801 36.4163L191.961 38.5326H191.298L190.157 36.4163H190.801Z" fill="white"/>
</g>
<defs>
<radialGradient id="paint0_radial_172_1651" cx="0" cy="0" r="1" gradientUnits="userSpaceOnUse" gradientTransform="translate(24.4457 24.6318) rotate(89.2205) scale(25.0735 25.0734)">
<stop offset="0.666667" stop-color="white"/>
<stop offset="1" stop-color="#F5F5F5"/>
</radialGradient>
<clipPath id="clip0_172_1651">
<rect width="194" height="50" fill="white"/>
</clipPath>
</defs>
</svg>
