<svg width="195" height="50" viewBox="0 0 195 50" fill="none" xmlns="http://www.w3.org/2000/svg">
<path d="M35.2581 0.551758H15.9265C7.76211 0.551758 1.14355 7.17032 1.14355 15.3347V34.6663C1.14355 42.8307 7.76211 49.4493 15.9265 49.4493H35.2581C43.4225 49.4493 50.0411 42.8307 50.0411 34.6663V15.3347C50.0411 7.17032 43.4225 0.551758 35.2581 0.551758Z" fill="url(#paint0_radial_118_3151)"/>
<mask id="mask0_118_3151" style="mask-type:luminance" maskUnits="userSpaceOnUse" x="8" y="8" width="35" height="34">
<path d="M42.4003 8.19238H8.7832V41.8093H42.4003V8.19238Z" fill="white"/>
</mask>
<g mask="url(#mask0_118_3151)">
<mask id="mask1_118_3151" style="mask-type:luminance" maskUnits="userSpaceOnUse" x="8" y="8" width="35" height="34">
<path d="M42.3292 8.19336H8.7832V41.7393H42.3292V8.19336Z" fill="white"/>
</mask>
<g mask="url(#mask1_118_3151)">
<path fill-rule="evenodd" clip-rule="evenodd" d="M18.6133 8.38982C18.2381 8.44817 17.4705 8.63159 16.9076 8.7975C15.7375 9.1424 15.771 9.1399 14.8607 8.95511C13.0141 8.58042 11.0845 9.57475 10.2815 11.3148C10.0227 11.8756 9.97758 12.1358 9.95973 13.1697C9.94346 14.1169 9.89083 14.4672 9.71229 14.8186C9.58754 15.0641 9.34135 15.6999 9.1651 16.2315C8.86544 17.1354 8.84429 17.3234 8.83929 19.1312C8.83452 20.8179 8.86704 21.1788 9.09391 21.9621C10.1458 25.5938 12.6954 28.1969 16.2484 29.2667C17.1059 29.525 17.5202 29.5756 19.1503 29.6219C21.2289 29.6811 22.2512 29.6092 27.7495 29.0173C30.0272 28.7721 31.5499 28.5581 31.7491 28.4552C32.8251 27.8986 32.937 26.2413 31.9462 25.5357C31.4349 25.1715 30.8207 25.1656 27.7674 25.4942C20.9818 26.2246 19.3387 26.3231 17.9879 26.08C15.4245 25.6186 13.3577 23.8042 12.4476 21.2161C12.0895 20.1979 11.9768 18.4313 12.213 17.5392C12.3797 16.9097 12.2959 16.9354 13.5156 17.1392C15.2538 17.4296 17.0753 16.4388 17.8528 14.7801C18.1218 14.206 18.1585 13.9889 18.1585 12.9707V11.8137L18.4679 11.7518C19.3876 11.5678 20.257 11.5596 21.0582 11.7275C23.7597 12.2931 25.9664 14.4408 26.6474 17.167C27.0589 18.815 27.532 19.3456 28.5901 19.3456C29.2049 19.3456 29.5995 19.1117 30.0247 18.4953C30.2589 18.1559 30.2847 18.016 30.232 17.3686C30.113 15.9103 29.4064 14.1267 28.3628 12.6495C27.2303 11.0468 26.2068 10.1871 24.4282 9.34457C22.6539 8.50411 20.3324 8.12294 18.6133 8.38982ZM29.4732 20.2246C28.7539 20.2763 26.2266 20.5244 23.8568 20.7757C19.2661 21.2623 19.1155 21.2963 18.6253 21.954C18.4452 22.1956 18.3859 22.4415 18.3859 22.9475C18.3859 23.5842 18.4108 23.6446 18.8581 24.0919C19.2541 24.4879 19.419 24.5719 19.8814 24.6134C20.1847 24.6407 22.1214 24.4825 24.1855 24.2621C31.1358 23.5192 32.3228 23.4911 34.0249 24.0286C35.0937 24.3665 35.6576 24.7363 36.7739 25.8321C37.4799 26.5248 37.7508 26.8963 38.1695 27.7444C38.9878 29.4021 39.182 30.6782 38.843 32.1686C38.6664 32.9452 38.6516 32.9677 38.3597 32.9023C37.1316 32.6281 36.8318 32.6009 36.2335 32.7117C35.271 32.8896 34.6482 33.2161 33.9616 33.9027C33.027 34.8371 32.8353 35.3442 32.831 36.889L32.8278 38.1579L32.4297 38.2238C31.6516 38.3527 30.5205 38.289 29.656 38.0681C26.9262 37.3698 24.9697 35.3234 24.251 32.4148C24.0547 31.6198 23.9149 31.2967 23.6512 31.0269C22.5614 29.9123 20.7151 30.6667 20.7178 32.2256C20.7191 32.9142 21.1349 34.4746 21.5657 35.4069C23.3508 39.2706 26.9283 41.5831 31.1295 41.5884C32.4335 41.5902 33.2199 41.4707 34.5705 41.0654C35.4201 40.8106 35.5814 40.7948 36.1416 40.9109C38.7928 41.4615 41.1599 39.2832 41.0597 36.3856C41.0364 35.7123 41.0849 35.5059 41.4608 34.6763C42.8639 31.5802 42.5032 27.7792 40.5287 24.8542C38.743 22.2084 36.1114 20.6263 32.8278 20.224C31.702 20.0859 31.3935 20.0859 29.4732 20.2246Z" fill="#F37916"/>
<path d="M37.0408 41.6235C39.5529 41.6235 41.5894 39.587 41.5894 37.0749C41.5894 34.5628 39.5529 32.5263 37.0408 32.5263C34.5287 32.5263 32.4922 34.5628 32.4922 37.0749C32.4922 39.587 34.5287 41.6235 37.0408 41.6235Z" fill="#231F20"/>
<path d="M13.9558 17.4029C16.4679 17.4029 18.5044 15.3664 18.5044 12.8543C18.5044 10.3421 16.4679 8.30566 13.9558 8.30566C11.4437 8.30566 9.40723 10.3421 9.40723 12.8543C9.40723 15.3664 11.4437 17.4029 13.9558 17.4029Z" fill="#231F20"/>
</g>
</g>
<mask id="mask2_118_3151" style="mask-type:luminance" maskUnits="userSpaceOnUse" x="61" y="9" width="133" height="23">
<path d="M193.374 9.1748H61.043V31.1787H193.374V9.1748Z" fill="white"/>
</mask>
<g mask="url(#mask2_118_3151)">
<path d="M61.3324 25.275L62.7359 21.7052C66.3057 24.1179 71.3526 24.684 71.3526 21.976C71.3526 19.6617 61.0616 20.6465 61.3324 14.3685C61.5293 9.22295 68.7922 7.77038 74.5039 11.808L72.8545 14.7378C69.2601 11.9804 65.0501 12.325 64.9762 14.6147C64.8778 17.4706 74.9964 16.2396 74.9964 21.779C74.9964 27.1215 69.2601 29.0663 61.3324 25.275Z" fill="#231F20"/>
<path d="M85.137 26.8687C82.3548 26.8687 78.0218 26.1303 78.0218 21.3539V17.0702H76.8154V13.6234H78.0218V10.8906H81.4685V13.6234H84.6691V17.0702H81.4685V20.5908C81.4685 23.1758 83.3889 23.422 85.137 23.422V26.8687Z" fill="#231F20"/>
<path d="M93.7007 26.7739C89.9337 26.7739 86.8809 23.721 86.8809 19.9542C86.8809 16.212 89.9337 13.1592 93.7007 13.1592C97.4428 13.1592 100.496 16.212 100.496 19.9542V26.8723H97.0489V25.2475C96.2857 26.1585 95.0793 26.7739 93.7007 26.7739ZM93.7007 23.3271C95.547 23.3271 97.0489 21.8254 97.0489 19.9542C97.0489 18.1078 95.547 16.6059 93.7007 16.6059C91.8295 16.6059 90.3276 18.1078 90.3276 19.9542C90.3276 21.8254 91.8295 23.3271 93.7007 23.3271Z" fill="#231F20"/>
<path d="M109.168 26.8708C105.376 26.8708 102.299 23.7441 102.299 19.9035C102.299 15.8659 105.549 12.9854 109.168 12.9854C111.359 12.9854 113.378 14.0686 114.486 15.6689L111.999 18.0816C111.408 16.9245 110.152 16.4321 109.192 16.4321C107.469 16.4321 105.746 17.7616 105.746 19.9035C105.746 21.8485 107.272 23.4241 109.192 23.4241C110.423 23.4241 111.556 22.7101 112.024 21.7501L114.486 24.1628C113.402 25.7876 111.359 26.8708 109.168 26.8708Z" fill="#231F20"/>
<path d="M120.072 23.2456L120.08 19.0572H120.588L124.621 14.2787H128.629L123.211 20.6064H122.383L120.072 23.2456ZM116.908 26.8683V10.8516H120.4V26.8683H116.908ZM124.777 26.8683L121.072 21.3851L123.4 18.9179L128.867 26.8683H124.777Z" fill="#231F20"/>
<path d="M144.441 26.8695L143.037 24.3091H134.839L133.436 26.8941L129.472 26.8695L138.926 10.7744L148.404 26.8695H144.441ZM136.661 21.1086H141.191L138.926 16.9478L136.661 21.1086Z" fill="#F37916"/>
<path d="M156.518 26.8693C155.139 26.8693 153.884 26.2537 153.121 25.2935V30.8575H149.674V20.0495C149.674 16.2581 152.727 13.1807 156.518 13.1807C160.285 13.1807 163.362 16.2581 163.362 20.0495C163.362 23.8164 160.285 26.8693 156.518 26.8693ZM156.518 16.6274C154.622 16.6274 153.121 18.1538 153.121 20.0495C153.121 21.9206 154.622 23.4226 156.518 23.4226C158.389 23.4226 159.916 21.9206 159.916 20.0495C159.916 18.1538 158.389 16.6274 156.518 16.6274Z" fill="#F37916"/>
<path d="M172.674 26.8693C171.296 26.8693 170.04 26.2537 169.277 25.2935V30.8575H165.83V20.0495C165.83 16.2581 168.883 13.1807 172.674 13.1807C176.441 13.1807 179.519 16.2581 179.519 20.0495C179.519 23.8164 176.441 26.8693 172.674 26.8693ZM172.674 16.6274C170.779 16.6274 169.277 18.1538 169.277 20.0495C169.277 21.9206 170.779 23.4226 172.674 23.4226C174.545 23.4226 176.072 21.9206 176.072 20.0495C176.072 18.1538 174.545 16.6274 172.674 16.6274Z" fill="#F37916"/>
<path d="M180.757 24.9993L181.963 22.1433C185.041 23.8914 189.521 24.6053 189.521 22.4633C189.521 20.5924 180.88 21.3801 181.126 16.3823C181.446 12.0247 187.921 11.2122 192.795 14.4374L191.392 16.8009C188.783 14.7821 184.794 14.9298 184.72 16.5793C184.647 18.4012 193.091 17.9826 193.091 22.3156C193.091 26.4518 188.241 28.6922 180.757 24.9993Z" fill="#F37916"/>
</g>
<path d="M61.3301 34.1914H61.9835L63.2903 36.3908H63.3455L64.6524 34.1914H65.3058L63.6032 36.9614V38.9033H63.0326V36.9614L61.3301 34.1914ZM71.7741 36.5473C71.7741 37.0443 71.6843 37.4737 71.5049 37.8358C71.3255 38.1977 71.0793 38.477 70.7664 38.6733C70.4535 38.8695 70.096 38.9677 69.6941 38.9677C69.2924 38.9677 68.9349 38.8695 68.622 38.6733C68.3091 38.477 68.063 38.1977 67.8835 37.8358C67.7041 37.4737 67.6143 37.0443 67.6143 36.5473C67.6143 36.0504 67.7041 35.6208 67.8835 35.2589C68.063 34.897 68.3091 34.6177 68.622 34.4214C68.9349 34.225 69.2924 34.127 69.6941 34.127C70.096 34.127 70.4535 34.225 70.7664 34.4214C71.0793 34.6177 71.3255 34.897 71.5049 35.2589C71.6843 35.6208 71.7741 36.0504 71.7741 36.5473ZM71.2218 36.5473C71.2218 36.1393 71.1537 35.795 71.0172 35.5143C70.8822 35.2335 70.6989 35.0212 70.4672 34.877C70.2372 34.7327 69.9795 34.6606 69.6941 34.6606C69.4089 34.6606 69.1505 34.7327 68.9189 34.877C68.6887 35.0212 68.5055 35.2335 68.3689 35.5143C68.2339 35.795 68.1664 36.1393 68.1664 36.5473C68.1664 36.9552 68.2339 37.2996 68.3689 37.5804C68.5055 37.861 68.6887 38.0735 68.9189 38.2177C69.1505 38.3618 69.4089 38.4339 69.6941 38.4339C69.9795 38.4339 70.2372 38.3618 70.4672 38.2177C70.6989 38.0735 70.8822 37.861 71.0172 37.5804C71.1537 37.2996 71.2218 36.9552 71.2218 36.5473ZM77.8018 34.1914H78.3724V37.3112C78.3724 37.6333 78.2964 37.9208 78.1445 38.1739C77.9943 38.4254 77.7818 38.6241 77.5072 38.7698C77.2328 38.9141 76.9107 38.9862 76.541 38.9862C76.1712 38.9862 75.8491 38.9141 75.5747 38.7698C75.3001 38.6241 75.0868 38.4254 74.9351 38.1739C74.7847 37.9208 74.7095 37.6333 74.7095 37.3112V34.1914H75.2801V37.2652C75.2801 37.4952 75.3308 37.7 75.432 37.8795C75.5332 38.0573 75.6774 38.1977 75.8645 38.3004C76.0532 38.4018 76.2787 38.4523 76.541 38.4523C76.8032 38.4523 77.0287 38.4018 77.2174 38.3004C77.406 38.1977 77.5503 38.0573 77.6499 37.8795C77.7512 37.7 77.8018 37.4952 77.8018 37.2652V34.1914ZM81.488 38.9033V34.1914H83.0801C83.4482 34.1914 83.7503 34.2543 83.9864 34.38C84.2228 34.5043 84.3976 34.6752 84.511 34.8931C84.6245 35.1108 84.6812 35.3587 84.6812 35.6362C84.6812 35.9139 84.6245 36.16 84.511 36.3748C84.3976 36.5895 84.2235 36.7583 83.9887 36.881C83.7541 37.0021 83.4543 37.0627 83.0891 37.0627H81.8008V36.5473H83.0708C83.3224 36.5473 83.5249 36.5104 83.6782 36.437C83.8332 36.3633 83.9451 36.2589 84.0141 36.1241C84.0847 35.9875 84.1199 35.8248 84.1199 35.6362C84.1199 35.4475 84.0847 35.2827 84.0141 35.1416C83.9435 35.0004 83.8308 34.8916 83.6758 34.8148C83.521 34.7366 83.3162 34.6975 83.0616 34.6975H82.0585V38.9033H81.488ZM83.7058 36.7866L84.8655 38.9033H84.2028L83.0616 36.7866H83.7058ZM91.4064 38.9033V34.1914H92.9985C93.3681 34.1914 93.6705 34.2581 93.9051 34.3916C94.1412 34.5235 94.316 34.7021 94.4297 34.9275C94.5432 35.1531 94.5999 35.4046 94.5999 35.6821C94.5999 35.9598 94.5432 36.2121 94.4297 36.4393C94.3176 36.6662 94.1443 36.8471 93.9097 36.9821C93.6749 37.1156 93.3743 37.1823 93.0078 37.1823H91.8666V36.6762H92.9893C93.2424 36.6762 93.4457 36.6325 93.5991 36.545C93.7524 36.4575 93.8637 36.3395 93.9326 36.1906C94.0032 36.0404 94.0385 35.8708 94.0385 35.6821C94.0385 35.4935 94.0032 35.3248 93.9326 35.176C93.8637 35.0273 93.7516 34.9108 93.5968 34.8264C93.4418 34.7404 93.2362 34.6975 92.9801 34.6975H91.977V38.9033H91.4064ZM97.4951 38.9033V34.1914H99.0872C99.4553 34.1914 99.7576 34.2543 99.9937 34.38C100.23 34.5043 100.405 34.6752 100.518 34.8931C100.632 35.1108 100.689 35.3587 100.689 35.6362C100.689 35.9139 100.632 36.16 100.518 36.3748C100.405 36.5895 100.231 36.7583 99.996 36.881C99.7614 37.0021 99.4614 37.0627 99.0964 37.0627H97.808V36.5473H99.078C99.3295 36.5473 99.532 36.5104 99.6855 36.437C99.8403 36.3633 99.9524 36.2589 100.021 36.1241C100.092 35.9875 100.127 35.8248 100.127 35.6362C100.127 35.4475 100.092 35.2827 100.021 35.1416C99.9508 35.0004 99.838 34.8916 99.6832 34.8148C99.5282 34.7366 99.3233 34.6975 99.0687 34.6975H98.0657V38.9033H97.4951ZM99.713 36.7866L100.873 38.9033H100.21L99.0687 36.7866H99.713ZM103.615 38.9033V34.1914H106.459V34.6975H104.186V36.2896H106.312V36.7958H104.186V38.3971H106.496V38.9033H103.615ZM109.464 34.1914H110.145L111.746 38.1025H111.801L113.403 34.1914H114.084V38.9033H113.55V35.3233H113.504L112.031 38.9033H111.516L110.043 35.3233H109.997V38.9033H109.464V34.1914ZM117.774 34.1914V38.9033H117.204V34.1914H117.774ZM123.987 34.1914H124.557V37.3112C124.557 37.6333 124.481 37.9208 124.329 38.1739C124.179 38.4254 123.967 38.6241 123.692 38.7698C123.418 38.9141 123.095 38.9862 122.726 38.9862C122.356 38.9862 122.034 38.9141 121.759 38.7698C121.485 38.6241 121.272 38.4254 121.12 38.1739C120.969 37.9208 120.894 37.6333 120.894 37.3112V34.1914H121.465V37.2652C121.465 37.4952 121.516 37.7 121.617 37.8795C121.718 38.0573 121.862 38.1977 122.049 38.3004C122.238 38.4018 122.464 38.4523 122.726 38.4523C122.988 38.4523 123.214 38.4018 123.402 38.3004C123.591 38.1977 123.735 38.0573 123.835 37.8795C123.936 37.7 123.987 37.4952 123.987 37.2652V34.1914ZM127.673 34.1914H128.354L129.955 38.1025H130.01L131.612 34.1914H132.293V38.9033H131.759V35.3233H131.713L130.24 38.9033H129.725L128.252 35.3233H128.206V38.9033H127.673V34.1914ZM139.782 34.1914V38.9033H139.211V34.1914H139.782ZM142.644 34.6975V34.1914H146.178V34.6975H144.696V38.9033H144.126V34.6975H142.644ZM152.833 38.9033V34.1914H154.425C154.795 34.1914 155.097 34.2581 155.331 34.3916C155.568 34.5235 155.743 34.7021 155.856 34.9275C155.969 35.1531 156.026 35.4046 156.026 35.6821C156.026 35.9598 155.969 36.2121 155.856 36.4393C155.744 36.6662 155.571 36.8471 155.336 36.9821C155.101 37.1156 154.801 37.1823 154.434 37.1823H153.293V36.6762H154.416C154.669 36.6762 154.872 36.6325 155.025 36.545C155.179 36.4575 155.29 36.3395 155.359 36.1906C155.43 36.0404 155.465 35.8708 155.465 35.6821C155.465 35.4935 155.43 35.3248 155.359 35.176C155.29 35.0273 155.178 34.9108 155.023 34.8264C154.868 34.7404 154.663 34.6975 154.407 34.6975H153.404V38.9033H152.833ZM158.634 38.9033H158.036L159.766 34.1914H160.355L162.085 38.9033H161.487L160.079 34.9368H160.042L158.634 38.9033ZM158.855 37.0627H161.266V37.5689H158.855V37.0627ZM164.795 38.9033V34.1914H166.387C166.755 34.1914 167.058 34.2543 167.294 34.38C167.53 34.5043 167.705 34.6752 167.818 34.8931C167.932 35.1108 167.989 35.3587 167.989 35.6362C167.989 35.9139 167.932 36.16 167.818 36.3748C167.705 36.5895 167.531 36.7583 167.296 36.881C167.061 37.0021 166.761 37.0627 166.396 37.0627H165.108V36.5473H166.378C166.629 36.5473 166.832 36.5104 166.985 36.437C167.14 36.3633 167.252 36.2589 167.321 36.1241C167.392 35.9875 167.427 35.8248 167.427 35.6362C167.427 35.4475 167.392 35.2827 167.321 35.1416C167.251 35.0004 167.138 34.8916 166.983 34.8148C166.828 34.7366 166.623 34.6975 166.369 34.6975H165.366V38.9033H164.795ZM167.013 36.7866L168.173 38.9033H167.51L166.369 36.7866H167.013ZM170.658 34.6975V34.1914H174.192V34.6975H172.71V38.9033H172.139V34.6975H170.658ZM180.785 34.1914V38.9033H180.233L177.665 35.2037H177.619V38.9033H177.048V34.1914H177.6L180.177 37.9002H180.223V34.1914H180.785ZM183.903 38.9033V34.1914H186.746V34.6975H184.473V36.2896H186.599V36.7958H184.473V38.3971H186.783V38.9033H183.903ZM189.751 38.9033V34.1914H191.343C191.711 34.1914 192.013 34.2543 192.249 34.38C192.486 34.5043 192.66 34.6752 192.773 34.8931C192.887 35.1108 192.944 35.3587 192.944 35.6362C192.944 35.9139 192.887 36.16 192.773 36.3748C192.66 36.5895 192.486 36.7583 192.252 36.881C192.017 37.0021 191.717 37.0627 191.352 37.0627H190.064V36.5473H191.334C191.585 36.5473 191.788 36.5104 191.941 36.437C192.096 36.3633 192.208 36.2589 192.277 36.1241C192.348 35.9875 192.383 35.8248 192.383 35.6362C192.383 35.4475 192.348 35.2827 192.277 35.1416C192.206 35.0004 192.094 34.8916 191.939 34.8148C191.784 34.7366 191.579 34.6975 191.324 34.6975H190.321V38.9033H189.751ZM191.969 36.7866L193.129 38.9033H192.466L191.324 36.7866H191.969Z" fill="#231F20"/>
<defs>
<radialGradient id="paint0_radial_118_3151" cx="0" cy="0" r="1" gradientUnits="userSpaceOnUse" gradientTransform="translate(25.5922 25.0006) rotate(89.2205) scale(25.0765 25.0765)">
<stop offset="0.666667" stop-color="white"/>
<stop offset="1" stop-color="#F5F5F5"/>
</radialGradient>
</defs>
</svg>
