<svg width="101" height="100" viewBox="0 0 101 100" fill="none" xmlns="http://www.w3.org/2000/svg">
<rect x="0.5" width="100" height="100" rx="50" fill="#FDE4D0"/>
<path d="M73 65V35C73 34.3097 72.7202 33.6847 72.2678 33.2323L71.75 33.75L54.0355 51.4645C52.0829 53.4171 48.9171 53.4171 46.9645 51.4645L29.25 33.75L28.7322 33.2323C28.2798 33.6847 28 34.3097 28 35V65C28 66.3807 29.1193 67.5 30.5 67.5H70.5C71.8807 67.5 73 66.3807 73 65Z" fill="#F37916"/>
<path d="M29.25 33.75L46.9645 51.4645C48.9171 53.4171 52.0829 53.4171 54.0355 51.4645L71.75 33.75M30.5 67.5H70.5C71.8807 67.5 73 66.3807 73 65V35C73 33.6193 71.8807 32.5 70.5 32.5H30.5C29.1193 32.5 28 33.6193 28 35V65C28 66.3807 29.1193 67.5 30.5 67.5Z" stroke="#231F20" stroke-width="1.5" stroke-linecap="round" stroke-linejoin="round"/>
</svg>
