<svg width="100" height="100" viewBox="0 0 100 100" fill="none" xmlns="http://www.w3.org/2000/svg">
<circle cx="50" cy="50" r="50" fill="#FDE4D0"/>
<path fill-rule="evenodd" clip-rule="evenodd" d="M50 72.5C61.0457 67.5 70 58.5457 70 47.5C70 36.4543 61.0457 27.5 50 27.5C38.9543 27.5 30 36.4543 30 47.5C30 58.5457 38.9543 67.5 50 72.5ZM50 55C54.1421 55 57.5 51.6421 57.5 47.5C57.5 43.3579 54.1421 40 50 40C45.8579 40 42.5 43.3579 42.5 47.5C42.5 51.6421 45.8579 55 50 55Z" fill="#F37916"/>
<path d="M70 47.5C70 58.5457 61.0457 67.5 50 72.5C38.9543 67.5 30 58.5457 30 47.5C30 36.4543 38.9543 27.5 50 27.5C61.0457 27.5 70 36.4543 70 47.5Z" stroke="#231F20" stroke-width="1.5" stroke-linecap="round" stroke-linejoin="round"/>
<path d="M57.5 47.5C57.5 51.6421 54.1421 55 50 55C45.8579 55 42.5 51.6421 42.5 47.5C42.5 43.3579 45.8579 40 50 40C54.1421 40 57.5 43.3579 57.5 47.5Z" stroke="#231F20" stroke-width="1.5" stroke-linecap="round" stroke-linejoin="round"/>
</svg>
