<svg width="101" height="100" viewBox="0 0 101 100" fill="none" xmlns="http://www.w3.org/2000/svg">
<rect x="0.5" width="100" height="100" rx="50" fill="#FDE4D0"/>
<g clip-path="url(#clip0_179_3041)">
<path d="M66.1424 60.5114L66.1423 60.5118C65.7772 61.5425 64.9047 62.416 63.9402 63.0688C62.9643 63.7292 61.8149 64.2183 60.7789 64.4422L60.777 64.4426C60.072 64.5927 59.2388 64.7278 57.8349 64.5052C56.4577 64.2867 54.5437 63.7265 51.6513 62.5274C44.6465 59.6253 39.9707 52.8219 39.0829 51.5302C39.0151 51.4315 38.9694 51.365 38.9465 51.3348L38.9386 51.3245L38.9387 51.3244C38.9292 51.3114 38.918 51.2961 38.9052 51.2786C38.6786 50.9696 37.9535 49.9808 37.2696 48.6323C36.5514 47.2166 35.85 45.3501 35.85 43.4156C35.85 39.6761 37.7181 37.7756 38.5199 36.96C38.5423 36.9372 38.564 36.9152 38.5847 36.894L38.5848 36.8939C39.35 36.1128 40.5399 35.8094 41.5875 35.8094C41.8857 35.8094 42.1566 35.8231 42.3875 35.8348C42.41 35.836 42.4322 35.8371 42.4539 35.8382C42.4612 35.8385 42.4686 35.8388 42.476 35.8391C42.8144 35.8534 43.254 35.8719 43.6544 36.1334C44.0627 36.4002 44.336 36.8499 44.5892 37.4559L44.5898 37.4573C44.7775 37.9097 45.0446 38.5578 45.3296 39.2492C45.9722 40.8083 46.7054 42.5872 46.8232 42.8365C47.0082 43.2199 47.3161 43.9673 46.9269 44.7346C46.671 45.2775 46.4264 45.5585 46.1002 45.9331C46.0767 45.9602 46.0527 45.9877 46.0283 46.0158C45.8649 46.2042 45.7039 46.3751 45.5534 46.5349C45.5246 46.5655 45.4961 46.5956 45.4682 46.6254C45.291 46.8142 45.1242 46.9958 44.9548 47.2054L44.9499 47.2114L44.9449 47.2174C44.7544 47.4413 44.6659 47.553 44.6275 47.6656C44.6091 47.7198 44.5814 47.8222 44.7147 48.0535C45.1338 48.762 46.5617 51.0865 48.6468 52.9425L48.6468 52.9426C51.1302 55.1534 53.1676 55.9761 54.1081 56.3559C54.1922 56.3899 54.2676 56.4203 54.3337 56.4479M66.1424 60.5114L54.3343 56.4481C54.3341 56.4481 54.3339 56.448 54.3337 56.4479M66.1424 60.5114C66.4618 59.6077 66.6236 58.766 66.6816 58.0991C66.7106 57.7662 66.7145 57.468 66.6963 57.2211C66.6805 57.0064 66.6429 56.7346 66.5253 56.5266L66.5229 56.5225C66.3414 56.2073 66.0393 56.0172 65.7911 55.8816C65.6432 55.8008 65.4525 55.7087 65.2523 55.6122C65.1241 55.5503 64.992 55.4865 64.8648 55.4227L64.8629 55.4218M66.1424 60.5114L64.8629 55.4218M54.3337 56.4479C54.7711 56.629 55.1868 56.5451 55.3996 56.3201M54.3337 56.4479L55.3996 56.3201M64.8629 55.4218C64.4943 55.2382 63.4154 54.7043 62.3433 54.1864C61.302 53.6835 60.205 53.165 59.8163 53.0281C59.4064 52.8746 58.9493 52.8039 58.4879 52.9241C58.0154 53.047 57.6173 53.3494 57.2999 53.7973C57.2032 53.9328 57.1075 54.0672 57.0132 54.1999C56.4061 55.0532 55.8529 55.831 55.3996 56.3201M64.8629 55.4218L55.3996 56.3201M31.3519 64.8519L31.4545 64.546L31.2646 64.2852C28.3431 60.2731 26.625 55.3325 26.625 50C26.625 36.5575 37.5547 25.625 50.9937 25.625H51.0063C64.4452 25.625 75.375 36.5606 75.375 50C75.375 63.4394 64.4452 74.375 51.0063 74.375C46.0481 74.375 41.452 72.9006 37.5983 70.3477L37.3484 70.1821L37.0628 70.2734L28.6287 72.9696L31.3519 64.8519Z" fill="#F37916" stroke="#231F20" stroke-width="1.25"/>
</g>
<defs>
<clipPath id="clip0_179_3041">
<rect width="50" height="50" fill="white" transform="translate(26 25)"/>
</clipPath>
</defs>
</svg>
