<svg width="42" height="42" viewBox="0 0 42 42" fill="none" xmlns="http://www.w3.org/2000/svg">
<g clip-path="url(#clip0_133_7321)">
<path d="M0.580078 7.38489V29.4434C0.580078 31.4054 2.17043 32.9957 4.13234 32.9957H37.9718C39.9337 32.9957 41.524 31.4054 41.524 29.4434V7.38489C41.524 5.44355 39.9506 3.87018 38.0094 3.87018H4.09471C2.15345 3.87018 0.580078 5.44363 0.580078 7.38489Z" fill="#C4E2F2"/>
<path d="M29.3108 37.7357L21.0524 39.6175L12.7935 37.7357L13.9249 32.9961L20.7017 30.5042L28.1794 32.9961L28.5454 34.5304L29.3108 37.7357Z" fill="#2D303B"/>
<path d="M41.5245 29.0254V29.4433C41.5245 31.4052 39.9335 32.9961 37.9716 32.9961H4.13243C2.17052 32.9961 0.580566 31.4051 0.580566 29.4432V29.0254H41.5245ZM29.3107 37.7357H16.6791L17.4445 34.5304H28.5454L29.3107 37.7357Z" fill="#3C3F4D"/>
<path d="M34.1778 40.3745V41.5H7.92676V40.3745C7.92676 38.9172 9.10823 37.7357 10.5656 37.7357H31.5388C32.9963 37.7357 34.1778 38.9172 34.1778 40.3745Z" fill="#2D303B"/>
<path d="M34.1777 40.3745V41.5H12.438V40.3745C12.438 38.9172 13.6195 37.7357 15.0778 37.7357H31.5388C32.9962 37.7357 34.1777 38.9172 34.1777 40.3745Z" fill="#3C3F4D"/>
<path d="M8.01337 8.51877H24.7375L26.8684 29.0253H5.88281L8.01337 8.51877Z" fill="#FF491F"/>
<path d="M16.2362 15.149H27.8615L29.3424 29.0254H14.7554L16.2362 15.149Z" fill="#ED3618"/>
<path d="M17.8239 15.149H29.449L30.9301 29.0254H16.3428L17.8239 15.149Z" fill="#FFE14D"/>
<path d="M20.8875 11.151C20.8052 11.151 20.7237 11.1348 20.6477 11.1033C20.5716 11.0718 20.5026 11.0256 20.4444 10.9674C20.3862 10.9092 20.34 10.8401 20.3086 10.7641C20.2771 10.688 20.2609 10.6065 20.261 10.5242V6.38856C20.261 4.24615 18.518 2.50317 16.3756 2.50317C14.2332 2.50317 12.4902 4.24615 12.4902 6.38856V10.5242C12.4902 10.6904 12.4242 10.8498 12.3066 10.9673C12.1891 11.0849 12.0297 11.1509 11.8635 11.1509C11.6973 11.1509 11.5379 11.0849 11.4204 10.9673C11.3028 10.8498 11.2368 10.6904 11.2368 10.5242V6.38856C11.2368 3.55484 13.5423 1.24979 16.3756 1.24979C19.2089 1.24979 21.5144 3.55524 21.5144 6.38856V10.5242C21.5144 10.6065 21.4982 10.688 21.4667 10.7641C21.4352 10.8401 21.389 10.9093 21.3308 10.9675C21.2726 11.0257 21.2035 11.0719 21.1274 11.1034C21.0514 11.1349 20.9698 11.1511 20.8875 11.151Z" fill="#3C3F4D"/>
<path d="M23.6369 23.6954C21.8054 23.6954 20.3155 22.2056 20.3155 20.3741V17.6796C20.3145 17.5967 20.3301 17.5144 20.3611 17.4376C20.3922 17.3607 20.4382 17.2908 20.4965 17.2318C20.5548 17.1729 20.6242 17.1261 20.7007 17.0941C20.7772 17.0622 20.8593 17.0457 20.9422 17.0457C21.0251 17.0457 21.1072 17.0622 21.1837 17.0941C21.2602 17.1261 21.3296 17.1729 21.3879 17.2318C21.4462 17.2908 21.4922 17.3607 21.5233 17.4376C21.5543 17.5144 21.5699 17.5967 21.5689 17.6796V20.3741C21.5689 21.5146 22.4966 22.4421 23.6369 22.4421C24.7771 22.4421 25.7048 21.5146 25.7048 20.3741V17.6796C25.7035 17.5964 25.7187 17.5139 25.7496 17.4367C25.7805 17.3595 25.8264 17.2892 25.8848 17.2299C25.9431 17.1707 26.0126 17.1236 26.0893 17.0915C26.166 17.0593 26.2483 17.0428 26.3315 17.0428C26.4146 17.0428 26.497 17.0593 26.5737 17.0915C26.6504 17.1236 26.7199 17.1707 26.7782 17.2299C26.8365 17.2892 26.8825 17.3595 26.9134 17.4367C26.9443 17.5139 26.9595 17.5964 26.9582 17.6796V20.3741C26.9582 22.2055 25.4683 23.6954 23.6369 23.6954Z" fill="white"/>
<path d="M38.5998 6.6263C38.5998 10.0099 35.8568 12.7526 32.4735 12.7526C29.0898 12.7526 26.3472 10.0099 26.3472 6.6263C26.3472 3.243 29.0898 0.5 32.4735 0.5C35.8568 0.5 38.5998 3.243 38.5998 6.6263Z" fill="#32CC77"/>
<path d="M31.8318 10.3408C31.72 10.3407 31.6103 10.3108 31.514 10.2541C31.4177 10.1974 31.3383 10.116 31.284 10.0183L29.6126 7.0101C29.4446 6.70765 29.5535 6.32599 29.8563 6.15807C30.1591 5.99015 30.5404 6.09889 30.7083 6.40167L31.7948 8.3567L34.1927 3.4238C34.2278 3.34841 34.2776 3.28077 34.3391 3.22482C34.4007 3.16886 34.4727 3.12572 34.5511 3.0979C34.6295 3.07008 34.7126 3.05814 34.7957 3.06277C34.8787 3.06741 34.96 3.08853 35.0348 3.1249C35.1096 3.16128 35.1764 3.21217 35.2313 3.27463C35.2863 3.33709 35.3282 3.40985 35.3547 3.48868C35.3813 3.56751 35.3918 3.65084 35.3858 3.73379C35.3798 3.81675 35.3573 3.89767 35.3197 3.97186L32.3953 9.98797C32.3451 10.0911 32.2677 10.1784 32.1713 10.2406C32.075 10.3028 31.9635 10.3373 31.8489 10.3406C31.8433 10.3406 31.8376 10.3409 31.8317 10.3409L31.8318 10.3408Z" fill="white"/>
<path d="M39.2317 17.6946H33.2156C33.0493 17.6946 32.8899 17.6286 32.7724 17.5111C32.6549 17.3935 32.5889 17.2341 32.5889 17.0679C32.5889 16.9017 32.6549 16.7423 32.7724 16.6248C32.8899 16.5073 33.0493 16.4412 33.2156 16.4412H39.2317C39.314 16.4412 39.3955 16.4574 39.4716 16.4889C39.5476 16.5204 39.6167 16.5666 39.6749 16.6248C39.733 16.683 39.7792 16.7521 39.8107 16.8282C39.8421 16.9042 39.8583 16.9857 39.8583 17.068C39.8583 17.2342 39.7923 17.3935 39.6748 17.511C39.5573 17.6286 39.3979 17.6946 39.2317 17.6946ZM39.2317 20.6193H34.4693C34.3031 20.6193 34.1437 20.5533 34.0261 20.4357C33.9086 20.3182 33.8426 20.1588 33.8426 19.9926C33.8426 19.8264 33.9086 19.667 34.0261 19.5495C34.1437 19.4319 34.3031 19.3659 34.4693 19.3659H39.2317C39.3141 19.3659 39.3956 19.3821 39.4716 19.4136C39.5476 19.4451 39.6167 19.4913 39.6749 19.5495C39.7331 19.6077 39.7792 19.6769 39.8107 19.7529C39.8421 19.829 39.8583 19.9105 39.8583 19.9928C39.8583 20.1589 39.7922 20.3183 39.6747 20.4358C39.5573 20.5533 39.3979 20.6193 39.2317 20.6193Z" fill="#3C3F4D"/>
</g>
<defs>
<clipPath id="clip0_133_7321">
<rect width="41" height="41" fill="white" transform="translate(0.5 0.5)"/>
</clipPath>
</defs>
</svg>
