<svg width="42" height="42" viewBox="0 0 42 42" fill="none" xmlns="http://www.w3.org/2000/svg">
<g clip-path="url(#clip0_133_7395)">
<path d="M5.36914 6.38736H9.51519V9.15398H5.36914V6.38736Z" fill="#48C1E1"/>
<path d="M10.37 6.08281C10.37 6.30967 10.1845 6.49529 9.95762 6.49529H4.92607C4.69921 6.49529 4.51367 6.30967 4.51367 6.08281V3.10975C4.51367 2.88289 4.69921 2.69727 4.92607 2.69727H9.95754C10.1844 2.69727 10.3699 2.88289 10.3699 3.10975L10.37 6.08281Z" fill="#046699"/>
<path opacity="0.1" d="M6.23399 6.08281V3.10975C6.23399 2.88289 6.41953 2.69727 6.64647 2.69727H4.92607C4.69921 2.69727 4.51367 2.88289 4.51367 3.10975V6.08281C4.51367 6.30967 4.69921 6.49529 4.92607 6.49529H6.64647C6.41961 6.49529 6.23399 6.30967 6.23399 6.08281Z" fill="black"/>
<path d="M4.0837 28.8142C4.0942 28.8099 4.10367 28.8034 4.11147 28.7952C4.11928 28.7869 4.12523 28.7771 4.12894 28.7664C4.13266 28.7556 4.13404 28.7442 4.133 28.7329C4.13197 28.7216 4.12853 28.7107 4.12293 28.7008C4.08858 28.6401 4.0712 28.5805 4.0712 28.5236C4.0712 28.0822 5.05048 27.6097 6.50846 27.6097C6.97764 27.6097 7.43472 27.6618 7.83031 27.7605C7.84372 27.7639 7.85777 27.7637 7.87109 27.76C7.88442 27.7564 7.89655 27.7493 7.9063 27.7395C7.9161 27.7297 7.92319 27.7176 7.92688 27.7043C7.93058 27.6909 7.93074 27.6769 7.92737 27.6635C7.67296 26.648 7.5273 25.6043 7.4931 24.5378C7.49262 24.5254 7.49182 24.513 7.49142 24.5005C7.48681 24.3478 7.48449 24.1951 7.48445 24.0424C7.48443 23.9537 7.5196 23.8687 7.58223 23.8059C7.64487 23.7431 7.72985 23.7077 7.81854 23.7075H8.54205C8.55332 23.7076 8.56446 23.7052 8.57476 23.7006C8.58505 23.696 8.59425 23.6893 8.60177 23.6809C8.60928 23.6725 8.61494 23.6626 8.61836 23.6518C8.62179 23.6411 8.62291 23.6298 8.62164 23.6186C8.61061 23.5259 8.60481 23.4328 8.60427 23.3395C8.60427 22.2112 9.32577 21.2258 10.3997 20.8874C10.4106 20.884 10.4207 20.8782 10.4292 20.8705C10.4377 20.8629 10.4445 20.8534 10.4491 20.8429C10.4536 20.8324 10.4559 20.821 10.4556 20.8095C10.4554 20.7981 10.4527 20.7868 10.4477 20.7764C10.3512 20.5761 10.2828 20.3634 10.2443 20.1444C10.0573 19.0648 10.6221 17.99 11.6177 17.5306C11.6553 17.5133 11.6735 17.47 11.6596 17.4309C11.6131 17.301 11.5778 17.1674 11.5542 17.0314C11.4024 16.1555 11.7449 15.3061 12.3795 14.7682V11.3292C12.3795 10.0632 11.3461 9.02737 10.0828 9.02737H4.80096C3.53788 9.02737 2.50439 10.0632 2.50439 11.3292V29.7694C2.9646 29.3815 3.49512 29.0567 4.0837 28.8142Z" fill="#A2DFF9"/>
<path d="M10.3998 20.8872C10.4107 20.8838 10.4208 20.878 10.4293 20.8704C10.4378 20.8627 10.4446 20.8533 10.4492 20.8427C10.4537 20.8322 10.4559 20.8208 10.4557 20.8093C10.4555 20.7979 10.4528 20.7866 10.4478 20.7763C10.3513 20.5759 10.2829 20.3632 10.2444 20.1442C10.0574 19.0647 10.6222 17.9899 11.6178 17.5305C11.6554 17.5131 11.6736 17.4698 11.6596 17.4308C11.6132 17.3008 11.5779 17.1672 11.5543 17.0312C11.4024 16.1553 11.745 15.3059 12.3795 14.768V13.2196H2.50439V21.7401H9.16041C9.47877 21.3381 9.91055 21.041 10.3998 20.8872Z" fill="#046699"/>
<path opacity="0.1" d="M4.98441 27.8158V11.3291C4.98441 10.0631 6.01782 9.02728 7.28097 9.02728H4.80096C3.53788 9.02728 2.50439 10.0631 2.50439 11.3291V29.7694C2.9646 29.3815 3.49512 29.0567 4.0837 28.8142C4.0942 28.8099 4.10367 28.8034 4.11147 28.7952C4.11928 28.7869 4.12523 28.7771 4.12894 28.7664C4.13266 28.7556 4.13404 28.7442 4.133 28.7329C4.13197 28.7216 4.12853 28.7107 4.12293 28.7008C4.08858 28.6401 4.0712 28.5804 4.0712 28.5236C4.07128 28.2642 4.40993 27.9944 4.98441 27.8158Z" fill="black"/>
<path d="M19.9221 15.5745C19.9452 15.7081 19.9571 15.8466 19.9574 15.9864C19.9574 16.0064 19.9649 16.0257 19.9784 16.0404C19.9919 16.0551 20.0105 16.0643 20.0304 16.0661C21.0555 16.1561 21.9126 16.8864 22.1634 17.8833C22.1668 17.8968 22.1736 17.9092 22.1833 17.9192C22.1929 17.9292 22.205 17.9366 22.2184 17.9405C22.2317 17.9445 22.2459 17.9449 22.2594 17.9417C22.273 17.9385 22.2855 17.9318 22.2957 17.9223C22.7133 17.5327 23.2331 17.2985 23.7989 17.2452C23.8183 17.2434 23.8364 17.2346 23.8497 17.2204C23.8631 17.2062 23.8708 17.1876 23.8714 17.1681C23.9078 16.0452 24.3644 14.9892 25.1572 14.1947C25.1737 14.1781 25.191 14.1627 25.2079 14.1463C25.0325 13.0283 24.5173 11.9539 23.6595 11.0942C23.6194 11.054 23.5717 11.0221 23.5193 11.0004C23.4669 10.9786 23.4107 10.9674 23.3539 10.9674C23.2971 10.9674 23.2409 10.9786 23.1885 11.0004C23.136 11.0221 23.0884 11.054 23.0483 11.0942L19.5332 14.6174C19.7302 14.9047 19.8628 15.2312 19.9221 15.5745Z" fill="#EF5050"/>
<path d="M22.1634 17.8833C22.1668 17.8968 22.1737 17.9092 22.1833 17.9192C22.193 17.9293 22.2051 17.9366 22.2184 17.9405C22.2318 17.9445 22.2459 17.9449 22.2595 17.9417C22.273 17.9385 22.2855 17.9318 22.2957 17.9223C22.4962 17.7349 22.7254 17.5809 22.9748 17.4662C22.9463 17.3714 22.8948 17.2851 22.8249 17.215L22.2418 16.6305C22.1293 16.5178 21.9766 16.4543 21.8174 16.4541C21.6581 16.4539 21.5053 16.517 21.3925 16.6295C21.3907 16.6312 21.3894 16.633 21.3877 16.6348C21.7698 16.9601 22.041 17.3966 22.1634 17.8833ZM23.4124 16.1055H22.5879C22.2561 16.1055 21.9873 15.8366 21.9873 15.505C21.9873 15.1733 22.2561 14.9044 22.5879 14.9044H23.4124C23.5717 14.9044 23.7244 14.9677 23.8371 15.0803C23.9497 15.1929 24.013 15.3457 24.013 15.505C24.013 15.8367 23.7442 16.1055 23.4124 16.1055ZM22.4716 14.4463C22.3528 14.4463 22.2368 14.4111 22.1381 14.3451C22.0393 14.2792 21.9624 14.1855 21.9169 14.0758C21.8714 13.9662 21.8594 13.8455 21.8825 13.729C21.9055 13.6126 21.9626 13.5055 22.0464 13.4215L22.6297 12.8371C22.7422 12.7243 22.8949 12.6609 23.0542 12.6608C23.2135 12.6606 23.3664 12.7238 23.4791 12.8363C23.5918 12.9488 23.6553 13.1015 23.6554 13.2608C23.6556 13.4201 23.5924 13.5729 23.4799 13.6857L22.8966 14.2701C22.8409 14.326 22.7746 14.3704 22.7017 14.4007C22.6287 14.4309 22.5505 14.4464 22.4716 14.4463Z" fill="#C0272D"/>
<path d="M30.0012 13.2214C29.9941 13.2032 29.9834 13.1867 29.9696 13.1729C29.9559 13.1591 29.9394 13.1483 29.9213 13.1412C29.1084 12.817 28.2182 12.7386 27.3612 12.9158C26.5042 13.093 25.7181 13.5181 25.1005 14.1381C24.2761 14.9642 23.8059 16.079 23.7896 17.246C23.8735 17.2377 23.9578 17.2335 24.0422 17.2335C25.2877 17.2335 26.3282 18.1279 26.5591 19.3096C27.4868 19.1586 28.3433 18.7189 29.0067 18.0531C30.2719 16.7849 30.6623 14.8884 30.0012 13.2214Z" fill="#89C947"/>
<path d="M27.8434 15.3041C27.7875 15.2484 27.7213 15.2042 27.6484 15.1741C27.5755 15.144 27.4974 15.1286 27.4185 15.1287C27.3396 15.1288 27.2616 15.1444 27.1887 15.1747C27.1159 15.2049 27.0497 15.2492 26.9941 15.3051L24.9165 17.3874C25.3053 17.5295 25.654 17.7634 25.933 18.0691L27.8444 16.1534C27.9001 16.0976 27.9443 16.0314 27.9744 15.9585C28.0045 15.8856 28.0199 15.8074 28.0198 15.7286C28.0197 15.6497 28.0041 15.5716 27.9738 15.4988C27.9435 15.426 27.8992 15.3598 27.8434 15.3041Z" fill="#D5E962"/>
<path d="M30.8637 20.0995C30.8848 20.2219 30.8954 20.3459 30.8954 20.4701C30.8955 20.5116 30.9272 20.5461 30.9685 20.5498C31.2935 20.5784 31.6034 20.6791 31.8895 20.8492C31.9056 20.8588 31.9246 20.8624 31.9431 20.8595C31.9616 20.8565 31.9785 20.8472 31.9908 20.833C32.0501 20.7645 32.1116 20.6981 32.1753 20.6337C32.6587 20.1493 33.2432 19.8035 33.8805 19.615C33.9418 19.3887 33.9728 19.1552 33.9728 18.9208C33.9728 17.4567 32.7886 16.2697 31.3277 16.2697C30.0818 16.2697 29.0377 17.1334 28.7573 18.2957C29.2636 18.3036 29.7513 18.4882 30.1359 18.8176C30.5205 19.1469 30.778 19.6004 30.8637 20.0995ZM12.7368 23.6499C12.47 23.177 12.2991 22.6561 12.234 22.117C11.852 22.0547 11.4907 21.9014 11.1805 21.67C10.8702 21.4387 10.6202 21.1361 10.4515 20.7878C9.33969 21.1015 8.52441 22.1246 8.52441 23.3393C8.52441 23.4445 8.53242 23.5478 8.54435 23.6498H12.7368V23.6499Z" fill="#FFC502"/>
<path d="M32.923 22.3466C33.0008 22.7889 32.9388 23.2445 32.7456 23.6499H36.1444C36.544 23.0889 36.7969 22.4367 36.8798 21.7529C36.9627 21.0691 36.8731 20.3755 36.6192 19.7352C36.6126 19.7186 36.6027 19.7035 36.5901 19.6908C36.5775 19.6781 36.5624 19.6682 36.5458 19.6616C35.7992 19.3638 34.9817 19.2918 34.1946 19.4545C33.4075 19.6173 32.6856 20.0077 32.1184 20.5771C32.0345 20.6619 31.9542 20.7503 31.8779 20.8421C32.4173 21.1589 32.8111 21.7006 32.923 22.3466Z" fill="#89C947"/>
<path d="M32.7456 23.6499H33.4883L34.6729 22.4626C34.7286 22.4068 34.7728 22.3406 34.8029 22.2677C34.833 22.1948 34.8485 22.1166 34.8484 22.0378C34.8483 21.9589 34.8326 21.8808 34.8023 21.808C34.7721 21.7352 34.7277 21.669 34.6719 21.6133C34.6161 21.5576 34.5498 21.5134 34.4769 21.4833C34.404 21.4532 34.3259 21.4378 34.247 21.4379C34.1682 21.438 34.0901 21.4536 34.0173 21.4839C33.9444 21.5141 33.8783 21.5585 33.8226 21.6143L32.9431 22.4958C32.9849 22.8913 32.9166 23.2907 32.7456 23.6499Z" fill="#D5E962"/>
<path d="M22.2553 17.9296C22.0143 16.851 21.1013 16.0797 20.0375 15.9862C20.0374 15.8436 20.0252 15.7013 20.001 15.5608C19.7651 14.1998 18.4689 13.2886 17.106 13.5258C16.3985 13.649 15.8129 14.0578 15.4451 14.6122C14.9127 14.2144 14.2236 14.0276 13.5161 14.1507C12.153 14.388 11.2393 15.6838 11.4754 17.0449C11.5001 17.1878 11.5371 17.3255 11.5842 17.4577C10.5785 17.9217 9.96771 19.0165 10.1655 20.1578C10.3524 21.2367 11.206 22.0321 12.2308 22.1976C12.1315 21.5095 12.2112 20.7994 12.4771 20.1286C12.4797 20.1221 12.4836 20.1162 12.4885 20.1112C12.4934 20.1062 12.4994 20.1023 12.5059 20.0998C12.9799 19.9103 13.4857 19.8131 13.9961 19.8133C15.0724 19.8133 16.0849 20.2338 16.8468 20.9974C16.9016 21.0527 16.9547 21.1095 17.0063 21.1678C16.9632 20.8892 16.9416 20.6077 16.9416 20.3258C16.9416 20.1312 17.0994 19.9729 17.2934 19.9729H21.4866C21.4827 19.9168 21.4806 19.8606 21.4804 19.8044C21.4804 19.0724 21.7765 18.4095 22.2553 17.9296Z" fill="#368C0E"/>
<path d="M13.4851 18.1642L13.4747 18.1641C13.3958 18.1628 13.318 18.1459 13.2457 18.1145C13.1733 18.0831 13.1079 18.0377 13.0531 17.981C12.9982 17.9243 12.9551 17.8574 12.9262 17.784C12.8972 17.7106 12.883 17.6323 12.8844 17.5534C12.902 16.5136 13.7548 15.679 14.7918 15.679L14.8223 15.6792C15.0819 15.6836 15.3378 15.7409 15.5745 15.8475C15.8112 15.954 16.0237 16.1077 16.199 16.2991C16.3044 16.417 16.3589 16.5718 16.3509 16.7297C16.3429 16.8876 16.2729 17.036 16.1561 17.1427C16.0393 17.2493 15.8852 17.3056 15.7272 17.2994C15.5692 17.2931 15.42 17.2248 15.3121 17.1092C15.2477 17.0381 15.1692 16.981 15.0817 16.9416C14.9942 16.9022 14.8995 16.8813 14.8035 16.8803C14.4131 16.874 14.0919 17.1853 14.0853 17.5738C14.0826 17.7313 14.0182 17.8814 13.9059 17.9918C13.7937 18.1022 13.6426 18.1641 13.4851 18.1642ZM16.8007 19.1976C16.7038 19.1976 16.6084 19.1741 16.5225 19.1293C16.4366 19.0844 16.3629 19.0194 16.3076 18.9399C16.2523 18.8604 16.217 18.7686 16.2049 18.6725C16.1927 18.5764 16.2039 18.4788 16.2376 18.388C16.5727 17.4848 17.5806 17.0213 18.4849 17.3548C18.7081 17.4377 18.9122 17.5651 19.0845 17.7294C19.2569 17.8937 19.394 18.0914 19.4875 18.3104C19.5498 18.457 19.5513 18.6223 19.4917 18.7701C19.4321 18.9178 19.3163 19.0357 19.1697 19.0981C19.0231 19.1604 18.8578 19.1619 18.71 19.1023C18.5623 19.0427 18.4443 18.9268 18.382 18.7802C18.3532 18.7116 18.3105 18.6497 18.2566 18.5983C18.2028 18.5469 18.1389 18.5072 18.0689 18.4817C17.7849 18.3769 17.4689 18.5224 17.3639 18.8057C17.3212 18.9207 17.2444 19.0199 17.1437 19.0899C17.043 19.16 16.9233 19.1976 16.8007 19.1976Z" fill="#89C947"/>
<path d="M26.6019 19.9664H26.58C26.5798 19.972 26.5798 19.9777 26.5796 19.9833H27.3841C27.4409 19.9834 27.4971 19.9946 27.5496 20.0164C27.602 20.0382 27.6497 20.0701 27.6898 20.1103C27.7299 20.1505 27.7617 20.1982 27.7834 20.2507C27.8051 20.3032 27.8162 20.3595 27.8162 20.4163C27.8162 21.6231 27.4267 22.7389 26.7706 23.6499H32.8322C33.0134 23.2511 33.0825 22.7966 33.0022 22.3329C32.8236 21.3021 31.9718 20.5575 30.9756 20.47C30.9755 20.3412 30.9645 20.2127 30.9426 20.0857C30.7296 18.8564 29.5588 18.0334 28.3279 18.2477C27.6888 18.3591 27.1598 18.7282 26.8277 19.2291C26.7198 19.1488 26.6049 19.0783 26.4844 19.0185C26.566 19.2725 26.6075 19.5377 26.6075 19.8045C26.6074 19.8574 26.6056 19.9109 26.6019 19.9664Z" fill="#368C0E"/>
<path d="M26.6808 19.9729C26.6845 19.9172 26.6872 19.8611 26.6872 19.8044C26.6872 18.3402 25.5029 17.1533 24.042 17.1533C22.5812 17.1533 21.397 18.3403 21.397 19.8044C21.397 19.8611 21.3996 19.9172 21.4032 19.9729H26.6808Z" fill="#F7931E"/>
<path d="M16.9038 20.941C16.3366 20.3716 15.6146 19.9812 14.8275 19.8185C14.0405 19.6557 13.2229 19.7277 12.4764 20.0255C12.4598 20.0321 12.4447 20.042 12.432 20.0547C12.4194 20.0674 12.4095 20.0825 12.4029 20.0991C12.1759 20.6716 12.0799 21.2876 12.1219 21.9021C12.164 22.5165 12.3431 23.1137 12.646 23.6499H18.0977C17.5455 22.9143 17.1711 22.0376 17.0397 21.084C16.9956 21.0353 16.9502 20.9876 16.9038 20.941Z" fill="#89C947"/>
<path d="M15.1703 23.6499H16.8671L15.1991 21.9782C15.0866 21.8654 14.9339 21.802 14.7747 21.8018C14.6154 21.8016 14.4626 21.8647 14.3498 21.9772C14.294 22.0329 14.2496 22.099 14.2194 22.1719C14.1891 22.2447 14.1734 22.3228 14.1733 22.4016C14.1732 22.4805 14.1887 22.5586 14.2188 22.6315C14.2489 22.7044 14.2931 22.7707 14.3488 22.8265L15.1703 23.6499Z" fill="#D5E962"/>
<path d="M26.8107 23.6499C27.5065 22.7229 27.9214 21.5726 27.9214 20.3258C27.9215 20.269 27.9104 20.2128 27.8887 20.1603C27.867 20.1077 27.8352 20.06 27.7951 20.0198C27.7549 19.9796 27.7073 19.9477 27.6548 19.9259C27.6023 19.9041 27.5461 19.8929 27.4893 19.8929H17.2933C17.2365 19.8929 17.1803 19.9042 17.1278 19.926C17.0754 19.9478 17.0277 19.9797 16.9876 20.0199C16.9475 20.0601 16.9157 20.1078 16.894 20.1603C16.8724 20.2128 16.8613 20.269 16.8613 20.3258C16.8613 21.5726 17.2762 22.7229 17.9721 23.6499H26.8107Z" fill="#EF5050"/>
<path d="M23.014 23.6499V23.2344C23.014 22.9027 22.7451 22.6338 22.4134 22.6338C22.0816 22.6338 21.8128 22.9027 21.8128 23.2344V23.6499H23.014ZM24.1662 23.6499H25.1002C25.1944 23.5347 25.2424 23.3886 25.2351 23.24C25.2278 23.0914 25.1655 22.9508 25.0604 22.8455L24.4774 22.2611C24.3649 22.1483 24.2122 22.0849 24.053 22.0847C23.8937 22.0845 23.7409 22.1476 23.6281 22.26C23.5153 22.3725 23.4519 22.5252 23.4517 22.6845C23.4515 22.8437 23.5146 22.9966 23.627 23.1093L24.1662 23.6499ZM20.5659 23.6499L21.105 23.1095C21.2167 22.9966 21.2791 22.844 21.2786 22.6852C21.2781 22.5263 21.2147 22.3742 21.1023 22.262C20.9898 22.1498 20.8375 22.0867 20.6787 22.0865C20.5198 22.0863 20.3674 22.1491 20.2547 22.2611L19.6716 22.8455C19.5665 22.9508 19.5042 23.0914 19.4969 23.24C19.4895 23.3886 19.5376 23.5346 19.6317 23.6498L20.5659 23.6499ZM19.6425 22.0302H18.8179C18.4861 22.0302 18.2173 21.7613 18.2173 21.4296C18.2173 21.0979 18.4861 20.829 18.8179 20.829H19.6425C19.8018 20.829 19.9546 20.8923 20.0672 21.0049C20.1798 21.1176 20.2431 21.2703 20.2431 21.4296C20.2431 21.5889 20.1798 21.7417 20.0672 21.8543C19.9546 21.9669 19.8018 22.0302 19.6425 22.0302ZM25.9653 22.0302H25.1406C24.9813 22.0302 24.8286 21.9669 24.7159 21.8543C24.6033 21.7417 24.54 21.5889 24.54 21.4296C24.54 21.2703 24.6033 21.1176 24.7159 21.0049C24.8286 20.8923 24.9813 20.829 25.1406 20.829H25.9653C26.1246 20.829 26.2774 20.8923 26.39 21.0049C26.5026 21.1176 26.5659 21.2703 26.5659 21.4296C26.5659 21.5889 26.5026 21.7417 26.39 21.8543C26.2774 21.9669 26.1246 22.0302 25.9653 22.0302Z" fill="#C0272D"/>
<path d="M7.94555 27.7909C7.95745 27.7943 7.96996 27.7948 7.9821 27.7925C7.99424 27.7902 8.00569 27.7851 8.01554 27.7777C8.0254 27.7702 8.03339 27.7606 8.03891 27.7495C8.04442 27.7384 8.0473 27.7263 8.04732 27.7139V26.6975C8.04732 26.4105 8.28083 26.177 8.56783 26.177C8.85483 26.177 9.08834 26.4105 9.08834 26.6975V27.7139C9.08831 27.7263 9.09116 27.7385 9.09666 27.7496C9.10216 27.7607 9.11016 27.7703 9.12003 27.7778C9.12989 27.7853 9.14136 27.7903 9.15352 27.7926C9.16569 27.7949 9.17822 27.7943 9.19012 27.7909C9.61141 27.6723 10.1085 27.6095 10.6273 27.6095C12.0851 27.6095 13.0645 28.082 13.0645 28.5234C13.0645 28.5804 13.0471 28.6401 13.0127 28.7008C13.0071 28.7107 13.0037 28.7216 13.0027 28.7329C13.0016 28.7442 13.003 28.7556 13.0067 28.7664C13.0104 28.7771 13.0164 28.7869 13.0242 28.7952C13.0319 28.8034 13.0414 28.8099 13.0519 28.8143C14.9184 29.5836 16.2411 31.2157 16.5038 33.0735C16.5066 33.0925 16.5161 33.11 16.5307 33.1226C16.5452 33.1353 16.5638 33.1423 16.5831 33.1423C16.5927 33.1423 16.6023 33.1406 16.6115 33.1371L29.2539 28.3343C29.4976 28.2416 29.7562 28.1942 30.0169 28.1944C30.3836 28.1944 30.7463 28.2889 31.0659 28.4678C31.6216 28.7788 32.0067 29.3152 32.1224 29.9394L32.2325 30.534C32.2348 30.5467 32.2402 30.5586 32.2481 30.5688C32.2561 30.5789 32.2663 30.587 32.2781 30.5924C32.2898 30.5977 32.3027 30.6002 32.3155 30.5995C32.3284 30.5988 32.3409 30.595 32.352 30.5884L36.6025 28.0792C36.9678 26.7777 37.1529 25.4282 37.1529 24.0422C37.153 23.9877 37.1423 23.9338 37.1215 23.8835C37.1007 23.8332 37.0702 23.7874 37.0318 23.7489C36.9933 23.7104 36.9476 23.6798 36.8974 23.6589C36.8471 23.638 36.7932 23.6272 36.7388 23.6272H7.81846C7.76402 23.6272 7.71012 23.638 7.65984 23.6589C7.60957 23.6798 7.5639 23.7104 7.52544 23.7489C7.48698 23.7874 7.45649 23.8332 7.4357 23.8835C7.41492 23.9338 7.40424 23.9877 7.4043 24.0422C7.4043 25.3195 7.56221 26.5657 7.87251 27.772C7.89678 27.7784 7.92176 27.7842 7.94555 27.7909Z" fill="#E6E9ED"/>
<path opacity="0.1" d="M7.94555 27.7909C7.95745 27.7943 7.96996 27.7948 7.9821 27.7925C7.99424 27.7902 8.00569 27.7851 8.01554 27.7777C8.0254 27.7702 8.03339 27.7606 8.03891 27.7495C8.04442 27.7384 8.0473 27.7263 8.04732 27.7139V26.6975C8.04732 26.4105 8.28083 26.177 8.56783 26.177C8.85483 26.177 9.08834 26.4105 9.08834 26.6975V27.7139C9.08831 27.7263 9.09116 27.7385 9.09666 27.7496C9.10216 27.7607 9.11016 27.7703 9.12003 27.7778C9.12989 27.7853 9.14136 27.7903 9.15352 27.7926C9.16569 27.7949 9.17822 27.7943 9.19012 27.7909C9.55071 27.6893 9.96704 27.6291 10.4048 27.6138C10.121 26.4568 9.97729 25.2637 9.97729 24.0422C9.97723 23.9877 9.98791 23.9338 10.0087 23.8835C10.0295 23.8332 10.06 23.7874 10.0984 23.7489C10.1369 23.7104 10.1826 23.6798 10.2328 23.6589C10.2831 23.638 10.337 23.6272 10.3915 23.6272H7.81846C7.76402 23.6272 7.71012 23.638 7.65984 23.6589C7.60957 23.6798 7.5639 23.7104 7.52544 23.7489C7.48698 23.7874 7.45649 23.8332 7.4357 23.8835C7.41492 23.9338 7.40424 23.9877 7.4043 24.0422C7.4043 25.3195 7.56221 26.5657 7.87251 27.772C7.89678 27.7784 7.92176 27.7842 7.94555 27.7909Z" fill="black"/>
<path d="M8.56771 28.0767C8.73219 27.9844 8.93591 27.9039 9.16846 27.8383V26.6974C9.16846 26.3657 8.89963 26.0968 8.56787 26.0968C8.23611 26.0968 7.96729 26.3657 7.96729 26.6974V27.8383C8.19983 27.9038 8.40331 27.9844 8.56771 28.0767Z" fill="#89C947"/>
<path d="M14.7034 39.2218L12.5342 39.2227H12.5334C11.5008 39.2226 10.6154 38.4887 10.4282 37.4776L10.4068 37.3626C10.2195 36.3513 10.784 35.351 11.7492 34.9843L16.595 33.1434C16.3455 31.1476 14.939 29.476 13.0076 28.7091C12.8203 29.0241 12.175 29.2983 11.3348 29.3968C11.3191 29.3987 11.3043 29.4051 11.2923 29.4153C11.2802 29.4255 11.2715 29.4391 11.2671 29.4543C11.2628 29.4695 11.263 29.4856 11.2678 29.5007C11.2726 29.5157 11.2817 29.529 11.2941 29.5389C11.7295 29.8872 12.0031 30.2545 12.0259 30.5214C12.0342 30.6181 12.0104 30.6966 11.9531 30.7613C11.851 30.8766 11.6502 30.9375 11.3724 30.9375C10.8318 30.9375 10.1006 30.7115 9.41654 30.3329C9.11528 30.1659 8.84726 29.9836 8.6196 29.7907C8.60514 29.7784 8.58681 29.7717 8.56787 29.7717C8.54893 29.7717 8.5306 29.7784 8.51614 29.7907C8.28832 29.9837 8.0203 30.1661 7.71936 30.3328C7.03534 30.7115 6.30414 30.9375 5.76345 30.9375C5.48566 30.9375 5.28491 30.8766 5.18281 30.7613C5.12547 30.6966 5.10161 30.6182 5.10994 30.5215C5.13284 30.2546 5.40639 29.8873 5.84169 29.5389C5.85399 29.529 5.86309 29.5157 5.86786 29.5007C5.87263 29.4856 5.87286 29.4695 5.8685 29.4543C5.86415 29.4392 5.85542 29.4256 5.8434 29.4154C5.83138 29.4051 5.8166 29.3987 5.80093 29.3968C4.96051 29.2983 4.31516 29.0239 4.1281 28.7088C1.99402 29.556 0.5 31.5075 0.5 33.7806C0.5 36.8304 3.1891 39.3027 6.50618 39.3027H14.834C14.9239 39.3027 14.8543 39.2708 14.7034 39.2218Z" fill="#EF5050"/>
<path opacity="0.1" d="M3.09854 33.7806C3.09854 31.969 4.0473 30.3613 5.51273 29.3542C4.81493 29.2324 4.29306 28.9868 4.12802 28.7089C1.99402 29.556 0.5 31.5075 0.5 33.7806C0.5 36.8304 3.1891 39.3027 6.50618 39.3027H9.1048C5.78772 39.3027 3.09854 36.8304 3.09854 33.7806Z" fill="black"/>
<path d="M13.1449 28.5235C13.1449 27.9745 12.0179 27.5295 10.6277 27.5295C9.77613 27.5295 9.02356 27.6966 8.568 27.9523C8.11275 27.6967 7.36026 27.5295 6.50855 27.5295C5.11839 27.5295 3.99121 27.9745 3.99121 28.5235C3.99121 28.974 4.75083 29.3543 5.79161 29.4764C5.15491 29.986 4.86334 30.5214 5.12279 30.8144C5.46657 31.2025 6.6466 31.0182 7.75809 30.4028C8.07015 30.23 8.34362 30.0419 8.56784 29.8517C8.79229 30.0419 9.06592 30.23 9.37775 30.4028C10.4893 31.0182 11.6693 31.2023 12.013 30.8144C12.2725 30.5214 11.981 29.986 11.3441 29.4764C12.3856 29.3543 13.1449 28.974 13.1449 28.5235Z" fill="#368C0E"/>
<path d="M41.4908 32.0797L41.3295 31.2097C41.2741 30.9094 40.9844 30.711 40.6829 30.7663L34.4583 31.9097L38.4327 29.253C38.5225 29.193 38.5928 29.1081 38.6349 29.0087C38.6769 28.9093 38.689 28.7997 38.6695 28.6935C38.6583 28.6336 38.6372 28.5759 38.6072 28.5227L38.1574 27.7261C38.1211 27.6618 38.0722 27.6054 38.0138 27.5602C37.9553 27.515 37.8884 27.482 37.817 27.463C37.7456 27.444 37.6711 27.4393 37.5978 27.4493C37.5246 27.4594 37.454 27.4839 37.3904 27.5215L32.2202 30.5735L33.1983 35.8539L39.1284 36.9195C39.2015 36.9327 39.2765 36.9311 39.349 36.9148C39.4215 36.8985 39.49 36.8679 39.5505 36.8247C39.6109 36.7817 39.6619 36.7269 39.7007 36.6636C39.7394 36.6004 39.765 36.53 39.776 36.4566L39.91 35.5573C39.9193 35.4954 39.918 35.4342 39.9072 35.3759C39.8873 35.2696 39.8369 35.1715 39.7619 35.0935C39.687 35.0156 39.5909 34.9613 39.4855 34.9373L34.8208 33.8674L41.0455 32.7239C41.3472 32.6684 41.5464 32.3802 41.4908 32.0797Z" fill="#89C947"/>
<path d="M10.3494 37.4922C10.5438 38.5415 11.4627 39.3031 12.5342 39.3027L31.2698 39.2954C31.5952 39.2955 31.9167 39.2241 32.2115 39.0864C32.5063 38.9487 32.7673 38.7479 32.9761 38.4983C33.1844 38.2494 33.3351 37.9576 33.4176 37.6436C33.5 37.3297 33.5121 37.0015 33.4531 36.6823L32.2015 29.9248C32.0817 29.2789 31.6801 28.7195 31.1053 28.3978C30.5304 28.076 29.8418 28.0255 29.2257 28.2594L11.7208 34.9093C10.7196 35.2898 10.1338 36.3277 10.328 37.3771L10.3494 37.4922Z" fill="#F7931E"/>
<path opacity="0.1" d="M10.3494 37.4922C10.3793 37.6502 10.4264 37.8046 10.4899 37.9524C10.7558 37.4797 11.1794 37.1155 11.6866 36.9235L29.9675 29.9787C30.2854 29.858 30.6259 29.8084 30.965 29.8333C31.3041 29.8583 31.6336 29.9572 31.9304 30.1231C32.0553 30.1934 32.1734 30.275 32.2832 30.367L32.2015 29.9249C32.0817 29.279 31.6801 28.7196 31.1053 28.3979C30.5304 28.0761 29.8418 28.0256 29.2257 28.2595L11.7208 34.9094C10.7196 35.2899 10.1338 36.3278 10.328 37.3772L10.3494 37.4922Z" fill="black"/>
<path d="M30.1959 36.4862C30.1645 36.3312 30.0732 36.1949 29.9419 36.1068C29.8106 36.0187 29.6498 35.9859 29.4945 36.0156C29.3391 36.0454 29.2018 36.1351 29.1123 36.2655C29.0227 36.3958 28.9882 36.5563 29.0162 36.7119L29.5106 39.2962L30.7335 39.2957L30.1959 36.4862ZM26.9404 37.1984C26.9098 37.0429 26.819 36.9059 26.6878 36.8171C26.5566 36.7283 26.3956 36.6949 26.2399 36.7242C26.0842 36.7536 25.9465 36.8433 25.8566 36.9737C25.7667 37.1042 25.732 37.2649 25.7601 37.4208L26.1139 39.2975L27.3361 39.297L26.9404 37.1984ZM23.7578 32.6749C23.7905 32.8046 23.8654 32.9196 23.9709 33.0019C24.0763 33.0841 24.2061 33.1288 24.3398 33.129C24.4312 33.129 24.5215 33.1083 24.6036 33.0682C24.6858 33.0281 24.7577 32.9698 24.814 32.8977C24.8702 32.8256 24.9092 32.7416 24.928 32.6522C24.9469 32.5627 24.9451 32.4702 24.9227 32.3815L24.351 30.1113L23.2205 30.5408L23.7578 32.6749ZM20.6327 36.675C20.6044 36.5182 20.515 36.3791 20.3842 36.2883C20.2534 36.1974 20.0918 36.1622 19.935 36.1905C19.7783 36.2188 19.6392 36.3082 19.5483 36.439C19.4575 36.5698 19.4223 36.7314 19.4506 36.8881L19.8855 39.2999L21.1059 39.2994L20.6327 36.675ZM14.5739 35.5524C14.5898 35.6299 14.6208 35.7035 14.6652 35.769C14.7096 35.8345 14.7665 35.8905 14.8327 35.9339C14.8988 35.9774 14.9729 36.0073 15.0506 36.022C15.1283 36.0367 15.2082 36.0359 15.2856 36.0196C15.363 36.0034 15.4365 35.972 15.5017 35.9273C15.567 35.8826 15.6228 35.8254 15.6659 35.7591C15.709 35.6927 15.7385 35.6185 15.7529 35.5407C15.7672 35.4629 15.7661 35.3831 15.7494 35.3057L15.3749 33.5213L14.2383 33.9531L14.5739 35.5524Z" fill="#FFC502"/>
</g>
<defs>
<clipPath id="clip0_133_7395">
<rect width="41" height="41" fill="white" transform="translate(0.5 0.5)"/>
</clipPath>
</defs>
</svg>
