<svg width="42" height="42" viewBox="0 0 42 42" fill="none" xmlns="http://www.w3.org/2000/svg">
<path d="M40.8594 12.0313C40.8594 12.0313 39.5781 17.7969 34.4531 17.7969H34.2417C34.3859 17.3853 34.4575 16.9517 34.4531 16.5156C34.735 15.9775 35.209 15.1575 35.6255 14.3247C35.9013 13.7888 36.1223 13.2265 36.2853 12.6463L36.375 12.6719C37.1648 12.3591 37.9997 12.1752 38.8478 12.1274C39.5162 12.0612 40.1876 12.0291 40.8594 12.0313Z" fill="#598019"/>
<path d="M38.8477 12.1273C37.9995 12.1752 37.1646 12.3591 36.3748 12.6719L36.2852 12.6462L36.3748 12.0312V10.6219C36.3746 10.2821 36.4198 9.94385 36.5094 9.61609L36.8617 8.31562C36.9313 8.03632 36.9742 7.75102 36.9898 7.46359H37.0219C37.0667 7.09844 37.4127 5.625 40.2186 5.625C40.2186 5.625 40.2186 10.2952 38.8348 12.0312L38.8477 12.1273Z" fill="#346C2F"/>
<path d="M28.5018 3.13939C28.2699 3.57122 27.8866 3.90208 27.4255 4.06829C27.051 4.19985 26.7257 4.44282 26.4932 4.7646C26.2607 5.08637 26.1323 5.47156 26.125 5.86845V9.46876C25.6227 9.44955 25.1463 9.24052 24.792 8.88384C24.4377 8.52716 24.2318 8.04938 24.216 7.54689C24.2053 7.4942 24.201 7.44044 24.2032 7.38673V4.06189C24.2034 3.77118 24.2951 3.4879 24.4652 3.2522C24.6354 3.0165 24.8754 2.84031 25.1513 2.74861L25.5805 2.60126C25.9278 2.48444 26.2153 2.236 26.3813 1.90939C26.4964 1.67827 26.6737 1.48387 26.8932 1.34805C27.1128 1.21224 27.3659 1.1404 27.6241 1.14064H29.9303C29.6212 1.13079 29.3208 1.24397 29.095 1.45534C28.8692 1.66672 28.7365 1.95903 28.726 2.26814C28.727 2.57295 28.6498 2.87292 28.5018 3.13939ZM34.4532 2.42189C34.7804 2.45838 35.0855 2.6051 35.3184 2.83794C35.5512 3.07078 35.6979 3.37589 35.7344 3.70314C35.7183 3.95428 35.7692 4.20518 35.8817 4.43026C35.9943 4.65535 36.1645 4.84656 36.375 4.98439C36.5861 5.12174 36.7567 5.31286 36.8693 5.53806C36.9819 5.76326 37.0324 6.01441 37.0157 6.26564V6.90626C37.0157 7.05361 37.0093 7.2522 36.99 7.46361C36.9744 7.75104 36.9315 8.03633 36.8619 8.31564L36.5096 9.61611C36.42 9.94386 36.3748 10.2821 36.375 10.6219V12.0313L36.2853 12.6463C36.1224 13.2265 35.9013 13.7888 35.6255 14.3247C35.2091 15.1575 34.735 15.9775 34.4532 16.5156V5.62501C34.4441 4.94166 34.2023 4.28182 33.7677 3.75439C33.6712 3.62802 33.564 3.51015 33.4474 3.40204C33.2667 3.23309 33.0763 3.0748 32.8772 2.92798C32.7234 2.79641 32.6156 2.61907 32.5697 2.42189H34.4532Z" fill="#B9D671"/>
<path d="M34.4528 8.46299V15.2344C34.4235 13.8919 34.159 12.5649 33.6713 11.3138C33.35 10.4533 32.969 9.61627 32.5309 8.80893C32.5117 8.52064 32.3708 5.18299 33.7673 3.75439C34.2019 4.28183 34.4437 4.94167 34.4528 5.62502V8.46299Z" fill="#89B029"/>
<path d="M34.4531 15.2344V15.875C32.9412 13.9211 28.6875 12.6719 28.6875 12.6719V11.9928C28.5952 11.6617 28.4384 11.3521 28.2263 11.0817C28.0141 10.8113 27.7507 10.5854 27.4511 10.4169C27.4511 10.4169 31.1539 9.94281 33.6716 11.3137C34.1593 12.5649 34.4239 13.8919 34.4531 15.2344ZM26.125 6.99594V5.86844C26.1322 5.47154 26.2607 5.08636 26.4932 4.76458C26.7256 4.44281 27.0509 4.19984 27.4255 4.06828C27.8866 3.90206 28.2699 3.57121 28.5017 3.13937C30.0541 4.87144 31.4059 6.77335 32.5312 8.80891V8.82812C30.0136 6.87422 26.4453 6.99594 26.4453 6.99594H26.125Z" fill="#88AB00"/>
<path d="M32.5694 2.42189C32.6153 2.61907 32.7231 2.79641 32.8769 2.92798C33.076 3.0748 33.2664 3.23309 33.4471 3.40204C33.5637 3.51015 33.6709 3.62802 33.7674 3.75439C32.3708 5.18298 32.5118 8.52064 32.531 8.80892C31.4056 6.77336 30.0539 4.87146 28.5015 3.13939C28.6495 2.87292 28.7267 2.57295 28.7257 2.26814C28.7362 1.95903 28.8689 1.66672 29.0947 1.45534C29.3205 1.24397 29.6209 1.13079 29.9301 1.14064H31.5124C31.6462 1.14047 31.7787 1.1667 31.9024 1.21783C32.0261 1.26896 32.1384 1.34398 32.233 1.4386C32.3277 1.53322 32.4027 1.64558 32.4538 1.76923C32.5049 1.89289 32.5312 2.02542 32.531 2.15923C32.5307 2.24821 32.5437 2.33673 32.5694 2.42189Z" fill="#93BD2C"/>
<path d="M26.4453 6.99594C26.4453 6.99594 30.0136 6.87422 32.5312 8.82813V8.80891C32.9693 9.61625 33.3503 10.4532 33.6716 11.3138C31.1539 9.94281 27.4511 10.4169 27.4511 10.4169C27.1345 10.2521 26.8361 10.0545 26.5606 9.8275C26.3044 9.62891 26.125 9.46875 26.125 9.46875V6.99594H26.4453ZM28.6875 12.6719C28.6875 12.6719 32.9412 13.9211 34.4531 15.875V16.5156C34.4575 16.9517 34.386 17.3853 34.2417 17.7969H30.9681C30.8291 16.6334 30.3873 15.5267 29.6869 14.5873C29.1642 14.0672 28.8151 13.3981 28.6875 12.6719Z" fill="#80A100"/>
<path d="M28.0469 14.5938C28.0469 12.627 25.9008 11.0127 23.1269 10.782L23.1333 10.75C22.9841 10.5711 22.9085 10.342 22.9219 10.1094V8.82812C22.923 8.48863 23.0583 8.16333 23.2983 7.92326C23.5384 7.6832 23.8637 7.54789 24.2032 7.54688H24.216C24.2319 8.04937 24.4377 8.52715 24.792 8.88383C25.1463 9.24051 25.6227 9.44954 26.1251 9.46875C26.1251 9.46875 26.3044 9.62891 26.5607 9.8275C26.8361 10.0545 27.1346 10.252 27.4512 10.4169C27.7507 10.5854 28.0142 10.8113 28.2263 11.0817C28.4385 11.3521 28.5952 11.6617 28.6876 11.9928V12.6719C28.8152 13.3981 29.1643 14.0672 29.6869 14.5873C30.3874 15.5267 30.8292 16.6334 30.9682 17.7969H27.5985C27.9006 16.7561 28.0516 15.6774 28.0469 14.5938Z" fill="#628C1B"/>
<path d="M38.8823 8.71538C38.8227 8.8496 38.7188 8.95927 38.588 9.02604C38.4572 9.09281 38.3074 9.11262 38.1638 9.08215C38.0201 9.05167 37.8913 8.97277 37.7989 8.85866C37.7065 8.74454 37.6561 8.60213 37.6561 8.45528V6.43091C37.3139 6.71165 37.088 7.10925 37.0219 7.54688H36.9898C36.9742 7.83431 36.9313 8.1196 36.8617 8.39891L36.5094 9.69938C36.4198 10.0271 36.3746 10.3654 36.3748 10.7052V12.1145L36.2852 12.7295L36.3748 12.7552C37.1646 12.4423 37.9995 12.2585 38.8477 12.2106L38.8348 12.1145C40.2186 10.3784 40.2186 5.70828 40.2186 5.70828L38.8823 8.71538Z" fill="#335E33"/>
<path d="M36.2577 14.0441L36.6838 12.5521C36.5786 12.5859 36.4755 12.6259 36.375 12.6719L36.2853 12.6462C36.1223 13.2265 35.9013 13.7888 35.6255 14.3247C35.209 15.1575 34.735 15.9775 34.4531 16.5156C34.4575 16.9517 34.3859 17.3853 34.2417 17.7969H34.4531C39.5781 17.7969 40.8594 12.0312 40.8594 12.0312L37.2578 14.7321C37.1505 14.8124 37.0207 14.857 36.8867 14.8597C36.7527 14.8623 36.6213 14.8229 36.5109 14.747C36.4005 14.671 36.3167 14.5623 36.2713 14.4362C36.2258 14.3102 36.2211 14.173 36.2577 14.0441Z" fill="#346C2F"/>
<path d="M35.8965 12.5745C35.788 12.5728 35.6815 12.5445 35.5865 12.4922C35.4914 12.4398 35.4107 12.3649 35.3513 12.2741C35.2379 12.0937 35.1718 11.8877 35.1591 11.6751C35.1106 11.2243 35.1767 10.7686 35.3513 10.3503C35.5646 9.84225 35.9426 9.33487 35.8138 8.80123C35.7234 8.55745 35.6126 8.32172 35.4826 8.09654C35.1758 7.38481 35.4826 6.58018 35.5185 5.80951C35.5492 5.50848 35.4849 5.2054 35.3347 4.94275C35.2341 4.78964 35.0906 4.666 34.9913 4.51225C34.7895 4.19962 34.7876 3.78578 34.5473 3.5007C34.4142 3.37123 34.2741 3.24912 34.1277 3.1349C34.0553 3.07812 33.9997 3.00266 33.967 2.91664C33.9343 2.83063 33.9256 2.73732 33.9419 2.64675C33.9773 2.55481 34.0404 2.47619 34.1226 2.42189H32.5697C32.6156 2.61907 32.7234 2.79641 32.8772 2.92798C33.0763 3.0748 33.2667 3.23309 33.4474 3.40204C33.564 3.51015 33.6712 3.62802 33.7677 3.75439C34.2023 4.28182 34.4441 4.94166 34.4532 5.62501V16.5156C34.735 15.9775 35.2091 15.1575 35.6255 14.3247C35.9013 13.7888 36.1224 13.2265 36.2853 12.6463L36.3161 12.4342C36.3033 12.4406 36.2911 12.449 36.2783 12.4554C36.1613 12.5227 36.031 12.5634 35.8965 12.5745ZM27.6689 2.27519C27.5875 2.5197 27.4502 2.74189 27.2679 2.92414C27.0857 3.10639 26.8635 3.24369 26.619 3.32517C26.2886 3.43529 26.0012 3.64656 25.7976 3.92905C25.594 4.21155 25.4844 4.55095 25.4844 4.89918V6.26564C25.4844 6.43554 25.4169 6.59849 25.2968 6.71863C25.1766 6.83877 25.0137 6.90626 24.8438 6.90626C24.6739 6.90626 24.5109 6.83877 24.3908 6.71863C24.2707 6.59849 24.2032 6.43554 24.2032 6.26564V7.38673C24.201 7.44044 24.2053 7.4942 24.216 7.54689C24.2318 8.04938 24.4377 8.52716 24.792 8.88384C25.1463 9.24052 25.6227 9.44955 26.125 9.46876V5.86845C26.1323 5.47156 26.2607 5.08637 26.4932 4.7646C26.7257 4.44282 27.051 4.19985 27.4255 4.06829C27.8866 3.90208 28.2699 3.57122 28.5018 3.13939C28.6498 2.87292 28.727 2.57295 28.726 2.26814C28.7365 1.95903 28.8692 1.66672 29.095 1.45534C29.3208 1.24397 29.6212 1.13079 29.9303 1.14064H29.243C28.8947 1.14055 28.5553 1.2501 28.2727 1.45373C27.9902 1.65737 27.779 1.94477 27.6689 2.27519Z" fill="#9FC73D"/>
<path d="M29.6869 14.5873C29.1642 14.0672 28.8151 13.3981 28.6875 12.6719V11.9928C28.5952 11.6617 28.4384 11.3521 28.2263 11.0817C28.0141 10.8113 27.7507 10.5854 27.4511 10.4169C27.1345 10.252 26.8361 10.0545 26.5606 9.8275C26.3044 9.62891 26.125 9.46875 26.125 9.46875C25.6226 9.44954 25.1462 9.24051 24.7919 8.88383C24.4376 8.52715 24.2318 8.04937 24.2159 7.54688H24.2031C23.9775 7.54826 23.7563 7.60997 23.5625 7.72561V8.00044C23.5627 8.40617 23.6912 8.80145 23.9298 9.12965C24.1683 9.45785 24.5046 9.70213 24.8905 9.8275C25.8515 10.1414 27.0424 10.6603 27.4062 11.3906C27.7445 12.3888 28.192 13.3466 28.7407 14.2465C28.8043 14.3428 28.8405 14.4545 28.8456 14.5697C28.8506 14.6849 28.8243 14.7994 28.7694 14.9008C28.7144 15.0023 28.633 15.0869 28.5337 15.1456C28.4345 15.2044 28.3211 15.235 28.2058 15.2344H28.0245C27.983 16.1023 27.84 16.9623 27.5984 17.7969H30.9681C30.8291 16.6334 30.3873 15.5267 29.6869 14.5873Z" fill="#4D6E15"/>
<path d="M34.4527 16.5156V13.5796C34.3124 12.788 34.1012 12.0106 33.8217 11.2567C33.5016 10.4009 33.1232 9.56807 32.6891 8.76406C32.675 8.46425 32.561 5.29572 33.8576 3.88442C33.8262 3.8415 33.8012 3.79409 33.7673 3.75245C33.7333 3.71081 33.6936 3.67302 33.6577 3.63202L33.6526 3.63906C32.5354 4.78258 32.3713 7.05103 32.3592 8.16892C31.2905 6.33432 30.0388 4.61272 28.6231 3.03047C28.6173 3.02406 28.5949 3.00356 28.5885 2.9978C28.5821 2.99203 28.5731 2.99075 28.5667 2.98434C28.548 3.03709 28.5266 3.08883 28.5026 3.13938C28.477 3.18806 28.4424 3.23099 28.4129 3.27775C29.7985 4.83025 31.0246 6.51801 32.0728 8.31563C30.3613 7.32661 28.4158 6.8151 26.4392 6.8345C26.4181 6.83526 26.3975 6.84015 26.3783 6.8489C26.3592 6.85765 26.3419 6.87008 26.3276 6.88549C26.3133 6.90089 26.3021 6.91897 26.2948 6.93869C26.2874 6.95842 26.284 6.97939 26.2848 7.00042C26.2855 7.02145 26.2904 7.04213 26.2992 7.06127C26.3079 7.08041 26.3203 7.09764 26.3358 7.11198C26.3512 7.12632 26.3692 7.13748 26.389 7.14483C26.4087 7.15218 26.4297 7.15557 26.4507 7.15481C26.4808 7.15033 29.9741 7.05744 32.42 8.94472C32.7734 9.60624 33.0884 10.2875 33.3637 10.9851C30.862 9.83967 27.5769 10.2388 27.4309 10.258C27.4072 10.2618 27.3849 10.271 27.3655 10.2851C27.3461 10.2991 27.3303 10.3175 27.3194 10.3387C27.3636 10.3637 27.4078 10.3951 27.4513 10.4169C27.5249 10.4584 27.5955 10.5049 27.6628 10.5559C28.4315 10.4854 31.4187 10.3028 33.5418 11.4284C34.0098 12.6442 34.2638 13.9319 34.2926 15.2344V15.4477C32.593 13.668 28.8979 12.5649 28.732 12.5168C28.7166 12.5124 28.7025 12.522 28.6871 12.522V12.6719C28.6889 12.7292 28.6944 12.7863 28.7038 12.8429C29.2163 13.0018 32.9011 14.1882 34.2926 15.9333V16.5156C34.2963 16.9335 34.228 17.349 34.0908 17.7437C34.0837 17.7616 34.0908 17.7783 34.0908 17.7969H34.2388C34.3839 17.3854 34.4563 16.9519 34.4527 16.5156Z" fill="#B9D671"/>
<path d="M15.875 7.54688C19.6098 7.54688 22.2812 10.75 22.2812 10.75H21.5317C16.7398 10.6539 15.875 7.54688 15.875 7.54688Z" fill="#80A100"/>
<path d="M22.2812 9.46877V10.75C22.2812 10.75 19.6098 7.54689 15.875 7.54689C16.3669 7.31801 16.8825 7.144 17.4125 7.02799C17.7545 6.9461 18.105 6.90524 18.4567 6.90627H18.5464C20.6797 6.90627 22.0378 7.95049 22.2812 9.46877Z" fill="#A1C203"/>
<path d="M21.5313 10.75H22.4346C22.6716 10.75 22.8959 10.7628 23.1265 10.782C25.9004 11.0127 28.0465 12.627 28.0465 14.5938C28.0512 15.6774 27.9001 16.7561 27.5981 17.7969H15.6824C15.3803 16.7561 15.2293 15.6774 15.234 14.5938C15.2443 13.9092 15.4936 13.2497 15.9387 12.7295C16.8932 11.5444 18.7318 10.75 20.8459 10.75H21.5313Z" fill="#DB3744"/>
<path d="M25.1637 16.5156H20.6793C19.9272 16.5179 19.2042 16.2256 18.665 15.7013C18.1258 15.1771 17.8133 14.4625 17.7945 13.7107C17.7756 12.9589 18.0519 12.2295 18.5642 11.6789C19.0764 11.1283 19.7839 10.8002 20.5352 10.7647C19.6747 10.7562 18.8219 10.9264 18.0306 11.2646C17.2394 11.6028 16.527 12.1016 15.9387 12.7295C15.4936 13.2497 15.2443 13.9092 15.234 14.5938C15.2293 15.6774 15.3803 16.7562 15.6824 17.7969H27.5981C27.9001 16.7562 28.0512 15.6774 28.0465 14.5938C28.0448 14.4327 28.0285 14.2721 27.9978 14.1139C27.8854 14.7846 27.5391 15.3939 27.0203 15.8335C26.5015 16.2732 25.8437 16.5148 25.1637 16.5156Z" fill="#AD313B"/>
<path d="M23.7347 11.8544C23.472 11.905 23.1799 12.0517 23.1447 12.3163C23.1062 12.604 23.3856 12.8218 23.6277 12.9807C24.1557 13.3255 24.6653 13.6978 25.1543 14.096C25.4362 14.3253 25.7905 14.579 26.13 14.4496C26.2469 14.4016 26.3469 14.3197 26.417 14.2145C26.4966 14.0885 26.5466 13.9461 26.5633 13.7979C26.5799 13.6498 26.5628 13.4998 26.5131 13.3593C26.4326 13.0953 26.2968 12.8516 26.1146 12.6443C25.8044 12.3399 25.4287 12.1105 25.0162 11.9736C24.6037 11.8367 24.1654 11.7959 23.7347 11.8544Z" fill="#FF6666"/>
<path d="M21 4.34375L20.9936 4.42062C20.5707 4.36852 20.1449 4.34285 19.7188 4.34375C19.7188 4.34375 16.5156 3.70312 16.5156 1.78125H18.4375C20.3594 1.78125 21 4.34375 21 4.34375Z" fill="#A1C203"/>
<path d="M24.2032 6.0094V7.38674C24.2011 7.44045 24.2054 7.49421 24.216 7.5469H24.2032C23.8637 7.54791 23.5384 7.68323 23.2983 7.92329C23.0582 8.16335 22.9229 8.48865 22.9219 8.82815V10.1094C22.9085 10.342 22.984 10.5711 23.1333 10.75L23.1269 10.7821C22.8963 10.7628 22.6721 10.75 22.435 10.75H22.2813V9.46877C22.0379 7.95049 20.6797 6.90627 18.5464 6.90627H18.4568C18.1051 6.90525 17.7545 6.94611 17.4125 7.02799C16.8825 7.144 16.3669 7.31802 15.875 7.5469V6.26565C15.8745 6.00827 15.7988 5.75666 15.6572 5.54174C16.5989 4.6833 18.066 4.34377 19.7188 4.34377C20.1449 4.34287 20.5707 4.36855 20.9936 4.42065C21.6084 4.45376 22.2101 4.6117 22.7618 4.88484C23.3136 5.15798 23.804 5.5406 24.2032 6.0094Z" fill="#FF9B00"/>
<path d="M15.875 12.6719V7.54688C15.875 7.54688 16.7399 10.6539 21.5318 10.75H20.8463C18.7322 10.75 16.8936 11.5444 15.9391 12.7295L15.875 12.6719ZM24.2032 7.38673V6.90626C20.9507 6.90626 17.7329 5.93827 17.2319 4.68329C16.6509 4.85166 16.1135 5.1446 15.6572 5.54173C15.7988 5.75664 15.8745 6.00826 15.875 6.26563V7.54688C16.3669 7.318 16.8825 7.14398 17.4125 7.02798C17.7545 6.94609 18.1051 6.90523 18.4568 6.90626H18.5464C20.6797 6.90626 22.0379 7.95048 22.2813 9.46876V10.75H22.435C22.6721 10.75 22.8963 10.7628 23.1269 10.782L23.1333 10.75C22.984 10.5711 22.9085 10.342 22.9219 10.1094V8.82813C22.9229 8.48864 23.0582 8.16333 23.2983 7.92327C23.5384 7.68321 23.8637 7.5479 24.2032 7.54688H24.216C24.2054 7.4942 24.2011 7.44043 24.2032 7.38673Z" fill="#F1671C"/>
<path d="M19.7188 4.34375C20.1449 4.34285 20.5707 4.36852 20.9936 4.42062L21 4.34375L16.5156 1.78125C16.5156 3.70312 19.7188 4.34375 19.7188 4.34375Z" fill="#88AB00"/>
<path d="M14.1066 16.048L15.4904 17.7969H9.11613L7.48254 16.4964C6.98186 16.0901 6.63562 15.5245 6.50155 14.8938C6.36748 14.2631 6.4537 13.6055 6.74582 13.0306C6.77785 12.9858 6.80988 12.9281 6.84191 12.8769C7.07296 12.5092 7.38389 12.1982 7.7516 11.9672C7.80285 11.9352 7.86051 11.9031 7.90535 11.8711C8.43312 11.604 9.03118 11.5086 9.61585 11.5982C10.2005 11.6878 10.7426 11.9579 11.1661 12.3708C11.2394 12.4454 11.3079 12.5246 11.3711 12.6078L14.1066 16.048Z" fill="#FF9B00"/>
<path d="M6.43833 12.7616L6.74583 13.0306C6.51523 13.4744 6.41107 13.9731 6.44474 14.4721L2.4024 14.1646C2.12372 14.1397 1.86278 14.0172 1.66568 13.8186L1.4863 13.6392C1.30317 13.4556 1.186 13.2165 1.15306 12.9592C1.12013 12.702 1.17328 12.441 1.30424 12.2172C1.43519 11.9933 1.63657 11.8191 1.87695 11.7217C2.11733 11.6244 2.38319 11.6093 2.63302 11.6789L6.43833 12.7616Z" fill="#88AB00"/>
<path d="M7.90542 11.8711C7.86057 11.9031 7.80292 11.9352 7.75167 11.9672C7.38395 12.1982 7.07302 12.5092 6.84198 12.8769C6.80995 12.9281 6.77792 12.9858 6.74589 13.0306L6.43839 12.7616L2.85089 9.73142C2.62098 9.49714 2.49219 9.182 2.49219 8.85376C2.49219 8.52552 2.62098 8.21038 2.85089 7.9761C2.96586 7.86035 3.1026 7.76849 3.25323 7.7058C3.40385 7.64311 3.56539 7.61084 3.72854 7.61084C3.89169 7.61084 4.05323 7.64311 4.20386 7.7058C4.35448 7.76849 4.49122 7.86035 4.6062 7.9761L7.63636 11.5636L7.90542 11.8711Z" fill="#88AB00"/>
<path d="M6.85476 6.61157C6.96335 6.50198 7.09257 6.41499 7.23496 6.35562C7.37735 6.29625 7.5301 6.26569 7.68437 6.26569C7.83865 6.26569 7.99139 6.29625 8.13378 6.35562C8.27618 6.41499 8.4054 6.50198 8.51398 6.61157L8.69336 6.79094C8.89193 6.98805 9.01446 7.24898 9.03929 7.52766L9.33398 11.4034L9.34679 11.57C8.84781 11.5363 8.34917 11.6405 7.90539 11.8711L7.63633 11.5636L6.55367 7.75829C6.49666 7.55769 6.49452 7.34548 6.54748 7.14378C6.60044 6.94207 6.70656 6.75828 6.85476 6.61157Z" fill="#88AB00"/>
<path d="M10.8266 16.5156C10.5991 16.5158 10.3738 16.471 10.1636 16.384C9.95344 16.2969 9.76249 16.1692 9.60173 16.0083L8.07576 14.4823C7.861 14.2685 7.70617 14.0021 7.62676 13.7097C7.54735 13.4173 7.54616 13.1091 7.62329 12.8161C7.70042 12.5231 7.85318 12.2554 8.06627 12.04C8.27935 11.8246 8.54529 11.6689 8.83746 11.5886C8.51277 11.6282 8.1974 11.7238 7.90535 11.8711C7.86051 11.9031 7.80285 11.9352 7.7516 11.9672C7.38389 12.1982 7.07296 12.5092 6.84191 12.8769C6.80988 12.9281 6.77785 12.9858 6.74582 13.0306C6.4537 13.6055 6.36748 14.2631 6.50155 14.8938C6.63562 15.5245 6.98186 16.0901 7.48254 16.4964L9.11613 17.7969H15.4904L14.4769 16.5156H10.8266Z" fill="#F37924"/>
<path d="M6.74593 13.0306L6.43843 12.7616L5.96757 12.6277L5.83111 12.8993C5.771 13.0196 5.67455 13.118 5.55543 13.1804C5.43631 13.2428 5.30056 13.2662 5.16743 13.2472L1.84515 12.7725C1.70715 12.7521 1.57967 12.687 1.48232 12.5871C1.38497 12.4872 1.32315 12.3581 1.30638 12.2196C1.17425 12.4426 1.12021 12.7032 1.15281 12.9603C1.18542 13.2174 1.3028 13.4563 1.4864 13.6392L1.66577 13.8186C1.86287 14.0172 2.12381 14.1397 2.40249 14.1645L6.44483 14.472C6.41116 13.9731 6.51532 13.4744 6.74593 13.0306Z" fill="#628C1B"/>
<path d="M7.63644 11.5636L7.39557 11.2779L7.13932 11.4489C6.8929 11.6131 6.59721 11.6869 6.30255 11.6577C6.00788 11.6285 5.73242 11.4981 5.52302 11.2888L3.52683 9.29259C3.31664 9.08111 3.18714 8.8027 3.16081 8.5057C3.13448 8.2087 3.21298 7.91185 3.38269 7.66669C3.17679 7.72764 2.9902 7.84091 2.84111 7.99543C2.69201 8.14996 2.58549 8.34049 2.53194 8.54843C2.47839 8.75638 2.47963 8.97465 2.53554 9.18197C2.59145 9.3893 2.70013 9.5786 2.85097 9.73142L6.43847 12.7616L6.74597 13.0306C6.778 12.9858 6.81003 12.9281 6.84206 12.8769C7.07311 12.5092 7.38404 12.1982 7.75175 11.9672C7.803 11.9352 7.86066 11.9031 7.9055 11.8711L7.63644 11.5636Z" fill="#628C1B"/>
<path d="M9.2637 10.481L8.87933 10.5777C8.79228 10.5995 8.70163 10.6028 8.61324 10.5873C8.52484 10.5718 8.44069 10.538 8.36622 10.4879C8.29175 10.4378 8.22863 10.3727 8.18095 10.2967C8.13327 10.2206 8.10209 10.1354 8.08944 10.0466L7.67495 7.17981C7.63373 6.86483 7.71239 6.54585 7.89533 6.28614C7.69903 6.2499 7.49673 6.26424 7.30751 6.32781C7.11828 6.39139 6.94837 6.5021 6.81377 6.64951C6.67917 6.79693 6.58433 6.97619 6.53819 7.1704C6.49204 7.36461 6.49611 7.56737 6.55002 7.75958L7.63267 11.5649L7.90173 11.8724C8.34552 11.6418 8.84415 11.5376 9.34314 11.5713L9.33033 11.4047L9.2637 10.481Z" fill="#628C1B"/>
<path d="M9.82654 14.7353C9.79471 14.7645 9.7691 14.7998 9.75126 14.8392C9.73343 14.8785 9.72372 14.921 9.72274 14.9642C9.72175 15.0073 9.72951 15.0503 9.74553 15.0904C9.76156 15.1304 9.78553 15.1669 9.81599 15.1975C9.84646 15.2281 9.8828 15.2522 9.92283 15.2684C9.96285 15.2846 10.0057 15.2925 10.0489 15.2917C10.0921 15.2909 10.1347 15.2814 10.174 15.2637C10.2134 15.2461 10.2489 15.2206 10.2782 15.1889L12.0309 13.4406L11.6382 12.9461C11.6199 12.9558 11.6026 12.9672 11.5863 12.98L9.82654 14.7353ZM12.9464 16.5156L13.7984 15.6604L13.3974 15.1556L12.0418 16.5156H12.9464Z" fill="#F37924"/>
<path d="M11.8238 16.7347C11.7637 16.7948 11.73 16.8762 11.73 16.9612C11.73 17.0461 11.7637 17.1276 11.8238 17.1876C11.8532 17.2174 11.8884 17.2411 11.9271 17.2571C11.9658 17.2732 12.0073 17.2814 12.0493 17.2812C12.0915 17.2812 12.1334 17.273 12.1724 17.2568C12.2114 17.2406 12.2469 17.2169 12.2767 17.187L12.9468 16.5156H12.0422L11.8238 16.7347Z" fill="#E95410"/>
<path d="M8.74224 12.399C8.66979 12.4253 8.60513 12.4695 8.5542 12.5274C8.50326 12.5852 8.46769 12.655 8.45076 12.7302C8.44954 12.7903 8.46352 12.8498 8.4914 12.9031C8.51929 12.9564 8.56017 13.0018 8.61027 13.0351C8.711 13.101 8.82275 13.1483 8.94019 13.1748C9.32073 13.2824 9.70574 13.3753 10.0933 13.4451C10.1836 13.4762 10.2803 13.4837 10.3742 13.4669C10.4682 13.45 10.5563 13.4095 10.6302 13.349C10.6791 13.2853 10.7075 13.2082 10.7115 13.128C10.7245 12.9646 10.6756 12.8022 10.5744 12.6732C10.3308 12.4506 10.0265 12.3056 9.70013 12.2568C9.3738 12.208 9.04032 12.2575 8.74224 12.399Z" fill="#FBCB00"/>
<path d="M11.3906 2.42188H13.9531V4.98438H11.3906V2.42188Z" fill="#30CFFF"/>
<path d="M15.875 6.26563V7.54688H9.46875V6.26563C9.46976 5.92613 9.60508 5.60083 9.84514 5.36077C10.0852 5.12071 10.4105 4.98539 10.75 4.98438H14.5938C14.7625 4.98267 14.9299 5.01464 15.0861 5.07842C15.2423 5.1422 15.3842 5.23651 15.5035 5.35583C15.6229 5.47515 15.7172 5.61707 15.781 5.7733C15.8447 5.92952 15.8767 6.0969 15.875 6.26563Z" fill="#E7F5F5"/>
<path d="M15.9391 12.7295L15.875 12.6719V7.54688H9.46875V11.586C10.1093 11.64 10.7103 11.9178 11.1664 12.3708C11.2397 12.4454 11.3081 12.5246 11.3714 12.6078L14.1069 16.048L15.4906 17.7969H15.6828C15.3807 16.7561 15.2297 15.6774 15.2344 14.5938C15.2447 13.9092 15.4939 13.2497 15.9391 12.7295Z" fill="#30CFFF"/>
<path d="M11.3906 6.26562C11.3906 5.92582 11.5256 5.59993 11.7659 5.35964C12.0062 5.11936 12.3321 4.98438 12.6719 4.98438H10.75C10.4105 4.98539 10.0852 5.1207 9.84514 5.36076C9.60508 5.60083 9.46976 5.92613 9.46875 6.26562V7.54688H11.3906V6.26562Z" fill="#CEDADA"/>
<path d="M15.9391 12.7295L15.875 12.6719V10.4297C15.875 11.0244 15.6388 11.5947 15.2183 12.0152C14.7978 12.4356 14.2275 12.6719 13.6328 12.6719C13.0381 12.6719 12.4678 12.4356 12.0473 12.0152C11.6269 11.5947 11.3906 11.0244 11.3906 10.4297V7.54688H9.46875V11.586C10.1093 11.64 10.7103 11.9178 11.1664 12.3708C11.2397 12.4454 11.3081 12.5246 11.3714 12.6078L14.1069 16.048L15.4906 17.7969H15.6828C15.3807 16.7561 15.2297 15.6774 15.2344 14.5938C15.2447 13.9092 15.4939 13.2497 15.9391 12.7295ZM11.3906 2.42188V4.98438H13.9531V4.34375H12.6719C12.502 4.34375 12.339 4.27626 12.2189 4.15612C12.0987 4.03597 12.0312 3.87303 12.0312 3.70312V2.42188H11.3906Z" fill="#01A3EC"/>
<path d="M12.6719 2.42188H13.3125V4.34375H12.6719V2.42188Z" fill="#01A3EC"/>
<path d="M15.2344 6.90625C15.2344 6.73635 15.1669 6.5734 15.0467 6.45326C14.9266 6.33312 14.7637 6.26562 14.5938 6.26562C14.4238 6.26562 14.2609 6.33312 14.1408 6.45326C14.0206 6.5734 13.9531 6.73635 13.9531 6.90625V7.54688H15.2344V6.90625Z" fill="white"/>
<path d="M13.9531 7.54688V10.1094C13.9531 10.2793 14.0206 10.4422 14.1408 10.5624C14.2609 10.6825 14.4238 10.75 14.5938 10.75C14.7637 10.75 14.9266 10.6825 15.0467 10.5624C15.1669 10.4422 15.2344 10.2793 15.2344 10.1094V7.54688H13.9531Z" fill="#99EFFF"/>
<path d="M18.4375 26.7656C20.9142 26.7656 22.9219 25.9052 22.9219 24.8438C22.9219 23.7823 20.9142 22.9219 18.4375 22.9219C15.9608 22.9219 13.9531 23.7823 13.9531 24.8438C13.9531 25.9052 15.9608 26.7656 18.4375 26.7656Z" fill="#88AB00"/>
<path d="M31.8906 17.7969V37.0156L29.3281 40.8594V17.7969H30.9681H31.8906Z" fill="#E5AA5C"/>
<path d="M29.3281 17.7969V40.8594H8.82812L7.54688 39.5781V17.7969H29.3281ZM22.9219 24.8438C22.9219 23.7803 20.9167 22.9219 18.4375 22.9219C15.9583 22.9219 13.9531 23.7803 13.9531 24.8438C13.9531 25.9072 15.9583 26.7656 18.4375 26.7656C20.9167 26.7656 22.9219 25.9072 22.9219 24.8438Z" fill="#FAD27A"/>
<path d="M34.2417 17.7969H31.8906V37.0156L34.4531 39.5781V17.7969H34.2417Z" fill="#D28E43"/>
<path d="M29.3281 40.8594L34.4531 39.5781L31.8906 37.0156L29.3281 40.8594Z" fill="#A15C27"/>
<path d="M18.4375 22.6016C15.6982 22.6016 13.6328 23.5657 13.6328 24.8438C13.6328 26.1218 15.6982 27.0859 18.4375 27.0859C21.1768 27.0859 23.2422 26.1218 23.2422 24.8438C23.2422 23.5657 21.1768 22.6016 18.4375 22.6016ZM18.4375 26.7656C15.9608 26.7656 13.9531 25.9053 13.9531 24.8438C13.9531 23.7822 15.9608 22.9219 18.4375 22.9219C20.9142 22.9219 22.9219 23.7822 22.9219 24.8438C22.9219 25.9053 20.9142 26.7656 18.4375 26.7656Z" fill="#FAAB1B"/>
<path d="M19.7188 38.2969C17.3401 38.2969 15.0589 37.352 13.3769 35.67C11.6949 33.988 10.75 31.7068 10.75 29.3281V17.7969H7.54688V39.5781L8.82812 40.8594H29.3281V38.2969H19.7188Z" fill="#F5B662"/>
</svg>
