<svg width="42" height="42" viewBox="0 0 42 42" fill="none" xmlns="http://www.w3.org/2000/svg">
<path d="M32.6164 6.10333V31.25C32.6154 31.6121 32.471 31.9591 32.215 32.2152C31.9589 32.4713 31.6119 32.6156 31.2498 32.6167H2.54977C2.18764 32.6156 1.84065 32.4713 1.58459 32.2152C1.32852 31.9591 1.18419 31.6121 1.18311 31.25V6.10333H32.6164Z" fill="#F29648"/>
<path d="M32.0731 6.64999H1.72963C1.6269 6.64941 1.52641 6.6199 1.43969 6.56483C1.35296 6.50977 1.2835 6.43138 1.23928 6.33865C1.19506 6.24593 1.17786 6.14262 1.18965 6.04056C1.20145 5.93851 1.24176 5.84185 1.30597 5.76165L4.77115 1.38832C4.82167 1.32451 4.88595 1.27293 4.95919 1.23743C5.03243 1.20194 5.11274 1.18344 5.19413 1.18332H28.6051C28.6865 1.18344 28.7668 1.20194 28.8401 1.23743C28.9133 1.27293 28.9776 1.32451 29.0281 1.38832L32.4967 5.76165C32.5609 5.84185 32.6012 5.93851 32.613 6.04056C32.6248 6.14262 32.6076 6.24593 32.5634 6.33865C32.5192 6.43138 32.4497 6.50977 32.363 6.56483C32.2763 6.6199 32.1758 6.64941 32.0731 6.64999Z" fill="#FCB96A"/>
<path d="M12.1162 6.64999L14.1662 1.18332H19.6329L21.6829 6.64999H12.1162Z" fill="#C2694E"/>
<path d="M12.1162 6.64999V15.0919C12.1157 15.139 12.1283 15.1852 12.1526 15.2255C12.177 15.2658 12.2121 15.2984 12.2541 15.3197C12.296 15.3411 12.3431 15.3502 12.39 15.3462C12.4369 15.3422 12.4817 15.3251 12.5194 15.2969L14.3589 13.9186C14.4025 13.886 14.4555 13.8684 14.5099 13.8684C14.5644 13.8684 14.6174 13.886 14.661 13.9186L16.752 15.4855C16.7956 15.5184 16.8487 15.5361 16.9033 15.5361C16.9579 15.5361 17.0111 15.5184 17.0547 15.4855L19.1423 13.9193C19.1859 13.8864 19.239 13.8686 19.2936 13.8686C19.3482 13.8686 19.4014 13.8864 19.445 13.9193L21.279 15.2962C21.3167 15.3246 21.3616 15.3418 21.4086 15.346C21.4556 15.3501 21.5028 15.341 21.5449 15.3197C21.587 15.2983 21.6222 15.2656 21.6466 15.2252C21.671 15.1848 21.6836 15.1384 21.6829 15.0912V6.64999H12.1162Z" fill="#854643"/>
<path d="M12.1163 24.4167H5.28294C4.90555 24.4167 4.59961 24.7226 4.59961 25.1V28.5167C4.59961 28.8941 4.90555 29.2 5.28294 29.2H12.1163C12.4937 29.2 12.7996 28.8941 12.7996 28.5167V25.1C12.7996 24.7226 12.4937 24.4167 12.1163 24.4167Z" fill="white"/>
<path d="M31.2498 40.8167C36.5333 40.8167 40.8164 36.5335 40.8164 31.25C40.8164 25.9665 36.5333 21.6833 31.2498 21.6833C25.9662 21.6833 21.6831 25.9665 21.6831 31.25C21.6831 36.5335 25.9662 40.8167 31.2498 40.8167Z" fill="#19CC61"/>
<path d="M29.8829 36.0333C29.7017 36.0333 29.5279 35.9612 29.3998 35.8331L26.6664 33.0998C26.542 32.9709 26.4731 32.7983 26.4746 32.6191C26.4762 32.4399 26.5481 32.2685 26.6748 32.1418C26.8014 32.0151 26.9728 31.9433 27.152 31.9417C27.3312 31.9402 27.5038 32.009 27.6327 32.1335L29.777 34.2778L34.781 26.7707C34.8308 26.6961 34.8948 26.6319 34.9694 26.582C35.044 26.5321 35.1277 26.4974 35.2157 26.4798C35.3037 26.4622 35.3943 26.4621 35.4824 26.4796C35.5704 26.497 35.6541 26.5316 35.7288 26.5814C35.8035 26.6312 35.8676 26.6953 35.9175 26.7698C35.9674 26.8444 36.0022 26.9281 36.0197 27.0161C36.0373 27.1041 36.0374 27.1947 36.0199 27.2828C36.0025 27.3708 35.9679 27.4546 35.9181 27.5292L30.4514 35.7292C30.3958 35.8138 30.322 35.8849 30.2355 35.9375C30.149 35.9901 30.0519 36.0228 29.9512 36.0333H29.8829Z" fill="white"/>
</svg>
