<svg width="42" height="42" viewBox="0 0 42 42" fill="none" xmlns="http://www.w3.org/2000/svg">
<path d="M18.6659 23.2182L12.324 29.5601C11.0731 30.811 11.0731 32.8391 12.324 34.09C13.5749 35.3409 15.603 35.3409 16.8539 34.09L23.1958 27.7481C24.4467 26.4972 24.4467 24.4691 23.1958 23.2182C21.9449 21.9673 19.9168 21.9673 18.6659 23.2182Z" fill="#AFEAEF"/>
<path d="M23.265 25.1868L16.9228 31.529C16.3221 32.1297 15.5074 32.4671 14.6579 32.4671C13.8083 32.4671 12.9936 32.1297 12.3929 31.529C12.0903 31.2272 11.8514 30.8678 11.6902 30.472C11.4124 31.0679 11.3246 31.7348 11.4388 32.3823C11.553 33.0298 11.8636 33.6266 12.3285 34.0915C12.9292 34.6922 13.744 35.0296 14.5935 35.0296C15.443 35.0296 16.2577 34.6922 16.8584 34.0915L23.2006 27.7493C23.6462 27.3038 23.9506 26.7367 24.0756 26.119C24.2006 25.5014 24.1406 24.8606 23.9033 24.2768C23.7453 24.6151 23.5293 24.9231 23.265 25.1868Z" fill="#4ABDCC"/>
<path d="M14.5938 33.1719H5.625C3.85596 33.1719 2.42188 34.606 2.42188 36.375C2.42188 38.144 3.85596 39.5781 5.625 39.5781H14.5938C16.3628 39.5781 17.7969 38.144 17.7969 36.375C17.7969 34.606 16.3628 33.1719 14.5938 33.1719Z" fill="#E5E5E5"/>
<path d="M15.2344 37.6562H6.26563C5.41611 37.6562 4.60138 37.3188 4.00068 36.7181C3.39997 36.1174 3.0625 35.3026 3.0625 34.4531C2.64575 35.0071 2.42086 35.6818 2.42188 36.375C2.42188 37.2245 2.75935 38.0392 3.36005 38.64C3.96075 39.2407 4.77548 39.5781 5.625 39.5781H14.5938C15.4433 39.5781 16.258 39.2407 16.8587 38.64C17.4594 38.0392 17.7969 37.2245 17.7969 36.375C17.4988 36.7731 17.1119 37.0962 16.6671 37.3186C16.2223 37.541 15.7317 37.6566 15.2344 37.6562Z" fill="#B7B7B7"/>
<path d="M5.625 33.1719C4.77548 33.1719 3.96075 33.5093 3.36005 34.11C2.75935 34.7108 2.42188 35.5255 2.42188 36.375C2.42188 37.2245 2.75935 38.0392 3.36005 38.64C3.96075 39.2407 4.77548 39.5781 5.625 39.5781H10.1094V33.1719H5.625Z" fill="#F44A2A"/>
<path d="M5.625 33.1719C4.77548 33.1719 3.96075 33.5093 3.36005 34.11C2.75935 34.7108 2.42188 35.5255 2.42188 36.375C2.42188 37.2245 2.75935 38.0392 3.36005 38.64C3.96075 39.2407 4.77548 39.5781 5.625 39.5781H10.1094V33.1719H5.625Z" fill="#F44A2A"/>
<path d="M6.26563 37.6562C5.41611 37.6562 4.60138 37.3188 4.00068 36.7181C3.39997 36.1174 3.0625 35.3026 3.0625 34.4531C2.70559 34.929 2.48824 35.4949 2.43482 36.0873C2.3814 36.6798 2.49401 37.2754 2.76004 37.8075C3.02607 38.3395 3.435 38.787 3.94102 39.0997C4.44704 39.4125 5.03014 39.5781 5.625 39.5781H10.1094V37.6562H6.26563Z" fill="#CE3521"/>
<path d="M12.0312 19.0781C9.96606 18.3271 8.18201 16.9588 6.92132 15.1589C5.66063 13.359 4.98438 11.2148 4.98438 9.01727V4.98438L12.0312 2.42188L19.0781 4.98438V9.01727C19.0781 11.2148 18.4019 13.359 17.1412 15.1589C15.8805 16.9588 14.0964 18.3271 12.0312 19.0781Z" fill="#77D5D8"/>
<path d="M12.0312 2.42188V19.0781C14.0964 18.3272 15.8805 16.9589 17.1412 15.159C18.4019 13.3591 19.0781 11.2148 19.0781 9.01735V4.98438L12.0312 2.42188Z" fill="#3B9DAF"/>
<path d="M16.5156 9.46875H13.9531V6.90625H11.3906V9.46875H8.82812V12.0312H11.3906V14.5938H13.9531V12.0312H16.5156V9.46875Z" fill="#4ABDCC"/>
<path d="M15.875 8.82812H13.3125V6.26562H10.75V8.82812H8.1875V11.3906H10.75V13.9531H13.3125V11.3906H15.875V8.82812Z" fill="#F44A2A"/>
<path d="M28.0469 13.3125H35.7344V19.0781H28.0469V13.3125Z" fill="#F7B023"/>
<path d="M28.0469 13.3125V15.2344H32.5312V19.0781H35.7344V13.3125H28.0469Z" fill="#F99321"/>
<path d="M37.0827 17.7969H26.6986C25.3204 17.7969 24.2031 18.9141 24.2031 20.2923V35.8014C24.2031 37.1796 25.3204 38.2969 26.6986 38.2969H37.0827C38.4609 38.2969 39.5781 37.1796 39.5781 35.8014V20.2923C39.5781 18.9141 38.4609 17.7969 37.0827 17.7969Z" fill="#F7CE23"/>
<path d="M37.0827 17.7969H35.0938V30.6764C35.0938 31.0041 35.0292 31.3286 34.9038 31.6314C34.7784 31.9341 34.5946 32.2092 34.3628 32.441C34.1311 32.6727 33.856 32.8565 33.5533 32.9819C33.2505 33.1073 32.926 33.1719 32.5983 33.1719H24.2031V35.8014C24.2031 36.4632 24.466 37.098 24.934 37.566C25.402 38.034 26.0368 38.2969 26.6986 38.2969H37.0827C37.7445 38.2969 38.3792 38.034 38.8472 37.566C39.3152 37.098 39.5781 36.4632 39.5781 35.8014V20.2923C39.5781 19.6305 39.3152 18.9958 38.8472 18.5278C38.3792 18.0598 37.7445 17.7969 37.0827 17.7969Z" fill="#F7B023"/>
<path d="M24.2031 22.2812H39.5781V31.25H24.2031V22.2812Z" fill="#066991"/>
<path d="M26.7656 10.1094H37.0156V13.9531H26.7656V10.1094Z" fill="#F9E48C"/>
<path d="M28.6875 10.1094H29.9688V13.9531H28.6875V10.1094ZM31.25 10.1094H32.5312V13.9531H31.25V10.1094ZM33.8125 12.0312H35.0938V13.9531H33.8125V12.0312Z" fill="#F7CE23"/>
<path d="M23.2005 23.2194C22.5998 22.6187 21.785 22.2813 20.9355 22.2813C20.086 22.2813 19.2713 22.6187 18.6706 23.2194L15.4995 26.3905L20.0294 30.9204L23.2005 27.7493C23.8012 27.1486 24.1386 26.3339 24.1386 25.4844C24.1386 24.6349 23.8012 23.8201 23.2005 23.2194Z" fill="#1DBF5E"/>
<path d="M23.2006 23.2194C23.0089 23.0275 22.7936 22.8607 22.56 22.723C22.8746 23.3274 22.9883 24.0164 22.8846 24.6899C22.7809 25.3634 22.4652 25.9863 21.9834 26.4681L18.7803 29.6713L20.0295 30.9205L23.2006 27.7494C23.498 27.4519 23.734 27.0988 23.8949 26.7102C24.0559 26.3216 24.1388 25.9051 24.1388 25.4844C24.1388 25.0638 24.0559 24.6472 23.8949 24.2586C23.734 23.87 23.498 23.5169 23.2006 23.2194Z" fill="#16994A"/>
<path d="M24.2031 35.8014C24.2031 36.4632 24.466 37.098 24.934 37.566C25.402 38.034 26.0368 38.2969 26.6986 38.2969H37.0827C37.7445 38.2969 38.3792 38.034 38.8472 37.566C39.3152 37.098 39.5781 36.4632 39.5781 35.8014V35.7344H24.2031V35.8014Z" fill="#F99321"/>
<path d="M24.2031 22.2812H35.0938V31.25H24.2031V22.2812Z" fill="#77D5D8"/>
<path d="M35.0938 26.7656H33.1719V24.8438H31.8906V26.7656H29.9688V28.0469H31.8906V29.9688H33.1719V28.0469H35.0938V26.7656Z" fill="#4ABDCC"/>
<path d="M34.4531 26.125H32.5312V24.2031H31.25V26.125H29.3281V27.4062H31.25V29.3281H32.5312V27.4062H34.4531V26.125Z" fill="white"/>
<path d="M14.5938 36.375H12.0312C11.6774 36.375 11.3906 36.6618 11.3906 37.0156C11.3906 37.3694 11.6774 37.6562 12.0312 37.6562H14.5938C14.9476 37.6562 15.2344 37.3694 15.2344 37.0156C15.2344 36.6618 14.9476 36.375 14.5938 36.375Z" fill="white"/>
<path d="M7.54688 36.375H6.26562C5.91182 36.375 5.625 36.6618 5.625 37.0156C5.625 37.3694 5.91182 37.6562 6.26562 37.6562H7.54688C7.90068 37.6562 8.1875 37.3694 8.1875 37.0156C8.1875 36.6618 7.90068 36.375 7.54688 36.375Z" fill="white"/>
<path d="M20.814 25.0535L19.9081 25.9595C19.6579 26.2097 19.6579 26.6153 19.9081 26.8655C20.1582 27.1157 20.5639 27.1157 20.814 26.8655L21.72 25.9595C21.9702 25.7093 21.9702 25.3037 21.72 25.0535C21.4698 24.8034 21.0642 24.8034 20.814 25.0535Z" fill="white"/>
<path d="M4.98438 37.0156C5.33818 37.0156 5.625 36.7288 5.625 36.375C5.625 36.0212 5.33818 35.7344 4.98438 35.7344C4.63057 35.7344 4.34375 36.0212 4.34375 36.375C4.34375 36.7288 4.63057 37.0156 4.98438 37.0156Z" fill="white"/>
<path d="M22.1001 24.6709C22.4539 24.6709 22.7407 24.3841 22.7407 24.0302C22.7407 23.6764 22.4539 23.3896 22.1001 23.3896C21.7463 23.3896 21.4595 23.6764 21.4595 24.0302C21.4595 24.3841 21.7463 24.6709 22.1001 24.6709Z" fill="white"/>
</svg>
